<?xml version="1.0" encoding="UTF-8" standalone="no"?>
<!-- Created with Inkscape (http://www.inkscape.org/) -->

<svg
   width="95"
   height="155"
   viewBox="0 0 25.135416 41.010416"
   version="1.1"
   id="svg4200"
   inkscape:version="1.2 (dc2aedaf03, 2022-05-15)"
   sodipodi:docname="back car 1.svg"
   inkscape:export-filename="..\Gus veut boire un coup\bank\image\lvl6\back_suv_red.png"
   inkscape:export-xdpi="96"
   inkscape:export-ydpi="96"
   xmlns:inkscape="http://www.inkscape.org/namespaces/inkscape"
   xmlns:sodipodi="http://sodipodi.sourceforge.net/DTD/sodipodi-0.dtd"
   xmlns="http://www.w3.org/2000/svg"
   xmlns:svg="http://www.w3.org/2000/svg">
  <sodipodi:namedview
     id="namedview4202"
     pagecolor="#ffffff"
     bordercolor="#666666"
     borderopacity="1.0"
     inkscape:showpageshadow="2"
     inkscape:pageopacity="0.0"
     inkscape:pagecheckerboard="0"
     inkscape:deskcolor="#d1d1d1"
     inkscape:document-units="mm"
     showgrid="false"
     inkscape:zoom="2.993266"
     inkscape:cx="103.73285"
     inkscape:cy="80.012936"
     inkscape:window-width="1920"
     inkscape:window-height="1001"
     inkscape:window-x="-9"
     inkscape:window-y="-9"
     inkscape:window-maximized="1"
     inkscape:current-layer="layer1" />
  <defs
     id="defs4197" />
  <g
     inkscape:label="Calque 1"
     inkscape:groupmode="layer"
     id="layer1">
    <path
       id="rect5846"
       style="stroke-width:0.264583"
       d="M 0.41442362,34.177448 H 6.0703465 v 6.549264 c -1.6492272,0.166461 -3.1740241,0.116479 -5.65592288,0 z"
       sodipodi:nodetypes="ccccc"
       inkscape:export-filename="..\Gus veut boire un coup\bank\image\lvl6\back_suv_green.png"
       inkscape:export-xdpi="96"
       inkscape:export-ydpi="96" />
    <path
       id="rect5846-7"
       style="stroke-width:0.264583"
       d="m 19.128771,34.177448 h 5.655921 v 6.549264 c -1.649227,0.166461 -3.174023,0.116479 -5.655921,0 z"
       sodipodi:nodetypes="ccccc" />
    <path
       id="rect5657"
       style="fill:#d40000;stroke-width:0.264583"
       d="M 0.61196098,27.332503 H 24.784691 c -0.319431,4.028655 1.49987,8.918739 -0.958294,12.085962 L 1.3649072,39.346095 C -1.2551623,35.099164 0.72324733,31.32274 0.61196098,27.332503 Z"
       sodipodi:nodetypes="ccccc" />
    <path
       id="rect5660"
       style="fill:#00ffff;fill-opacity:0.931624;stroke-width:0.264583"
       d="M 2.1752713,28.45735 23.047704,28.36706 c 1.321841,1.180057 0.816367,2.957254 1.163643,4.455787 L 0.91998435,32.688629 C 1.1186421,31.437716 1.2200312,29.863733 2.1752713,28.45735 Z"
       sodipodi:nodetypes="ccccc" />
    <path
       id="rect6429"
       style="fill:#808080;fill-opacity:0.737892;stroke-width:0.264583"
       d="m 1.2191042,32.377064 22.8040198,-6.3e-4 0.188223,0.04222 c -7.735529,0.0019 -15.6224412,-10e-4 -23.29136265,-0.0028 z"
       sodipodi:nodetypes="ccccc" />
    <path
       id="path5715"
       style="fill:#ff0000;stroke-width:0.264583"
       d="m 2.6312257,35.275088 c 4.1041977,0.788852 0.040773,1.296333 -1.5572296,1.246802 -0.51951521,-0.0161 -0.94118308,-0.486647 -0.94118264,-1.086956 1.1e-7,-0.600307 -0.17755252,-1.182862 0.3422482,-1.182862 0.5198007,0 1.52668914,0.902027 2.15616404,1.023016 z"
       sodipodi:nodetypes="sssss" />
    <path
       id="path5715-9"
       style="fill:#ff0000;stroke-width:0.264583"
       d="m 22.504192,35.253668 c -4.104198,0.788853 -0.04077,1.296334 1.55723,1.246802 0.519515,-0.0161 0.941182,-0.486647 0.941182,-1.086955 0,-0.600308 0.177553,-1.182862 -0.342248,-1.182862 -0.519801,0 -1.526689,0.902026 -2.156164,1.023015 z"
       sodipodi:nodetypes="sssss" />
    <rect
       style="fill:#000000;fill-opacity:1;stroke-width:0.264583"
       id="rect5792"
       width="23.291361"
       height="0.25575393"
       x="0.91998446"
       y="38.043793" />
    <ellipse
       style="fill:#999999;fill-opacity:1;stroke-width:0.264583"
       id="path5923"
       cx="7.0741186"
       cy="39.238235"
       rx="0.52636319"
       ry="0.4577648" />
    <rect
       style="fill:#aa0000;fill-opacity:1;stroke-width:0.264583"
       id="rect6339-0-9"
       width="1.1919696"
       height="2.144038"
       x="-13.782552"
       y="0.041922085"
       transform="rotate(-90)" />
    <rect
       style="fill:#00ffff;fill-opacity:1;stroke-width:0.264583"
       id="rect6339-5"
       width="0.97320843"
       height="1.6865926"
       x="-13.673171"
       y="0.27064478"
       transform="rotate(-90)" />
    <rect
       style="fill:#aa0000;fill-opacity:1;stroke-width:0.264583"
       id="rect6339-0"
       width="1.1919696"
       height="2.144038"
       x="13.027666"
       y="-24.784691"
       transform="rotate(90)" />
    <rect
       style="fill:#00ffff;fill-opacity:1;stroke-width:0.264583"
       id="rect6339"
       width="0.97320843"
       height="1.6865926"
       x="13.137047"
       y="-24.618471"
       transform="rotate(90)" />
    <path
       id="rect5977"
       style="fill:#d40000;stroke-width:0.264583"
       d="m 1.5942188,11.948683 c 4.741795,-1.133417 17.7704292,-1.369861 22.2391672,0.0534 l 0.951305,15.33042 H 0.61195932 Z"
       sodipodi:nodetypes="ccccc" />
    <path
       id="rect5977-6"
       style="fill:#d40000;stroke-width:0.264583"
       d="M 3.5073537,10.234728 C 9.2507667,9.4277034 16.456912,9.4423574 21.869592,10.455757 l 2.162512,4.94549 -22.6675573,0.144484 z"
       sodipodi:nodetypes="ccccc" />
    <path
       id="rect7266"
       style="fill:#333333;fill-opacity:0.814815;stroke-width:0.264583"
       d="M 2.7356459,28.417465 H 22.102079 c 0.899425,1.348666 1.953411,2.871431 2.109268,4.354976 H 0.91998435 C 1.0374387,31.445748 2.2192835,29.88179 2.7356459,28.417465 Z"
       sodipodi:nodetypes="ccccc" />
    <ellipse
       style="fill:#808080;fill-opacity:0.737892;stroke-width:0.264583"
       id="path7210"
       cx="7.3283467"
       cy="31.496405"
       rx="3.1058152"
       ry="0.90145254" />
    <ellipse
       style="fill:#808080;fill-opacity:0.737892;stroke-width:0.264583"
       id="path7212"
       cx="18.111818"
       cy="31.485695"
       rx="3.2281039"
       ry="0.89074063" />
    <rect
       style="fill:#cccccc;fill-opacity:0.814815;stroke-width:0.264583"
       id="rect7321"
       width="0.41141033"
       height="0.9448393"
       x="12.761313"
       y="34.175514" />
    <rect
       style="fill:#aa8800;fill-opacity:0.814815;stroke-width:0.264583"
       id="rect7321-4"
       width="0.38720968"
       height="0.9448393"
       x="-12.761313"
       y="34.175514"
       transform="scale(-1,1)" />
  </g>
</svg>
