<?xml version="1.0" encoding="UTF-8" standalone="no"?>
<!-- Created with Inkscape (http://www.inkscape.org/) -->

<svg
   width="95"
   height="155"
   viewBox="0 0 25.135416 41.010416"
   version="1.1"
   id="svg4200"
   inkscape:version="1.2 (dc2aedaf03, 2022-05-15)"
   sodipodi:docname="back car 2.svg"
   inkscape:export-filename="..\Gus veut boire un coup\bank\image\lvl6\back_car_green.png"
   inkscape:export-xdpi="96"
   inkscape:export-ydpi="96"
   xmlns:inkscape="http://www.inkscape.org/namespaces/inkscape"
   xmlns:sodipodi="http://sodipodi.sourceforge.net/DTD/sodipodi-0.dtd"
   xmlns="http://www.w3.org/2000/svg"
   xmlns:svg="http://www.w3.org/2000/svg">
  <sodipodi:namedview
     id="namedview4202"
     pagecolor="#ffffff"
     bordercolor="#666666"
     borderopacity="1.0"
     inkscape:showpageshadow="2"
     inkscape:pageopacity="0.0"
     inkscape:pagecheckerboard="0"
     inkscape:deskcolor="#d1d1d1"
     inkscape:document-units="mm"
     showgrid="false"
     inkscape:zoom="1.496633"
     inkscape:cx="168.04387"
     inkscape:cy="34.410574"
     inkscape:window-width="1920"
     inkscape:window-height="1001"
     inkscape:window-x="-9"
     inkscape:window-y="-9"
     inkscape:window-maximized="1"
     inkscape:current-layer="layer1" />
  <defs
     id="defs4197" />
  <g
     inkscape:label="Calque 1"
     inkscape:groupmode="layer"
     id="layer1">
    <path
       id="rect5846"
       style="stroke-width:0.264583"
       d="M 0.41442362,34.177448 H 6.0703465 v 6.549264 c -1.6492272,0.166461 -3.1740241,0.116479 -5.65592288,0 z"
       sodipodi:nodetypes="ccccc"
       inkscape:export-filename="..\Gus veut boire un coup\bank\image\lvl6\back_suv_green.png"
       inkscape:export-xdpi="96"
       inkscape:export-ydpi="96" />
    <path
       id="rect5846-7"
       style="stroke-width:0.264583"
       d="m 19.128771,34.177448 h 5.655921 v 6.549264 c -1.649227,0.166461 -3.174023,0.116479 -5.655921,0 z"
       sodipodi:nodetypes="ccccc" />
    <path
       id="rect5657"
       style="fill:#55d400;stroke-width:0.264583"
       d="M 1.7168717,31.358825 H 24.211345 c -0.544394,-0.575418 2.07233,5.934694 -0.384948,8.05964 L 1.3649072,39.370205 c -2.64209,-2.999463 -0.039037,-9.167841 0.3519645,-8.01138 z"
       sodipodi:nodetypes="ccccc" />
    <path
       id="rect11599"
       style="fill:#00ffff;stroke-width:0.264583"
       d="m 2.7218631,16.771784 18.9767149,0.182815 c 1.629134,5.010537 1.202352,7.807541 1.58213,12.818078 H 0.76373444 C 0.98509993,24.835578 1.587052,21.708883 2.7218631,16.771784 Z"
       sodipodi:nodetypes="ccccc" />
    <path
       id="rect11544"
       style="fill:#55d400;fill-opacity:1;stroke-width:0.264582"
       d="M 1.2126805,28.161391 H 23.991593 c 0.632027,1.535247 0.199687,3.890481 0.535388,6.040888 L 0.60843574,34.148749 c 0.3415231,-2.685979 0.1552987,-4.376072 0.60424476,-5.987358 z"
       sodipodi:nodetypes="ccccc" />
    <path
       id="rect5660"
       style="fill:#00ffff;fill-opacity:0.931624;stroke-width:0.264583"
       d="m 2.3911927,28.251677 20.1784683,-0.09029 c 1.277893,1.180057 0.789224,2.957254 1.124954,4.455787 L 1.1776413,32.482956 c 0.192053,-1.250913 0.2900711,-2.824896 1.2135514,-4.231279 z"
       sodipodi:nodetypes="ccccc" />
    <path
       id="rect6429"
       style="fill:#808080;fill-opacity:0.737892;stroke-width:0.264583"
       d="m 1.4668161,32.171391 22.0458339,-6.3e-4 0.181965,0.04222 c -7.478338,0.0019 -15.1030273,-10e-4 -22.5169737,-0.0028 z"
       sodipodi:nodetypes="ccccc" />
    <path
       id="path5715"
       style="fill:#ff0000;stroke-width:0.264583"
       d="M 4.2664936,34.177448 C 8.3706913,34.9663 2.6719987,36.571421 1.0739961,36.52189 0.55448089,36.50579 0.13281302,36.035243 0.13281346,35.434934 c 1.1e-7,-0.600307 -0.17755252,-1.182862 0.3422482,-1.182862 0.5198007,0 3.16195704,-0.195613 3.79143194,-0.07462 z"
       sodipodi:nodetypes="sssss" />
    <path
       id="path5715-9"
       style="fill:#ff0000;stroke-width:0.264583"
       d="m 20.515353,34.177448 c -4.104198,0.788853 1.329319,2.393973 2.927319,2.344441 0.519515,-0.0161 0.941182,-0.486647 0.941182,-1.086955 0,-0.600308 0.177553,-1.182862 -0.342248,-1.182862 -0.519801,0 -2.896778,-0.195613 -3.526253,-0.07462 z"
       sodipodi:nodetypes="sssss" />
    <rect
       style="fill:#000000;fill-opacity:1;stroke-width:0.264583"
       id="rect5792"
       width="23.291361"
       height="0.25575393"
       x="0.91998446"
       y="38.043793" />
    <ellipse
       style="fill:#999999;fill-opacity:1;stroke-width:0.264583"
       id="path5923"
       cx="7.0741186"
       cy="39.238235"
       rx="0.52636319"
       ry="0.4577648" />
    <path
       id="rect5977"
       style="fill:#55d400;stroke-width:0.264583"
       d="M 2.1383015,17.924196 C 6.6066806,17.169962 18.884074,17.01262 23.095139,17.959736 l 0.896454,10.201655 c -6.404472,-0.02927 -12.980431,0.142198 -22.7789125,0 z"
       sodipodi:nodetypes="ccccc" />
    <rect
       style="fill:#55d400;fill-opacity:1;stroke-width:0.264583"
       id="rect6339-0-9"
       width="1.1919696"
       height="2.3619456"
       x="-18.93294"
       y="0.031707563"
       transform="rotate(-90)" />
    <rect
       style="fill:#55d400;fill-opacity:1;stroke-width:0.264583"
       id="rect6339-0"
       width="1.1919696"
       height="2.3619456"
       x="17.850351"
       y="-25.103708"
       transform="rotate(90)" />
    <path
       id="rect5977-6"
       style="fill:#55d400;stroke-width:0.264583"
       d="m 4.9332064,12.613937 c 5.7720016,-0.681216 10.7073496,-0.825104 16.1469716,0.03032 0.858759,1.48676 1.481997,3.606012 1.98241,6.288684 L 2.1416847,18.823558 c 0.5439539,-2.784395 1.0309709,-5.482496 2.7915217,-6.209621 z"
       sodipodi:nodetypes="ccccc" />
    <rect
       style="fill:#00ffff;fill-opacity:1;stroke-width:0.264583"
       id="rect6339-5"
       width="0.97320843"
       height="1.858008"
       x="-18.823559"
       y="0.28367639"
       transform="rotate(-90)" />
    <rect
       style="fill:#00ffff;fill-opacity:1;stroke-width:0.264583"
       id="rect6339"
       width="0.97320843"
       height="1.858008"
       x="17.959732"
       y="-24.920595"
       transform="rotate(90)" />
    <path
       id="rect7266"
       style="fill:#333333;fill-opacity:0.814815;stroke-width:0.264583"
       d="M 2.9329363,28.211792 H 21.655476 c 0.869521,1.348666 1.888464,2.871431 2.039139,4.354976 H 1.1776413 c 0.1135498,-1.326693 1.256101,-2.890651 1.755295,-4.354976 z"
       sodipodi:nodetypes="ccccc" />
    <ellipse
       style="fill:#808080;fill-opacity:0.737892;stroke-width:0.264583"
       id="path7210"
       cx="7.3729377"
       cy="31.290731"
       rx="3.0025535"
       ry="0.90145254" />
    <ellipse
       style="fill:#808080;fill-opacity:0.737892;stroke-width:0.264583"
       id="path7212"
       cx="17.797884"
       cy="31.280022"
       rx="3.1207762"
       ry="0.89074063" />
    <rect
       style="fill:#cccccc;fill-opacity:0.814815;stroke-width:0.264583"
       id="rect7321"
       width="0.41141033"
       height="0.9448393"
       x="12.761313"
       y="34.175514" />
    <rect
       style="fill:#aa8800;fill-opacity:0.814815;stroke-width:0.264583"
       id="rect7321-4"
       width="0.38720968"
       height="0.9448393"
       x="-12.761313"
       y="34.175514"
       transform="scale(-1,1)" />
    <rect
       style="fill:#d40000;fill-opacity:1;stroke-width:0.264583"
       id="rect11654"
       width="0.42318365"
       height="0.50974309"
       x="21.833687"
       y="-1.9681274"
       transform="rotate(90)" />
    <rect
       style="fill:#d40000;fill-opacity:1;stroke-width:0.264583"
       id="rect11654-0"
       width="0.42318365"
       height="0.19837712"
       x="21.833687"
       y="-23.530727"
       transform="rotate(90)" />
    <path
       id="rect11799"
       style="fill:#00ffff;stroke-width:0.264583"
       d="M 2.8358143,16.771784 C 9.2265084,16.595669 15.617202,16.621438 22.007897,16.793564 L 22.604054,17.115635 2.60022,17.058365 Z"
       sodipodi:nodetypes="ccccc" />
    <ellipse
       style="fill:#deaa87;fill-opacity:1;stroke-width:0.264583"
       id="path11854"
       cx="13.215887"
       cy="13.017493"
       rx="0.6137504"
       ry="0.38409975" />
  </g>
</svg>
