<?xml version="1.0" encoding="UTF-8" standalone="no"?>
<!-- Created with Inkscape (http://www.inkscape.org/) -->

<svg
   width="95"
   height="155"
   viewBox="0 0 25.135416 41.010416"
   version="1.1"
   id="svg4200"
   inkscape:version="1.2 (dc2aedaf03, 2022-05-15)"
   sodipodi:docname="back bus.svg"
   inkscape:export-filename="..\Gus veut boire un coup\bank\image\lvl6\back_car_green.png"
   inkscape:export-xdpi="96"
   inkscape:export-ydpi="96"
   xmlns:inkscape="http://www.inkscape.org/namespaces/inkscape"
   xmlns:sodipodi="http://sodipodi.sourceforge.net/DTD/sodipodi-0.dtd"
   xmlns="http://www.w3.org/2000/svg"
   xmlns:svg="http://www.w3.org/2000/svg">
  <sodipodi:namedview
     id="namedview4202"
     pagecolor="#ffffff"
     bordercolor="#666666"
     borderopacity="1.0"
     inkscape:showpageshadow="2"
     inkscape:pageopacity="0.0"
     inkscape:pagecheckerboard="0"
     inkscape:deskcolor="#d1d1d1"
     inkscape:document-units="mm"
     showgrid="false"
     inkscape:zoom="2.1165587"
     inkscape:cx="45.592877"
     inkscape:cy="116.46263"
     inkscape:window-width="1920"
     inkscape:window-height="1001"
     inkscape:window-x="-9"
     inkscape:window-y="-9"
     inkscape:window-maximized="1"
     inkscape:current-layer="layer1" />
  <defs
     id="defs4197" />
  <g
     inkscape:label="Calque 1"
     inkscape:groupmode="layer"
     id="layer1">
    <path
       id="rect12871"
       style="fill:#000080;stroke-width:0.264582"
       d="M 0.86498033,0.87823899 C 10.359173,-0.22146682 19.853365,-0.38988324 29.347558,0.95807765 L 30.169343,52.523645 H 0.01668579 Z"
       sodipodi:nodetypes="ccccc"
       inkscape:export-filename="..\Gus veut boire un coup\bank\image\lvl6\back_bus.png"
       inkscape:export-xdpi="96"
       inkscape:export-ydpi="96" />
    <rect
       style="fill:#333333;fill-opacity:1;stroke-width:0.264582"
       id="rect13983"
       width="2.8005164"
       height="7.1808763"
       x="0.48898008"
       y="66.902443" />
    <rect
       style="fill:#333333;fill-opacity:1;stroke-width:0.264582"
       id="rect13983-8"
       width="2.8005164"
       height="7.1808763"
       x="3.4900851"
       y="66.902443" />
    <rect
       style="fill:#333333;fill-opacity:1;stroke-width:0.264582"
       id="rect13983-5"
       width="2.8005164"
       height="7.1808763"
       x="24.06842"
       y="66.902443" />
    <rect
       style="fill:#333333;fill-opacity:1;stroke-width:0.264582"
       id="rect13983-8-3"
       width="2.8005164"
       height="7.1808763"
       x="27.069525"
       y="66.902443" />
    <path
       id="rect12926"
       style="fill:#000080;stroke-width:0.264582"
       d="M 0.01668579,52.523645 H 30.169343 c -0.2005,6.729303 0.831776,18.608119 -0.599836,20.14767 L 0.48530677,72.723037 C -0.53766906,65.989904 0.16096222,59.256774 0.01668579,52.523645 Z"
       sodipodi:nodetypes="ccccc" />
    <rect
       style="fill:#00ffff;fill-opacity:0.683761;stroke-width:0.264582"
       id="rect12929"
       width="27.622591"
       height="6.120995"
       x="1.1830909"
       y="54.912262" />
    <path
       id="path13035"
       style="fill:#ff0000;stroke-width:0.264582"
       d="m 1.1830907,67.222772 c 1e-7,2.115262 0.7621062,2.548707 0.4107313,2.548707 -0.3513752,0 -1.10484193,-0.753773 -1.10484193,-2.869034 0,-2.115263 -0.29624415,-5.489909 0.055131,-5.489909 0.35137509,0 0.63897973,3.694975 0.63897963,5.810236 z"
       sodipodi:nodetypes="sssss" />
    <path
       id="path13035-3"
       style="fill:#ff0000;stroke-width:0.264582"
       d="m 29.235114,67.222772 c 0,2.115262 -0.762105,2.548707 -0.410733,2.548707 0.351375,0 1.104842,-0.753773 1.104842,-2.869034 0,-2.115263 0.296243,-5.489909 -0.05514,-5.489909 -0.351375,0 -0.638981,3.694975 -0.638981,5.810236 z"
       sodipodi:nodetypes="sssss" />
    <rect
       style="fill:#ffffff;fill-opacity:1;stroke-width:0.264582"
       id="rect13060"
       width="11.31943"
       height="5.8479891"
       x="16.001734"
       y="63.421875" />
    <rect
       style="fill:#ffff00;fill-opacity:1;stroke-width:0.264582"
       id="rect13840"
       width="3.9498718"
       height="5.8479891"
       x="16.001734"
       y="63.421867" />
    <rect
       style="fill:#333333;fill-opacity:1;stroke-width:0.264582"
       id="rect13894"
       width="9.6493502"
       height="0.43242186"
       x="3.0387352"
       y="63.421867" />
    <rect
       style="fill:#333333;fill-opacity:1;stroke-width:0.264582"
       id="rect13894-1"
       width="9.6493502"
       height="0.43242186"
       x="3.0387352"
       y="64.214653" />
    <rect
       style="fill:#333333;fill-opacity:1;stroke-width:0.264582"
       id="rect13894-5"
       width="9.6493502"
       height="0.43242186"
       x="3.0387352"
       y="65.161858" />
    <rect
       style="fill:#b3b3b3;fill-opacity:1;stroke-width:0.264582"
       id="rect14056"
       width="7.7977409"
       height="7.4549232"
       x="4.8903437"
       y="3.494509" />
  </g>
</svg>
