<?xml version="1.0" encoding="UTF-8" standalone="no"?>
<!-- Created with Inkscape (http://www.inkscape.org/) -->

<svg
   width="210mm"
   height="297mm"
   viewBox="0 0 210 297"
   version="1.1"
   id="svg10607"
   inkscape:version="1.1 (c68e22c387, 2021-05-23)"
   sodipodi:docname="bassiste.svg"
   inkscape:export-filename="C:\Users\basti\OneDrive\Bureau\Gus veut boire un coup\bank\pnj\bassiste0.png"
   inkscape:export-xdpi="5.2576323"
   inkscape:export-ydpi="5.2576323"
   xmlns:inkscape="http://www.inkscape.org/namespaces/inkscape"
   xmlns:sodipodi="http://sodipodi.sourceforge.net/DTD/sodipodi-0.dtd"
   xmlns="http://www.w3.org/2000/svg"
   xmlns:svg="http://www.w3.org/2000/svg">
  <sodipodi:namedview
     id="namedview10609"
     pagecolor="#ffffff"
     bordercolor="#666666"
     borderopacity="1.0"
     inkscape:pageshadow="2"
     inkscape:pageopacity="0.0"
     inkscape:pagecheckerboard="0"
     inkscape:document-units="mm"
     showgrid="false"
     inkscape:zoom="0.7465348"
     inkscape:cx="602.78503"
     inkscape:cy="474.86065"
     inkscape:window-width="1920"
     inkscape:window-height="1001"
     inkscape:window-x="-9"
     inkscape:window-y="-9"
     inkscape:window-maximized="1"
     inkscape:current-layer="layer1" />
  <defs
     id="defs10604" />
  <g
     inkscape:label="Calque 1"
     inkscape:groupmode="layer"
     id="layer1">
    <path
       id="path11385-4-1-1-5-2-8"
       style="fill:#000000;stroke-width:0.548396"
       d="m 80.355448,277.44177 c 0,11.7955 9.769414,17.32807 38.400552,17.32807 28.63081,0 39.36053,-5.53257 39.36053,-17.32807 0,-11.79538 -11.20979,-16.92479 -39.84059,-16.92479 -28.630989,0 -37.920492,5.12941 -37.920492,16.92479 z"
       sodipodi:nodetypes="sssss" />
    <path
       id="path11724-0-2-14-2-8-2"
       style="fill:#1a1a1a;stroke-width:0.398876"
       d="m 96.98399,287.22825 c 0.304906,2.29297 4.43513,3.84884 29.73131,1.8742 25.29567,-1.97477 30.34643,-4.24729 30.04151,-6.54038 -0.30491,-2.29323 -5.12631,1.70353 -30.42199,3.67817 -25.29618,1.97476 -29.655404,-1.30407 -29.35083,0.98789 z"
       sodipodi:nodetypes="sssss" />
    <path
       id="path11385-4-04-45-3-8-6"
       style="fill:#000000;stroke-width:0.548396"
       d="m 26.149394,279.3472 c 0,11.79537 11.596722,17.32781 45.581707,17.32781 33.985149,0 46.721309,-5.53244 46.721309,-17.32781 0,-11.79563 -13.30587,-16.92492 -47.291026,-16.92492 -33.985152,0 -45.01199,5.12929 -45.01199,16.92492 z"
       sodipodi:nodetypes="sssss" />
    <rect
       style="fill:#000000;fill-opacity:1;stroke-width:0.264583"
       id="rect12969-1-0"
       width="79.934792"
       height="28.683739"
       x="-108.23979"
       y="212.01695"
       transform="scale(-1,1)" />
    <path
       id="rect10620-3-0-1-1"
       style="fill:#000028;fill-opacity:1;stroke-width:0.46238"
       d="m 143.29172,245.14832 c -1.4649,-69.22795 -76.246798,-60.09379 -76.363796,0.29713 -0.250229,-2.13603 3.554862,11.85213 4.621721,20.95278 l 63.342775,-4.11499 z"
       sodipodi:nodetypes="ccccc" />
    <path
       id="rect10620-1-8-9-9-7"
       style="fill:#00003c;fill-opacity:1;stroke-width:0.398876"
       d="M 102.79342,248.5766 C 91.3344,178.0395 28.582386,188.66999 27.592087,249.17086 l 3.587014,19.15781 67.347877,0.29714 z"
       sodipodi:nodetypes="ccccc" />
    <path
       id="path4257-0-5-6-5-0-3-4"
       style="fill:#000055;fill-opacity:1;stroke-width:0.218812"
       d="m 139.55092,157.45318 c -0.28004,6.55194 3.81256,9.41669 -4.22864,7.93041 0,0 -4.81561,-12.08069 -4.49694,-23.12588 0.2088,-6.86012 10.39597,-23.9967 9.69053,-7.44447 z"
       sodipodi:nodetypes="sssss" />
    <ellipse
       style="fill:#deaa87;stroke-width:0.148272"
       id="path9819-9-7-8-8-0-4"
       cx="-133.67976"
       cy="205.32587"
       rx="7.1103182"
       ry="5.4689283"
       transform="scale(-1,1)" />
    <path
       id="path6217-9-9-5-1"
       style="fill:#005522;stroke-width:0.398876"
       d="m 131.07236,144.91143 c -30.08422,45.82347 -1.5562,52.93592 45.61792,54.75957 30.81017,1.19107 18.45052,-7.15129 18.45052,-41.51919 0,-24.00394 -15.06232,-44.6149 -35.59388,-44.6149 -20.5314,0 -15.23946,11.21484 -28.47456,31.37452 z"
       sodipodi:nodetypes="sssss" />
    <path
       id="rect21874-0-5-4-1"
       style="fill:#005522;stroke-width:0.264583"
       d="m 141.5476,174.16565 -118.037011,7.01288 c 0.492166,10.10454 -8.143278,39.41172 -2.478894,42.50566 52.643552,8.92719 85.192795,11.8873 129.978255,0.10151 0,-7.78845 6.18688,-41.83674 -9.46269,-49.62521 z"
       sodipodi:nodetypes="cccccc" />
    <path
       id="rect8523-7-3-4-8"
       style="fill:#005522;stroke-width:0.376888"
       d="m 171.11683,125.23681 -129.022087,-11.1125 -22.347319,13.53142 -6.046849,70.79195 161.478045,0.5841 z"
       sodipodi:nodetypes="cccccc" />
    <path
       id="path12953"
       style="fill:#1a1a1a;stroke-width:0.264583"
       d="m 123.78678,238.98736 c -15.80045,25.23262 -40.57917,26.53504 -67.89755,19.56528 -14.43268,-3.68223 -29.04,-20.93793 -38.64254,-39.91556 -4.73724,-9.36226 4.8469,-25.09873 8.70912,-34.72873 5.20303,-12.97314 35.61863,9.34778 53.78998,-8.53106 24.19827,-23.80878 87.94441,-23.62106 62.95334,-2.78682 -36.96467,30.81623 7.93727,36.91297 22.79365,54.43289 7.5989,8.96127 -36.06421,2.95433 -41.706,11.964 z"
       sodipodi:nodetypes="ssssssss" />
    <path
       id="path14267"
       style="fill:#f9f9f9;stroke-width:0.264583"
       d="m 151.00995,223.7857 c -23.3193,0.37661 -78.78897,33.28017 -94.71204,25.80156 -20.37455,-9.56936 -30.39765,-29.67662 -23.47507,-42.73319 6.92257,-13.05657 54.26559,-26.31941 48.54392,-4.54884 -9.42496,35.86136 84.41924,21.24183 69.64319,21.48047 z"
       sodipodi:nodetypes="sssss" />
    <path
       id="path14675"
       style="stroke-width:0.264583"
       d="m 290.1424,131.8287 c -0.65746,8.39102 -6.80299,9.62264 -20.10727,14.56037 -13.30427,4.93773 -25.14318,11.21154 -28.07176,3.32073 -2.92859,-7.89081 4.81443,-25.70938 18.78685,-23.22813 24.05138,4.2711 29.78731,0.30419 29.39218,5.34703 z"
       sodipodi:nodetypes="sssss" />
    <ellipse
       style="fill:#a05a2c;stroke-width:0.148272"
       id="path9819-9-7-8-1-9"
       cx="-44.626892"
       cy="226.43507"
       rx="7.1103182"
       ry="5.4689283"
       transform="scale(-1,1)" />
    <rect
       style="fill:#f4e3d7;stroke-width:0.264583"
       id="rect13816"
       width="14.885442"
       height="206.62411"
       x="219.543"
       y="-178.38638"
       transform="rotate(68.286299)" />
    <rect
       style="fill:#4d4d4d;stroke-width:0.264583"
       id="rect13974"
       width="4.2529836"
       height="35.087109"
       x="-17.310484"
       y="209.62866"
       transform="rotate(-21.140491)" />
    <rect
       style="fill:#d3bc5f;stroke-width:0.264601"
       id="rect15030"
       width="234.19676"
       height="0.70922309"
       x="-22.337255"
       y="221.25002"
       transform="matrix(0.93212321,-0.36214129,0.34644365,0.93807079,0,0)" />
    <rect
       style="fill:#000000;fill-opacity:1;stroke-width:0.264583"
       id="rect12931-8-7-6"
       width="3.0040834"
       height="22.109346"
       x="-127.85898"
       y="140.90253"
       transform="scale(-1,1)" />
    <rect
       style="fill:#d3bc5f;stroke-width:0.264601"
       id="rect15030-3"
       width="234.19676"
       height="0.70922309"
       x="-22.538763"
       y="224.4485"
       transform="matrix(0.93212321,-0.36214129,0.34644365,0.93807079,0,0)" />
    <ellipse
       style="fill:#a05a2c;stroke-width:0.148272"
       id="path9819-9-7-8-1-9-0"
       cx="-179.43636"
       cy="165.40222"
       rx="7.1103182"
       ry="5.4689283"
       transform="scale(-1,1)" />
    <rect
       style="fill:#000000;fill-opacity:1;stroke-width:0.264583"
       id="rect12931-8-7-6-7"
       width="3.0040834"
       height="22.109346"
       x="-112.46452"
       y="142.5448"
       transform="scale(-1,1)" />
    <rect
       style="fill:#d3bc5f;stroke-width:0.264601"
       id="rect15030-2"
       width="234.19676"
       height="0.70922309"
       x="-22.229406"
       y="227.51028"
       transform="matrix(0.93212321,-0.36214129,0.34644365,0.93807079,0,0)" />
    <rect
       style="fill:#d3bc5f;stroke-width:0.264601"
       id="rect15030-37"
       width="234.19676"
       height="0.70922309"
       x="-22.475195"
       y="230.48796"
       transform="matrix(0.93212321,-0.36214129,0.34644365,0.93807079,0,0)" />
    <ellipse
       style="fill:#a05a2c;stroke-width:0.398876"
       id="path9819-8-8-8-2"
       cx="217.80029"
       cy="26.078726"
       rx="12.424772"
       ry="22.649157"
       transform="matrix(0,1,1,0,0,0)" />
    <path
       id="path6217-9-9-3-7-8-0"
       style="fill:#005522;stroke-width:0.398876"
       d="M 71.299868,169.37658 C 58.344655,222.13624 75.562088,250.12134 31.57445,220.1402 -0.16566708,198.50674 11.638085,195.71141 9.1571776,166.13706 7.1821494,142.59317 17.283985,120.45162 40.439321,120.45162 c 23.155344,0 37.157245,23.28187 30.860547,48.92496 z"
       sodipodi:nodetypes="sssss" />
    <ellipse
       style="fill:#a05a2c;stroke-width:0.398876"
       id="path9819-5-0-5-9-5"
       cx="184.3033"
       cy="180.94164"
       rx="12.424772"
       ry="19.641844"
       transform="matrix(0,1,1,0,0,0)" />
    <path
       id="path31-9-9-4-8-9"
       style="fill:#a05a2c;fill-opacity:1;fill-rule:evenodd;stroke-width:0.398876"
       d="M 180.98686,72.383694 C 178.29486,58.549942 198.53497,-4.9127099 96.338582,-0.91378907 11.848903,2.3923374 27.943822,69.593179 29.500732,74.378332 c 7.992415,24.564621 17.690535,62.770168 71.792158,69.517138 60.3042,7.52049 85.15535,-43.44644 79.69397,-71.511776 z"
       sodipodi:nodetypes="sssss" />
    <path
       id="rect1430-1-8-6-7-2"
       style="fill:#502d16;stroke-width:0.210089"
       d="m 89.826067,63.409151 17.820383,-0.184012 14.5262,3.841392 C 106.67786,66.09988 91.290954,64.800908 74.368239,68.204449 74.484226,66.24639 89.207958,64.815313 89.826067,63.409011 Z"
       sodipodi:nodetypes="ccccc"
       inkscape:transform-center-x="7.3899992"
       inkscape:transform-center-y="0.58885627" />
    <path
       id="rect1430-1-8-6-7-4-5"
       style="fill:#502d16;stroke-width:0.210089"
       d="m 168.7705,62.804506 -13.81693,-0.195027 -11.26298,4.07153 c 12.01398,-1.024556 23.94396,-2.401362 37.06508,1.206093 -0.0828,-2.075361 -11.50592,-3.592177 -11.98517,-5.082743 z"
       sodipodi:nodetypes="ccccc"
       inkscape:transform-center-x="-5.7297903"
       inkscape:transform-center-y="0.62413651" />
    <path
       id="path2169-5-4-04-7-9-1"
       style="fill:#e9c6af;stroke-width:0.566041"
       d="m 147.74312,75.349741 c -1.35685,2.373237 6.72396,3.33326 14.16991,3.33326 7.44564,0 13.82167,-1.937134 13.48163,-3.620797 -0.4175,-2.071927 -5.80637,-4.49278 -13.48163,-4.564746 -7.44505,-0.06605 -12.56391,2.043713 -14.16991,4.852283 z"
       sodipodi:nodetypes="sssss" />
    <path
       id="path2169-5-4-0-9-4-9-5"
       style="fill:#e9c6af;stroke-width:0.551593"
       d="m 118.13949,74.716669 c 1.41187,2.289374 -6.78312,2.608331 -14.52852,2.608331 -7.745737,0 -14.591328,-1.261571 -14.237197,-2.885602 0.43582,-1.998943 6.04038,-4.334224 14.024917,-4.403459 7.74458,-0.06039 13.06974,1.971514 14.7408,4.68073 z"
       sodipodi:nodetypes="sssss" />
    <ellipse
       style="fill:#502d16;stroke-width:0.344827"
       id="path2169-03-4-0-2"
       ry="3.968883"
       rx="5.8136883"
       cy="74.304268"
       cx="-161.16881"
       transform="scale(-1,1)" />
    <ellipse
       style="fill:#28170b;stroke-width:0.344827"
       id="path2169-0-8-7-5-1"
       ry="2.801996"
       rx="3.2076788"
       cy="74.257973"
       cx="-161.12073"
       transform="scale(-1,1)" />
    <ellipse
       style="fill:#502d16;stroke-width:0.314343"
       id="path2169-5-48-7-0-5"
       cx="-102.3401"
       cy="73.500282"
       rx="5.7325273"
       ry="3.7461689"
       transform="scale(-1,1)" />
    <ellipse
       style="fill:#28170b;stroke-width:0.344827"
       id="path2169-0-2-9-0-5-8"
       ry="2.801996"
       rx="3.517792"
       cy="73.791092"
       cx="-102.61629"
       transform="scale(-1,1)" />
    <path
       id="path11724-0-2-14-2-8"
       style="fill:#1a1a1a;stroke-width:0.398876"
       d="m 50.852051,289.68426 c 0.304919,2.29296 4.43513,3.84882 29.731311,1.87418 25.295678,-1.97475 30.346438,-4.24729 30.041528,-6.54039 -0.30492,-2.29322 -5.12633,1.70354 -30.422006,3.67818 -25.29618,1.97477 -29.655407,-1.30406 -29.350833,0.9879 z"
       sodipodi:nodetypes="sssss" />
    <path
       id="rect12747-2-4-7-8"
       style="fill:#1c1f24;stroke-width:0.398876"
       d="m 145.04821,120.75866 c -8.01652,-1.97115 -17.10956,-1.62881 -25.68663,0 l -2.71448,-2.67136 c 6.66156,0.30524 17.63133,-1.01864 31.96323,0.86091 z"
       sodipodi:nodetypes="ccccc" />
    <rect
       style="fill:#000000;fill-opacity:1;stroke-width:0.264583"
       id="rect17694-1"
       width="8.1077843"
       height="1.5682299"
       x="-147.3214"
       y="99.860962"
       transform="scale(-1,1)" />
    <rect
       style="fill:#000000;fill-opacity:1;stroke-width:0.264583"
       id="rect17694-7-5"
       width="8.1077843"
       height="1.5682299"
       x="-131.11171"
       y="99.881485"
       transform="scale(-1,1)" />
    <ellipse
       style="fill:#666666;stroke-width:0.264583"
       id="path15218"
       cx="159.56519"
       cy="185.45561"
       rx="4.2529836"
       ry="3.7213604"
       transform="rotate(27.932461)" />
    <ellipse
       style="fill:#666666;stroke-width:0.264583"
       id="path15218-5"
       cx="172.67856"
       cy="183.86073"
       rx="4.2529836"
       ry="3.7213604"
       transform="rotate(27.932461)" />
  </g>
</svg>
