<?xml version="1.0" encoding="UTF-8" standalone="no"?>
<!-- Created with Inkscape (http://www.inkscape.org/) -->

<svg
   width="210mm"
   height="297mm"
   viewBox="0 0 210 297"
   version="1.1"
   id="svg5"
   inkscape:version="1.1 (c68e22c387, 2021-05-23)"
   sodipodi:docname="batteur.svg"
   inkscape:export-filename="C:\Users\basti\OneDrive\Bureau\Gus veut boire un coup\bank\pnj\batteur_0.png"
   inkscape:export-xdpi="5.8990283"
   inkscape:export-ydpi="5.8990283"
   xmlns:inkscape="http://www.inkscape.org/namespaces/inkscape"
   xmlns:sodipodi="http://sodipodi.sourceforge.net/DTD/sodipodi-0.dtd"
   xmlns="http://www.w3.org/2000/svg"
   xmlns:svg="http://www.w3.org/2000/svg">
  <sodipodi:namedview
     id="namedview7"
     pagecolor="#ffffff"
     bordercolor="#666666"
     borderopacity="1.0"
     inkscape:pageshadow="2"
     inkscape:pageopacity="0.0"
     inkscape:pagecheckerboard="0"
     inkscape:document-units="mm"
     showgrid="false"
     inkscape:zoom="1.0557596"
     inkscape:cx="250.05692"
     inkscape:cy="175.70287"
     inkscape:window-width="1920"
     inkscape:window-height="1001"
     inkscape:window-x="-9"
     inkscape:window-y="-9"
     inkscape:window-maximized="1"
     inkscape:current-layer="layer1" />
  <defs
     id="defs2" />
  <g
     inkscape:label="Calque 1"
     inkscape:groupmode="layer"
     id="layer1">
    <path
       id="rect2149-5-7"
       style="fill:#999999;stroke-width:0.264583"
       d="m 196.02089,152.45342 h 4.00975 v 84.32503 l 2.12649,6.15381 c -3.1398,2.02378 -5.92036,2.0939 -8.35134,0.26283 l 2.2151,-6.35094 z"
       sodipodi:nodetypes="ccccccc"
       inkscape:export-filename="C:\Users\basti\OneDrive\Bureau\Gus veut boire un coup\bank\pnj\batteur_1.png"
       inkscape:export-xdpi="5.8990283"
       inkscape:export-ydpi="5.8990283" />
    <path
       id="path3219-7"
       style="fill:#241c1c;stroke-width:0.398876"
       d="m 107.88724,17.011313 c 0,0.50874 -0.0876,0.418777 -1.78864,0.418777 -1.69633,0 -1.24886,0.0053 -1.24886,-0.501901 0,-0.50874 -0.2447,-0.58534 1.4513,-0.58534 1.69614,0 1.5862,0.160987 1.5862,0.668622 z"
       sodipodi:nodetypes="sssss"
       inkscape:export-filename="C:\Users\basti\OneDrive\Bureau\Gus veut boire un coup\bank\pnj\batteur_1.png"
       inkscape:export-xdpi="5.8990283"
       inkscape:export-ydpi="5.8990283" />
    <path
       id="rect1750-0-4"
       style="fill:#502d16;stroke-width:0.264583"
       d="m 150.08895,160.2716 84.91272,-30.77806 7.83179,34.84334 c -24.13816,19.04673 -49.93181,34.60157 -84.91271,30.77807 z"
       sodipodi:nodetypes="ccccc"
       inkscape:export-filename="C:\Users\basti\OneDrive\Bureau\Gus veut boire un coup\bank\pnj\batteur_1.png"
       inkscape:export-xdpi="5.8990283"
       inkscape:export-ydpi="5.8990283" />
    <path
       id="path3219-1-8"
       style="fill:#241c1c;stroke-width:0.398876"
       d="m 114.61835,16.925769 c 0,0.50874 -0.0876,0.418777 -1.78882,0.418777 -1.69614,0 -1.24875,0.0053 -1.24875,-0.501901 0,-0.50874 -0.24469,-0.58534 1.45126,-0.58534 1.69626,0 1.58631,0.160987 1.58631,0.668622 z"
       sodipodi:nodetypes="sssss"
       inkscape:export-filename="C:\Users\basti\OneDrive\Bureau\Gus veut boire un coup\bank\pnj\batteur_1.png"
       inkscape:export-xdpi="5.8990283"
       inkscape:export-ydpi="5.8990283" />
    <ellipse
       style="fill:#784421;fill-opacity:1;stroke-width:0.264583"
       id="path1588-6-1-6"
       cx="146.17462"
       cy="189.0938"
       rx="44.080387"
       ry="7.2190933"
       transform="rotate(-15.930525)"
       inkscape:export-filename="C:\Users\basti\OneDrive\Bureau\Gus veut boire un coup\bank\pnj\batteur_1.png"
       inkscape:export-xdpi="5.8990283"
       inkscape:export-ydpi="5.8990283" />
    <path
       id="rect21874-0"
       style="fill:#00002b;stroke-width:0.264584"
       d="m 71.197304,127.47813 77.088836,0.41742 c -0.25013,8.78593 0.83242,20.66194 -2.04499,23.35211 -26.7425,7.76228 -52.724936,12.07459 -75.475626,1.83131 0,-6.7721 -7.5179,-18.82852 0.43188,-25.60062 z"
       sodipodi:nodetypes="ccccc"
       inkscape:export-filename="C:\Users\basti\OneDrive\Bureau\Gus veut boire un coup\bank\pnj\batteur_1.png"
       inkscape:export-xdpi="5.8990283"
       inkscape:export-ydpi="5.8990283" />
    <path
       id="rect2149-5"
       style="fill:#999999;stroke-width:0.264583"
       d="m 175.97214,142.42904 h 4.00975 v 113.70828 l 2.12649,8.29813 c -3.1398,2.72896 -5.92036,2.82352 -8.35134,0.35441 l 2.2151,-8.56394 z"
       sodipodi:nodetypes="ccccccc"
       inkscape:export-filename="C:\Users\basti\OneDrive\Bureau\Gus veut boire un coup\bank\pnj\batteur_1.png"
       inkscape:export-xdpi="5.8990283"
       inkscape:export-ydpi="5.8990283" />
    <path
       id="rect8523-4"
       style="fill:#536c53;stroke-width:0.376887"
       d="M 58.971464,57.190347 H 159.63834 l -11.08416,71.495803 -78.834516,0.48296 z"
       sodipodi:nodetypes="ccccc"
       inkscape:export-filename="C:\Users\basti\OneDrive\Bureau\Gus veut boire un coup\bank\pnj\batteur_1.png"
       inkscape:export-xdpi="5.8990283"
       inkscape:export-ydpi="5.8990283" />
    <ellipse
       style="fill:#e3dedb;fill-opacity:1;stroke-width:0.264583"
       id="path1588-5-4"
       cx="147.24747"
       cy="187.03941"
       rx="34.995483"
       ry="4.7786784"
       transform="rotate(-15.930525)"
       inkscape:export-filename="C:\Users\basti\OneDrive\Bureau\Gus veut boire un coup\bank\pnj\batteur_1.png"
       inkscape:export-xdpi="5.8990283"
       inkscape:export-ydpi="5.8990283" />
    <path
       id="path31-9-9"
       style="fill:#deaa87;fill-rule:evenodd;stroke-width:0.398876"
       d="m 57.141704,16.257455 c 1.44708,-11.384465 8.82021,-50.049806 53.588756,-49.393656 38.90919,0.57066 52.10233,32.589979 53.81441,41.296483 5.11369,26.004189 -24.57247,80.400855 -57.36126,79.783212 C 74.394634,87.325483 54.205874,39.355197 57.141704,16.257455 Z"
       sodipodi:nodetypes="sssss"
       inkscape:export-filename="C:\Users\basti\OneDrive\Bureau\Gus veut boire un coup\bank\pnj\batteur_1.png"
       inkscape:export-xdpi="5.8990283"
       inkscape:export-ydpi="5.8990283" />
    <rect
       style="fill:#784421;fill-opacity:1;stroke-width:0.264583"
       id="rect9010-7"
       width="2.4234519"
       height="43.946087"
       x="38.861851"
       y="158.52405"
       transform="rotate(-34.396687)"
       inkscape:export-filename="C:\Users\basti\OneDrive\Bureau\Gus veut boire un coup\bank\pnj\batteur_1.png"
       inkscape:export-xdpi="5.8990283"
       inkscape:export-ydpi="5.8990283" />
    <ellipse
       style="fill:#deaa87;stroke-width:0.398876"
       id="path9819-5-0"
       cx="151.31758"
       cy="136.3143"
       rx="11.300299"
       ry="13.029327"
       inkscape:export-filename="C:\Users\basti\OneDrive\Bureau\Gus veut boire un coup\bank\pnj\batteur_1.png"
       inkscape:export-xdpi="5.8990283"
       inkscape:export-ydpi="5.8990283" />
    <path
       id="path846-6-2"
       style="fill:#502d16;stroke-width:0.264583"
       d="m 168.86172,205.34932 c 0,4.21613 0.61865,26.94301 -0.22954,30.92909 -6.20049,29.13926 -35.03215,32.51124 -68.34982,32.51124 -34.719627,0 -64.299204,-7.20984 -68.839577,-38.17586 -0.41268,-2.81454 0.260212,-22.34524 0.260212,-25.26447 -2e-6,-35.03713 30.70403,-63.44033 68.579365,-63.44033 37.87533,0 68.57936,28.4032 68.57936,63.44033 z"
       sodipodi:nodetypes="sssssss"
       inkscape:export-filename="C:\Users\basti\OneDrive\Bureau\Gus veut boire un coup\bank\pnj\batteur_1.png"
       inkscape:export-xdpi="5.8990283"
       inkscape:export-ydpi="5.8990283" />
    <ellipse
       style="fill:#784421;fill-opacity:1;stroke-width:0.264583"
       id="path846-6"
       cx="99.750717"
       cy="229.6611"
       rx="68.579361"
       ry="63.440334"
       inkscape:export-filename="C:\Users\basti\OneDrive\Bureau\Gus veut boire un coup\bank\pnj\batteur_1.png"
       inkscape:export-xdpi="5.8990283"
       inkscape:export-ydpi="5.8990283" />
    <ellipse
       style="fill:#e3dedb;fill-opacity:1;stroke-width:0.264583"
       id="path846"
       cx="100.83114"
       cy="229.30667"
       rx="56.17482"
       ry="52.807877"
       inkscape:export-filename="C:\Users\basti\OneDrive\Bureau\Gus veut boire un coup\bank\pnj\batteur_1.png"
       inkscape:export-xdpi="5.8990283"
       inkscape:export-ydpi="5.8990283" />
    <path
       id="path6217-4-3"
       style="fill:#536c53;stroke-width:0.378879"
       d="m 154.9225,131.63749 c 17.10663,18.03795 10.14403,-14.63474 14.93924,-24.42951 5.83495,-11.918556 2.44107,-22.062705 2.44107,-22.062705 -3.11687,-9.999622 -1.5484,-28.198309 -10.49127,-28.198309 -8.94267,0 -20.48371,60.355724 -6.88904,74.690524 z"
       sodipodi:nodetypes="sssss"
       inkscape:export-filename="C:\Users\basti\OneDrive\Bureau\Gus veut boire un coup\bank\pnj\batteur_1.png"
       inkscape:export-xdpi="5.8990283"
       inkscape:export-ydpi="5.8990283" />
    <path
       id="rect1750"
       style="fill:#502d16;stroke-width:0.264583"
       d="m 129.4967,128.17338 h 88.30402 v 28.53409 c -27.32789,7.79756 -55.49296,12.49655 -88.30402,0 z"
       sodipodi:nodetypes="ccccc"
       inkscape:export-filename="C:\Users\basti\OneDrive\Bureau\Gus veut boire un coup\bank\pnj\batteur_1.png"
       inkscape:export-xdpi="5.8990283"
       inkscape:export-ydpi="5.8990283" />
    <ellipse
       style="fill:#784421;fill-opacity:1;stroke-width:0.264583"
       id="path9132-0"
       cx="39.891205"
       cy="157.40518"
       rx="2.9223981"
       ry="3.4424436"
       transform="rotate(-34.396687)"
       inkscape:export-filename="C:\Users\basti\OneDrive\Bureau\Gus veut boire un coup\bank\pnj\batteur_1.png"
       inkscape:export-xdpi="5.8990283"
       inkscape:export-ydpi="5.8990283" />
    <ellipse
       style="fill:#784421;fill-opacity:1;stroke-width:0.264583"
       id="path1588-6"
       cx="173.54115"
       cy="128.24553"
       rx="44.080387"
       ry="7.2190933"
       inkscape:export-filename="C:\Users\basti\OneDrive\Bureau\Gus veut boire un coup\bank\pnj\batteur_1.png"
       inkscape:export-xdpi="5.8990283"
       inkscape:export-ydpi="5.8990283" />
    <ellipse
       style="fill:#e3dedb;fill-opacity:1;stroke-width:0.264583"
       id="path1588"
       cx="174.614"
       cy="126.19115"
       rx="34.995483"
       ry="4.7786784"
       inkscape:export-filename="C:\Users\basti\OneDrive\Bureau\Gus veut boire un coup\bank\pnj\batteur_1.png"
       inkscape:export-xdpi="5.8990283"
       inkscape:export-ydpi="5.8990283" />
    <path
       id="rect2149"
       style="fill:#999999;stroke-width:0.264583"
       d="m 21.552415,143.3486 h 4.00975 v 113.70829 l 2.12649,8.29813 c -3.1398,2.72896 -5.92036,2.82352 -8.35134,0.35441 l 2.2151,-8.56394 z"
       sodipodi:nodetypes="ccccccc"
       inkscape:export-filename="C:\Users\basti\OneDrive\Bureau\Gus veut boire un coup\bank\pnj\batteur_1.png"
       inkscape:export-xdpi="5.8990283"
       inkscape:export-ydpi="5.8990283" />
    <path
       id="path6217-47"
       style="fill:#536c53;stroke-width:0.398876"
       d="m 73.647544,95.480755 c 36.653726,37.447625 -4.467455,22.799985 -27.240851,24.983815 -14.87358,1.42648 -3.688289,32.02549 -3.688289,-9.12906 0,-28.743624 7.27131,-53.424164 17.1829,-53.424164 9.9116,0 -0.26632,23.253054 13.74624,37.569409 z"
       sodipodi:nodetypes="sssss"
       inkscape:export-filename="C:\Users\basti\OneDrive\Bureau\Gus veut boire un coup\bank\pnj\batteur_1.png"
       inkscape:export-xdpi="5.8990283"
       inkscape:export-ydpi="5.8990283" />
    <path
       id="rect2149-57-6"
       style="fill:#999999;stroke-width:0.264583"
       d="m -51.080018,59.6289 h 4.00975 v 195.61188 l 2.12649,14.27524 c -3.1398,4.69462 -5.92036,4.85729 -8.35134,0.60969 l 2.2151,-14.73251 z"
       sodipodi:nodetypes="ccccccc"
       inkscape:export-filename="C:\Users\basti\OneDrive\Bureau\Gus veut boire un coup\bank\pnj\batteur_1.png"
       inkscape:export-xdpi="5.8990283"
       inkscape:export-ydpi="5.8990283" />
    <ellipse
       style="fill:#deaa87;stroke-width:0.148272"
       id="path9819-9-7"
       cx="65.527298"
       cy="103.93676"
       rx="3.8184125"
       ry="4.5010405"
       inkscape:export-filename="C:\Users\basti\OneDrive\Bureau\Gus veut boire un coup\bank\pnj\batteur_1.png"
       inkscape:export-xdpi="5.8990283"
       inkscape:export-ydpi="5.8990283" />
    <path
       id="rect1750-0"
       style="fill:#502d16;stroke-width:0.264583"
       d="m -15.560042,119.02474 88.127724,5.57711 -1.802158,28.47712 c -27.765809,6.05601 -56.171428,8.96677 -88.127724,-5.57711 z"
       sodipodi:nodetypes="ccccc"
       inkscape:export-filename="C:\Users\basti\OneDrive\Bureau\Gus veut boire un coup\bank\pnj\batteur_1.png"
       inkscape:export-xdpi="5.8990283"
       inkscape:export-ydpi="5.8990283" />
    <ellipse
       style="fill:#deaa87;stroke-width:0.398876"
       id="path9819-8"
       cx="50.190823"
       cy="108.21366"
       rx="12.92926"
       ry="13.029327"
       inkscape:export-filename="C:\Users\basti\OneDrive\Bureau\Gus veut boire un coup\bank\pnj\batteur_1.png"
       inkscape:export-xdpi="5.8990283"
       inkscape:export-ydpi="5.8990283" />
    <ellipse
       style="fill:#784421;fill-opacity:1;stroke-width:0.264583"
       id="path1588-6-1"
       cx="36.032837"
       cy="119.842"
       rx="44.080387"
       ry="7.2190933"
       transform="rotate(3.6211001)"
       inkscape:export-filename="C:\Users\basti\OneDrive\Bureau\Gus veut boire un coup\bank\pnj\batteur_1.png"
       inkscape:export-xdpi="5.8990283"
       inkscape:export-ydpi="5.8990283" />
    <ellipse
       style="fill:#e3dedb;fill-opacity:1;stroke-width:0.264583"
       id="path1588-5"
       cx="37.105682"
       cy="117.78762"
       rx="34.995483"
       ry="4.7786784"
       transform="rotate(3.6211001)"
       inkscape:export-filename="C:\Users\basti\OneDrive\Bureau\Gus veut boire un coup\bank\pnj\batteur_1.png"
       inkscape:export-xdpi="5.8990283"
       inkscape:export-ydpi="5.8990283" />
    <rect
       style="fill:#784421;fill-opacity:1;stroke-width:0.305491"
       id="rect9010"
       width="3.4766498"
       height="27.315218"
       x="150.86465"
       y="106.5126"
       transform="matrix(0.99885968,0.04774242,-0.69636619,0.71768665,0,0)"
       inkscape:export-filename="C:\Users\basti\OneDrive\Bureau\Gus veut boire un coup\bank\pnj\batteur_1.png"
       inkscape:export-xdpi="5.8990283"
       inkscape:export-ydpi="5.8990283" />
    <ellipse
       style="fill:#784421;fill-opacity:1;stroke-width:0.264583"
       id="path9132"
       cx="112.51422"
       cy="13.809327"
       rx="2.9223981"
       ry="3.4424436"
       transform="rotate(39.39034)"
       inkscape:export-filename="C:\Users\basti\OneDrive\Bureau\Gus veut boire un coup\bank\pnj\batteur_1.png"
       inkscape:export-xdpi="5.8990283"
       inkscape:export-ydpi="5.8990283" />
    <path
       id="rect1430-1"
       style="fill:#a05a2c;stroke-width:0.210089"
       d="m 78.630367,15.91168 10.335556,-1.509095 9.031692,2.12949 c -9.158083,0.363666 -18.303617,0.440986 -27.627583,4.591516 -0.236105,-1.656271 8.114711,-3.980898 8.260354,-5.211754 z"
       sodipodi:nodetypes="ccccc"
       inkscape:transform-center-x="3.9183607"
       inkscape:transform-center-y="1.6098779"
       inkscape:export-filename="C:\Users\basti\OneDrive\Bureau\Gus veut boire un coup\bank\pnj\batteur_1.png"
       inkscape:export-xdpi="5.8990283"
       inkscape:export-ydpi="5.8990283" />
    <path
       id="path3042-7-5"
       style="fill:#c8ab37;stroke-width:0.264583"
       d="M -0.35439645,97.162737 C 1.0016436,93.342237 -18.005144,79.708216 -44.435885,72.138016 c -26.43073,-7.5702 -50.516287,-6.287029 -51.632677,-2.389409 -0.983,3.43191 15.90907,5.89934 36.652901,17.99265 2.68562,1.56567 5.36463,5.63765 8.51864,6.54101 3.33336,0.95473 7.16537,-0.90114 10.43434,-1.12885 19.89626,-1.3859 39.0265946,7.056883 40.10828455,4.00932 z"
       sodipodi:nodetypes="sssssss"
       inkscape:export-filename="C:\Users\basti\OneDrive\Bureau\Gus veut boire un coup\bank\pnj\batteur_1.png"
       inkscape:export-xdpi="5.8990283"
       inkscape:export-ydpi="5.8990283" />
    <ellipse
       style="fill:#a0892c;fill-opacity:1;stroke-width:0.264583"
       id="path3916"
       cx="-24.206503"
       cy="88.805435"
       rx="31.200874"
       ry="4.7615795"
       transform="rotate(15.087826)"
       inkscape:export-filename="C:\Users\basti\OneDrive\Bureau\Gus veut boire un coup\bank\pnj\batteur_1.png"
       inkscape:export-xdpi="5.8990283"
       inkscape:export-ydpi="5.8990283" />
    <path
       id="rect2149-57-9"
       style="fill:#999999;stroke-width:0.264583"
       d="m -51.080018,59.6289 h 4.00975 v 17.82481 l 2.12649,1.30081 c -3.1398,0.42779 -5.92036,0.44261 -8.35134,0.0556 l 2.2151,-1.34247 z"
       sodipodi:nodetypes="ccccccc"
       inkscape:export-filename="C:\Users\basti\OneDrive\Bureau\Gus veut boire un coup\bank\pnj\batteur_1.png"
       inkscape:export-xdpi="5.8990283"
       inkscape:export-ydpi="5.8990283" />
    <path
       id="path3042-7"
       style="fill:#c8ab37;stroke-width:0.264583"
       d="m -94.894265,48.229835 c -1.356049,3.820498 19.40501,13.19416 45.835751,20.764364 26.43073,7.570202 48.76201996,10.547391 49.87840996,6.649765 C 1.8028965,72.212059 -15.089174,69.74463 -35.833004,57.65132 c -2.68562,-1.565672 -5.36463,-5.637651 -8.51864,-6.541012 -3.33336,-0.95473 -7.16537,0.901139 -10.43434,1.128844 -19.89626,1.385904 -39.026591,-7.056873 -40.108281,-4.009317 z"
       sodipodi:nodetypes="sssssss"
       inkscape:export-filename="C:\Users\basti\OneDrive\Bureau\Gus veut boire un coup\bank\pnj\batteur_1.png"
       inkscape:export-xdpi="5.8990283"
       inkscape:export-ydpi="5.8990283" />
    <path
       id="rect1430-8-4"
       style="fill:#a05a2c;stroke-width:0.209405"
       d="m 131.76853,14.950606 -9.15873,-1.567019 -8.13198,2.475586 c 8.15154,0.304324 16.30298,0.285481 24.46146,4.807542 0.27284,-1.848854 -7.08673,-4.346085 -7.17071,-5.716422 z"
       sodipodi:nodetypes="ccccc"
       inkscape:transform-center-x="-3.3120943"
       inkscape:transform-center-y="1.7989547"
       inkscape:export-filename="C:\Users\basti\OneDrive\Bureau\Gus veut boire un coup\bank\pnj\batteur_1.png"
       inkscape:export-xdpi="5.8990283"
       inkscape:export-ydpi="5.8990283" />
    <path
       id="path2169-5-4-04"
       style="fill:#ffccaa;stroke-width:0.566042"
       d="m 91.495074,31.865454 c 0.79801,2.76503 -3.95588,4.983387 -8.33625,4.983387 -4.38048,0 -8.13157,-3.356841 -7.93138,-5.318513 0.24584,-2.414067 3.41589,-5.2346 7.93138,-5.318513 4.37987,-0.07891 7.39131,2.381238 8.33625,5.653639 z"
       sodipodi:nodetypes="sssss"
       inkscape:export-filename="C:\Users\basti\OneDrive\Bureau\Gus veut boire un coup\bank\pnj\batteur_1.png"
       inkscape:export-xdpi="5.8990283"
       inkscape:export-ydpi="5.8990283" />
    <path
       id="path2169-5-4-0-9"
       style="fill:#ffccaa;stroke-width:0.551594"
       d="m 114.53223,29.781078 c -0.75802,2.765081 3.75668,4.983386 7.91613,4.983386 4.15968,0 7.72185,-3.356682 7.53171,-5.31825 -0.23407,-2.41433 -3.24384,-5.234863 -7.53171,-5.318513 -4.15907,-0.07892 -7.01879,2.381134 -7.91613,5.653377 z"
       sodipodi:nodetypes="sssss"
       inkscape:export-filename="C:\Users\basti\OneDrive\Bureau\Gus veut boire un coup\bank\pnj\batteur_1.png"
       inkscape:export-xdpi="5.8990283"
       inkscape:export-ydpi="5.8990283" />
    <ellipse
       style="fill:#917c6f;stroke-width:0.344827"
       id="path2169-03"
       ry="3.2664716"
       rx="4.7925467"
       cy="31.431171"
       cx="82.999702"
       inkscape:export-filename="C:\Users\basti\OneDrive\Bureau\Gus veut boire un coup\bank\pnj\batteur_1.png"
       inkscape:export-xdpi="5.8990283"
       inkscape:export-ydpi="5.8990283" />
    <ellipse
       style="fill:#28170b;stroke-width:0.344827"
       id="path2169-0-8"
       ry="2.3061001"
       rx="3.2214463"
       cy="31.359659"
       cx="82.736298"
       inkscape:export-filename="C:\Users\basti\OneDrive\Bureau\Gus veut boire un coup\bank\pnj\batteur_1.png"
       inkscape:export-xdpi="5.8990283"
       inkscape:export-ydpi="5.8990283" />
    <ellipse
       style="fill:#6c5d53;stroke-width:0.314343"
       id="path2169-5-48"
       cx="122.46823"
       cy="29.864164"
       rx="4.3897791"
       ry="3.2664716"
       inkscape:export-filename="C:\Users\basti\OneDrive\Bureau\Gus veut boire un coup\bank\pnj\batteur_1.png"
       inkscape:export-xdpi="5.8990283"
       inkscape:export-ydpi="5.8990283" />
    <ellipse
       style="fill:#28170b;stroke-width:0.344827"
       id="path2169-0-2-9"
       ry="2.3061001"
       rx="3.2214463"
       cy="29.724085"
       cx="122.29066"
       inkscape:export-filename="C:\Users\basti\OneDrive\Bureau\Gus veut boire un coup\bank\pnj\batteur_1.png"
       inkscape:export-xdpi="5.8990283"
       inkscape:export-ydpi="5.8990283" />
    <path
       id="path3219-9"
       style="fill:#241c1c;stroke-width:0.398876"
       d="m 101.25088,56.231365 c 0,0.50874 -0.0876,0.418777 -1.788636,0.418777 -1.69633,0 -1.24882,0.0053 -1.24882,-0.501901 0,-0.50874 -0.2447,-0.58534 1.45126,-0.58534 1.696136,0 1.586196,0.160987 1.586196,0.668675 z"
       sodipodi:nodetypes="sssss"
       inkscape:export-filename="C:\Users\basti\OneDrive\Bureau\Gus veut boire un coup\bank\pnj\batteur_1.png"
       inkscape:export-xdpi="5.8990283"
       inkscape:export-ydpi="5.8990283" />
    <path
       id="path3219-1-2"
       style="fill:#241c1c;stroke-width:0.398876"
       d="m 110.72871,56.145821 c 0,0.50874 -0.0876,0.418777 -1.78882,0.418777 -1.69614,0 -1.24875,0.0053 -1.24875,-0.501901 0,-0.50874 -0.24469,-0.58534 1.4513,-0.58534 1.69622,0 1.58627,0.160987 1.58627,0.668675 z"
       sodipodi:nodetypes="sssss"
       inkscape:export-filename="C:\Users\basti\OneDrive\Bureau\Gus veut boire un coup\bank\pnj\batteur_1.png"
       inkscape:export-xdpi="5.8990283"
       inkscape:export-ydpi="5.8990283" />
    <path
       id="rect12747-2"
       style="fill:#1c1f24;stroke-width:0.398876"
       d="m 96.9685,70.826565 c 5.92312,-0.861065 13.51496,-3.18324 18.48876,-0.177208 l -1.2149,0.462443 c -4.33892,-3.270622 -10.4802,-0.389881 -15.917547,0.180256 z"
       sodipodi:nodetypes="ccccc"
       inkscape:export-filename="C:\Users\basti\OneDrive\Bureau\Gus veut boire un coup\bank\pnj\batteur_1.png"
       inkscape:export-xdpi="5.8990283"
       inkscape:export-ydpi="5.8990283" />
    <path
       id="path15398-0"
       style="fill:#784421;stroke-width:0.264584"
       d="m 167.72057,8.28725 c -0.0683,0.32513 -3.09122,13.431103 -9.15437,25.342879 -2.78244,5.466509 -8.71214,-27.320789 -13.81946,-35.332546 -8.69603,-13.641304 -27.07929,-3.240377 -37.0023,-3.240377 -10.864276,0 -20.103236,-6.81642 -33.949786,2.52704 -2.37206,1.600637 -8.05982,10.674255 -12.45809,29.280918 -2.90694,12.297693 -4.24756,-2.754523 -4.66775,-11.883485 -0.56584,-12.296567 2.72929,-28.984869 3.29053,-30.61252 10.08107,-29.23319 31.3867,-33.33913 51.777586,-33.33913 20.39093,0 45.65097,10.88318 55.47027,41.396897 1.20701,5.286845 1.45774,11.166027 0.51318,15.860587 z"
       sodipodi:nodetypes="ssssssssscss"
       inkscape:export-filename="C:\Users\basti\OneDrive\Bureau\Gus veut boire un coup\bank\pnj\batteur_1.png"
       inkscape:export-xdpi="5.8990283"
       inkscape:export-ydpi="5.8990283" />
    <path
       id="rect2149-57"
       style="fill:#999999;stroke-width:0.264583"
       d="m 197.52454,62.035967 h 4.00975 V 257.64785 l 2.12649,14.27524 c -3.1398,4.69462 -5.92036,4.85729 -8.35134,0.60969 l 2.2151,-14.73251 z"
       sodipodi:nodetypes="ccccccc"
       inkscape:export-filename="C:\Users\basti\OneDrive\Bureau\Gus veut boire un coup\bank\pnj\batteur_1.png"
       inkscape:export-xdpi="5.8990283"
       inkscape:export-ydpi="5.8990283" />
    <path
       id="path3042"
       style="fill:#c8ab37;stroke-width:0.264583"
       d="m 248.29125,65.489754 c 1.35605,3.820498 -19.40501,13.19416 -45.83575,20.764364 -26.43073,7.570202 -48.76202,10.547391 -49.87841,6.649765 -0.983,-3.431905 15.90907,-5.899334 36.6529,-17.992644 2.68562,-1.565672 5.36463,-5.637651 8.51864,-6.541012 3.33336,-0.95473 7.16537,0.901139 10.43434,1.128844 19.89626,1.385904 39.02659,-7.056873 40.10828,-4.009317 z"
       sodipodi:nodetypes="sssssss"
       inkscape:export-filename="C:\Users\basti\OneDrive\Bureau\Gus veut boire un coup\bank\pnj\batteur_1.png"
       inkscape:export-xdpi="5.8990283"
       inkscape:export-ydpi="5.8990283" />
  </g>
</svg>
