<?xml version="1.0" encoding="UTF-8" standalone="no"?>
<!-- Created with Inkscape (http://www.inkscape.org/) -->

<svg
   width="210mm"
   height="249mm"
   viewBox="0 0 210 249"
   version="1.1"
   id="svg5"
   inkscape:version="1.1 (c68e22c387, 2021-05-23)"
   sodipodi:docname="concierge.svg"
   inkscape:export-filename="C:\Users\basti\OneDrive\Images\gimp\Gus.png"
   inkscape:export-xdpi="4.8437209"
   inkscape:export-ydpi="4.8437209"
   xmlns:inkscape="http://www.inkscape.org/namespaces/inkscape"
   xmlns:sodipodi="http://sodipodi.sourceforge.net/DTD/sodipodi-0.dtd"
   xmlns:xlink="http://www.w3.org/1999/xlink"
   xmlns="http://www.w3.org/2000/svg"
   xmlns:svg="http://www.w3.org/2000/svg">
  <sodipodi:namedview
     id="namedview7"
     pagecolor="#ffffff"
     bordercolor="#666666"
     borderopacity="1.0"
     inkscape:pageshadow="2"
     inkscape:pageopacity="0.0"
     inkscape:pagecheckerboard="0"
     inkscape:document-units="mm"
     showgrid="false"
     inkscape:zoom="0.72337261"
     inkscape:cx="381.5461"
     inkscape:cy="629.68931"
     inkscape:window-width="1920"
     inkscape:window-height="1001"
     inkscape:window-x="-9"
     inkscape:window-y="-9"
     inkscape:window-maximized="1"
     inkscape:current-layer="layer1"
     height="296mm" />
  <defs
     id="defs2">
    <linearGradient
       inkscape:collect="always"
       id="linearGradient4428">
      <stop
         style="stop-color:#241c1c;stop-opacity:1;"
         offset="0"
         id="stop4424" />
      <stop
         style="stop-color:#d3d3d3;stop-opacity:1"
         offset="1"
         id="stop4426" />
    </linearGradient>
    <linearGradient
       inkscape:collect="always"
       xlink:href="#linearGradient4428"
       id="linearGradient4430"
       x1="100.86722"
       y1="4.1381421"
       x2="98.139114"
       y2="206.92241"
       gradientUnits="userSpaceOnUse" />
    <linearGradient
       inkscape:collect="always"
       xlink:href="#linearGradient4428"
       id="linearGradient4430-1"
       x1="100.86722"
       y1="4.1381421"
       x2="98.139114"
       y2="206.92241"
       gradientUnits="userSpaceOnUse"
       gradientTransform="translate(1.2036796e-5)" />
  </defs>
  <g
     inkscape:label="Calque 1"
     inkscape:groupmode="layer"
     id="layer1">
    <path
       id="path11385-4"
       style="fill:#1a1a1a;stroke-width:0.548397"
       d="m 160.36404,231.04576 c -2e-5,11.12066 -7.17766,16.33648 -28.21231,16.33648 -21.03466,0 -28.91763,-5.21582 -28.91764,-16.33648 -10e-6,-11.12062 8.23561,-15.95657 29.2703,-15.95657 21.03466,0 27.85967,4.83595 27.85965,15.95657 z"
       sodipodi:nodetypes="sssss" />
    <path
       id="path11385-4-1"
       style="fill:#1a1a1a;stroke-width:0.548397"
       d="m 100.72383,234.39098 c -2e-5,11.12066 -7.242654,16.33648 -28.467756,16.33648 -21.225112,0 -29.179452,-5.21582 -29.179462,-16.33648 -9e-6,-11.12062 8.31018,-15.95657 29.53532,-15.95657 21.225111,0 28.111918,4.83595 28.111898,15.95657 z"
       sodipodi:nodetypes="sssss" />
    <path
       id="path6217"
       style="fill:#165016;stroke-width:0.398876"
       d="m 63.509439,127.44029 c 0,49.76796 4.438778,41.34011 -26.330447,42.06243 -21.847122,0.51283 -19.047556,2.82087 -19.047556,-29.57939 0,-22.63092 10.668097,-42.062386 25.210001,-42.062416 14.541905,0 20.168002,6.948446 20.168002,29.579376 z"
       sodipodi:nodetypes="sssss" />
    <path
       id="rect8523"
       style="fill:#165016;stroke-width:0.376887"
       d="M 24.072347,112.4033 H 161.25221 l 3.36666,76.5672 -125.899826,1.80535 z"
       sodipodi:nodetypes="ccccc" />
    <path
       id="rect6053"
       style="fill:#333333;stroke:none;stroke-width:0.264583"
       d="m 38.719044,190.77585 72.608776,-2.84497 -11.638527,41.02879 c -23.201129,3.9637 -40.523255,5.6004 -54.763036,-0.77591 z"
       sodipodi:nodetypes="ccccc" />
    <path
       id="rect6053-1"
       style="fill:#333333;stroke:none;stroke-width:0.264583"
       d="M 164.61887,188.9705 107.457,187.93088 c -19.588995,14.24248 -3.22042,26.68911 -4.14327,39.99934 25.49269,3.9637 41.11205,2.75543 56.75828,-3.62088 z"
       sodipodi:nodetypes="ccccc" />
    <rect
       style="fill:#803300;stroke:none;stroke-width:0.266492;stroke-opacity:1"
       id="rect7412"
       width="6.0704703"
       height="170.63579"
       x="-85.215218"
       y="116.32158"
       transform="matrix(0.67754497,-0.73548135,0.83908931,0.54399369,0,0)" />
    <ellipse
       style="fill:#ffb380;stroke-width:0.398876"
       id="path9819-5"
       cx="121.259"
       cy="166.34059"
       rx="14.005556"
       ry="14.925369" />
    <ellipse
       style="fill:#ffb380;stroke-width:0.148273"
       id="path9819-9-5"
       cx="132.68555"
       cy="162.93079"
       rx="5.6022215"
       ry="5.1560364" />
    <ellipse
       style="fill:#ffb380;stroke-width:0.148273"
       id="path9819-9"
       cx="53.596748"
       cy="138.93193"
       rx="5.6022215"
       ry="5.1560364" />
    <ellipse
       style="fill:#ffb380;stroke-width:0.398876"
       id="path9819"
       cx="58.221977"
       cy="153.60963"
       rx="14.005556"
       ry="14.925369" />
    <path
       id="path6217-4"
       style="fill:#165016;stroke-width:0.378879"
       d="m 130.73281,135.03745 c 0,49.76795 -4.00487,41.3401 23.75663,42.06241 19.71154,0.51284 17.18565,2.82088 17.18565,-29.57939 0,-22.63091 -9.62529,-42.06239 -22.74572,-42.0624 -13.12043,0 -18.19656,6.94844 -18.19656,29.57938 z"
       sodipodi:nodetypes="sssss" />
    <path
       id="path31-9"
       style="fill:#ffb380;fill-rule:evenodd;stroke-width:0.398876"
       d="m 20.568387,52.751296 c 0,0 25.357727,-30.751548 81.312353,-28.345139 46.39993,1.995502 90.09561,24.936849 90.09561,24.936849 1.48032,41.621552 -40.2777,81.099574 -88.38421,80.392124 C 55.485615,129.02769 23.378498,92.128968 20.568387,52.751296 Z"
       sodipodi:nodetypes="sssss" />
    <path
       id="path5708"
       style="fill:url(#linearGradient4430);stroke-width:0.398876;fill-opacity:1"
       d="m 192.5648,47.242087 c 0.70438,2.340319 2.07372,20.630321 -4.22122,26.786626 -6.41333,6.272092 -20.58555,0.401504 -30.03929,1.646904 -18.58928,2.448882 -38.87936,-13.857367 -58.978932,-13.857367 -19.75306,0 -33.644555,17.588302 -48.031183,16.603781 C 41.902652,77.779341 32.977423,84.827296 26.588874,77.914992 22.770666,73.783755 19.526068,55.023425 18.552477,53.418284 7.9419266,35.924874 48.24695,5.2527495 103.57,2.1028359 134.07628,0.36590816 188.33224,33.179219 192.5648,47.242087 Z"
       sodipodi:nodetypes="sssssssss" />
    <path
       id="path5708-5"
       style="fill:url(#linearGradient4430-1);fill-opacity:1;stroke-width:0.398876"
       d="M 49.861654,114.01074 C 49.382228,113.52601 22.700996,79.088715 27.03988,78.012871 c 3.790371,-0.939839 30.504199,40.918479 39.922724,38.795599 12.352802,-2.78425 26.462684,2.87013 40.143166,2.87013 13.44465,0 23.33805,-6.3432 32.69174,-3.43897 8.70493,2.7028 45.63068,-40.993877 47.90521,-41.866347 2.55457,-0.979884 -13.66386,24.401081 -13.0012,24.733541 0,0 -32.82996,32.287616 -70.4848,32.940026 -20.763665,0.35975 -51.474233,-15.12341 -54.355066,-18.03611 z"
       sodipodi:nodetypes="sssssssss" />
    <path
       id="rect1430"
       style="fill:#28170b;stroke-width:0.210088"
       d="m 65.618225,88.743995 15.089169,-2.668124 13.188121,1.638361 C 80.524507,88.95776 67.171699,89.869199 53.561059,95.4863 53.216038,93.600978 65.406403,90.173745 65.618225,88.743995 Z"
       sodipodi:nodetypes="ccccc"
       inkscape:transform-center-x="5.7192354"
       inkscape:transform-center-y="2.6113719" />
    <path
       id="rect1430-8"
       style="fill:#28170b;stroke-width:0.209404"
       d="m 141.90715,87.576463 -13.50039,-1.846833 -11.73774,2.802995 c 11.94572,0.389651 23.87001,0.41114 36.09754,5.648748 0.27838,-2.123166 -10.64821,-5.030014 -10.85941,-6.60491 z"
       sodipodi:nodetypes="ccccc"
       inkscape:transform-center-x="-5.0385532"
       inkscape:transform-center-y="2.1050994" />
    <path
       id="path2169-5-4"
       style="fill:#ffccaa;stroke-width:0.566042"
       d="m 85.643954,99.930237 c 1.171575,3.167543 -5.804061,5.708653 -12.230732,5.708653 -6.426671,0 -11.930218,-3.84531 -11.636524,-6.092423 0.361433,-2.7654 5.011772,-5.9965 11.636524,-6.09245 6.42597,-0.093 10.844254,2.72769 12.230732,6.47622 z"
       sodipodi:nodetypes="sssss" />
    <path
       id="path2169-5-4-0"
       style="fill:#ffccaa;stroke-width:0.551595"
       d="m 123.21624,99.691487 c -1.11255,3.167553 5.51156,5.708673 11.61438,5.708673 6.10281,0 11.32903,-3.84533 11.05013,-6.092433 -0.34321,-2.76539 -4.7592,-5.9965 -11.05013,-6.09245 -6.10215,-0.093 -10.2978,2.72769 -11.61438,6.47621 z"
       sodipodi:nodetypes="sssss" />
    <ellipse
       style="fill:#784421;stroke-width:0.314342"
       id="path2169-5-1-3"
       cx="77.999084"
       cy="100.05581"
       rx="8.0376024"
       ry="4.9305439" />
    <ellipse
       style="fill:#28170b;stroke-width:0.344829"
       id="path2169"
       ry="3.7418122"
       rx="7.0314322"
       cy="99.882256"
       cx="78.172997" />
    <ellipse
       style="fill:#784421;stroke-width:0.314342"
       id="path2169-5-1"
       cx="130.66902"
       cy="99.944885"
       rx="6.8488708"
       ry="4.9305439" />
    <ellipse
       style="fill:#28170b;stroke-width:0.314342"
       id="path2169-5"
       cx="130.42955"
       cy="100.01575"
       rx="5.8430209"
       ry="3.7418122" />
    <path
       id="path3219-1"
       style="fill:#241c1c;stroke-width:0.398876"
       d="m 114.7969,116.25637 c 0,0.58288 -0.17421,0.47972 -3.36492,0.47972 -3.19083,0 -2.3491,0.008 -2.34911,-0.57565 -1e-5,-0.58289 -0.46082,-0.67161 2.73003,-0.67161 3.19086,0 2.98402,0.18468 2.984,0.76754 z"
       sodipodi:nodetypes="sssss" />
    <path
       id="path3219-1-0"
       style="fill:#241c1c;stroke-width:0.398876"
       d="m 104.771,116.81896 c 0,0.58288 -0.17421,0.47972 -3.36492,0.47972 -3.190834,0 -2.349101,0.008 -2.349111,-0.57565 -10e-6,-0.58289 -0.460822,-0.67161 2.730031,-0.67161 3.19086,0 2.98402,0.18468 2.984,0.76754 z"
       sodipodi:nodetypes="sssss" />
    <path
       id="rect12747"
       style="fill:#1c1f24;stroke-width:0.398876"
       d="m 93.499665,125.60683 c 8.543675,-4.6819 17.087355,-6.0121 25.631035,0 l -1.78261,0.52968 c -7.17623,-3.90744 -14.65003,-3.3515 -22.313389,0.048 z"
       sodipodi:nodetypes="ccccc" />
    <rect
       style="fill:#00aa00;stroke:none;stroke-width:0.264583;stroke-opacity:1"
       id="rect7538"
       width="4.0233989"
       height="34.381771"
       x="183.13533"
       y="214.31248" />
    <rect
       style="fill:#008000;stroke:none;stroke-width:0.264583;stroke-opacity:1"
       id="rect7538-2-8"
       width="4.0233989"
       height="7.6810322"
       x="-112.24264"
       y="290.92505"
       transform="rotate(-61.133026)"
       inkscape:transform-center-x="2.4073012"
       inkscape:transform-center-y="-1.9189478" />
    <rect
       style="fill:#008000;stroke:none;stroke-width:0.264583;stroke-opacity:1"
       id="rect7538-2-1"
       width="4.0233989"
       height="7.6810322"
       x="-221.78928"
       y="215.4256"
       transform="rotate(-87.490846)"
       inkscape:transform-center-x="3.0090006"
       inkscape:transform-center-y="-0.65066354" />
    <rect
       style="fill:#008000;stroke:none;stroke-width:0.264583;stroke-opacity:1"
       id="rect7538-2-1-1"
       width="4.0233989"
       height="7.6810322"
       x="-216.93712"
       y="217.28679"
       transform="rotate(-87.490846)"
       inkscape:transform-center-x="3.0090006"
       inkscape:transform-center-y="-0.65066354" />
    <rect
       style="fill:#00aa00;stroke:none;stroke-width:0.264583;stroke-opacity:1"
       id="rect7538-0"
       width="4.0233989"
       height="34.381771"
       x="-9.7459946"
       y="284.47403"
       transform="rotate(-42.283086)" />
    <rect
       style="fill:#00aa00;stroke:none;stroke-width:0.264583;stroke-opacity:1"
       id="rect7538-1"
       width="4.0233989"
       height="34.381771"
       x="-134.87849"
       y="247.54025"
       transform="rotate(-69.099572)" />
    <rect
       style="fill:#008000;stroke:none;stroke-width:0.264583;stroke-opacity:1"
       id="rect7538-2"
       width="4.0233989"
       height="7.6810322"
       x="-123.56541"
       y="284.44391"
       transform="rotate(-61.133026)"
       inkscape:transform-center-x="2.4073012"
       inkscape:transform-center-y="-1.9189478" />
    <rect
       style="fill:#00aa00;stroke:none;stroke-width:0.264583;stroke-opacity:1"
       id="rect7538-6"
       width="4.0233989"
       height="34.381771"
       x="96.941231"
       y="267.62448"
       transform="rotate(-20.409083)" />
    <rect
       style="fill:#00aa00;stroke:none;stroke-width:0.264583;stroke-opacity:1"
       id="rect7538-5"
       width="4.0233989"
       height="34.381771"
       x="-110.86456"
       y="260.02628"
       transform="rotate(-63.295254)" />
  </g>
</svg>
