<?xml version="1.0" encoding="UTF-8" standalone="no"?>
<!-- Created with Inkscape (http://www.inkscape.org/) -->

<svg
   width="133mm"
   height="208mm"
   viewBox="0 0 133 208"
   version="1.1"
   id="svg5"
   inkscape:version="1.1 (c68e22c387, 2021-05-23)"
   sodipodi:docname="Dame_gauche_2.svg"
   inkscape:export-filename="C:\Users\basti\OneDrive\Images\gimp\Gus_droit.png"
   inkscape:export-xdpi="4.8437209"
   inkscape:export-ydpi="4.8437209"
   xmlns:inkscape="http://www.inkscape.org/namespaces/inkscape"
   xmlns:sodipodi="http://sodipodi.sourceforge.net/DTD/sodipodi-0.dtd"
   xmlns="http://www.w3.org/2000/svg"
   xmlns:svg="http://www.w3.org/2000/svg">
  <sodipodi:namedview
     id="namedview7"
     pagecolor="#ffffff"
     bordercolor="#666666"
     borderopacity="1.0"
     inkscape:pageshadow="2"
     inkscape:pageopacity="0.0"
     inkscape:pagecheckerboard="0"
     inkscape:document-units="mm"
     showgrid="false"
     inkscape:zoom="0.7233726"
     inkscape:cx="-52.53171"
     inkscape:cy="503.8897"
     inkscape:window-width="1920"
     inkscape:window-height="1001"
     inkscape:window-x="-9"
     inkscape:window-y="-9"
     inkscape:window-maximized="1"
     inkscape:current-layer="layer1"
     height="296mm" />
  <defs
     id="defs2" />
  <g
     inkscape:label="Calque 1"
     inkscape:groupmode="layer"
     id="layer1">
    <path
       id="path6843"
       style="fill:#d4aa00;stroke-width:0.264584"
       d="m 20.494358,167.55896 c 3.89966,26.75765 30.574109,16.93308 40.60752,17.73953 18.746473,1.50678 43.092022,12.72572 51.897482,-19.93411 C 122.64424,129.59115 79.149306,96.565204 60.373489,95.320675 42.500517,94.135986 16.394786,115.981 12.769726,134.83276 c -1.942734,10.1031 6.087163,21.49059 7.724632,32.7262 z"
       sodipodi:nodetypes="ssssss" />
    <ellipse
       style="fill:#666666;fill-opacity:1;stroke-width:0.264618"
       id="path10952"
       cx="-59.353027"
       cy="199.03496"
       rx="29.954447"
       ry="7.9635439"
       transform="matrix(-0.99994533,-0.01045614,0.01309942,0.9999142,0,0)" />
    <path
       id="path31-6"
       style="fill:#5b3100;fill-opacity:1;fill-rule:evenodd;stroke-width:0.357437"
       d="m 108.15964,57.632561 c -0.93403,59.223239 -5.45512,30.375559 -47.00472,51.473059 -8.911251,4.52484 -13.616399,-0.34098 -18.455372,-0.10086 -4.84186,0.24027 -9.816387,5.58426 -14.897039,2.73162 C 14.088701,104.03646 -1.1690957,87.250209 0.07088666,73.150594 5.1033691,15.927546 15.613356,3.1172853 54.380634,2.8480142 94.487535,2.5694383 108.87102,12.528148 108.15964,57.632561 Z"
       sodipodi:nodetypes="sssssss" />
    <path
       id="path8548"
       style="fill:#aa8800;stroke-width:0.264584"
       d="m 45.077394,141.58975 c 0,15.95841 -23.181386,14.08185 -21.572275,14.0819 1.609102,1e-5 31.240114,3.52249 31.240114,-12.43596 0,-15.95845 -7.512453,-15.72784 -9.121554,-15.72784 -1.609111,5e-5 -0.546285,-1.87651 -0.546285,14.0819 z"
       sodipodi:nodetypes="ssscs" />
    <ellipse
       style="fill:#5b3100;fill-opacity:1;stroke-width:0.381028"
       id="path9819-5"
       cx="-35.952198"
       cy="167.29491"
       rx="13.868394"
       ry="14.278785"
       transform="scale(-1,1)" />
    <ellipse
       style="fill:#5b3100;fill-opacity:1;stroke-width:0.148273"
       id="path9819-9-5"
       cx="-40.089878"
       cy="153.7515"
       rx="5.8158531"
       ry="5.1560364"
       transform="scale(-1,1)" />
    <path
       id="path1496"
       style="fill:#241c1c;stroke-width:0.264584"
       d="m 33.789393,64.406252 c -4.063826,6.991591 7.953431,49.362968 21.142872,59.337228 9.345267,7.06718 18.003322,12.65866 29.059741,15.52873 17.578494,4.56308 10.804834,14.36629 22.161444,18.29961 23.84414,8.25832 18.28416,-67.893035 18.28416,-98.069019 0,-30.175984 -19.94641,-54.6384543 -44.551543,-54.6384548 -7.093953,-1e-7 -28.579526,-7.0339988 -43.078899,-4.18508041 C 23.234539,3.3460899 17.514768,8.708124 14.497435,14.049591 8.0733486,25.421892 39.40145,54.750996 33.789393,64.406252 Z"
       sodipodi:nodetypes="sssssssss" />
    <path
       id="rect9627"
       style="fill:#0000aa;stroke-width:0.264582"
       d="m 103.59221,182.64542 -74.202683,0.0603 7.723151,6.55212 9.559819,5.86909 45.209638,4.92104 3.231256,-6.86539 c 9.027509,-7.19502 7.302489,-9.99963 8.478819,-10.53717 z"
       sodipodi:nodetypes="cccccccc" />
    <path
       id="rect1430"
       style="fill:#28170b;stroke-width:0.147508"
       d="m 20.315238,44.457281 -9.29523,-1.617961 -8.1124737,1.060225 c 8.2334997,0.735246 16.4548447,1.263587 24.8486997,4.723766 0.206772,-1.175977 -7.306435,-3.275629 -7.440996,-4.16603 z"
       sodipodi:nodetypes="ccccc"
       inkscape:transform-center-x="-3.5301562"
       inkscape:transform-center-y="1.5908507" />
    <path
       id="path2169-5-4-0"
       style="fill:#deaa87;stroke-width:0.456427"
       d="m 18.065969,53.428488 c 0.79082,3.16755 -3.917703,5.70867 -8.2556953,5.70867 -4.3379597,0 -8.0528545,-3.84533 -7.8546022,-6.09243 0.2439721,-2.76539 3.3829095,-5.9965 7.8546022,-6.09245 4.3375263,-0.093 7.3198553,2.72769 8.2556953,6.47621 z"
       sodipodi:nodetypes="sssss" />
    <path
       id="path3219-1"
       style="fill:#241c1c;stroke-width:0.479566"
       d="m 1.1466598,80.276713 c -0.057678,0.58022 0.3744959,1.105118 4.09814,0.839502 3.5726185,-0.254845 4.0719138,-1.436623 4.1297437,-2.017608 0.057678,-0.580229 -2.6799842,1.062146 -4.2729307,0.977532 -3.7280134,-0.198025 -3.8972207,-0.37963 -3.954953,0.200574 z"
       sodipodi:nodetypes="sssss" />
    <ellipse
       style="fill:#28170b;stroke-width:0.285997"
       id="path2169"
       ry="3.7418122"
       rx="5.0212965"
       cy="53.043602"
       cx="-7.9119449"
       transform="scale(-1,1)" />
    <ellipse
       style="fill:#000000;fill-opacity:0.998403;stroke-width:0.433746"
       id="path31470"
       cx="-1.6048895"
       cy="68.837997"
       rx="0.97892904"
       ry="1.0972906"
       transform="scale(-1,1)" />
    <path
       id="rect12869"
       style="fill:#d4aa00;stroke-width:0.264584"
       d="m 51.033437,150.84353 -5.636391,4.66044 -2.889352,23.06055 17.804616,-3.69379 z"
       sodipodi:nodetypes="ccccc" />
  </g>
</svg>
