<?xml version="1.0" encoding="UTF-8" standalone="no"?>
<!-- Created with Inkscape (http://www.inkscape.org/) -->

<svg
   width="210mm"
   height="297mm"
   viewBox="0 0 210 297"
   version="1.1"
   id="svg1343"
   inkscape:version="1.1 (c68e22c387, 2021-05-23)"
   sodipodi:docname="fighter_sp1.svg"
   inkscape:export-filename="C:\Users\basti\OneDrive\Bureau\Gus veut boire un coup\Gus\fighter_1\fighter_1_sp2.png"
   inkscape:export-xdpi="73.163231"
   inkscape:export-ydpi="73.163231"
   xmlns:inkscape="http://www.inkscape.org/namespaces/inkscape"
   xmlns:sodipodi="http://sodipodi.sourceforge.net/DTD/sodipodi-0.dtd"
   xmlns="http://www.w3.org/2000/svg"
   xmlns:svg="http://www.w3.org/2000/svg">
  <sodipodi:namedview
     id="namedview1345"
     pagecolor="#ffffff"
     bordercolor="#666666"
     borderopacity="1.0"
     inkscape:pageshadow="2"
     inkscape:pageopacity="0.0"
     inkscape:pagecheckerboard="0"
     inkscape:document-units="mm"
     showgrid="false"
     inkscape:zoom="5.9722783"
     inkscape:cx="34.325259"
     inkscape:cy="58.687821"
     inkscape:window-width="1920"
     inkscape:window-height="1001"
     inkscape:window-x="-9"
     inkscape:window-y="-9"
     inkscape:window-maximized="1"
     inkscape:current-layer="layer1" />
  <defs
     id="defs1340" />
  <g
     inkscape:label="Calque 1"
     inkscape:groupmode="layer"
     id="layer1">
    <path
       id="path11385-4-1-1-5-2-8"
       style="fill:#ac9393;stroke-width:0.548397"
       d="m 12.642613,26.050473 c -0.341054,0.864067 -1.172958,1.00414 -3.1421716,0.226875 -1.9691949,-0.777258 -2.5471966,-1.473834 -2.2061421,-2.337901 0.341051,-0.864057 1.2603569,-0.935488 3.2295517,-0.15823 1.969203,0.777263 2.459812,1.405198 2.118762,2.269256 z"
       sodipodi:nodetypes="sssss" />
    <path
       id="path11724-0-2-14-2-8-2"
       style="fill:#916f6f;stroke-width:0.398878"
       d="m 11.819761,26.266692 c -0.06811,0.168759 -0.39477,0.20875 -2.1626088,-0.421795 -1.7677978,-0.630544 -2.0827873,-0.899402 -2.0146387,-1.068141 0.068214,-0.168753 0.331907,0.226987 2.0997098,0.857512 1.7678177,0.63055 2.1456397,0.463745 2.0775407,0.632414 z"
       sodipodi:nodetypes="sssss" />
    <path
       id="path11385-4-04-45-3-8-6"
       style="fill:#c8b7b7;stroke-width:0.548397"
       d="m 19.354624,26.262631 c 0,0.92893 -0.85749,1.36463 -3.37043,1.36463 -2.51294,0 -3.45468,-0.4357 -3.45468,-1.36463 0,-0.92894 0.98387,-1.3329 3.49681,-1.3329 2.51296,0 3.3283,0.40396 3.3283,1.3329 z"
       sodipodi:nodetypes="sssss" />
    <rect
       style="fill:#000000;fill-opacity:1;stroke-width:0.264582"
       id="rect12969-1-0"
       width="4.92487"
       height="1.9599133"
       x="13.971346"
       y="21.093016" />
    <path
       id="rect10620-3-0-1-1"
       style="fill:#000028;fill-opacity:1;stroke-width:0.462379"
       d="m 9.0545627,23.550761 c 0.3764995,-0.965012 0.9648093,-1.570878 1.9927303,-1.993414 2.558897,-1.051858 5.972704,-1.24361 5.978751,2.006187 0.0185,-0.161127 -0.26285,0.894044 -0.34174,1.580545 -1.957357,-0.639375 -2.530232,-1.123198 -4.480109,-0.05981 -1.033981,-0.30196 -3.2434401,-0.508612 -3.1496323,-1.533512 z"
       sodipodi:nodetypes="cscccc" />
    <path
       id="rect10620-1-8-9-9-7"
       style="fill:#00003c;fill-opacity:1;stroke-width:0.398878"
       d="m 12.745103,23.966856 c 0.84731,-5.366662 6.761896,-6.366652 6.835126,-1.763658 -1.349985,1.427592 -0.82493,2.248554 -0.863306,3.251802 -1.429183,-0.06603 -3.008006,0.578723 -4.226758,-0.486862 z"
       sodipodi:nodetypes="ccccc" />
    <path
       id="path4257-0-5-6-5-0-3-4"
       style="fill:#000055;fill-opacity:1;stroke-width:0.218812"
       d="m 11.656114,16.795927 c 0.0207,0.51599 -0.28191,0.7416 0.31268,0.62454 0,0 0.35608,-0.95139 0.33251,-1.82124 -0.0154,-0.54026 -0.76872,-1.88984 -0.71655,-0.58628 z"
       sodipodi:nodetypes="sssss" />
    <ellipse
       style="fill:#deaa87;stroke-width:0.148272"
       id="path9819-9-7-8-8-0-4"
       cx="12.090235"
       cy="20.566084"
       rx="0.52575547"
       ry="0.4306986" />
    <path
       id="path6217-9-9-5-1"
       style="fill:#003380;stroke-width:0.398878"
       d="m 12.398904,16.096787 c 1.99969,3.25737 2.204613,3.668865 -0.931037,3.7985 -2.0479409,0.08476 -3.3275734,-0.414257 -3.3275734,-2.857296 0,-1.706333 1.00119,-3.171467 2.3659204,-3.171467 1.36471,0 1.01296,0.797208 1.89269,2.230263 z"
       sodipodi:nodetypes="sssss" />
    <path
       id="rect21874-0-5-4-1"
       style="fill:#003380;stroke-width:0.264582"
       d="m 11.508474,18.112097 8.72797,0.55229 c -0.0364,0.79577 -0.237365,3.295151 -0.656215,3.538811 -3.89259,0.70305 -5.34912,0.279679 -8.66067,-0.648501 0.479608,-0.61337 -0.548177,-2.82964 0.588935,-3.443 z"
       sodipodi:nodetypes="cccccc" />
    <path
       id="rect8523-7-3-4-8"
       style="fill:#003380;stroke-width:0.376887"
       d="m 9.4217129,14.380597 9.4405611,-0.99698 0.555994,0.877703 0.463665,6.831696 -8.711597,-0.889703 z"
       sodipodi:nodetypes="cccccc" />
    <ellipse
       style="fill:#ffccaa;stroke-width:0.148272"
       id="path9819-9-7-8-1-9-3"
       cx="10.325493"
       cy="17.889719"
       rx="0.52575547"
       ry="0.4306986" />
    <path
       id="path6217-9-9-3-7-8-0"
       style="fill:#003380;stroke-width:0.398878"
       d="m 16.684244,16.783874 c -1.40043,3.69366 -4.020376,3.171122 -0.08641,3.312502 2.56931,0.0923 4.609631,0.488613 4.609631,-2.175407 0,-1.86068 -0.436495,-3.569095 -2.148665,-3.569095 -1.71216,0 -1.64348,0.5038 -2.37456,2.432 z"
       sodipodi:nodetypes="ssssss" />
    <ellipse
       style="fill:#ffccaa;stroke-width:0.148272"
       id="path9819-9-7-8-1-9"
       cx="16.265287"
       cy="18.443577"
       rx="0.52575547"
       ry="0.4306986" />
    <rect
       style="fill:#28170b;fill-opacity:1;stroke-width:0.280313"
       id="rect24649"
       width="0.43880653"
       height="1.6168292"
       x="-29.817169"
       y="9.156476"
       transform="matrix(-0.8595193,-0.51110328,-0.84572423,0.5336202,0,0)" />
    <path
       id="path4257-0-5-7-9-5-5-4"
       style="fill:#002255;fill-opacity:1;stroke-width:0.253626"
       d="m 18.449483,17.751436 c -0.0278,0.285039 -0.595902,0.697649 -1.394732,0.632986 0,0 0.496242,-0.813551 0.527922,-1.294082 0.0197,-0.298449 1.03276,-1.043982 0.96269,-0.323867 z"
       sodipodi:nodetypes="sssss" />
    <rect
       style="fill:#000000;fill-opacity:1;stroke-width:0.264582"
       id="rect12931-8-7-6"
       width="0.22212978"
       height="1.741194"
       x="12.520647"
       y="15.492492" />
    <rect
       style="fill:#000000;fill-opacity:1;stroke-width:0.264582"
       id="rect12931-8-7-6-7"
       width="0.22212978"
       height="1.741194"
       x="13.658945"
       y="15.621856" />
    <path
       id="rect24181"
       style="fill:#2b1100;stroke-width:0.264582"
       d="m 11.044764,14.903067 -0.5188,0.19872 3.44538,5.99124 c 1.07114,0.66681 0.34586,-0.13247 0.5188,-0.19871 z"
       sodipodi:nodetypes="ccccc" />
    <ellipse
       style="fill:#ffccaa;stroke-width:0.398878"
       id="path9819-5-0-5-9-5"
       cx="18.592388"
       cy="-11.741019"
       rx="0.97849739"
       ry="1.6747377"
       transform="rotate(90)" />
    <path
       id="path31-9-9-4-8-9"
       style="fill:#ffccaa;fill-opacity:1;fill-rule:evenodd;stroke-width:0.398878"
       d="m 8.5917936,10.280897 c 0.19906,-1.08946 -1.48507,-5.77068 6.0715904,-5.45575 6.24739,0.26038 4.73672,4.56691 4.80318,4.95683 0.34387,2.01753 -0.85111,5.42641 -4.98155,5.94623 -4.46255,0.56159 -6.2970504,-3.23706 -5.8932204,-5.44731 z"
       sodipodi:nodetypes="sssss" />
    <path
       id="rect1628"
       style="fill:#c87137;stroke-width:0.264583"
       d="m 16.246199,18.184161 c -0.693322,0.435527 -0.414207,1.32544 -2.500962,1.109859 l -1.280613,-2.885735 c 0.426131,-0.83828 1.314981,-1.733103 2.500982,-1.10985 z"
       sodipodi:nodetypes="ccccc" />
    <path
       id="rect1430-1-8-6-7-2"
       style="fill:#28170b;stroke-width:0.210089"
       d="M 14.985254,8.5223981 13.702856,8.8264672 12.800207,9.6266886 C 13.611564,9.0746779 14.783077,8.6685312 16.263331,8.9001217 16.184662,8.6314003 15.079766,8.7055513 14.985244,8.5223491 Z"
       sodipodi:nodetypes="cccccc"
       inkscape:transform-center-x="-0.61877632"
       inkscape:transform-center-y="0.021713335" />
    <path
       id="rect1430-1-8-6-7-4-5"
       style="fill:#28170b;stroke-width:0.210089"
       d="m 9.4742155,8.7706394 0.9811005,0.28627 0.6259,0.77669 C 10.340778,9.1771202 9.5064885,8.9342075 8.4212955,9.1533894 c 0.091,-0.26473 0.95793,-0.20213 1.05292,-0.38277 z"
       sodipodi:nodetypes="cccccc"
       inkscape:transform-center-x="0.51282381"
       inkscape:transform-center-y="0.021147908" />
    <path
       id="path2169-5-4-04-7-9-1"
       style="fill:#e9c6af;stroke-width:0.566042"
       d="m 10.915084,10.010807 c 0.10992,0.21534 -0.54468,0.30245 -1.1478204,0.30245 -0.60312,0 -1.11961,-0.17577 -1.09206,-0.32854 0.0338,-0.188 0.47032,-0.40765 1.09206,-0.41419 0.6030804,-0.006 1.0177304,0.18545 1.1478204,0.44028 z"
       sodipodi:nodetypes="sssss" />
    <path
       id="path2169-5-4-0-9-4-9-5"
       style="fill:#e9c6af;stroke-width:0.551594"
       d="m 13.311864,10.075957 c -0.1044,0.18949 0.50156,0.21589 1.07428,0.21589 0.57274,0 1.07892,-0.10442 1.05273,-0.23884 -0.0322,-0.16546 -0.44664,-0.35875 -1.03704,-0.36447 -0.57265,-0.005 -0.96641,0.16318 -1.08997,0.38742 z"
       sodipodi:nodetypes="sssss" />
    <ellipse
       style="fill:#502d16;stroke-width:0.344828"
       id="path2169-03-4-0-2"
       ry="0.31256437"
       rx="0.65988362"
       cy="10.007263"
       cx="9.433939" />
    <ellipse
       style="fill:#28170b;stroke-width:0.344828"
       id="path2169-0-8-7-5-1"
       ry="0.22066769"
       rx="0.44355947"
       cy="10.077614"
       cx="9.2919683" />
    <ellipse
       style="fill:#502d16;stroke-width:0.314342"
       id="path2169-5-48-7-0-5"
       cx="13.866297"
       cy="10.093178"
       rx="0.54835397"
       ry="0.29502484" />
    <ellipse
       style="fill:#28170b;stroke-width:0.344828"
       id="path2169-0-2-9-0-5-8"
       ry="0.22066769"
       rx="0.44355947"
       cy="10.130263"
       cx="13.848429" />
    <path
       id="path11724-0-2-14-2-8"
       style="fill:#916f6f;stroke-width:0.398878"
       d="m 17.138914,27.195131 c -0.0225,0.18058 -0.32796,0.30311 -2.19841,0.1476 -1.87043,-0.15552 -2.24389,-0.33449 -2.22136,-0.51507 0.0225,-0.18062 0.37905,0.13416 2.24948,0.28966 1.87048,0.15553 2.19281,-0.1027 2.17028,0.0778 z"
       sodipodi:nodetypes="sssss" />
    <path
       id="rect12747-2-4-7-8"
       style="fill:#1c1f24;stroke-width:0.398878"
       d="m 11.237344,14.107807 c 0.47383,-0.12744 1.10612,-0.0494 1.71624,0 v 0 c -0.521921,0.42429 -1.557377,0.587339 -1.95424,0.10942 z"
       sodipodi:nodetypes="ccccc" />
    <path
       id="rect12747-2-4-7-8-0"
       style="fill:#1c1f24;fill-opacity:0.50639;stroke-width:0.398878"
       d="m 11.211014,13.670797 c 0.47383,-0.12744 1.10612,-0.0494 1.71624,0 l 0.18137,0.16143 c -0.54707,-0.0526 -1.63069,-0.0902 -2.13561,-0.052 z"
       sodipodi:nodetypes="ccccc" />
    <path
       id="rect17694-1"
       style="stroke-width:0.264582"
       d="m 11.050211,12.479629 c 0.205611,-0.09239 0.404316,-0.07427 0.599511,0 v 0.123504 h -0.599511 z"
       sodipodi:nodetypes="ccccc" />
    <path
       id="rect17694-7-5"
       style="stroke-width:0.264582"
       d="m 12.280115,12.528197 c 0.206171,-0.06967 0.403667,-0.04392 0.599511,0 v 0.123504 h -0.599511 z"
       sodipodi:nodetypes="ccccc" />
    <ellipse
       style="fill:#a05a2c;stroke-width:0.264584"
       id="path2211"
       cx="-5.2604322"
       cy="-20.496964"
       rx="1.2023382"
       ry="0.65271729"
       transform="rotate(153.10142)" />
    <rect
       style="fill:#2b1100;fill-opacity:1;stroke-width:0.264582"
       id="rect24357"
       width="2.2924378"
       height="2.3386087"
       x="-16.456499"
       y="20.45648"
       transform="scale(-1,1)" />
    <rect
       style="fill:#552200;stroke-width:0.29625"
       id="rect2337"
       width="2.2592118"
       height="1.1400765"
       x="-17.623056"
       y="-29.195318"
       transform="matrix(-0.74715232,0.66465285,-0.07953264,-0.99683226,0,0)" />
    <ellipse
       style="fill:#ffccaa;stroke-width:0.398878"
       id="path9819-8-8-8-2"
       cx="19.555994"
       cy="-15.966489"
       rx="0.97849739"
       ry="1.6747377"
       transform="rotate(90)" />
    <rect
       style="fill:#502d16;fill-opacity:1;stroke-width:0.264582"
       id="rect24359"
       width="2.063194"
       height="0.10523742"
       x="-16.356173"
       y="20.62602"
       transform="scale(-1,1)" />
    <rect
       style="fill:#502d16;fill-opacity:1;stroke-width:0.264582"
       id="rect24359-7"
       width="2.063194"
       height="0.10523742"
       x="-16.348986"
       y="20.865721"
       transform="scale(-1,1)" />
  </g>
</svg>
