<?xml version="1.0" encoding="UTF-8" standalone="no"?>
<!-- Created with Inkscape (http://www.inkscape.org/) -->

<svg
   width="210mm"
   height="297mm"
   viewBox="0 0 210 297"
   version="1.1"
   id="svg1343"
   inkscape:version="1.1 (c68e22c387, 2021-05-23)"
   sodipodi:docname="fighter_1.ouille.svg"
   inkscape:export-filename="C:\Users\basti\OneDrive\Bureau\Gus veut boire un coup\Gus\fighter_1\fighter_1_ouille2.png"
   inkscape:export-xdpi="73.163231"
   inkscape:export-ydpi="73.163231"
   xmlns:inkscape="http://www.inkscape.org/namespaces/inkscape"
   xmlns:sodipodi="http://sodipodi.sourceforge.net/DTD/sodipodi-0.dtd"
   xmlns="http://www.w3.org/2000/svg"
   xmlns:svg="http://www.w3.org/2000/svg">
  <sodipodi:namedview
     id="namedview1345"
     pagecolor="#ffffff"
     bordercolor="#666666"
     borderopacity="1.0"
     inkscape:pageshadow="2"
     inkscape:pageopacity="0.0"
     inkscape:pagecheckerboard="0"
     inkscape:document-units="mm"
     showgrid="false"
     inkscape:zoom="2.1115192"
     inkscape:cx="181.38599"
     inkscape:cy="-43.333728"
     inkscape:window-width="1920"
     inkscape:window-height="1001"
     inkscape:window-x="-9"
     inkscape:window-y="-9"
     inkscape:window-maximized="1"
     inkscape:current-layer="layer1" />
  <defs
     id="defs1340" />
  <g
     inkscape:label="Calque 1"
     inkscape:groupmode="layer"
     id="layer1">
    <path
       id="path11385-4-1-1-5-2-8"
       style="fill:#ac9393;stroke-width:0.548397"
       d="m 14.980506,26.091996 c -0.05188,0.927489 -0.797473,1.322182 -2.911228,1.203938 -2.1137347,-0.118244 -2.8815404,-0.597596 -2.8296554,-1.525086 0.05188,-0.92748 0.9020314,-1.284514 3.0157664,-1.166271 2.113745,0.118244 2.777001,0.559939 2.725117,1.487419 z"
       sodipodi:nodetypes="sssss" />
    <path
       id="path11724-0-2-14-2-8-2"
       style="fill:#916f6f;stroke-width:0.398878"
       d="m 14.27345,27.002275 c -0.03255,0.179052 -0.344357,0.284321 -2.203222,0.02458 -1.858824,-0.259747 -2.2217047,-0.459297 -2.1891137,-0.638336 0.03265,-0.179066 0.3709747,0.155123 2.2297997,0.414849 1.858844,0.259748 2.195093,0.01993 2.162537,0.198895 z"
       sodipodi:nodetypes="sssss" />
    <path
       id="path11385-4-04-45-3-8-6"
       style="fill:#c8b7b7;stroke-width:0.548397"
       d="m 20.922861,26.0729 c 0.06873,0.926383 -0.754179,1.424329 -3.260232,1.610246 -2.506054,0.185916 -3.477447,-0.178917 -3.546173,-1.105302 -0.06873,-0.926393 0.882561,-1.402037 3.388614,-1.587953 2.506074,-0.185917 3.349065,0.156614 3.417791,1.083009 z"
       sodipodi:nodetypes="sssss" />
    <rect
       style="fill:#000000;fill-opacity:1;stroke-width:0.264582"
       id="rect12969-1-0"
       width="4.9652362"
       height="2.4038348"
       x="13.971346"
       y="21.093016" />
    <path
       id="rect10620-3-0-1-1"
       style="fill:#000028;fill-opacity:1;stroke-width:0.462379"
       d="m 11.711778,23.762634 c 0.10831,-5.222084 5.305616,-4.754574 5.314266,-0.1991 0.0185,-0.161127 -0.26285,0.894044 -0.34174,1.580545 l -4.68373,-0.310416 z"
       sodipodi:nodetypes="ccccc" />
    <path
       id="rect10620-1-8-9-9-7"
       style="fill:#00003c;fill-opacity:1;stroke-width:0.398878"
       d="m 14.374064,23.841551 c 0.84731,-5.366662 5.132935,-6.241347 5.206165,-1.638353 l 0.389741,2.813236 c -1.429183,-0.06603 -3.509225,1.267898 -4.727977,0.202313 z"
       sodipodi:nodetypes="ccccc" />
    <path
       id="path6217-9-9-5-1"
       style="fill:#003380;stroke-width:0.398878"
       d="m 14.015924,15.827912 c 1.99969,3.60877 2.192548,3.898209 -0.931037,4.208277 -2.702617,1.454725 2.012528,0.484157 -1.481004,0.598197 -1.306822,-0.594085 -4.39677,-1.583107 -3.6515465,-3.097626 0.8346159,-1.696191 1.1891471,-3.670231 2.5538775,-3.670231 1.36471,0 2.62998,0.373738 3.50971,1.961388 z"
       sodipodi:nodetypes="sccssss" />
    <path
       id="rect21874-0-5-4-1"
       style="fill:#003380;stroke-width:0.264582"
       d="m 11.508474,18.112097 8.72797,0.55229 c -0.0364,0.79577 -0.237365,3.295151 -0.656215,3.538811 -3.89259,0.70305 -4.529535,0.833453 -7.841085,-0.09473 0.652017,-2.308615 -1.214274,-3.834659 -0.23065,-3.996774 z"
       sodipodi:nodetypes="cccccc" />
    <path
       id="rect8523-7-3-4-8"
       style="fill:#003380;stroke-width:0.376887"
       d="m 9.4217129,14.380597 9.4405611,-0.99698 0.555994,0.877703 0.463665,6.831696 -7.604049,-0.513137 z"
       sodipodi:nodetypes="cccccc" />
    <ellipse
       style="fill:#ffccaa;stroke-width:0.148272"
       id="path9819-9-7-8-1-9-3"
       cx="18.900957"
       cy="16.595549"
       rx="0.52575547"
       ry="0.4306986" />
    <path
       id="path6217-9-9-3-7-8-0"
       style="fill:#003380;stroke-width:0.398878"
       d="m 20.867027,15.799635 c 3.033377,6.260054 -4.401918,5.212102 -4.523221,1.137095 0,-1.86068 0.436495,-3.569095 2.148665,-3.569095 1.71216,0 1.64348,0.5038 2.37456,2.432 z"
       sodipodi:nodetypes="ccssc" />
    <ellipse
       style="fill:#ffccaa;stroke-width:0.148272"
       id="path9819-9-7-8-1-9"
       cx="26.683172"
       cy="0.7508083"
       rx="0.52575547"
       ry="0.4306986"
       transform="rotate(42.379292)" />
    <rect
       style="fill:#28170b;fill-opacity:1;stroke-width:0.280313"
       id="rect24649"
       width="0.43880653"
       height="1.6168292"
       x="-29.817169"
       y="9.156476"
       transform="matrix(-0.8595193,-0.51110328,-0.84572423,0.5336202,0,0)" />
    <path
       id="path4257-0-5-7-9-5-5-4"
       style="fill:#002255;fill-opacity:1;stroke-width:0.253626"
       d="m 17.884634,17.485625 c -0.0278,0.285039 2.682439,1.960253 1.883609,1.89559 0,0 -2.782099,-2.076155 -2.750419,-2.556686 0.0197,-0.298449 1.03276,-1.043982 0.96269,-0.323867 z"
       sodipodi:nodetypes="sssss" />
    <rect
       style="fill:#000000;fill-opacity:1;stroke-width:0.264582"
       id="rect12931-8-7-6"
       width="0.22212978"
       height="1.741194"
       x="0.15968436"
       y="-30.018858"
       transform="matrix(0.738699,-0.67403545,-0.67403545,-0.738699,0,0)" />
    <rect
       style="fill:#000000;fill-opacity:1;stroke-width:0.264582"
       id="rect12931-8-7-6-7"
       width="0.22212978"
       height="1.741194"
       x="1.2979825"
       y="-29.889494"
       transform="matrix(0.738699,-0.67403545,-0.67403545,-0.738699,0,0)" />
    <path
       id="rect24181"
       style="fill:#2b1100;stroke-width:0.264582"
       d="m 11.044764,14.903067 -0.5188,0.19872 3.44538,5.99124 c 1.07114,0.66681 0.34586,-0.13247 0.5188,-0.19871 z"
       sodipodi:nodetypes="ccccc" />
    <ellipse
       style="fill:#ffccaa;stroke-width:0.398878"
       id="path9819-5-0-5-9-5"
       cx="19.846741"
       cy="-12.665952"
       rx="0.97849739"
       ry="1.6747377"
       transform="rotate(90)" />
    <path
       id="path31-9-9-4-8-9"
       style="fill:#ffccaa;fill-opacity:1;fill-rule:evenodd;stroke-width:0.398878"
       d="m 8.5917936,10.280897 c 0.1990609,-1.0894598 -1.48507,-5.77068 6.0715904,-5.45575 6.24739,0.26038 4.73672,4.56691 4.80318,4.95683 0.34387,2.01753 -0.915949,5.050889 -4.98155,5.94623 -4.5449204,1.000899 -6.2976868,-3.233666 -5.8932204,-5.44731 z"
       sodipodi:nodetypes="sssss" />
    <path
       id="rect1628"
       style="fill:#c87137;stroke-width:0.264583"
       d="m 20.622329,18.881229 c -0.805716,0.145601 -1.199367,-0.699911 -2.595542,0.865886 l 0.9991,2.994868 c 0.879813,0.332009 2.139548,0.393897 2.595551,-0.865906 z"
       sodipodi:nodetypes="ccccc" />
    <path
       id="rect1430-1-8-6-7-2"
       style="fill:#28170b;stroke-width:0.210089"
       d="M 15.176917,8.6314707 13.87331,8.4375334 12.738031,8.8452956 c 1.153986,0.0089 2.306122,-0.030353 3.485275,0.6115385 0.02676,-0.2787187 -1.026656,-0.6202092 -1.04638,-0.8254126 z"
       sodipodi:nodetypes="ccccc"
       inkscape:transform-center-x="-0.49655947"
       inkscape:transform-center-y="0.22145883" />
    <path
       id="rect1430-1-8-6-7-4-5"
       style="fill:#28170b;stroke-width:0.210089"
       d="M 9.1709707,8.6600772 10.173641,8.4621877 11.086975,8.8632122 C 10.188062,8.8765528 9.2872633,8.8420201 8.4127594,9.4848522 8.3715722,9.2079649 9.1698687,8.8641495 9.1709615,8.6600595 Z"
       sodipodi:nodetypes="ccccc"
       inkscape:transform-center-x="0.35802568"
       inkscape:transform-center-y="0.22437236" />
    <path
       id="path2169-5-4-04-7-9-1"
       style="fill:#e9c6af;stroke-width:0.566042"
       d="m 10.915084,10.098959 c 0.10992,0.152585 -0.54468,0.214298 -1.1478204,0.214298 -0.60312,0 -1.11961,-0.124546 -1.09206,-0.232783 0.0338,-0.1332067 0.47032,-0.2888351 1.09206,-0.2934701 0.6030804,-0.00419 1.0177304,0.1313987 1.1478204,0.3119551 z"
       sodipodi:nodetypes="sssss" />
    <path
       id="path2169-5-4-0-9-4-9-5"
       style="fill:#e9c6af;stroke-width:0.551594"
       d="m 13.311864,10.145121 c -0.1044,0.134254 0.50156,0.152965 1.07428,0.152965 0.57274,0 1.07892,-0.07399 1.05273,-0.169221 -0.0322,-0.117237 -0.44664,-0.2541877 -1.03704,-0.2582403 -0.57265,-0.00362 -0.96641,0.1156187 -1.08997,0.2745023 z"
       sodipodi:nodetypes="sssss" />
    <ellipse
       style="fill:#502d16;stroke-width:0.344828"
       id="path2169-03-4-0-2"
       ry="0.22146399"
       rx="0.65988362"
       cy="10.059116"
       cx="9.7883167" />
    <ellipse
       style="fill:#28170b;stroke-width:0.344828"
       id="path2169-0-8-7-5-1"
       ry="0.15635163"
       rx="0.44355947"
       cy="10.064176"
       cx="9.7703648" />
    <ellipse
       style="fill:#502d16;stroke-width:0.314342"
       id="path2169-5-48-7-0-5"
       cx="14.374819"
       cy="10.088438"
       rx="0.54835397"
       ry="0.20903656" />
    <ellipse
       style="fill:#28170b;stroke-width:0.344828"
       id="path2169-0-2-9-0-5-8"
       ry="0.15635163"
       rx="0.44355947"
       cy="10.091507"
       cx="14.374514" />
    <path
       id="path11724-0-2-14-2-8"
       style="fill:#916f6f;stroke-width:0.398878"
       d="m 18.782213,27.16677 c -0.0091,0.181749 -0.304636,0.326542 -2.181465,0.30984 -1.87681,-0.01671 -2.262487,-0.167563 -2.25338,-0.349315 0.0091,-0.181789 0.387937,0.105749 2.264747,0.122443 1.87686,0.01672 2.179202,-0.264646 2.170087,-0.08298 z"
       sodipodi:nodetypes="sssss" />
    <path
       id="rect12747-2-4-7-8"
       style="fill:#1c1f24;stroke-width:0.398878"
       d="m 11.043629,14.185308 c 0.118359,-0.411817 1.114795,-0.34228 1.95424,-0.10942 l 0.0042,0.322014 c -0.613259,0.360553 -1.584258,0.628449 -1.958402,-0.212594 z"
       sodipodi:nodetypes="ccccc" />
    <path
       id="rect12747-2-4-7-8-0"
       style="fill:#1c1f24;fill-opacity:0.50639;stroke-width:0.398878"
       d="m 11.211014,13.670797 c 0.381893,-0.208175 0.989776,-0.09515 1.71624,0 l 0.18137,0.16143 c -0.775638,-0.108618 -1.713913,0.09666 -2.13561,-0.052 z"
       sodipodi:nodetypes="ccccc" />
    <rect
       style="fill:#000000;fill-opacity:1;stroke-width:0.264582"
       id="rect17694-1"
       width="0.59951073"
       height="0.12350398"
       x="11.050211"
       y="12.479629" />
    <rect
       style="fill:#000000;fill-opacity:1;stroke-width:0.264582"
       id="rect17694-7-5"
       width="0.59951073"
       height="0.12350398"
       x="12.280115"
       y="12.528197" />
    <ellipse
       style="fill:#a05a2c;stroke-width:0.264584"
       id="path2211"
       cx="-13.579063"
       cy="26.626129"
       rx="1.2023382"
       ry="0.65271729"
       transform="matrix(-0.96372037,0.26691393,0.26691393,0.96372037,0,0)" />
    <rect
       style="fill:#2b1100;fill-opacity:1;stroke-width:0.264582"
       id="rect24357"
       width="2.2924378"
       height="2.3386087"
       x="-16.456499"
       y="20.45648"
       transform="scale(-1,1)" />
    <rect
       style="fill:#552200;stroke-width:0.29625"
       id="rect2337"
       width="2.2592118"
       height="1.1400765"
       x="-4.8799601"
       y="25.590618"
       transform="matrix(-0.99992025,0.01262875,0.61314959,0.78996682,0,0)" />
    <ellipse
       style="fill:#ffccaa;stroke-width:0.398878"
       id="path9819-8-8-8-2"
       cx="19.258207"
       cy="-20.82246"
       rx="0.97849739"
       ry="1.6747377"
       transform="rotate(90)" />
    <rect
       style="fill:#502d16;fill-opacity:1;stroke-width:0.264582"
       id="rect24359"
       width="2.063194"
       height="0.10523742"
       x="-16.356173"
       y="20.62602"
       transform="scale(-1,1)" />
    <rect
       style="fill:#502d16;fill-opacity:1;stroke-width:0.264582"
       id="rect24359-7"
       width="2.063194"
       height="0.10523742"
       x="-16.348986"
       y="20.865721"
       transform="scale(-1,1)" />
  </g>
</svg>
