<?xml version="1.0" encoding="UTF-8" standalone="no"?>
<!-- Created with Inkscape (http://www.inkscape.org/) -->

<svg
   width="95"
   height="155"
   viewBox="0 0 25.135416 41.010416"
   version="1.1"
   id="svg4200"
   inkscape:version="1.2 (dc2aedaf03, 2022-05-15)"
   sodipodi:docname="front car.svg"
   inkscape:export-filename="..\Gus veut boire un coup\bank\image\lvl6\back_suv_red.png"
   inkscape:export-xdpi="96"
   inkscape:export-ydpi="96"
   xmlns:inkscape="http://www.inkscape.org/namespaces/inkscape"
   xmlns:sodipodi="http://sodipodi.sourceforge.net/DTD/sodipodi-0.dtd"
   xmlns="http://www.w3.org/2000/svg"
   xmlns:svg="http://www.w3.org/2000/svg">
  <sodipodi:namedview
     id="namedview4202"
     pagecolor="#ffffff"
     bordercolor="#666666"
     borderopacity="1.0"
     inkscape:showpageshadow="2"
     inkscape:pageopacity="0.0"
     inkscape:pagecheckerboard="0"
     inkscape:deskcolor="#d1d1d1"
     inkscape:document-units="mm"
     showgrid="false"
     inkscape:zoom="2.993266"
     inkscape:cx="46.270529"
     inkscape:cy="61.972441"
     inkscape:window-width="1920"
     inkscape:window-height="1001"
     inkscape:window-x="-9"
     inkscape:window-y="-9"
     inkscape:window-maximized="1"
     inkscape:current-layer="layer1" />
  <defs
     id="defs4197" />
  <g
     inkscape:label="Calque 1"
     inkscape:groupmode="layer"
     id="layer1">
    <path
       id="rect5846"
       style="stroke-width:0.264583"
       d="M 0.46535091,34.177448 H 5.0234003 v 6.549264 c -1.329095,0.166461 -2.557913,0.116479 -4.55804939,0 z"
       sodipodi:nodetypes="ccccc"
       inkscape:export-filename="..\Gus veut boire un coup\bank\image\lvl6\front_car_green.png"
       inkscape:export-xdpi="85.758636"
       inkscape:export-ydpi="85.758636" />
    <path
       id="rect5846-7"
       style="stroke-width:0.264583"
       d="m 21.551848,34.177448 h 4.336006 v 6.549264 c -1.264349,0.166461 -2.433305,0.116479 -4.336006,0 z"
       sodipodi:nodetypes="ccccc" />
    <path
       id="rect5657"
       style="fill:#00d400;stroke-width:0.264583"
       d="m 1.2122283,28.389102 23.7609577,0.05133 c 0.63621,1.672961 2.449533,8.624107 -0.149293,11.261484 C 19.156898,40.224865 14.045326,40.885873 1.2723733,39.642479 -1.4748446,36.154288 -0.04209717,31.691631 1.2122283,28.3891 Z"
       sodipodi:nodetypes="cccccc"
       inkscape:export-filename="..\Gus veut boire un coup\bank\image\lvl6\front_suv_blue.png"
       inkscape:export-xdpi="96"
       inkscape:export-ydpi="96" />
    <path
       id="path462-7-1"
       style="fill:#ffeeaa;stroke-width:0.264583"
       d="m 0.39638154,36.144414 c 0,0.738595 0.77392396,1.337344 1.72860796,1.337344 0.954684,0 4.161249,0.196786 4.161249,-0.541808 0,-0.738595 -3.206565,-2.13288 -4.161249,-2.13288 -0.954684,0 -1.72860796,0.598749 -1.72860796,1.337344 z"
       sodipodi:nodetypes="sssss" />
    <path
       id="path462-7"
       style="fill:#ffeeaa;stroke-width:0.264583"
       d="m 25.435621,36.156304 c 0,0.738595 -0.773924,1.337344 -1.728608,1.337344 -0.954684,0 -4.161249,0.196787 -4.161249,-0.541808 0,-0.738595 3.206565,-2.13288 4.161249,-2.13288 0.954684,0 1.728608,0.59875 1.728608,1.337344 z"
       sodipodi:nodetypes="sssss" />
    <path
       id="rect5977-6"
       style="fill:#00d400;stroke-width:0.264583"
       d="M 2.0892477,22.322628 C 8.080644,21.515603 18.929472,21.487367 24.575855,22.500765 l 0.40909,5.896561 -23.7036157,0.04099 z"
       sodipodi:nodetypes="ccccc" />
    <path
       id="rect5660"
       style="fill:#00ffff;fill-opacity:0.931624;stroke-width:0.264583"
       d="m 2.6302144,23.15189 21.3285566,-0.0037 c 0.70565,1.802145 0.254814,3.749566 0.617084,5.248099 L 1.8236604,28.336405 c 0.2072355,-1.250913 0.1767132,-3.483509 0.806554,-5.184515 z"
       sodipodi:nodetypes="ccccc" />
    <path
       id="path7210"
       style="fill:#808080;fill-opacity:0.737892;stroke-width:0.264583"
       d="m 23.037437,27.195375 c 0,0.954834 -1.220036,-0.50304 -3.009391,-0.50304 -1.789355,0 -3.470438,1.457874 -3.470438,0.50304 -10e-7,-0.954834 1.450558,-1.728881 3.239915,-1.728881 1.789356,0 3.239915,0.774047 3.239914,1.728881 z"
       sodipodi:nodetypes="sssss" />
    <rect
       style="fill:#000000;fill-opacity:1;stroke-width:0.264584"
       id="rect5792"
       width="25.599987"
       height="0.52125448"
       x="0.23271169"
       y="38.431229" />
    <rect
       style="fill:#00d400;fill-opacity:1;stroke-width:0.264583"
       id="rect6339-0"
       width="1.1919696"
       height="2.2366111"
       x="27.423134"
       y="-27.181824"
       transform="rotate(90)" />
    <rect
       style="fill:#00d400;fill-opacity:1;stroke-width:0.264583"
       id="rect6339-0-8"
       width="1.1919696"
       height="2.2366111"
       x="27.246347"
       y="-1.2813293"
       transform="rotate(90)" />
    <path
       id="rect5977"
       style="fill:#00d400;stroke-width:0.264583"
       d="m 3.997143,13.175139 c 4.1838733,-0.938045 15.097349,-0.769437 19.040294,0.40849 l 1.538418,8.917136 -22.4866073,-0.178137 z"
       sodipodi:nodetypes="ccccc" />
    <path
       id="rect7266"
       style="fill:#333333;fill-opacity:0.814815;stroke-width:0.264583"
       d="m 1.9903071,27.246347 c 4.2761416,-0.30087 8.5281359,0.300869 12.9103559,0 1.695577,-0.116413 2.881417,-1.135435 4.883394,-1.251848 3.767492,0.43154 3.529412,0.943074 4.591983,1.428634 0.904752,1.339477 0.04303,-0.500322 0.199815,0.973115 L 1.8236604,28.336405 c 0.1181507,-1.317654 -0.3527735,0.36429 0.1666467,-1.090058 z"
       sodipodi:nodetypes="csccccc" />
    <rect
       style="fill:#cccccc;fill-opacity:0.814815;stroke-width:0.264583"
       id="rect7321"
       width="0.4291738"
       height="0.9448393"
       x="12.903378"
       y="35.683884" />
    <rect
       style="fill:#aa8800;fill-opacity:0.814815;stroke-width:0.264583"
       id="rect7321-4"
       width="0.40392825"
       height="0.9448393"
       x="-12.903378"
       y="35.683884"
       transform="scale(-1,1)" />
    <path
       id="rect582"
       style="fill:#999999;stroke-width:0.264583"
       d="M 7.2927106,38.937806 18.7727,38.967166 19.017207,39.83217 C 18.035829,39.559729 15.945475,39.135591 6.8656218,39.53528 Z"
       sodipodi:nodetypes="ccccc" />
  </g>
</svg>
