<?xml version="1.0" encoding="UTF-8" standalone="no"?>
<!-- Created with Inkscape (http://www.inkscape.org/) -->

<svg
   width="95"
   height="155"
   viewBox="0 0 25.135416 41.010416"
   version="1.1"
   id="svg4200"
   inkscape:version="1.2 (dc2aedaf03, 2022-05-15)"
   sodipodi:docname="front suv.svg"
   inkscape:export-filename="..\Gus veut boire un coup\bank\image\lvl6\back_suv_red.png"
   inkscape:export-xdpi="96"
   inkscape:export-ydpi="96"
   xmlns:inkscape="http://www.inkscape.org/namespaces/inkscape"
   xmlns:sodipodi="http://sodipodi.sourceforge.net/DTD/sodipodi-0.dtd"
   xmlns="http://www.w3.org/2000/svg"
   xmlns:svg="http://www.w3.org/2000/svg">
  <sodipodi:namedview
     id="namedview4202"
     pagecolor="#ffffff"
     bordercolor="#666666"
     borderopacity="1.0"
     inkscape:showpageshadow="2"
     inkscape:pageopacity="0.0"
     inkscape:pagecheckerboard="0"
     inkscape:deskcolor="#d1d1d1"
     inkscape:document-units="mm"
     showgrid="false"
     inkscape:zoom="1.496633"
     inkscape:cx="92.541057"
     inkscape:cy="131.96288"
     inkscape:window-width="1920"
     inkscape:window-height="1001"
     inkscape:window-x="-9"
     inkscape:window-y="-9"
     inkscape:window-maximized="1"
     inkscape:current-layer="layer1" />
  <defs
     id="defs4197" />
  <g
     inkscape:label="Calque 1"
     inkscape:groupmode="layer"
     id="layer1">
    <path
       id="rect5846"
       style="stroke-width:0.264583"
       d="m 0.4653509,34.177448 h 5.9001287 v 6.549264 c -1.7204359,0.166461 -3.311069,0.116479 -5.9001287,0 z"
       sodipodi:nodetypes="ccccc"
       inkscape:export-filename="..\Gus veut boire un coup\bank\image\lvl6\front_suv_blue.png"
       inkscape:export-xdpi="85.758636"
       inkscape:export-ydpi="85.758636" />
    <path
       id="rect5846-7"
       style="stroke-width:0.264583"
       d="m 19.987728,34.177448 h 5.900126 v 6.549264 c -1.720435,0.166461 -3.311067,0.116479 -5.900126,0 z"
       sodipodi:nodetypes="ccccc" />
    <path
       id="rect5657"
       style="fill:#0000ff;stroke-width:0.264583"
       d="m 1.4141922,24.72611 23.7609578,0.0625 c 0.63621,2.036858 2.449533,10.499994 -0.149293,13.711045 C 19.358862,39.136349 14.24729,39.941137 1.4743372,38.427285 -1.2728807,34.180354 0.15986676,28.746994 1.4141925,24.726107 Z"
       sodipodi:nodetypes="cccccc"
       inkscape:export-filename="..\Gus veut boire un coup\bank\image\lvl6\front_suv_blue.png"
       inkscape:export-xdpi="96"
       inkscape:export-ydpi="96" />
    <ellipse
       style="fill:#ffeeaa;stroke-width:0.264583"
       id="path462-7-9-9"
       cx="5.7372699"
       cy="35.120354"
       rx="0.99093288"
       ry="0.86858875" />
    <path
       id="rect5977-6"
       style="fill:#0000ff;stroke-width:0.264583"
       d="M 2.2794523,18.71391 C 8.2708486,17.906885 19.119677,17.878649 24.76606,18.892047 l 0.40909,5.896561 -23.7036161,0.04099 z"
       sodipodi:nodetypes="ccccc" />
    <path
       id="rect5660"
       style="fill:#00ffff;fill-opacity:0.931624;stroke-width:0.264583"
       d="m 2.820419,19.543172 21.328557,-0.0037 c 0.70565,1.802145 0.254814,3.749566 0.617084,5.248099 L 2.013865,24.727687 c 0.2072355,-1.250913 0.1767132,-3.483509 0.806554,-5.184515 z"
       sodipodi:nodetypes="ccccc" />
    <path
       id="path7210"
       style="fill:#808080;fill-opacity:0.737892;stroke-width:0.264583"
       d="m 23.227642,23.586657 c 0,0.954834 -1.220036,-0.50304 -3.009391,-0.50304 -1.789355,0 -3.470438,1.457874 -3.470438,0.50304 -1e-6,-0.954834 1.450558,-1.728881 3.239915,-1.728881 1.789356,0 3.239915,0.774047 3.239914,1.728881 z"
       sodipodi:nodetypes="sssss" />
    <rect
       style="fill:#000000;fill-opacity:1;stroke-width:0.264584"
       id="rect5792"
       width="25.599987"
       height="0.52125448"
       x="0.4653509"
       y="36.231739" />
    <rect
       style="fill:#0000ff;fill-opacity:1;stroke-width:0.264583"
       id="rect6339-0"
       width="1.1919696"
       height="2.2366111"
       x="23.814415"
       y="-27.372028"
       transform="rotate(90)" />
    <rect
       style="fill:#0000ff;fill-opacity:1;stroke-width:0.264583"
       id="rect6339-0-8"
       width="1.1919696"
       height="2.2366111"
       x="23.637629"
       y="-1.4715339"
       transform="rotate(90)" />
    <path
       id="rect5977"
       style="fill:#0000ff;stroke-width:0.264583"
       d="M 2.9372838,6.6912744 C 7.1211571,5.7532291 19.781461,5.4218117 23.724406,6.5997395 L 24.76606,18.892047 2.2794523,18.71391 Z"
       sodipodi:nodetypes="ccccc" />
    <path
       id="rect7266"
       style="fill:#333333;fill-opacity:0.814815;stroke-width:0.264583"
       d="m 2.1805117,23.637629 c 4.2761416,-0.30087 8.5281363,0.300869 12.9103563,0 1.695577,-0.116413 2.881417,-1.135435 4.883394,-1.251848 3.767492,0.43154 3.529412,0.943074 4.591983,1.428634 0.904752,1.339477 0.04303,-0.500322 0.199815,0.973115 L 2.013865,24.727687 c 0.1181507,-1.317654 -0.3527735,0.36429 0.1666467,-1.090058 z"
       sodipodi:nodetypes="csccccc" />
    <rect
       style="fill:#cccccc;fill-opacity:0.814815;stroke-width:0.264583"
       id="rect7321"
       width="0.4291738"
       height="0.9448393"
       x="13.345343"
       y="34.175514" />
    <rect
       style="fill:#aa8800;fill-opacity:0.814815;stroke-width:0.264583"
       id="rect7321-4"
       width="0.40392825"
       height="0.9448393"
       x="-13.345343"
       y="34.175514"
       transform="scale(-1,1)" />
    <ellipse
       style="fill:#ffeeaa;stroke-width:0.264583"
       id="path462"
       cx="2.5669527"
       cy="34.487648"
       rx="1.728608"
       ry="1.3373438" />
    <ellipse
       style="fill:#ffeeaa;stroke-width:0.264583"
       id="path462-7"
       cx="24.148977"
       cy="34.647934"
       rx="1.728608"
       ry="1.3373438" />
    <ellipse
       style="fill:#ffeeaa;stroke-width:0.264583"
       id="path462-7-9"
       cx="20.549625"
       cy="35.046036"
       rx="0.99093288"
       ry="0.86858875" />
    <path
       id="rect582"
       style="fill:#999999;stroke-width:0.264583"
       d="m 7.4558897,37.788699 11.4799893,0.02936 0.244507,0.865004 c -4.622777,0.484213 -8.434423,0.417746 -12.1515851,-0.29689 z"
       sodipodi:nodetypes="ccccc" />
  </g>
</svg>
