<?xml version="1.0" encoding="UTF-8" standalone="no"?>
<!-- Created with Inkscape (http://www.inkscape.org/) -->

<svg
   width="210mm"
   height="297mm"
   viewBox="0 0 210 297"
   version="1.1"
   id="svg10607"
   inkscape:version="1.1 (c68e22c387, 2021-05-23)"
   sodipodi:docname="guitariste.svg"
   inkscape:export-filename="C:\Users\basti\OneDrive\Bureau\Gus veut boire un coup\bank\pnj\guitar0.png"
   inkscape:export-xdpi="5.0646563"
   inkscape:export-ydpi="5.0646563"
   xmlns:inkscape="http://www.inkscape.org/namespaces/inkscape"
   xmlns:sodipodi="http://sodipodi.sourceforge.net/DTD/sodipodi-0.dtd"
   xmlns="http://www.w3.org/2000/svg"
   xmlns:svg="http://www.w3.org/2000/svg">
  <sodipodi:namedview
     id="namedview10609"
     pagecolor="#ffffff"
     bordercolor="#666666"
     borderopacity="1.0"
     inkscape:pageshadow="2"
     inkscape:pageopacity="0.0"
     inkscape:pagecheckerboard="0"
     inkscape:document-units="mm"
     showgrid="false"
     inkscape:zoom="0.52787982"
     inkscape:cx="331.51485"
     inkscape:cy="311.62396"
     inkscape:window-width="1920"
     inkscape:window-height="1001"
     inkscape:window-x="-9"
     inkscape:window-y="-9"
     inkscape:window-maximized="1"
     inkscape:current-layer="layer1" />
  <defs
     id="defs10604" />
  <g
     inkscape:label="Calque 1"
     inkscape:groupmode="layer"
     id="layer1">
    <path
       id="path11385-4-1-1-5-2-8"
       style="fill:#000000;stroke-width:0.548396"
       d="m 196.31661,275.80677 c 0,12.79822 -9.12749,18.80111 -35.87734,18.80111 -26.74954,0 -36.77424,-6.00289 -36.77424,-18.80111 0,-12.79809 10.47322,-18.36354 37.22276,-18.36354 26.7497,0 35.42882,5.56545 35.42882,18.36354 z"
       sodipodi:nodetypes="sssss"
       inkscape:export-filename="C:\Users\basti\OneDrive\Bureau\Gus veut boire un coup\bank\pnj\guitar1.png"
       inkscape:export-xdpi="5.0646563"
       inkscape:export-ydpi="5.0646563" />
    <path
       id="path11724-0-2-14-2-8-2"
       style="fill:#1a1a1a;stroke-width:0.398876"
       d="m 180.7807,286.42519 c -0.28488,2.48789 -4.14371,4.17603 -27.77774,2.03352 -23.63355,-2.14264 -28.35243,-4.60834 -28.06755,-7.09637 0.28488,-2.48817 4.78947,1.84835 28.42303,3.99085 23.63403,2.14263 27.70681,-1.41493 27.42226,1.07187 z"
       sodipodi:nodetypes="sssss"
       inkscape:export-filename="C:\Users\basti\OneDrive\Bureau\Gus veut boire un coup\bank\pnj\guitar1.png"
       inkscape:export-xdpi="5.0646563"
       inkscape:export-ydpi="5.0646563" />
    <path
       id="path11385-4-04-45-3-8-6"
       style="fill:#000000;stroke-width:0.548396"
       d="m 246.96109,278.08996 c -0.0118,12.92104 -10.85204,18.97157 -42.60394,18.9426 -31.75205,-0.029 -43.6458,-6.10025 -43.63401,-19.0213 0.0118,-12.92131 12.44848,-18.52875 44.20053,-18.49978 31.75206,0.029 42.04921,5.65716 42.03742,18.57848 z"
       sodipodi:nodetypes="sssss"
       inkscape:export-filename="C:\Users\basti\OneDrive\Bureau\Gus veut boire un coup\bank\pnj\guitar1.png"
       inkscape:export-xdpi="5.0646563"
       inkscape:export-ydpi="5.0646563" />
    <rect
       style="fill:#000000;fill-opacity:1;stroke-width:0.264583"
       id="rect12969-1-0"
       width="74.682457"
       height="31.122107"
       x="170.26448"
       y="204.82028"
       inkscape:export-filename="C:\Users\basti\OneDrive\Bureau\Gus veut boire un coup\bank\pnj\guitar1.png"
       inkscape:export-xdpi="5.0646563"
       inkscape:export-ydpi="5.0646563" />
    <path
       id="rect10620-3-0-1-1"
       style="fill:#000028;fill-opacity:1;stroke-width:0.46238"
       d="m 137.51574,240.7681 c 1.36864,-75.11293 71.23679,-65.20228 71.3461,0.32239 0.23379,-2.31761 -3.32128,12.85966 -4.31804,22.73395 l -59.18066,-4.4648 z"
       sodipodi:nodetypes="ccccc"
       inkscape:export-filename="C:\Users\basti\OneDrive\Bureau\Gus veut boire un coup\bank\pnj\guitar1.png"
       inkscape:export-xdpi="5.0646563"
       inkscape:export-ydpi="5.0646563" />
    <path
       id="rect10620-1-8-9-9-7"
       style="fill:#00003c;fill-opacity:1;stroke-width:0.398876"
       d="m 175.35299,244.48781 c 10.70607,-76.53336 69.33479,-64.99919 70.26002,0.64478 l -3.35132,20.78639 -62.9226,0.3224 z"
       sodipodi:nodetypes="ccccc"
       inkscape:export-filename="C:\Users\basti\OneDrive\Bureau\Gus veut boire un coup\bank\pnj\guitar1.png"
       inkscape:export-xdpi="5.0646563"
       inkscape:export-ydpi="5.0646563" />
    <path
       id="path4257-0-5-6-5-0-3-4"
       style="fill:#000055;fill-opacity:1;stroke-width:0.218812"
       d="m 141.01074,145.61811 c 0.26164,7.10891 -3.56204,10.21719 3.95079,8.60456 0,0 4.49918,-13.10765 4.20145,-25.09178 -0.19508,-7.44329 -9.71287,-26.03663 -9.05378,-8.07731 z"
       sodipodi:nodetypes="sssss"
       inkscape:export-filename="C:\Users\basti\OneDrive\Bureau\Gus veut boire un coup\bank\pnj\guitar1.png"
       inkscape:export-xdpi="5.0646563"
       inkscape:export-ydpi="5.0646563" />
    <ellipse
       style="fill:#deaa87;stroke-width:0.148272"
       id="path9819-9-7-8-8-0-4"
       cx="146.49611"
       cy="197.56039"
       rx="6.6431155"
       ry="5.933835"
       inkscape:export-filename="C:\Users\basti\OneDrive\Bureau\Gus veut boire un coup\bank\pnj\guitar1.png"
       inkscape:export-xdpi="5.0646563"
       inkscape:export-ydpi="5.0646563" />
    <path
       id="path6217-9-9-5-1"
       style="fill:#000000;stroke-width:0.398876"
       d="m 148.93219,132.0102 c 28.10746,49.71887 27.68068,62.39775 -16.39374,64.37642 -28.78571,1.29232 -43.464911,-12.72102 -43.464911,-50.01049 0,-26.04448 19.743251,-36.35744 38.925731,-36.35744 19.18233,0 8.56747,0.11808 20.93292,21.99151 z"
       sodipodi:nodetypes="sssss"
       inkscape:export-filename="C:\Users\basti\OneDrive\Bureau\Gus veut boire un coup\bank\pnj\guitar1.png"
       inkscape:export-xdpi="5.0646563"
       inkscape:export-ydpi="5.0646563" />
    <path
       id="rect21874-0-5-4-1"
       style="fill:#000000;stroke-width:0.264583"
       d="m 139.14526,163.75129 110.28107,7.60903 c -0.45983,10.96352 7.60819,42.76206 2.31601,46.11901 -49.18447,9.68608 -79.59497,12.89783 -121.43768,0.11014 0,-8.45053 -5.78036,-45.39323 8.84092,-53.84378 z"
       sodipodi:nodetypes="cccccc"
       inkscape:export-filename="C:\Users\basti\OneDrive\Bureau\Gus veut boire un coup\bank\pnj\guitar1.png"
       inkscape:export-xdpi="5.0646563"
       inkscape:export-ydpi="5.0646563" />
    <path
       id="rect8523-7-3-4-8"
       style="fill:#000000;stroke-width:0.376888"
       d="m 111.51895,110.66307 120.54434,-12.057161 20.87893,14.681711 5.64952,76.80988 -150.86769,0.63375 z"
       sodipodi:nodetypes="cccccc"
       inkscape:export-filename="C:\Users\basti\OneDrive\Bureau\Gus veut boire un coup\bank\pnj\guitar1.png"
       inkscape:export-xdpi="5.0646563"
       inkscape:export-ydpi="5.0646563" />
    <path
       id="path31-9-9-4-8-9"
       style="fill:#d38d5f;fill-opacity:1;fill-rule:evenodd;stroke-width:0.398876"
       d="m 101.96633,54.086066 c 2.5151,-15.009745 -14.813859,-87.201487 80.41074,-77.990233 72.33204,6.996813 54.10649,80.065295 61.12157,80.154432 21.53351,0.273615 -26.31496,50.678895 -67.07485,75.426695 -27.40687,16.64038 -42.93254,1.93628 -55.69032,-20.52454 C 110.06922,92.377363 99.643108,67.950732 101.96633,54.086066 Z"
       sodipodi:nodetypes="ssssss"
       inkscape:export-filename="C:\Users\basti\OneDrive\Bureau\Gus veut boire un coup\bank\pnj\guitar1.png"
       inkscape:export-xdpi="5.0646563"
       inkscape:export-ydpi="5.0646563" />
    <path
       id="rect18961"
       style="fill:#502d16;stroke-width:0.264583"
       d="m 137.76852,125.90569 c 6.24562,12.65511 19.3001,0.007 29.47035,-1.92271 l -8.94044,72.67875 c -5.62917,-12.94631 -13.35967,13.15254 -16.8875,-38.83891 z"
       sodipodi:nodetypes="ccccc"
       inkscape:export-filename="C:\Users\basti\OneDrive\Bureau\Gus veut boire un coup\bank\pnj\guitar1.png"
       inkscape:export-xdpi="5.0646563"
       inkscape:export-ydpi="5.0646563" />
    <path
       id="path12953"
       style="fill:#ff0000;stroke-width:0.264583"
       d="m 155.73906,236.62061 c 23.93566,-11.95534 37.9128,24.50898 63.43615,18.07139 13.48435,-3.40107 27.13185,-19.33923 36.10343,-36.86785 4.42597,-8.64741 -4.52842,-23.18235 -8.13686,-32.07706 -4.86115,-11.98258 -33.27821,8.63405 -50.25557,-7.87967 -22.60825,-21.99089 -81.20709,-23.06183 -58.81682,-2.57404 36.87531,33.74206 7.32108,30.22494 -14.27887,28.98856 -10.52836,-0.60264 13.72522,41.44083 31.94854,32.33867 z"
       sodipodi:nodetypes="ssssssss"
       inkscape:export-filename="C:\Users\basti\OneDrive\Bureau\Gus veut boire un coup\bank\pnj\guitar1.png"
       inkscape:export-xdpi="5.0646563"
       inkscape:export-ydpi="5.0646563" />
    <path
       id="path14267"
       style="fill:#f9f9f9;stroke-width:0.264583"
       d="m 130.30466,217.58947 c 21.78704,0.40863 73.61193,36.10928 88.48873,27.99492 19.03578,-10.38284 28.40029,-32.19939 21.93257,-46.36588 -6.4677,-14.1665 -50.69992,-28.55679 -45.35421,-4.93554 8.80567,38.90989 -78.87224,23.04757 -65.06709,23.3065 z"
       sodipodi:nodetypes="sssss"
       inkscape:export-filename="C:\Users\basti\OneDrive\Bureau\Gus veut boire un coup\bank\pnj\guitar1.png"
       inkscape:export-xdpi="5.0646563"
       inkscape:export-ydpi="5.0646563" />
    <ellipse
       style="fill:#a0892c;stroke-width:0.264583"
       id="path19484-2"
       cx="29.287312"
       cy="109.92101"
       rx="3.6471801"
       ry="4.8982258"
       inkscape:export-filename="C:\Users\basti\OneDrive\Bureau\Gus veut boire un coup\bank\pnj\guitar1.png"
       inkscape:export-xdpi="5.0646563"
       inkscape:export-ydpi="5.0646563" />
    <ellipse
       style="fill:#a0892c;stroke-width:0.264583"
       id="path19484-7"
       cx="20.858181"
       cy="110.19292"
       rx="3.6471801"
       ry="4.8982258"
       inkscape:export-filename="C:\Users\basti\OneDrive\Bureau\Gus veut boire un coup\bank\pnj\guitar1.png"
       inkscape:export-xdpi="5.0646563"
       inkscape:export-ydpi="5.0646563" />
    <ellipse
       style="fill:#a0892c;stroke-width:0.264583"
       id="path19484"
       cx="11.627526"
       cy="111.8282"
       rx="3.6471801"
       ry="4.8982258"
       inkscape:export-filename="C:\Users\basti\OneDrive\Bureau\Gus veut boire un coup\bank\pnj\guitar1.png"
       inkscape:export-xdpi="5.0646563"
       inkscape:export-ydpi="5.0646563" />
    <ellipse
       style="fill:#a0892c;stroke-width:0.264583"
       id="path19484-20"
       cx="6.575491"
       cy="130.85835"
       rx="3.6471801"
       ry="4.8982258"
       inkscape:export-filename="C:\Users\basti\OneDrive\Bureau\Gus veut boire un coup\bank\pnj\guitar1.png"
       inkscape:export-xdpi="5.0646563"
       inkscape:export-ydpi="5.0646563" />
    <ellipse
       style="fill:#a0892c;stroke-width:0.264583"
       id="path19484-27"
       cx="16.409473"
       cy="136.84045"
       rx="3.6471801"
       ry="4.8982258"
       inkscape:export-filename="C:\Users\basti\OneDrive\Bureau\Gus veut boire un coup\bank\pnj\guitar1.png"
       inkscape:export-xdpi="5.0646563"
       inkscape:export-ydpi="5.0646563" />
    <path
       id="path14675"
       style="fill:#ff0000;stroke-width:0.264583"
       d="m 0.31427599,117.81533 c 0.61425981,9.10433 6.35598111,10.44064 18.78606701,15.79812 12.430077,5.35748 23.49108,12.16462 26.227229,3.60303 2.736159,-8.5616 -4.498084,-27.89491 -17.552409,-25.20273 -22.4710187,4.63418 -27.83005393,0.33005 -27.46088701,5.80158 z"
       sodipodi:nodetypes="sssss"
       inkscape:export-filename="C:\Users\basti\OneDrive\Bureau\Gus veut boire un coup\bank\pnj\guitar1.png"
       inkscape:export-xdpi="5.0646563"
       inkscape:export-ydpi="5.0646563" />
    <ellipse
       style="fill:#d38d5f;stroke-width:0.148272"
       id="path9819-9-7-8-1-9"
       cx="200.95331"
       cy="187.82098"
       rx="6.6431155"
       ry="5.933835"
       inkscape:export-filename="C:\Users\basti\OneDrive\Bureau\Gus veut boire un coup\bank\pnj\guitar1.png"
       inkscape:export-xdpi="5.0646563"
       inkscape:export-ydpi="5.0646563" />
    <rect
       style="fill:#f4e3d7;stroke-width:0.265285"
       id="rect13816"
       width="15.862508"
       height="197.60002"
       x="96.419197"
       y="79.261887"
       transform="matrix(-0.32436792,0.945931,0.90763896,0.41975173,0,0)"
       inkscape:export-filename="C:\Users\basti\OneDrive\Bureau\Gus veut boire un coup\bank\pnj\guitar1.png"
       inkscape:export-xdpi="5.0646563"
       inkscape:export-ydpi="5.0646563" />
    <rect
       style="fill:#4d4d4d;stroke-width:0.265255"
       id="rect13974"
       width="4.0626316"
       height="37.424267"
       x="-267.33099"
       y="88.727112"
       transform="matrix(-0.91224288,-0.40964975,-0.315915,0.94878749,0,0)"
       inkscape:export-filename="C:\Users\basti\OneDrive\Bureau\Gus veut boire un coup\bank\pnj\guitar1.png"
       inkscape:export-xdpi="5.0646563"
       inkscape:export-ydpi="5.0646563" />
    <ellipse
       style="fill:#a0892c;stroke-width:0.264583"
       id="path19484-6"
       cx="24.838604"
       cy="139.28766"
       rx="3.6471801"
       ry="4.8982258"
       inkscape:export-filename="C:\Users\basti\OneDrive\Bureau\Gus veut boire un coup\bank\pnj\guitar1.png"
       inkscape:export-xdpi="5.0646563"
       inkscape:export-ydpi="5.0646563" />
    <rect
       style="fill:#d3bc5f;stroke-width:0.265475"
       id="rect15030"
       width="223.75481"
       height="0.75748074"
       x="-274.02359"
       y="100.79282"
       transform="matrix(-0.91151667,-0.41126314,-0.30305861,0.95297192,0,0)"
       inkscape:export-filename="C:\Users\basti\OneDrive\Bureau\Gus veut boire un coup\bank\pnj\guitar1.png"
       inkscape:export-xdpi="5.0646563"
       inkscape:export-ydpi="5.0646563" />
    <rect
       style="fill:#d3bc5f;stroke-width:0.265475"
       id="rect15030-1"
       width="223.75481"
       height="0.75748074"
       x="-274.80954"
       y="98.120644"
       transform="matrix(-0.91151666,-0.41126315,-0.30305861,0.95297192,0,0)"
       inkscape:export-filename="C:\Users\basti\OneDrive\Bureau\Gus veut boire un coup\bank\pnj\guitar1.png"
       inkscape:export-xdpi="5.0646563"
       inkscape:export-ydpi="5.0646563" />
    <rect
       style="fill:#d3bc5f;stroke-width:0.265475"
       id="rect15030-1-5"
       width="223.75481"
       height="0.75748074"
       x="-274.0314"
       y="112.67529"
       transform="matrix(-0.91151666,-0.41126315,-0.30305861,0.95297192,0,0)"
       inkscape:export-filename="C:\Users\basti\OneDrive\Bureau\Gus veut boire un coup\bank\pnj\guitar1.png"
       inkscape:export-xdpi="5.0646563"
       inkscape:export-ydpi="5.0646563" />
    <rect
       style="fill:#d3bc5f;stroke-width:0.265475"
       id="rect15030-3"
       width="223.75481"
       height="0.75748074"
       x="-274.21613"
       y="104.20894"
       transform="matrix(-0.91151667,-0.41126314,-0.30305861,0.95297192,0,0)"
       inkscape:export-filename="C:\Users\basti\OneDrive\Bureau\Gus veut boire un coup\bank\pnj\guitar1.png"
       inkscape:export-xdpi="5.0646563"
       inkscape:export-ydpi="5.0646563" />
    <ellipse
       style="fill:#d38d5f;stroke-width:0.148272"
       id="path9819-9-7-8-1-9-0"
       cx="127.49192"
       cy="165.22977"
       rx="6.6431155"
       ry="5.933835"
       inkscape:export-filename="C:\Users\basti\OneDrive\Bureau\Gus veut boire un coup\bank\pnj\guitar1.png"
       inkscape:export-xdpi="5.0646563"
       inkscape:export-ydpi="5.0646563" />
    <rect
       style="fill:#d3bc5f;stroke-width:0.265475"
       id="rect15030-2"
       width="223.75481"
       height="0.75748074"
       x="-273.92056"
       y="107.47905"
       transform="matrix(-0.91151667,-0.41126314,-0.30305861,0.95297192,0,0)"
       inkscape:export-filename="C:\Users\basti\OneDrive\Bureau\Gus veut boire un coup\bank\pnj\guitar1.png"
       inkscape:export-xdpi="5.0646563"
       inkscape:export-ydpi="5.0646563" />
    <rect
       style="fill:#d3bc5f;stroke-width:0.265475"
       id="rect15030-37"
       width="223.75481"
       height="0.75748074"
       x="-274.15536"
       y="110.65934"
       transform="matrix(-0.91151667,-0.41126314,-0.30305861,0.95297192,0,0)"
       inkscape:export-filename="C:\Users\basti\OneDrive\Bureau\Gus veut boire un coup\bank\pnj\guitar1.png"
       inkscape:export-xdpi="5.0646563"
       inkscape:export-ydpi="5.0646563" />
    <ellipse
       style="fill:#d38d5f;stroke-width:0.398876"
       id="path9819-8-8-8-2"
       cx="200.10126"
       cy="-208.76387"
       rx="13.480986"
       ry="21.160933"
       transform="rotate(90)"
       inkscape:export-filename="C:\Users\basti\OneDrive\Bureau\Gus veut boire un coup\bank\pnj\guitar1.png"
       inkscape:export-xdpi="5.0646563"
       inkscape:export-ydpi="5.0646563" />
    <path
       id="path6217-9-9-3-7-8-0"
       style="fill:#000000;stroke-width:0.398876"
       d="m 204.77717,158.5551 c -17.69498,50.88843 19.89652,52.38716 19.89652,52.38716 37.21511,-6.73687 46.4411,-21.12183 46.4411,-57.82479 0,-25.63504 -15.871,-47.64637 -37.50485,-47.64637 -21.63386,0 -19.59536,26.51874 -28.83277,53.084 z"
       sodipodi:nodetypes="sssss"
       inkscape:export-filename="C:\Users\basti\OneDrive\Bureau\Gus veut boire un coup\bank\pnj\guitar1.png"
       inkscape:export-xdpi="5.0646563"
       inkscape:export-ydpi="5.0646563" />
    <ellipse
       style="fill:#d38d5f;stroke-width:0.398876"
       id="path9819-5-0-5-9-5"
       cx="183.25668"
       cy="-137.42682"
       rx="13.480986"
       ry="18.351223"
       transform="rotate(90)"
       inkscape:export-filename="C:\Users\basti\OneDrive\Bureau\Gus veut boire un coup\bank\pnj\guitar1.png"
       inkscape:export-xdpi="5.0646563"
       inkscape:export-ydpi="5.0646563" />
    <path
       id="rect1430-1-8-6-7-2"
       style="fill:#502d16;stroke-width:0.210089"
       d="m 188.33129,54.739155 -16.42501,-3.073922 -14.32566,1.708835 c 14.54597,1.483131 29.07026,2.597937 43.91002,8.926324 0.35242,-2.086271 -12.9182,-5.976582 -13.15931,-7.561385 z"
       sodipodi:nodetypes="ccccc"
       inkscape:transform-center-x="-6.2436611"
       inkscape:transform-center-y="2.9895956"
       inkscape:export-filename="C:\Users\basti\OneDrive\Bureau\Gus veut boire un coup\bank\pnj\guitar1.png"
       inkscape:export-xdpi="5.0646563"
       inkscape:export-ydpi="5.0646563" />
    <path
       id="rect1430-1-8-6-7-4-5"
       style="fill:#502d16;stroke-width:0.210089"
       d="m 112.85233,56.48327 12.85532,-2.048945 11.42806,2.787866 c -11.4457,0.523209 -22.892,0.664015 -34.33227,6.216113 -0.38823,-2.198046 9.9358,-5.320505 10.04886,-6.955192 z"
       sodipodi:nodetypes="ccccc"
       inkscape:transform-center-x="4.7578379"
       inkscape:transform-center-y="2.1735049"
       inkscape:export-filename="C:\Users\basti\OneDrive\Bureau\Gus veut boire un coup\bank\pnj\guitar1.png"
       inkscape:export-xdpi="5.0646563"
       inkscape:export-ydpi="5.0646563" />
    <path
       id="path2169-5-4-04-7-9-1"
       style="fill:#e9c6af;stroke-width:0.566041"
       d="m 132.06905,62.423511 c 1.26769,1.576937 -6.28214,2.214842 -13.23884,2.214842 -6.9564,0 -12.91348,-1.287162 -12.59578,-2.405899 0.39007,-1.376727 5.42485,-2.985303 12.59578,-3.033121 6.95585,-0.0439 11.73837,1.357978 13.23884,3.224178 z"
       sodipodi:nodetypes="sssss"
       inkscape:export-filename="C:\Users\basti\OneDrive\Bureau\Gus veut boire un coup\bank\pnj\guitar1.png"
       inkscape:export-xdpi="5.0646563"
       inkscape:export-ydpi="5.0646563" />
    <path
       id="path2169-5-4-0-9-4-9-5"
       style="fill:#e9c6af;stroke-width:0.551595"
       d="m 160.78113,62.038747 c -1.3191,1.704438 6.33742,1.941903 13.57389,1.941903 7.23677,0 13.63255,-0.939239 13.30169,-2.14833 -0.40718,-1.488213 -5.64348,-3.226828 -13.10336,-3.278372 -7.2357,-0.04495 -12.21096,1.467791 -13.77222,3.484799 z"
       sodipodi:nodetypes="sssss"
       inkscape:export-filename="C:\Users\basti\OneDrive\Bureau\Gus veut boire un coup\bank\pnj\guitar1.png"
       inkscape:export-xdpi="5.0646563"
       inkscape:export-ydpi="5.0646563" />
    <ellipse
       style="fill:#502d16;stroke-width:0.344827"
       id="path2169-03-4-0-2"
       ry="2.5784979"
       rx="5.431684"
       cy="62.294945"
       cx="120.11088"
       inkscape:export-filename="C:\Users\basti\OneDrive\Bureau\Gus veut boire un coup\bank\pnj\guitar1.png"
       inkscape:export-xdpi="5.0646563"
       inkscape:export-ydpi="5.0646563" />
    <ellipse
       style="fill:#28170b;stroke-width:0.344827"
       id="path2169-0-8-7-5-1"
       ry="2.3756614"
       rx="2.9969096"
       cy="62.50589"
       cx="119.80458"
       inkscape:export-filename="C:\Users\basti\OneDrive\Bureau\Gus veut boire un coup\bank\pnj\guitar1.png"
       inkscape:export-xdpi="5.0646563"
       inkscape:export-ydpi="5.0646563" />
    <ellipse
       style="fill:#502d16;stroke-width:0.344827"
       id="path2169-03-4-0-2-0"
       ry="2.8000076"
       rx="5.431684"
       cy="61.885719"
       cx="173.66348"
       inkscape:export-filename="C:\Users\basti\OneDrive\Bureau\Gus veut boire un coup\bank\pnj\guitar1.png"
       inkscape:export-xdpi="5.0646563"
       inkscape:export-ydpi="5.0646563" />
    <ellipse
       style="fill:#28170b;stroke-width:0.344827"
       id="path2169-0-8-7-5-1-5"
       ry="2.3313594"
       rx="2.9969096"
       cy="61.830845"
       cx="173.35718"
       inkscape:export-filename="C:\Users\basti\OneDrive\Bureau\Gus veut boire un coup\bank\pnj\guitar1.png"
       inkscape:export-xdpi="5.0646563"
       inkscape:export-ydpi="5.0646563" />
    <path
       id="path11724-0-2-14-2-8"
       style="fill:#1a1a1a;stroke-width:0.398876"
       d="m 223.8814,289.08998 c -0.28487,2.48788 -4.14371,4.17601 -27.77773,2.0335 -23.63355,-2.14262 -28.35244,-4.60834 -28.06756,-7.09638 0.28488,-2.48816 4.78949,1.84836 28.42304,3.99086 23.63402,2.14264 27.70682,-1.41492 27.42225,1.07188 z"
       sodipodi:nodetypes="sssss"
       inkscape:export-filename="C:\Users\basti\OneDrive\Bureau\Gus veut boire un coup\bank\pnj\guitar1.png"
       inkscape:export-xdpi="5.0646563"
       inkscape:export-ydpi="5.0646563" />
    <path
       id="rect12747-2-4-7-8"
       style="fill:#1c1f24;stroke-width:0.398876"
       d="m 140.03279,113.21186 c 7.78914,0.004 18.78166,1.57225 24.23207,2.46135 l 0.84098,1.20651 c -6.07637,1.38697 -14.29897,-2.57469 -27.73545,-0.86673 z"
       sodipodi:nodetypes="ccccc"
       inkscape:export-filename="C:\Users\basti\OneDrive\Bureau\Gus veut boire un coup\bank\pnj\guitar1.png"
       inkscape:export-xdpi="5.0646563"
       inkscape:export-ydpi="5.0646563" />
    <rect
       style="fill:#000000;fill-opacity:1;stroke-width:0.264583"
       id="rect17694-1"
       width="7.5750403"
       height="1.7015431"
       x="132.0952"
       y="91.790291"
       inkscape:export-filename="C:\Users\basti\OneDrive\Bureau\Gus veut boire un coup\bank\pnj\guitar1.png"
       inkscape:export-xdpi="5.0646563"
       inkscape:export-ydpi="5.0646563" />
    <rect
       style="fill:#000000;fill-opacity:1;stroke-width:0.264583"
       id="rect17694-7-5"
       width="7.5750403"
       height="1.7015431"
       x="149.55768"
       y="91.996834"
       inkscape:export-filename="C:\Users\basti\OneDrive\Bureau\Gus veut boire un coup\bank\pnj\guitar1.png"
       inkscape:export-xdpi="5.0646563"
       inkscape:export-ydpi="5.0646563" />
    <path
       id="path17693"
       style="fill:#502d16;stroke-width:0.264583"
       d="m 240.41804,5.5435315 c 0,11.9624055 25.58074,89.3687695 20.59008,114.7853285 -2.1484,10.94141 -21.81057,-7.43787 -26.73547,-1.36785 -14.50738,17.88058 -22.00003,44.24542 -34.41772,44.24542 -20.35907,0 -15.75931,-69.459352 -22.76075,-116.819598 C 176.19907,40.331961 162.66841,2.73484 146.75318,-0.16711563 138.5919,-1.6552311 120.79961,13.416969 114.57942,29.618583 c -9.92178,25.843095 -6.31041,57.919163 -7.34119,55.610221 -27.637204,-61.908047 5.7394,-123.022495 56.19268,-113.909656 24.94227,4.505055 76.98713,1.942989 76.98713,34.2243835 z"
       sodipodi:nodetypes="ssssssssss"
       inkscape:export-filename="C:\Users\basti\OneDrive\Bureau\Gus veut boire un coup\bank\pnj\guitar1.png"
       inkscape:export-xdpi="5.0646563"
       inkscape:export-ydpi="5.0646563" />
    <ellipse
       style="fill:#666666;stroke-width:0.265598"
       id="path15218"
       cx="-104.65454"
       cy="317.17731"
       rx="4.122725"
       ry="3.9215143"
       transform="matrix(-0.85152782,0.52430943,0.41531328,0.90967845,0,0)"
       inkscape:export-filename="C:\Users\basti\OneDrive\Bureau\Gus veut boire un coup\bank\pnj\guitar1.png"
       inkscape:export-xdpi="5.0646563"
       inkscape:export-ydpi="5.0646563" />
    <ellipse
       style="fill:#666666;stroke-width:0.265598"
       id="path15218-5"
       cx="-91.942802"
       cy="315.49664"
       rx="4.122725"
       ry="3.9215143"
       transform="matrix(-0.85152782,0.52430943,0.41531328,0.90967845,0,0)"
       inkscape:export-filename="C:\Users\basti\OneDrive\Bureau\Gus veut boire un coup\bank\pnj\guitar1.png"
       inkscape:export-xdpi="5.0646563"
       inkscape:export-ydpi="5.0646563" />
  </g>
</svg>
