<?xml version="1.0" encoding="UTF-8" standalone="no"?>
<!-- Created with Inkscape (http://www.inkscape.org/) -->

<svg
   width="210mm"
   height="215mm"
   viewBox="0 0 210 215"
   version="1.1"
   id="svg5"
   inkscape:version="1.1 (c68e22c387, 2021-05-23)"
   sodipodi:docname="Gus_1.svg"
   inkscape:export-filename="C:\Users\basti\OneDrive\Bureau\Gus veut boire un coup\Gus\Gus_1.png"
   inkscape:export-xdpi="4.8437209"
   inkscape:export-ydpi="4.8437209"
   xmlns:inkscape="http://www.inkscape.org/namespaces/inkscape"
   xmlns:sodipodi="http://sodipodi.sourceforge.net/DTD/sodipodi-0.dtd"
   xmlns:xlink="http://www.w3.org/1999/xlink"
   xmlns="http://www.w3.org/2000/svg"
   xmlns:svg="http://www.w3.org/2000/svg">
  <sodipodi:namedview
     id="namedview7"
     pagecolor="#ffffff"
     bordercolor="#666666"
     borderopacity="1.0"
     inkscape:pageshadow="2"
     inkscape:pageopacity="0.0"
     inkscape:pagecheckerboard="0"
     inkscape:document-units="mm"
     showgrid="false"
     inkscape:zoom="0.72337261"
     inkscape:cx="670.4705"
     inkscape:cy="335.23525"
     inkscape:window-width="1920"
     inkscape:window-height="1001"
     inkscape:window-x="-9"
     inkscape:window-y="-9"
     inkscape:window-maximized="1"
     inkscape:current-layer="layer1"
     height="296mm" />
  <defs
     id="defs2">
    <linearGradient
       inkscape:collect="always"
       id="linearGradient5194">
      <stop
         style="stop-color:#800000;stop-opacity:1;"
         offset="0"
         id="stop5190" />
      <stop
         style="stop-color:#800000;stop-opacity:0;"
         offset="1"
         id="stop5192" />
    </linearGradient>
    <linearGradient
       inkscape:collect="always"
       xlink:href="#linearGradient5194"
       id="linearGradient5196"
       x1="51.572659"
       y1="126.18843"
       x2="51.572659"
       y2="126.18843"
       gradientUnits="userSpaceOnUse"
       gradientTransform="matrix(1.5316515,0,0,1.4838567,-41.636348,-82.765444)" />
    <linearGradient
       inkscape:collect="always"
       xlink:href="#linearGradient5194"
       id="linearGradient7905"
       gradientUnits="userSpaceOnUse"
       gradientTransform="matrix(0.73841256,0.12231277,-0.21338082,1.2090567,161.02934,15.618601)"
       x1="51.572659"
       y1="126.18843"
       x2="51.572659"
       y2="126.18843" />
    <linearGradient
       inkscape:collect="always"
       xlink:href="#linearGradient5194"
       id="linearGradient9654"
       gradientUnits="userSpaceOnUse"
       gradientTransform="matrix(-0.54960655,0.12231277,0.1588211,1.2090567,52.07384,19.796688)"
       x1="51.572659"
       y1="126.18843"
       x2="51.572659"
       y2="126.18843" />
    <linearGradient
       inkscape:collect="always"
       xlink:href="#linearGradient5194"
       id="linearGradient9794"
       gradientUnits="userSpaceOnUse"
       x1="51.572659"
       y1="126.18843"
       x2="51.572659"
       y2="126.18843"
       gradientTransform="matrix(0.78859816,0.08264264,-0.01961536,0.41036371,-14.322186,73.832746)" />
  </defs>
  <g
     inkscape:label="Calque 1"
     inkscape:groupmode="layer"
     id="layer1">
    <path
       id="rect8523"
       style="fill:#d40000;stroke-width:0.376887"
       d="M 24.072347,118.46631 H 191.97635 l -18.48733,71.82499 -131.489559,0.48455 z"
       sodipodi:nodetypes="ccccc" />
    <ellipse
       style="fill:#c87137;stroke-width:0.398876"
       id="path9819"
       cx="19.999687"
       cy="181.22479"
       rx="14.005556"
       ry="14.925369" />
    <path
       id="path10057"
       style="fill:#a05a2c;stroke-width:0.398876"
       d="m 11.074906,178.15708 c -0.858777,6.29469 1.812479,9.70149 0.420167,9.70149 -1.392312,0 -1.9607784,-2.99976 -1.9607784,-9.29445 10e-7,-6.2947 0.4984404,-8.54815 1.8907514,-8.54815 1.392309,0 0.501233,1.90069 -0.35014,8.14111 z"
       sodipodi:nodetypes="sssss" />
    <ellipse
       style="fill:#c87137;stroke-width:0.398876"
       id="path9819-5"
       cx="192.70839"
       cy="157.88234"
       rx="14.005556"
       ry="14.925369" />
    <path
       id="path10057-0"
       style="fill:#a05a2c;stroke-width:0.419362"
       d="m 202.50771,155.41463 c 0.94926,6.2947 -2.00345,9.70151 -0.46445,9.70151 1.53901,0 2.16738,-2.99976 2.16738,-9.29446 -1e-5,-6.29469 -0.55097,-8.54815 -2.08998,-8.54815 -1.53899,0 -0.55404,1.90069 0.38705,8.1411 z"
       sodipodi:nodetypes="sssss" />
    <ellipse
       style="fill:#c87137;stroke-width:0.148273"
       id="path9819-9"
       cx="32.748226"
       cy="177.70288"
       rx="5.6022215"
       ry="5.1560364" />
    <ellipse
       style="fill:#c87137;stroke-width:0.148273"
       id="path9819-9-5"
       cx="181.59073"
       cy="162.51619"
       rx="5.6022215"
       ry="5.1560364" />
    <path
       id="path6217"
       style="fill:#d40000;stroke-width:0.398876"
       d="m 46.867197,136.13364 c 7.681035,51.24481 -20.27956,32.29845 -26.879092,32.46864 -11.4387851,0.295 -19.96196499,14.17735 -18.4989108,-20.71608 0.8925851,-21.28791 10.6680968,-39.60099 25.2100008,-39.60102 14.541905,0 17.009655,6.77723 20.168002,27.84846 z"
       sodipodi:nodetypes="sssss" />
    <path
       id="path4257-8"
       style="fill:url(#linearGradient9794);fill-opacity:1;stroke-width:0.150889"
       d="m 35.276793,115.68664 c -8.361313,7.84653 -2.188535,15.40466 -11.404104,14.1914 0,0 -10.790775,-6.18109 -2.505607,-14.29146 6.050338,-5.92269 17.208038,-8.45432 26.822048,-9.25695 8.762665,-0.7316 -7.692298,4.45834 -12.912337,9.35701 z"
       sodipodi:nodetypes="sssss" />
    <path
       id="path6217-4"
       style="fill:#d40000;stroke-width:0.378879"
       d="m 168.40645,128.60456 c 0,40.79069 -4.00487,33.88308 23.75663,34.4751 19.71154,0.42033 17.18565,2.31204 17.18565,-24.24379 0,-18.5487 -9.62529,-34.47508 -22.74572,-34.47509 -13.12043,0 -18.19656,5.69506 -18.19656,24.24378 z"
       sodipodi:nodetypes="sssss" />
    <path
       id="path4257-0-5"
       style="fill:url(#linearGradient7905);fill-opacity:1;stroke-width:0.253626"
       d="m 177.53581,154.50484 c -0.0514,7.63199 0.70153,10.96943 -0.77811,9.23806 0,0 -0.88612,-14.07269 -0.82745,-26.93914 0.0365,-7.99126 1.91292,-27.95311 1.78311,-8.67185 z"
       sodipodi:nodetypes="sssss" />
    <path
       id="path4257-0-5-6"
       style="fill:url(#linearGradient9654);fill-opacity:1;stroke-width:0.218811"
       d="m 40.438804,161.58757 c 0.220006,8.27423 -3.00386,11.89253 3.33174,10.01546 0,0 3.794284,-15.25692 3.543032,-29.2061 -0.156076,-8.66372 -8.190859,-30.30538 -7.635038,-9.4016 z"
       sodipodi:nodetypes="sssss" />
    <path
       id="path31-9"
       style="fill:#d38d5f;fill-rule:evenodd;stroke-width:0.398876"
       d="m 20.568387,84.821898 c 0,0 25.357727,-30.751548 81.312353,-28.345139 46.39993,1.995502 90.09561,24.936849 90.09561,24.936849 1.48032,41.621552 -40.2777,81.099572 -88.38421,80.392122 C 55.485615,161.09829 23.378498,124.19957 20.568387,84.821898 Z"
       sodipodi:nodetypes="sssss" />
    <path
       id="path5708"
       style="fill:#241c1c;stroke-width:0.398876"
       d="m 147.43868,97.83154 c 0,2.4729 -23.23512,6.91993 -41.87661,6.91993 -18.641489,0 -36.834619,-1.46195 -36.834615,-3.93486 -4e-6,-2.47292 20.153908,-10.176391 38.795395,-10.176391 18.64149,0 39.91583,4.718395 39.91583,7.191321 z"
       sodipodi:nodetypes="sssss" />
    <path
       id="path31"
       style="fill:#d40000;fill-rule:evenodd;stroke-width:0.398876"
       d="m 191.97635,81.413608 c -1.12043,59.223242 -25.9445,10.475645 -82.07256,11.126184 -60.672159,0.70321 -85.994134,57.866398 -92.156582,-11.126184 -4.014422,-44.94402 39.002523,-81.68247078 87.114582,-81.68247078 48.11204,0 87.9679,36.57805778 87.11456,81.68247078 z"
       sodipodi:nodetypes="sssss" />
    <path
       id="rect1430"
       style="fill:#28170b;stroke-width:0.210088"
       d="m 69.838414,116.56134 15.321061,-0.25887 12.76562,3.69455 c -13.400013,-0.87741 -26.729763,-2.0799 -41.055091,1.32397 -0.04385,-1.91613 12.5341,-3.38109 12.96841,-4.75965 z"
       sodipodi:nodetypes="ccccc"
       inkscape:transform-center-x="6.1845784"
       inkscape:transform-center-y="0.64048544" />
    <path
       id="rect1430-8"
       style="fill:#28170b;stroke-width:0.209404"
       d="m 142.3395,116.38763 -13.61612,-0.52208 -11.40862,3.93379 c 11.92681,-0.77662 23.79641,-1.91756 36.47625,2.10322 0.0701,-2.14019 -11.0878,-3.96812 -11.45151,-5.51493 z"
       sodipodi:nodetypes="ccccc"
       inkscape:transform-center-x="-5.3539277"
       inkscape:transform-center-y="1.0321219" />
    <path
       id="path2169-5-4"
       style="fill:#ffccaa;stroke-width:0.566042"
       d="m 89.782096,129.4145 c 1.171575,3.16754 -5.804061,5.70865 -12.230732,5.70865 -6.426671,0 -11.930218,-3.84531 -11.636524,-6.09242 0.361433,-2.7654 5.011772,-5.9965 11.636524,-6.09245 6.42597,-0.093 10.844254,2.72769 12.230732,6.47622 z"
       sodipodi:nodetypes="sssss" />
    <path
       id="path2169-5-4-0"
       style="fill:#ffccaa;stroke-width:0.551595"
       d="m 123.73351,129.17575 c -1.11255,3.16755 5.51156,5.70867 11.61438,5.70867 6.10281,0 11.32903,-3.84533 11.05013,-6.09243 -0.34321,-2.76539 -4.7592,-5.9965 -11.05013,-6.09245 -6.10215,-0.093 -10.2978,2.72769 -11.61438,6.47621 z"
       sodipodi:nodetypes="sssss" />
    <ellipse
       style="fill:#28170b;stroke-width:0.344829"
       id="path2169"
       ry="3.7418122"
       rx="7.0314322"
       cy="129.36652"
       cx="78.690262" />
    <ellipse
       style="fill:#28170b;stroke-width:0.314342"
       id="path2169-5"
       cx="134.05042"
       cy="128.98274"
       rx="5.8430209"
       ry="3.7418122" />
    <path
       id="path3219"
       style="fill:#241c1c;stroke-width:0.398876"
       d="m 105.28774,145.9813 c -1e-5,0.58286 -0.13577,0.4797 -2.62439,0.4797 -2.48864,0 -1.83213,0.008 -1.83214,-0.57565 -3e-5,-0.58288 -0.35941,-0.67161 2.12923,-0.67161 2.48864,0 2.32733,0.18469 2.3273,0.76756 z"
       sodipodi:nodetypes="sssss" />
    <path
       id="path3219-1"
       style="fill:#241c1c;stroke-width:0.398876"
       d="m 115.16326,145.88322 c 0,0.58288 -0.13587,0.47972 -2.6244,0.47972 -2.48863,0 -1.83214,0.008 -1.83215,-0.57565 -1e-5,-0.58289 -0.35941,-0.67161 2.12924,-0.67161 2.48865,0 2.32733,0.18468 2.32731,0.76754 z"
       sodipodi:nodetypes="sssss" />
    <path
       id="path4257"
       style="fill:url(#linearGradient5196);fill-opacity:1;stroke-width:0.398876"
       d="M 58.083219,49.120561 C 42.649268,80.50454 55.27676,105.37072 37.354993,104.48012 c 0,0 -21.42486,-18.170355 -6.162444,-50.474901 C 42.338106,30.414447 63.667227,17.098857 82.17278,10.585961 99.039618,4.6498105 67.71876,29.527272 58.083219,49.120561 Z"
       sodipodi:nodetypes="sssss" />
    <path
       id="path11385"
       style="fill:#373748;stroke-width:0.463482"
       d="m 105.34575,206.0448 c -10e-6,6.41635 -7.697571,9.42576 -30.255848,9.42576 -22.558275,0 -31.012227,-3.00941 -31.012238,-9.42576 -1.2e-5,-6.41633 8.832143,-9.20656 31.390436,-9.20656 22.558286,0 29.87766,2.79023 29.87765,9.20656 z"
       sodipodi:nodetypes="sssss" />
    <path
       id="rect10620"
       style="fill:#0044aa;stroke-width:0.462378"
       d="m 42.162153,190.32233 h 65.663437 c 0.19713,-1.21555 -2.80111,6.74848 -3.64144,11.93035 l -59.220886,0.36152 z"
       sodipodi:nodetypes="ccccc" />
    <rect
       style="fill:#0000aa;stroke-width:0.39889"
       id="rect11065-3"
       width="2.4807231"
       height="8.9133043"
       x="69.493263"
       y="206.58253"
       transform="matrix(0.9837243,-0.17968446,0.19102962,0.98158427,0,0)" />
    <path
       id="rect10620-1"
       style="fill:#0044aa;stroke-width:0.398876"
       d="m 108.64949,190.29131 h 64.83953 l -2.48936,8.30341 h -59.03102 z"
       sodipodi:nodetypes="ccccc" />
    <path
       id="path11385-4"
       style="fill:#373748;stroke-width:0.548397"
       d="m 170.96803,202.33291 c -2e-5,8.83496 -7.69757,12.97873 -30.25584,12.97873 -22.55828,0 -31.01224,-4.14377 -31.01225,-12.97873 -1e-5,-8.83493 8.83215,-12.67692 31.39046,-12.67692 22.55828,0 29.87765,3.84199 29.87763,12.67692 z"
       sodipodi:nodetypes="sssss" />
    <rect
       style="fill:#0000aa;stroke-width:0.399666"
       id="rect11065"
       width="2.5097852"
       height="11.632853"
       x="14.910024"
       y="196.50865"
       transform="matrix(0.97233323,-0.23359813,0.14637039,0.98922986,0,0)" />
    <path
       id="path11724"
       style="fill:#535d6c;stroke-width:0.398876"
       d="m 97.864793,210.30572 c 4e-5,2.17317 -3.075345,3.93487 -23.109168,3.93487 -20.033817,0 -24.229646,-1.7617 -24.229613,-3.93487 4.3e-5,-2.17316 4.195849,1.22117 24.229613,1.22117 20.033773,0 23.109128,-3.39433 23.109168,-1.22117 z"
       sodipodi:nodetypes="sssss" />
    <path
       id="path11724-0"
       style="fill:#535d6c;stroke-width:0.398876"
       d="m 110.25382,204.56593 c 0.0102,-4.14347 3.9623,-7.4816 29.65705,-7.34564 25.69477,0.13595 31.06817,3.52346 31.05819,7.66695 -0.0102,4.1435 -5.37586,-2.35684 -31.07057,-2.49282 -25.69469,-0.13595 -29.65457,6.31502 -29.64467,2.17151 z"
       sodipodi:nodetypes="sssss" />
    <path
       id="rect12747"
       style="fill:#1c1f24;stroke-width:0.398876"
       d="m 94.779837,151.94181 h 25.631033 l -1.78261,0.52968 -22.313387,0.048 z"
       sodipodi:nodetypes="ccccc" />
  </g>
</svg>
