<?xml version="1.0" encoding="UTF-8" standalone="no"?>
<!-- Created with Inkscape (http://www.inkscape.org/) -->

<svg
   width="210mm"
   height="215mm"
   viewBox="0 0 210 215"
   version="1.1"
   id="svg5"
   inkscape:version="1.1 (c68e22c387, 2021-05-23)"
   sodipodi:docname="Gus_gauche_1.svg"
   inkscape:export-filename="C:\Users\basti\OneDrive\Images\gimp\Gus_droit.png"
   inkscape:export-xdpi="4.8437209"
   inkscape:export-ydpi="4.8437209"
   xmlns:inkscape="http://www.inkscape.org/namespaces/inkscape"
   xmlns:sodipodi="http://sodipodi.sourceforge.net/DTD/sodipodi-0.dtd"
   xmlns:xlink="http://www.w3.org/1999/xlink"
   xmlns="http://www.w3.org/2000/svg"
   xmlns:svg="http://www.w3.org/2000/svg">
  <sodipodi:namedview
     id="namedview7"
     pagecolor="#ffffff"
     bordercolor="#666666"
     borderopacity="1.0"
     inkscape:pageshadow="2"
     inkscape:pageopacity="0.0"
     inkscape:pagecheckerboard="0"
     inkscape:document-units="mm"
     showgrid="false"
     inkscape:zoom="1.0230034"
     inkscape:cx="257.08615"
     inkscape:cy="620.23256"
     inkscape:window-width="1920"
     inkscape:window-height="1001"
     inkscape:window-x="-9"
     inkscape:window-y="-9"
     inkscape:window-maximized="1"
     inkscape:current-layer="layer1"
     height="296mm" />
  <defs
     id="defs2">
    <linearGradient
       inkscape:collect="always"
       id="linearGradient30040">
      <stop
         style="stop-color:#1c1f24;stop-opacity:1;"
         offset="0"
         id="stop30036" />
      <stop
         style="stop-color:#1c1f24;stop-opacity:0;"
         offset="1"
         id="stop30038" />
    </linearGradient>
    <linearGradient
       inkscape:collect="always"
       id="linearGradient29840">
      <stop
         style="stop-color:#535d6c;stop-opacity:1;"
         offset="0"
         id="stop29836" />
      <stop
         style="stop-color:#535d6c;stop-opacity:0;"
         offset="1"
         id="stop29838" />
    </linearGradient>
    <linearGradient
       inkscape:collect="always"
       id="linearGradient5194">
      <stop
         style="stop-color:#800000;stop-opacity:1;"
         offset="0"
         id="stop5190" />
      <stop
         style="stop-color:#800000;stop-opacity:0;"
         offset="1"
         id="stop5192" />
    </linearGradient>
    <linearGradient
       inkscape:collect="always"
       xlink:href="#linearGradient5194"
       id="linearGradient7905"
       gradientUnits="userSpaceOnUse"
       gradientTransform="matrix(0.73841261,0.14169097,-0.21338083,1.4006093,81.067086,-9.2918845)"
       x1="51.572659"
       y1="126.18843"
       x2="51.572659"
       y2="126.18843" />
    <linearGradient
       inkscape:collect="always"
       xlink:href="#linearGradient5194"
       id="linearGradient14432"
       gradientUnits="userSpaceOnUse"
       gradientTransform="matrix(1.0212645,-0.69985868,1.10586,0.60661395,-123.73834,81.543194)"
       x1="51.572659"
       y1="126.18843"
       x2="51.572659"
       y2="126.18843" />
    <linearGradient
       inkscape:collect="always"
       xlink:href="#linearGradient29840"
       id="linearGradient29842"
       x1="-227.65132"
       y1="-227.23926"
       x2="-227.67598"
       y2="-223.42758"
       gradientUnits="userSpaceOnUse"
       gradientTransform="matrix(-0.99983114,0.01837916,0.35337913,-0.9354802,1.4156885e-6,3.3333333e-8)" />
    <linearGradient
       inkscape:collect="always"
       xlink:href="#linearGradient30040"
       id="linearGradient30042"
       x1="213.05557"
       y1="-59.214508"
       x2="213.22256"
       y2="-61.33345"
       gradientUnits="userSpaceOnUse"
       gradientTransform="matrix(0.99997234,2.2832292e-4,0.2430493,-0.9998654,-2.3454377e-7,-2.9808213e-6)" />
  </defs>
  <g
     inkscape:label="Calque 1"
     inkscape:groupmode="layer"
     id="layer1">
    <path
       id="path11385-1"
       style="fill:#373701;fill-opacity:1;stroke-width:0.602877"
       d="m 51.60479,203.64704 c -7.525855,9.90741 -0.123196,12.33709 55.2654,11.29079 39.0847,-0.73831 51.27745,-2.85677 51.71886,-14.21607 0.29983,-7.71579 -11.81933,-0.0169 -48.24817,-2.17472 -36.428881,-2.15777 -54.070169,-1.04243 -58.73609,5.1 z"
       sodipodi:nodetypes="sssss" />
    <path
       id="path11385"
       style="fill:#373748;stroke-width:0.602877"
       d="m 19.726672,199.16318 c -8.576701,9.66193 -0.956893,12.65745 57.345758,15.33261 41.14105,1.88771 54.10189,0.53815 55.32776,-11.09392 0.83268,-7.90108 -12.42503,-0.81748 -50.579654,-5.49866 -38.154563,-4.68117 -56.776435,-4.73028 -62.093864,1.25997 z"
       sodipodi:nodetypes="sssss" />
    <path
       id="rect10620"
       style="fill:#0044aa;stroke-width:0.561253"
       d="M 150.88523,189.36499 H 53.434394 c -0.292555,-0.91242 4.157129,5.06558 5.404259,8.95523 l 70.565537,2.8577 z"
       sodipodi:nodetypes="ccccc" />
    <path
       id="rect10620-4"
       style="fill:#0044aa;stroke-width:0.561253"
       d="m 113.14382,189.36499 h 44.64396 c 0.13401,-0.91242 -1.90447,5.06558 -2.4758,8.95523 l -32.32731,2.8577 z"
       sodipodi:nodetypes="ccccc" />
    <path
       id="rect10620-1-2"
       style="fill:#00446c;fill-opacity:0.998403;stroke-width:0.19858"
       d="m 131.85372,189.98401 -4.5436,11.42667 3.83489,-0.43349 4.13658,-10.40303 z"
       sodipodi:nodetypes="ccccc" />
    <path
       id="rect8523"
       style="fill:#d40000;stroke-width:0.391005"
       d="m 159.68215,121.62749 c -42.85211,-8.9733 -76.276608,-1.56701 -113.904091,-1.46305 -11.883193,24.42934 -4.483649,48.85869 -0.577162,73.28804 l 113.725043,-3.14139 c 7.74513,-24.95663 1.21958,-43.72697 0.75621,-68.6836 z"
       sodipodi:nodetypes="ccccc" />
    <path
       id="rect10620-1"
       style="fill:#00446c;fill-opacity:0.998403;stroke-width:0.198579"
       d="m 147.87476,190.22415 -91.648782,2.56257 3.553928,1.45389 83.438624,-2.33301 z"
       sodipodi:nodetypes="ccccc" />
    <ellipse
       style="fill:#c87137;stroke-width:0.381028"
       id="path9819-5"
       cx="-65.787735"
       cy="160.16966"
       rx="13.455881"
       ry="14.278785"
       transform="scale(-1,1)" />
    <path
       id="path10057-0"
       style="fill:#a05a2c;stroke-width:0.416432"
       d="m 87.811403,144.43922 c 1.530885,3.87674 -3.231001,5.97491 -0.749025,5.97491 2.481985,0 3.495364,-1.84747 3.495364,-5.72422 -1e-5,-3.87674 -0.88855,-5.26459 -3.370544,-5.26459 -2.481956,0 -0.893506,1.17059 0.624205,5.0139 z"
       sodipodi:nodetypes="sssss" />
    <ellipse
       style="fill:#c87137;stroke-width:0.148273"
       id="path9819-9-5"
       cx="-74.364944"
       cy="147.31656"
       rx="5.6428618"
       ry="5.1560364"
       transform="scale(-1,1)" />
    <rect
       style="fill:#217821;stroke-width:0.320771"
       id="rect20539-9"
       width="59.407875"
       height="5.7210493"
       x="265.19928"
       y="130.93697"
       ry="0.072818749"
       transform="matrix(0.91291415,0.40815163,-0.99998828,-0.00484153,0,0)"
       inkscape:transform-center-x="10.031744"
       inkscape:transform-center-y="-2.554623"
       rx="0.072807707" />
    <rect
       style="fill:#217821;stroke-width:0.272879"
       id="rect20539-9-6"
       width="26.7311"
       height="3.8099382"
       x="60.202255"
       y="-142.18135"
       ry="0.054791782"
       transform="matrix(0.90817713,0.41858608,-0.50736093,-0.86173365,0,0)"
       inkscape:transform-center-x="4.0114131"
       inkscape:transform-center-y="-3.6741301"
       rx="0.057953812" />
    <path
       id="rect20539-9-5"
       style="fill:url(#linearGradient29842);fill-opacity:1;stroke-width:0.184944"
       inkscape:transform-center-x="4.0068109"
       inkscape:transform-center-y="-3.0924187"
       d="m 20.290789,203.22428 c 4.733403,1.19831 17.699536,2.61746 30.020127,4.0193 0.02839,0.003 0.01032,-0.0456 0.03872,-0.0429 16.57928,1.59307 80.511134,11.1836 -0.954605,-3.78237 -0.02799,-0.004 -0.03535,-0.0528 -0.06374,-0.0566 -10.006344,-1.3472 -19.948537,-4.65898 -30.020117,-4.01929 -0.02861,0.002 -0.01379,0.0288 -0.03872,0.043 -1.280585,0.72985 -3.895926,1.01645 0.954615,3.78239 0.02483,0.0141 0.03606,0.0497 0.06374,0.0566 z"
       sodipodi:nodetypes="sssssssss" />
    <path
       id="path31-6"
       style="fill:#d38d5f;fill-rule:evenodd;stroke-width:0.357437"
       d="M 95.637025,72.498797 C 94.730774,131.72203 136.94759,97.095363 94.50612,113.10923 54.248427,128.29914 24.727571,104.68595 24.245034,88.534098 22.492402,29.868891 49.018481,6.851627 87.933331,6.851627 c 38.914879,0 8.393905,20.542757 7.703694,65.64717 z"
       sodipodi:nodetypes="sssss" />
    <path
       id="path6217-4"
       style="fill:#d40000;stroke-width:0.378879"
       d="m 116.9408,147.28841 c -14.39892,47.67071 -8.0966,40.74836 -35.090147,33.46611 -19.166222,-5.17065 -17.39699,-2.23435 -8.022931,-33.26926 6.547576,-21.67723 21.456073,-37.52512 34.114808,-33.75646 12.65869,3.76867 15.54586,11.88235 8.99827,33.55961 z"
       sodipodi:nodetypes="sssss" />
    <path
       id="path32024"
       style="fill-opacity:0.998403;stroke-width:0.264583"
       d="M 58.584079,16.472838 C 63.063775,22.224839 91.70707,23.122044 89.219051,35.152156 69.274375,131.58912 113.8242,29.241129 113.9594,19.76471 114.08638,10.863341 100.40855,3.6457388 83.6928,3.6457376 66.977046,3.645737 53.099232,9.4302115 58.584079,16.472838 Z"
       sodipodi:nodetypes="sssss" />
    <path
       id="path31"
       style="fill:#d40000;fill-rule:evenodd;stroke-width:0.398876"
       d="m 89.742359,65.366408 c 1.128558,59.223242 -108.411394,58.520292 12.851221,54.059402 59.76919,-2.19873 68.7605,24.45867 84.48883,-38.024101 11.01957,-43.776619 -39.28545,-81.68247069 -87.746564,-81.68247069 -48.461059,0 -10.452997,20.54275669 -9.593487,65.64716969 z"
       sodipodi:nodetypes="sssss" />
    <path
       id="path4257-0-5"
       style="fill:url(#linearGradient7905);fill-opacity:1;stroke-width:0.272979"
       d="m 108.88836,154.82429 c -2.00606,11.42503 -50.763172,16.91738 -40.171717,22.28941 8.60188,4.36291 52.283147,-9.21233 57.013277,-29.05872 9.45497,-39.6706 -7.87411,-44.30287 -10.53165,-29.16739 z"
       sodipodi:nodetypes="sssss" />
    <path
       id="path4257-0"
       style="fill:url(#linearGradient14432);fill-opacity:1;stroke-width:0.312327"
       d="m 163.6192,89.882543 c -13.19331,19.882297 -40.34028,24.277927 -27.6353,32.102857 0,0 28.02905,2.36147 42.0286,-17.81879 10.22333,-14.736869 5.89406,-29.926333 -1.64545,-41.04462 -6.87187,-10.133729 -4.51115,14.347868 -12.74785,26.760553 z"
       sodipodi:nodetypes="sssss" />
    <rect
       style="fill:url(#linearGradient30042);fill-opacity:1;stroke-width:0.454426"
       id="rect11065-9"
       width="8.7783976"
       height="3.292762"
       x="185.38828"
       y="127.0921"
       transform="matrix(-1.1373239e-4,0.99999999,0.9926403,0.12110007,0,0)" />
    <rect
       style="fill:#0000aa;stroke-width:0.253422"
       id="rect11065-3"
       width="1.0241572"
       height="8.7774477"
       x="-84.267265"
       y="71.781204"
       transform="matrix(-0.79153104,-0.61112897,-0.27964841,0.96010248,0,0)" />
    <path
       id="rect17082"
       style="fill:#00aa00;stroke-width:0.147492"
       d="m 178.03782,132.07212 c -7.65955,-6.84068 -14.89943,-15.16584 -28.415,-1.29317 -3.16014,16.05268 -2.66847,29.9841 1.29528,41.8987 8.53896,3.5037 16.73522,4.42442 24.77205,0.51726 6.13165,-12.83122 4.47733,-26.93806 2.34767,-41.12279 z"
       sodipodi:nodetypes="ccccc" />
    <rect
       style="fill:#00aa00;stroke-width:0.368834"
       id="rect17663"
       width="2.21434"
       height="10.199855"
       x="-161.89636"
       y="121.62749"
       ry="3.3260343"
       transform="scale(-1,1)"
       rx="3.3260345" />
    <path
       id="rect17811"
       style="fill:#0b280b;stroke-width:0.0561649"
       d="m 178.35345,140.84275 c -0.85725,-6.92358 -1.60556,-7.21802 -2.2304,0 -0.0375,0.43247 -0.19667,6.51056 -0.19667,7.4419 0,0.93134 0.16047,-3.59833 0.19667,-4.07966 0.83366,-11.08824 1.53795,-6.69019 2.2304,0 0.0387,0.37403 0.25063,5.19388 0.25063,4.26254 0,-0.93134 -0.21094,-7.30423 -0.25063,-7.62478 z"
       sodipodi:nodetypes="sssssss" />
    <path
       id="rect17813"
       style="fill:#002b00;stroke-width:0.117925"
       d="m 179.78472,158.39281 c -1.85415,-0.15768 -3.7083,-1.6567 -5.56245,0 -0.0512,0.0456 -0.0928,0.40243 -0.0928,0.90232 0,0.49989 0.0416,0.95255 0.0928,0.90231 1.85415,-1.823 3.7083,-0.13787 5.56245,0 0.0514,0.004 0.0927,-0.40242 0.0927,-0.90231 0,-0.49989 -0.0413,-0.89796 -0.0927,-0.90232 z"
       sodipodi:nodetypes="sssssss" />
    <path
       id="rect19198"
       style="fill:#217821;stroke-width:0.190509"
       d="m 165.40311,131.85504 0.52743,33.33461 c 5.8e-4,0.0371 0.10261,0.0324 0.1313,0.0665 0.52329,0.62118 -1.90807,11.047 2.13414,-0.009 0.0132,-0.0364 0.11264,-0.0314 0.12918,-0.0676 4.64332,-10.1427 3.4267,-21.46348 -0.52741,-33.33461 -0.0121,-0.0366 -0.11295,-0.0306 -0.13132,-0.0665 -3.72729,-7.2919 -3.18776,-4.26325 -2.13412,0.009 0.008,0.0368 -0.12978,0.0305 -0.1292,0.0676 z"
       sodipodi:nodetypes="sssssssss" />
    <path
       id="rect19198-2"
       style="fill:#217821;stroke-width:0.176999"
       d="m 153.90419,133.11675 -0.45526,33.33461 c -5.1e-4,0.0371 -0.0886,0.0324 -0.11335,0.0665 -0.45169,0.62118 1.90757,2.12413 -1.84218,-0.009 -0.0333,-0.019 -2.05106,0.0979 -2.06533,0.0617 -4.00812,-10.1427 -3.21844,-23.9205 0.19475,-35.79163 0,0 2.02802,-0.58884 2.06717,-0.58377 3.60816,0.46711 3.0122,-1.41828 2.10269,2.85397 -0.007,0.0368 0.11203,0.0305 0.11151,0.0676 z"
       sodipodi:nodetypes="sssssssss" />
    <path
       id="rect1430"
       style="fill:#28170b;stroke-width:0.147509"
       d="M 45.321069,43.198954 37.822172,40.6028 31.27743,42.30402 c 6.642369,1.179764 13.274921,2.027531 20.046635,7.579677 0.166825,-1.886953 -5.894438,-5.256019 -6.002996,-6.684743 z"
       sodipodi:nodetypes="ccccc"
       inkscape:transform-center-x="-2.8479385"
       inkscape:transform-center-y="2.5526529" />
    <path
       id="path2169-5-4-0"
       style="fill:#ffccaa;stroke-width:0.456428"
       d="m 43.511488,53.591584 c 0.767298,3.16755 -3.801179,5.70867 -8.01012,5.70867 -4.208951,0 -7.813334,-3.84533 -7.620991,-6.09243 0.236709,-2.76539 3.282296,-5.9965 7.620991,-6.09245 4.208492,-0.093 7.102106,2.72769 8.01012,6.47621 z"
       sodipodi:nodetypes="sssss" />
    <path
       id="path3219-1"
       style="fill:#241c1c;stroke-width:0.479567"
       d="m 24.180054,83.940869 c -0.05598,0.58022 0.150818,0.496271 3.757591,0.839502 3.606915,0.343246 2.654648,0.260662 2.710761,-0.320323 0.05598,-0.580229 0.585467,-0.618974 -3.021469,-0.962222 -3.606956,-0.343248 -3.390882,-0.137161 -3.446883,0.443043 z"
       sodipodi:nodetypes="sssss" />
    <ellipse
       style="fill:#28170b;stroke-width:0.285998"
       id="path2169"
       ry="3.7418122"
       rx="4.8719387"
       cy="53.38958"
       cx="-34.01289"
       transform="scale(-1,1)" />
    <ellipse
       style="fill:#000000;fill-opacity:0.998403;stroke-width:0.433747"
       id="path31470"
       cx="-25.602621"
       cy="69.666061"
       rx="0.2475301"
       ry="1.0972906"
       transform="scale(-1,1)" />
  </g>
</svg>
