<?xml version="1.0" encoding="UTF-8" standalone="no"?>
<!-- Created with Inkscape (http://www.inkscape.org/) -->

<svg
   width="210mm"
   height="215mm"
   viewBox="0 0 210 215"
   version="1.1"
   id="svg5"
   inkscape:version="1.1 (c68e22c387, 2021-05-23)"
   sodipodi:docname="Gus_dos_1.svg"
   inkscape:export-filename="C:\Users\basti\OneDrive\Bureau\Gus veut boire un coup\Gus\Gus_dos_1.png"
   inkscape:export-xdpi="5.0613389"
   inkscape:export-ydpi="5.0613389"
   xmlns:inkscape="http://www.inkscape.org/namespaces/inkscape"
   xmlns:sodipodi="http://sodipodi.sourceforge.net/DTD/sodipodi-0.dtd"
   xmlns:xlink="http://www.w3.org/1999/xlink"
   xmlns="http://www.w3.org/2000/svg"
   xmlns:svg="http://www.w3.org/2000/svg">
  <sodipodi:namedview
     id="namedview7"
     pagecolor="#ffffff"
     bordercolor="#666666"
     borderopacity="1.0"
     inkscape:pageshadow="2"
     inkscape:pageopacity="0.0"
     inkscape:pagecheckerboard="0"
     inkscape:document-units="mm"
     showgrid="false"
     inkscape:zoom="0.72337261"
     inkscape:cx="175.5665"
     inkscape:cy="321.41112"
     inkscape:window-width="1920"
     inkscape:window-height="1001"
     inkscape:window-x="-9"
     inkscape:window-y="-9"
     inkscape:window-maximized="1"
     inkscape:current-layer="layer1"
     height="296mm" />
  <defs
     id="defs2">
    <linearGradient
       inkscape:collect="always"
       id="linearGradient5194">
      <stop
         style="stop-color:#800000;stop-opacity:1;"
         offset="0"
         id="stop5190" />
      <stop
         style="stop-color:#800000;stop-opacity:0;"
         offset="1"
         id="stop5192" />
    </linearGradient>
    <linearGradient
       inkscape:collect="always"
       xlink:href="#linearGradient5194"
       id="linearGradient7905"
       gradientUnits="userSpaceOnUse"
       gradientTransform="matrix(0.73841257,0.12231277,-0.21338083,1.2090567,161.02933,15.618602)"
       x1="51.572659"
       y1="126.18843"
       x2="51.572659"
       y2="126.18843" />
    <linearGradient
       inkscape:collect="always"
       xlink:href="#linearGradient5194"
       id="linearGradient9654"
       gradientUnits="userSpaceOnUse"
       gradientTransform="matrix(-0.54960655,0.12231277,0.1588211,1.2090567,52.07384,19.796689)"
       x1="51.572659"
       y1="126.18843"
       x2="51.572659"
       y2="126.18843" />
    <linearGradient
       inkscape:collect="always"
       xlink:href="#linearGradient5194"
       id="linearGradient9794"
       gradientUnits="userSpaceOnUse"
       x1="51.572659"
       y1="126.18843"
       x2="51.572659"
       y2="126.18843"
       gradientTransform="matrix(0.78859816,0.08264264,-0.01961536,0.41036371,-14.322186,73.832746)" />
    <linearGradient
       inkscape:collect="always"
       xlink:href="#linearGradient5194"
       id="linearGradient14432"
       gradientUnits="userSpaceOnUse"
       gradientTransform="matrix(-0.95707333,-1.1958123,1.1584972,-0.9272081,81.373456,260.1395)"
       x1="51.572659"
       y1="126.18843"
       x2="51.572659"
       y2="126.18843" />
  </defs>
  <g
     inkscape:label="Calque 1"
     inkscape:groupmode="layer"
     id="layer1">
    <path
       id="path11385-4"
       style="fill:#373748;stroke-width:0.548397"
       d="m 170.96803,193.28521 c -0.25865,15.38812 0.31846,15.67833 -30.25584,16.33648 -32.38119,0.69705 -30.23634,-1.07768 -31.01225,-16.33648 -0.56475,-11.10627 8.83215,-15.95657 31.39046,-15.95657 22.55828,0 30.06453,4.83752 29.87763,15.95657 z"
       sodipodi:nodetypes="sssss" />
    <path
       id="rect8523"
       style="fill:#d40000;stroke-width:0.376887"
       d="M 24.072347,118.46631 H 191.97635 l -18.48733,71.82499 -131.489559,0.48455 z"
       sodipodi:nodetypes="ccccc" />
    <ellipse
       style="fill:#c87137;stroke-width:0.398876"
       id="path9819"
       cx="20.806967"
       cy="165.21326"
       rx="14.005556"
       ry="14.925369" />
    <ellipse
       style="fill:#c87137;stroke-width:0.381028"
       id="path9819-5"
       cx="190.69289"
       cy="166.96432"
       rx="13.358972"
       ry="14.278785" />
    <path
       id="path10057-0"
       style="fill:#a05a2c;stroke-width:0.508378"
       d="m 183.6925,160.92252 c 2.26511,3.87674 -4.78059,5.97491 -1.10826,5.97491 3.67236,0 5.17176,-1.84747 5.17176,-5.72422 -2e-5,-3.87674 -1.31471,-5.26459 -4.98707,-5.26459 -3.67231,0 -1.32204,1.17059 0.92357,5.0139 z"
       sodipodi:nodetypes="sssss" />
    <path
       id="path10057-0-2"
       style="fill:#a05a2c;stroke-width:0.493973"
       d="m 27.622508,168.40742 c -2.138565,3.87674 4.513512,5.97491 1.046345,5.97491 -3.467196,0 -4.882829,-1.84747 -4.882829,-5.72422 1.9e-5,-3.87674 1.241261,-5.26459 4.708457,-5.26459 3.467148,0 1.248181,1.17059 -0.871973,5.0139 z"
       sodipodi:nodetypes="sssss" />
    <ellipse
       style="fill:#c87137;stroke-width:0.148273"
       id="path9819-9"
       cx="31.794827"
       cy="168.90172"
       rx="5.6022215"
       ry="5.1560364" />
    <ellipse
       style="fill:#c87137;stroke-width:0.148273"
       id="path9819-9-5"
       cx="180.0833"
       cy="161.36377"
       rx="5.6022215"
       ry="5.1560364" />
    <rect
       style="fill:#217821;stroke-width:0.172184"
       id="rect20539-9"
       width="22.208237"
       height="4.3778663"
       x="1.7096488"
       y="173.59595"
       ry="0.056126632"
       transform="matrix(-0.97150353,0.23702507,0.3668007,0.93029955,0,0)"
       inkscape:transform-center-x="-3.4795271"
       inkscape:transform-center-y="2.5574626" />
    <rect
       style="fill:#217821;stroke-width:0.159709"
       id="rect20539-9-5"
       width="22.028957"
       height="3.7971244"
       x="-235.3943"
       y="-131.2177"
       ry="0.048681203"
       transform="matrix(-0.97940994,-0.20188155,0.42290013,-0.9061763,0,0)"
       inkscape:transform-center-x="-3.4795285"
       inkscape:transform-center-y="-2.1606894" />
    <path
       id="path6217"
       style="fill:#d40000;stroke-width:0.398876"
       d="m 46.318552,133.79392 c 0,43.84214 4.443674,37.37597 -26.330447,37.0541 C 2.2812852,170.66282 5.7555968,172.59223 0.94054887,144.79062 -2.4616289,125.14678 11.608646,107.73656 26.15055,107.73653 c 14.541905,0 20.168002,6.12111 20.168002,26.05739 z"
       sodipodi:nodetypes="sssss" />
    <path
       id="path4257-8"
       style="fill:url(#linearGradient9794);fill-opacity:1;stroke-width:0.150889"
       d="m 35.276793,115.68664 c -8.361313,7.84653 -2.188535,15.40466 -11.404104,14.1914 0,0 -10.790775,-6.18109 -2.505607,-14.29146 6.050338,-5.92269 17.208038,-8.45432 26.822048,-9.25695 8.762665,-0.7316 -7.692298,4.45834 -12.912337,9.35701 z"
       sodipodi:nodetypes="sssss" />
    <path
       id="path6217-4"
       style="fill:#d40000;stroke-width:0.378879"
       d="m 168.40645,129.67168 c 0,42.58615 15.27442,31.50387 21.94619,32.11305 8.18299,0.74717 18.99609,6.29332 18.99609,-21.4314 0,-19.36514 -9.62529,-35.99254 -22.74572,-35.99255 -13.12043,0 -18.19656,5.94574 -18.19656,25.3109 z"
       sodipodi:nodetypes="sssss" />
    <rect
       style="fill:#217821;stroke-width:0.229562"
       id="rect20539-5"
       width="25.18861"
       height="6.8610106"
       x="95.81105"
       y="223.21828"
       ry="0.08796189"
       transform="matrix(-0.6017456,0.79868782,0.98193222,0.18923295,0,0)"
       inkscape:transform-center-x="-6.724005"
       inkscape:transform-center-y="-1.1114031" />
    <rect
       style="fill:#217821;stroke-width:0.281557"
       id="rect20539"
       width="28.559101"
       height="9.1029215"
       x="157.94548"
       y="61.666164"
       ry="0.11670441"
       transform="matrix(0.70977528,0.70442817,-0.9897764,0.14262776,0,0)"
       inkscape:transform-center-x="8.9924244"
       inkscape:transform-center-y="-1.1114014" />
    <path
       id="rect20762"
       style="fill:#aa0000;stroke-width:0.236522"
       d="m 34.954398,121.11795 c 36.892451,4.94765 74.984022,5.39373 114.631182,0 0.0215,-0.003 0.0204,0.0624 0.0389,0.0487 8.24982,-6.08907 13.01356,-8.5988 0,7.14439 0,-7.14439 -0.0179,0.0431 -0.0389,0.0487 -37.41964,9.89528 -103.35028,2.64813 -114.631182,0 -0.02118,-0.005 -0.02066,-0.0343 -0.0389,-0.0487 -16.705772,-13.19555 9.918346,-4.51888 0,-7.14439 -0.02106,-0.006 0.01747,-0.0516 0.0389,-0.0487 z"
       sodipodi:nodetypes="ssscsssss" />
    <path
       id="path31"
       style="fill:#d40000;fill-rule:evenodd;stroke-width:0.398876"
       d="m 191.97635,81.413608 c -1.12043,59.223242 -28.01357,45.132582 -84.14163,45.783122 -60.67216,0.70321 -83.925064,23.20946 -90.087512,-45.783122 -4.014422,-44.94402 39.002523,-81.68247078 87.114582,-81.68247078 48.11204,0 87.9679,36.57805778 87.11456,81.68247078 z"
       sodipodi:nodetypes="sssss" />
    <path
       id="path4257-0-5"
       style="fill:url(#linearGradient7905);fill-opacity:1;stroke-width:0.253626"
       d="m 176.66135,154.89007 c -0.2956,7.71717 4.03576,11.09187 -4.4763,9.34117 0,0 -5.09773,-14.22975 -4.76017,-27.23981 0.20968,-8.08044 11.00467,-28.26508 10.25789,-8.76862 z"
       sodipodi:nodetypes="sssss" />
    <path
       id="path4257-0-5-6"
       style="fill:url(#linearGradient9654);fill-opacity:1;stroke-width:0.218811"
       d="m 40.438804,160.28494 c 0.220006,7.9862 -3.00386,11.47855 3.33174,9.66682 0,0 3.794284,-14.72583 3.543032,-28.18945 -0.156076,-8.36213 -8.190859,-29.25046 -7.635038,-9.07432 z"
       sodipodi:nodetypes="sssss" />
    <path
       id="path4257-0"
       style="fill:url(#linearGradient14432);fill-opacity:1;stroke-width:0.398876"
       d="m 122.0302,99.874293 c 34.14665,-7.5609 45.67006,-32.957584 56.1734,-18.40895 0,0 -0.7986,28.081107 -35.55678,36.351157 -25.38257,6.0393 -49.106293,-2.29264 -65.75458,-12.67088 -15.174028,-9.459227 23.81992,-0.55099 45.13796,-5.271327 z"
       sodipodi:nodetypes="sssss" />
    <path
       id="rect10620"
       style="fill:#0044aa;stroke-width:0.462378"
       d="m 42.162153,190.2913 h 65.663437 c 0.19713,-0.91242 -2.80111,5.06558 -3.64144,8.95523 l -59.220886,0.27136 z"
       sodipodi:nodetypes="ccccc" />
    <path
       id="path11385"
       style="fill:#373748;stroke-width:0.463482"
       d="m 105.34575,203.80164 c -0.90523,12.08146 2.0008,11.87465 -30.255848,11.66892 -34.455252,-0.21975 -31.141544,0.0246 -31.012238,-11.66892 0.08783,-7.94282 8.832143,-11.39756 31.390436,-11.39756 22.558286,0 30.47116,3.47645 29.87765,11.39756 z"
       sodipodi:nodetypes="sssss" />
    <rect
       style="fill:#0000aa;stroke-width:0.39889"
       id="rect11065-9-5"
       width="2.4807231"
       height="8.9133043"
       x="191.23715"
       y="-110.06487"
       transform="matrix(0.00109742,0.9999994,-0.99992008,0.01264238,0,0)" />
    <path
       id="rect10620-1"
       style="fill:#0044aa;stroke-width:0.398876"
       d="m 107.82559,190.2913 h 65.66343 l -2.52099,2.99391 h -59.78111 z"
       sodipodi:nodetypes="ccccc" />
    <rect
       style="fill:#0000aa;stroke-width:0.39889"
       id="rect11065-9"
       width="2.4807231"
       height="8.9133043"
       x="191.23715"
       y="-118.97817"
       transform="matrix(0.00109742,0.9999994,-0.99992008,0.01264238,0,0)" />
    <rect
       style="fill:#0000aa;stroke-width:0.39889"
       id="rect11065"
       width="2.4807231"
       height="8.9133043"
       x="6.0218053"
       y="195.45012"
       transform="matrix(0.9837243,-0.17968446,0.19102962,0.98158427,0,0)" />
    <rect
       style="fill:#0000aa;stroke-width:0.39889"
       id="rect11065-3"
       width="2.4807231"
       height="8.9133043"
       x="69.493263"
       y="206.58253"
       transform="matrix(0.9837243,-0.17968446,0.19102962,0.98158427,0,0)" />
    <path
       id="rect17082"
       style="fill:#00aa00;stroke-width:0.264583"
       d="m 62.330765,141.47271 c 24.470816,-6.84068 47.600815,-15.16584 90.780475,-1.29317 10.09606,16.05268 8.52526,29.9841 -4.13814,41.8987 -27.28035,3.5037 -53.465841,4.42442 -79.141953,0.51726 -19.589424,-12.83122 -14.304192,-26.93806 -7.500382,-41.12279 z"
       sodipodi:nodetypes="ccccc" />
    <rect
       style="fill:#00aa00;stroke-width:0.264583"
       id="rect17661"
       width="16.035301"
       height="2.0690711"
       x="97.310997"
       y="126.85992" />
    <rect
       style="fill:#00aa00;stroke-width:0.368834"
       id="rect17663"
       width="2.1983922"
       height="10.199855"
       x="111.1479"
       y="126.85992"
       ry="3.3260343" />
    <rect
       style="fill:#00aa00;stroke-width:0.335582"
       id="rect17663-6"
       width="1.9397583"
       height="9.5694523"
       x="97.310997"
       y="126.85992"
       ry="3.1204689" />
    <path
       id="rect19194"
       style="fill:#217821;stroke-width:0.264583"
       d="m 91.021552,141.18474 c 20.025938,-6.70105 34.499638,-3.28651 33.025848,-1.00585 0,0 1.97797,1.502 2.04958,1.50093 4.82377,-0.0717 11.06239,3.53896 -2.0117,1.8445 -0.0711,-0.009 -0.0647,0.16024 -0.12932,0.12932 -17.6966,-8.46875 -23.3735,-4.34792 -32.934408,0 -0.06522,0.0297 -0.05918,-0.1438 -0.129317,-0.12932 -16.939226,3.49805 -5.058474,-0.20889 0,-2.21026 0.06667,-0.0264 0.06138,-0.10659 0.129317,-0.12932 z"
       sodipodi:nodetypes="sssssssss" />
    <path
       id="rect17811"
       style="fill:#0b280b;stroke-width:0.264583"
       d="m 82.633528,141.2141 c 18.886962,-6.92358 35.373712,-7.21802 49.140442,0 0.82484,0.43247 4.33291,6.51056 4.33291,7.4419 0,0.93134 -3.53559,-3.59833 -4.33291,-4.07966 -18.36747,-11.08824 -33.884441,-6.69019 -49.140442,0 -0.852933,0.37403 -5.521637,5.19388 -5.521637,4.26254 0,-0.93134 4.647198,-7.30423 5.521637,-7.62478 z"
       sodipodi:nodetypes="sssssss" />
    <path
       id="rect17813"
       style="fill:#002b00;stroke-width:0.264583"
       d="m 88.840738,163.19798 c 12.931692,-0.11299 25.863392,-1.18716 38.795082,0 0.35671,0.0327 0.64658,0.28838 0.64658,0.64659 0,0.35821 -0.29018,0.68258 -0.64658,0.64658 -12.93169,-1.30633 -25.86339,-0.0988 -38.795082,0 -0.358198,0.003 -0.646585,-0.28837 -0.646585,-0.64658 0,-0.35821 0.288391,-0.64346 0.646585,-0.64659 z"
       sodipodi:nodetypes="sssssss" />
    <path
       id="rect17815"
       style="fill:#002b00;stroke-width:0.264583"
       d="m 148.84379,151.81808 c 0.0716,0 0.11453,0.0592 0.12932,0.12932 1.25584,5.94858 1.99915,11.89716 0,17.84574 -0.0228,0.0679 -0.0577,0.12932 -0.12932,0.12932 -0.0716,0 -0.14469,-0.0594 -0.12931,-0.12932 1.25873,-5.72645 0.79072,-11.75762 0,-17.84574 -0.009,-0.071 0.0577,-0.12932 0.12931,-0.12932 z"
       sodipodi:nodetypes="sssssss" />
    <path
       id="rect17817"
       style="fill:#002b00;stroke-width:0.264583"
       d="m 70.736365,151.30083 c 0.07164,0 0.145529,0.0596 0.129317,0.12931 -1.503529,6.46898 -1.169913,13.3555 0,20.43208 0.01168,0.0706 -0.05768,0.12932 -0.129317,0.12932 -0.07164,0 -0.114197,-0.0593 -0.129317,-0.12932 -1.491785,-6.90694 -2.254237,-13.76682 0,-20.43208 0.02294,-0.0678 0.05767,-0.12931 0.129317,-0.12931 z"
       sodipodi:nodetypes="sssssss" />
    <path
       id="rect19198"
       style="fill:#217821;stroke-width:0.264583"
       d="m 76.299575,177.94397 h 64.298635 c 0.0716,0 0.0634,0.10136 0.12931,0.12932 1.20232,0.50974 21.29156,-2.0678 0,2.11883 -0.0702,0.0138 -0.0597,0.11232 -0.12931,0.12931 -19.52526,4.76904 -41.370138,3.73905 -64.298635,0 -0.07071,-0.0115 -0.05992,-0.11165 -0.129317,-0.12931 -14.094446,-3.58579 -8.248544,-3.09774 0,-2.11883 0.0711,0.008 0.05767,-0.12932 0.129317,-0.12932 z"
       sodipodi:nodetypes="sssssssss" />
  </g>
</svg>
