<?xml version="1.0" encoding="UTF-8" standalone="no"?>
<!-- Created with Inkscape (http://www.inkscape.org/) -->

<svg
   width="194mm"
   height="215mm"
   viewBox="0 0 194 215"
   version="1.1"
   id="svg5"
   inkscape:version="1.1 (c68e22c387, 2021-05-23)"
   sodipodi:docname="gus_superattack.svg"
   inkscape:export-filename="C:\Users\basti\OneDrive\Bureau\Gus veut boire un coup\Gus\gus_fight\gus_kick_r4.png"
   inkscape:export-xdpi="5.8612218"
   inkscape:export-ydpi="5.8612218"
   xmlns:inkscape="http://www.inkscape.org/namespaces/inkscape"
   xmlns:sodipodi="http://sodipodi.sourceforge.net/DTD/sodipodi-0.dtd"
   xmlns:xlink="http://www.w3.org/1999/xlink"
   xmlns="http://www.w3.org/2000/svg"
   xmlns:svg="http://www.w3.org/2000/svg">
  <sodipodi:namedview
     id="namedview7"
     pagecolor="#ffffff"
     bordercolor="#666666"
     borderopacity="1.0"
     inkscape:pageshadow="2"
     inkscape:pageopacity="0.0"
     inkscape:pagecheckerboard="0"
     inkscape:document-units="mm"
     showgrid="false"
     inkscape:zoom="0.5"
     inkscape:cx="288"
     inkscape:cy="603"
     inkscape:window-width="1920"
     inkscape:window-height="1001"
     inkscape:window-x="-9"
     inkscape:window-y="-9"
     inkscape:window-maximized="1"
     inkscape:current-layer="layer1"
     height="296mm"
     width="209mm" />
  <defs
     id="defs2">
    <linearGradient
       inkscape:collect="always"
       xlink:href="#linearGradient29840"
       id="linearGradient29842-7"
       x1="-227.65132"
       y1="-227.23926"
       x2="-227.67598"
       y2="-223.42758"
       gradientUnits="userSpaceOnUse"
       gradientTransform="matrix(-0.99983109,0.01837916,0.35337912,-0.9354802,1.1466667e-5,1.517151e-6)" />
    <linearGradient
       inkscape:collect="always"
       id="linearGradient29840">
      <stop
         style="stop-color:#535d6c;stop-opacity:1;"
         offset="0"
         id="stop29836" />
      <stop
         style="stop-color:#535d6c;stop-opacity:0;"
         offset="1"
         id="stop29838" />
    </linearGradient>
    <linearGradient
       inkscape:collect="always"
       xlink:href="#linearGradient30040"
       id="linearGradient30042-2"
       x1="213.05557"
       y1="-59.214508"
       x2="213.22256"
       y2="-61.33345"
       gradientUnits="userSpaceOnUse" />
    <linearGradient
       inkscape:collect="always"
       id="linearGradient30040">
      <stop
         style="stop-color:#1c1f24;stop-opacity:1;"
         offset="0"
         id="stop30036" />
      <stop
         style="stop-color:#1c1f24;stop-opacity:0;"
         offset="1"
         id="stop30038" />
    </linearGradient>
    <linearGradient
       inkscape:collect="always"
       xlink:href="#linearGradient5194"
       id="linearGradient7905"
       gradientUnits="userSpaceOnUse"
       gradientTransform="matrix(0.73841257,0.14169097,-0.21338083,1.4006094,81.067081,-9.2918785)"
       x1="51.572659"
       y1="126.18843"
       x2="51.572659"
       y2="126.18843" />
    <linearGradient
       inkscape:collect="always"
       id="linearGradient5194">
      <stop
         style="stop-color:#800000;stop-opacity:1;"
         offset="0"
         id="stop5190" />
      <stop
         style="stop-color:#800000;stop-opacity:0;"
         offset="1"
         id="stop5192" />
    </linearGradient>
    <linearGradient
       inkscape:collect="always"
       xlink:href="#linearGradient5194"
       id="linearGradient27326"
       gradientUnits="userSpaceOnUse"
       gradientTransform="matrix(0.16920842,0.10335877,-0.04889656,1.0216973,122.14732,39.109832)"
       x1="51.572659"
       y1="126.18843"
       x2="51.572659"
       y2="126.18843" />
    <linearGradient
       inkscape:collect="always"
       xlink:href="#linearGradient5194"
       id="linearGradient27326-1"
       gradientUnits="userSpaceOnUse"
       gradientTransform="matrix(0.16920842,0.10335877,-0.04889656,1.0216973,122.14732,39.109832)"
       x1="51.572659"
       y1="126.18843"
       x2="51.572659"
       y2="126.18843" />
    <linearGradient
       inkscape:collect="always"
       xlink:href="#linearGradient5194"
       id="linearGradient14432"
       gradientUnits="userSpaceOnUse"
       gradientTransform="matrix(1.0212644,-0.69985869,1.1058599,0.60661395,-123.73834,81.543192)"
       x1="51.572659"
       y1="126.18843"
       x2="51.572659"
       y2="126.18843" />
    <linearGradient
       inkscape:collect="always"
       xlink:href="#linearGradient30040"
       id="linearGradient30042"
       x1="213.05557"
       y1="-59.214508"
       x2="213.22256"
       y2="-61.33345"
       gradientUnits="userSpaceOnUse" />
    <linearGradient
       inkscape:collect="always"
       xlink:href="#linearGradient29840"
       id="linearGradient1547"
       gradientUnits="userSpaceOnUse"
       gradientTransform="matrix(-0.99983109,0.01837916,0.35337912,-0.9354802,1.1466667e-5,1.517151e-6)"
       x1="-227.65132"
       y1="-227.23926"
       x2="-227.67598"
       y2="-223.42758" />
  </defs>
  <g
     inkscape:label="Calque 1"
     inkscape:groupmode="layer"
     id="layer1">
    <path
       id="path11385-7"
       style="fill:#45323f;fill-opacity:1;stroke-width:0.602877"
       d="m 181.76941,205.08567 c 7.26565,10.63331 -2.04294,10.0779 -59.98559,9.59985 -58.295936,-0.48096 -52.690816,0.0246 -52.472036,-11.66892 0.14861,-7.94282 13.2626,-6.74215 51.430806,-6.74215 38.16802,0 56.52223,2.21872 61.02682,8.81122 z"
       sodipodi:nodetypes="sssss"
       inkscape:export-filename="C:\Users\basti\OneDrive\Bureau\Gus veut boire un coup\Gus\gus_fight\gus_lr1.png"
       inkscape:export-xdpi="5.9230065"
       inkscape:export-ydpi="5.9230065" />
    <path
       id="rect10620-2"
       style="fill:#414477;fill-opacity:1;stroke-width:0.561253"
       d="m 37.502371,189.62639 88.472889,-0.90522 c 0.29045,-0.91242 19.64329,4.29619 18.40514,8.18584 l -97.452019,1.40651 z"
       sodipodi:nodetypes="ccccc"
       inkscape:export-filename="C:\Users\basti\OneDrive\Bureau\Gus veut boire un coup\Gus\gus_fight\gus_lr1.png"
       inkscape:export-xdpi="5.9230065"
       inkscape:export-ydpi="5.9230065" />
    <path
       id="rect20539-9-5-5"
       style="fill:url(#linearGradient1547);fill-opacity:1;stroke-width:0.184944"
       inkscape:transform-center-x="-4.2314379"
       inkscape:transform-center-y="-2.9143884"
       d="m 177.1064,210.00016 c -4.8062,0.64795 -17.75672,0.57196 -30.06863,0.55273 -0.0284,-4e-5 -0.005,-0.0465 -0.0332,-0.047 -16.53378,-0.31723 -80.688216,1.88391 1.37793,-3.64772 0.0281,-0.001 0.041,-0.0484 0.0694,-0.0489 10.02337,-0.19168 20.21022,-2.34215 30.06863,-0.55273 0.028,0.005 0.0103,0.0302 0.0332,0.0471 1.17864,0.8717 3.72472,1.45605 -1.37793,3.64773 -0.0261,0.0112 -0.0413,0.0452 -0.0694,0.0489 z"
       sodipodi:nodetypes="sssssssss"
       inkscape:export-filename="C:\Users\basti\OneDrive\Bureau\Gus veut boire un coup\Gus\gus_fight\gus_lr1.png"
       inkscape:export-xdpi="5.9230065"
       inkscape:export-ydpi="5.9230065" />
    <rect
       style="fill:url(#linearGradient30042-2);fill-opacity:1;stroke-width:0.45445"
       id="rect11065-9-7"
       width="8.7783976"
       height="3.2693968"
       x="211.22035"
       y="-76.485016"
       transform="matrix(1.1291329e-4,0.99999999,-0.99253434,0.12196553,0,0)"
       inkscape:export-filename="C:\Users\basti\OneDrive\Bureau\Gus veut boire un coup\Gus\gus_fight\gus_lr1.png"
       inkscape:export-xdpi="5.9230065"
       inkscape:export-ydpi="5.9230065" />
    <path
       id="path11385"
       style="fill:#373748;stroke-width:0.602877"
       d="m 134.42928,205.8973 c 7.26564,10.63331 -2.04294,10.0779 -59.985659,9.59985 -58.29572,-0.48096 -52.6906,0.0246 -52.47182,-11.66892 0.14861,-7.94282 13.26259,-6.74215 51.43059,-6.74215 38.168089,0 56.522299,2.21872 61.026889,8.81122 z"
       sodipodi:nodetypes="sssss"
       inkscape:export-filename="C:\Users\basti\OneDrive\Bureau\Gus veut boire un coup\Gus\gus_fight\gus_lr1.png"
       inkscape:export-xdpi="5.9230065"
       inkscape:export-ydpi="5.9230065" />
    <path
       id="rect10620"
       style="fill:#0044aa;stroke-width:0.561253"
       d="m 31.997551,189.5328 h 96.749179 c 0.29045,-0.91242 -18.75773,5.97999 -19.99589,9.86964 l -83.233259,-0.27729 z"
       sodipodi:nodetypes="ccccc"
       inkscape:export-filename="C:\Users\basti\OneDrive\Bureau\Gus veut boire un coup\Gus\gus_fight\gus_lr1.png"
       inkscape:export-xdpi="5.9230065"
       inkscape:export-ydpi="5.9230065" />
    <ellipse
       style="fill:#a05a2c;fill-opacity:1;stroke-width:0.148273"
       id="path9819-9-5-6"
       cx="169.22867"
       cy="103.53419"
       rx="5.6022215"
       ry="5.1560364"
       inkscape:export-filename="C:\Users\basti\OneDrive\Bureau\Gus veut boire un coup\Gus\gus_fight\gus_lr1.png"
       inkscape:export-xdpi="5.9230065"
       inkscape:export-ydpi="5.9230065"
       transform="rotate(7.1622165)" />
    <ellipse
       style="fill:#a05a2c;fill-opacity:1;stroke-width:0.381028"
       id="path9819-5-4"
       cx="165.54108"
       cy="136.13513"
       rx="13.358972"
       ry="14.278785"
       inkscape:export-filename="C:\Users\basti\OneDrive\Bureau\Gus veut boire un coup\Gus\gus_fight\gus_lr1.png"
       inkscape:export-xdpi="5.9230065"
       inkscape:export-ydpi="5.9230065" />
    <path
       id="rect8523-3"
       style="fill:#aa0000;fill-opacity:1;stroke-width:0.391005"
       d="m 49.052541,125.40803 c 42.54364,-2.41827 69.228669,-0.12564 106.585159,-0.0976 1.58157,5.93705 3.58198,15.71844 -0.29638,22.30208 l -111.390219,-1.3287 c -7.68935,-6.72574 4.64141,-14.15003 5.10144,-20.87578 z"
       sodipodi:nodetypes="ccccc"
       inkscape:export-filename="C:\Users\basti\OneDrive\Bureau\Gus veut boire un coup\Gus\gus_fight\gus_lr1.png"
       inkscape:export-xdpi="5.9230065"
       inkscape:export-ydpi="5.9230065" />
    <path
       id="rect8523"
       style="fill:#d40000;stroke-width:0.391005"
       d="m 29.116191,113.01697 c 42.54356,-8.9733 69.87519,7.21132 107.231739,7.31528 11.79761,24.42934 4.45136,48.85869 0.573,73.28804 L 24.014751,190.4789 c -7.68935,-24.95663 4.64141,-52.5053 5.10144,-77.46193 z"
       sodipodi:nodetypes="ccccc"
       inkscape:export-filename="C:\Users\basti\OneDrive\Bureau\Gus veut boire un coup\Gus\gus_fight\gus_lr1.png"
       inkscape:export-xdpi="5.9230065"
       inkscape:export-ydpi="5.9230065" />
    <path
       id="rect10620-1"
       style="fill:#00446c;fill-opacity:0.998403;stroke-width:0.198579"
       d="m 34.986331,190.39196 90.988929,2.56257 -3.52834,1.45389 -82.837889,-2.33301 z"
       sodipodi:nodetypes="ccccc"
       inkscape:export-filename="C:\Users\basti\OneDrive\Bureau\Gus veut boire un coup\Gus\gus_fight\gus_lr1.png"
       inkscape:export-xdpi="5.9230065"
       inkscape:export-ydpi="5.9230065" />
    <ellipse
       style="fill:#c87137;stroke-width:0.381028"
       id="path9819-5"
       cx="111.89941"
       cy="150.82764"
       rx="13.358972"
       ry="14.278785"
       inkscape:export-filename="C:\Users\basti\OneDrive\Bureau\Gus veut boire un coup\Gus\gus_fight\gus_lr1.png"
       inkscape:export-xdpi="5.9230065"
       inkscape:export-ydpi="5.9230065" />
    <ellipse
       style="fill:#c87137;stroke-width:0.148273"
       id="path9819-9-5"
       cx="104.1442"
       cy="141.44928"
       rx="5.6022215"
       ry="5.1560364"
       inkscape:export-filename="C:\Users\basti\OneDrive\Bureau\Gus veut boire un coup\Gus\gus_fight\gus_lr1.png"
       inkscape:export-xdpi="5.9230065"
       inkscape:export-ydpi="5.9230065" />
    <rect
       style="fill:#217821;stroke-width:0.319807"
       id="rect20539-9"
       width="59.05151"
       height="5.6798477"
       x="266.20468"
       y="314.15936"
       ry="0.072818741"
       transform="matrix(-0.91180894,0.41061473,0.99998811,-0.00487665,0,0)"
       inkscape:transform-center-x="-9.9595237"
       inkscape:transform-center-y="-2.5546381"
       rx="0.072818741"
       inkscape:export-filename="C:\Users\basti\OneDrive\Bureau\Gus veut boire un coup\Gus\gus_fight\gus_lr1.png"
       inkscape:export-xdpi="5.9230065"
       inkscape:export-ydpi="5.9230065" />
    <rect
       style="fill:#217821;stroke-width:0.275565"
       id="rect20539-9-6"
       width="30.301662"
       height="3.9757664"
       x="-237.70326"
       y="-285.38153"
       ry="0.064277701"
       transform="matrix(-0.92932515,0.36926245,0.56397633,-0.82579096,0,0)"
       inkscape:transform-center-x="-4.6531162"
       inkscape:transform-center-y="-3.6741307"
       rx="0.069366395"
       inkscape:export-filename="C:\Users\basti\OneDrive\Bureau\Gus veut boire un coup\Gus\gus_fight\gus_lr1.png"
       inkscape:export-xdpi="5.9230065"
       inkscape:export-ydpi="5.9230065" />
    <path
       id="rect20539-9-5"
       style="fill:url(#linearGradient29842-7);fill-opacity:1;stroke-width:0.184944"
       inkscape:transform-center-x="-4.231437"
       inkscape:transform-center-y="-2.9143884"
       d="m 155.6956,210.81179 c -4.8062,0.64795 -17.75672,0.57196 -30.0687,0.55273 -0.0284,-4e-5 -0.005,-0.0465 -0.0332,-0.047 -16.53388,-0.31723 -80.688156,1.88391 1.37794,-3.64772 0.0281,-0.001 0.041,-0.0484 0.0694,-0.0489 10.02343,-0.19168 20.21028,-2.34215 30.06869,-0.55273 0.028,0.005 0.0103,0.0302 0.0332,0.0471 1.17864,0.8717 3.72472,1.45605 -1.37793,3.64773 -0.0261,0.0112 -0.0413,0.0452 -0.0694,0.0489 z"
       sodipodi:nodetypes="sssssssss"
       inkscape:export-filename="C:\Users\basti\OneDrive\Bureau\Gus veut boire un coup\Gus\gus_fight\gus_lr1.png"
       inkscape:export-xdpi="5.9230065"
       inkscape:export-ydpi="5.9230065" />
    <path
       id="path31-6"
       style="fill:#d38d5f;fill-rule:evenodd;stroke-width:0.357437"
       d="m 52.402598,70.229332 c -6.49123,58.873288 -4.601457,22.46618 35.209043,43.608528 37.762119,20.05453 69.785749,0.27971 72.274869,-15.686378 9.04075,-57.99051 -14.21904,-84.1116 -52.55219,-88.9285205 C 69.001031,4.4060415 57.346278,25.391422 52.402598,70.229332 Z"
       sodipodi:nodetypes="sssss"
       inkscape:export-filename="C:\Users\basti\OneDrive\Bureau\Gus veut boire un coup\Gus\gus_fight\gus_lr1.png"
       inkscape:export-xdpi="5.9230065"
       inkscape:export-ydpi="5.9230065" />
    <path
       id="path32024"
       style="fill-opacity:0.998403;stroke-width:0.264583"
       d="m 135.04531,22.401982 c -5.12988,5.15262 -26.898,3.815633 -32.50599,14.74154 C 54.303409,131.12041 -14.060217,21.272289 80.087261,18.813762 88.986489,18.581371 95.445251,4.4978915 111.9112,6.5669915 c 16.46588,2.06909 29.41503,9.5262405 23.13411,15.8349905 z"
       sodipodi:nodetypes="sssss"
       inkscape:export-filename="C:\Users\basti\OneDrive\Bureau\Gus veut boire un coup\Gus\gus_fight\gus_lr1.png"
       inkscape:export-xdpi="5.9230065"
       inkscape:export-ydpi="5.9230065" />
    <path
       id="path31"
       style="fill:#d40000;fill-rule:evenodd;stroke-width:0.398876"
       d="M 62.802564,65.469742 C 67.035077,132.22838 197.77454,138.55245 78.857481,119.10408 20.256537,109.52015 8.0753415,134.86066 0.37241146,70.918572 -5.0243985,26.119522 49.933766,-9.2828901 96.991481,0.73481152 186.0712,19.698208 60.42724,28.004197 62.802564,65.469742 Z"
       sodipodi:nodetypes="sssss"
       inkscape:export-filename="C:\Users\basti\OneDrive\Bureau\Gus veut boire un coup\Gus\gus_fight\gus_lr1.png"
       inkscape:export-xdpi="5.9230065"
       inkscape:export-ydpi="5.9230065" />
    <path
       id="path4257-0-5"
       style="fill:url(#linearGradient7905);fill-opacity:1;stroke-width:0.272979"
       d="m 50.069722,158.56437 c -1.97427,10.83947 62.858748,3.68901 55.004718,8.23818 -6.378651,3.69462 -61.587588,13.58846 -63.465338,-5.59174 -3.75338,-38.33898 17.34541,-51.42712 10.25795,-12.51444 z"
       sodipodi:nodetypes="sssss"
       inkscape:export-filename="C:\Users\basti\OneDrive\Bureau\Gus veut boire un coup\Gus\gus_fight\gus_lr1.png"
       inkscape:export-xdpi="5.9230065"
       inkscape:export-ydpi="5.9230065" />
    <path
       id="path4257-0-5-7"
       style="fill:url(#linearGradient27326);fill-opacity:1;stroke-width:0.111607"
       d="m 95.414617,140.06784 c 3.114982,0.27358 2.427808,-0.59549 3.834399,1.2586 1.142374,1.5058 -5.51759,0.27879 -10.905127,0.34103 -10.769077,0.12444 -14.875957,-3.52737 -3.693379,-2.54512 z"
       sodipodi:nodetypes="sssss"
       inkscape:export-filename="C:\Users\basti\OneDrive\Bureau\Gus veut boire un coup\Gus\gus_fight\gus_lr1.png"
       inkscape:export-xdpi="5.9230065"
       inkscape:export-ydpi="5.9230065" />
    <path
       id="path4257-0-5-7-1"
       style="fill:url(#linearGradient27326-1);fill-opacity:1;stroke-width:0.111607"
       d="m 79.637442,138.25157 c -0.27357,3.115 0.59549,2.42782 -1.2586,3.83442 -1.5058,1.14238 -0.27879,-5.51762 -0.34103,-10.90517 -0.12443,-10.76908 3.527373,-14.87596 2.545119,-3.69338 z"
       sodipodi:nodetypes="sssss"
       inkscape:export-filename="C:\Users\basti\OneDrive\Bureau\Gus veut boire un coup\Gus\gus_fight\gus_lr1.png"
       inkscape:export-xdpi="5.9230065"
       inkscape:export-ydpi="5.9230065" />
    <path
       id="path4257-0"
       style="fill:url(#linearGradient14432);fill-opacity:1;stroke-width:0.312327"
       d="m 22.427511,82.237532 c 10.51719,21.360238 36.7103,29.081848 23.21964,35.273078 0,0 -27.90447,-1.12641 -39.1786995,-22.882088 -8.23315,-15.88733 -2.07477,-30.42239 6.7382395,-40.52068 8.03262,-9.20404 2.65485,14.79431 9.22082,28.12969 z"
       sodipodi:nodetypes="sssss"
       inkscape:export-filename="C:\Users\basti\OneDrive\Bureau\Gus veut boire un coup\Gus\gus_fight\gus_lr1.png"
       inkscape:export-xdpi="5.9230065"
       inkscape:export-ydpi="5.9230065" />
    <rect
       style="fill:url(#linearGradient30042);fill-opacity:1;stroke-width:0.45445"
       id="rect11065-9"
       width="8.7783976"
       height="3.2693968"
       x="206.21512"
       y="-28.789597"
       transform="matrix(1.1291329e-4,0.99999999,-0.99253434,0.12196553,0,0)"
       inkscape:export-filename="C:\Users\basti\OneDrive\Bureau\Gus veut boire un coup\Gus\gus_fight\gus_lr1.png"
       inkscape:export-xdpi="5.9230065"
       inkscape:export-ydpi="5.9230065" />
    <path
       id="rect17082"
       style="fill:#00aa00;stroke-width:0.147492"
       d="m 16.035729,132.23993 c 4.914353,-6.84068 9.55944,-15.16584 18.23099,-1.29317 2.027536,16.05268 1.712082,29.9841 -0.83104,41.8987 -5.478577,3.5037 -10.73728,4.42442 -15.893681,0.51726 -3.934048,-12.83122 -2.872639,-26.93806 -1.506269,-41.12279 z"
       sodipodi:nodetypes="ccccc"
       inkscape:export-filename="C:\Users\basti\OneDrive\Bureau\Gus veut boire un coup\Gus\gus_fight\gus_lr1.png"
       inkscape:export-xdpi="5.9230065"
       inkscape:export-ydpi="5.9230065" />
    <rect
       style="fill:#00aa00;stroke-width:0.368834"
       id="rect17663"
       width="1.420714"
       height="10.199855"
       x="26.39234"
       y="121.79531"
       ry="3.3260343"
       rx="3.3260343"
       inkscape:export-filename="C:\Users\basti\OneDrive\Bureau\Gus veut boire un coup\Gus\gus_fight\gus_lr1.png"
       inkscape:export-xdpi="5.9230065"
       inkscape:export-ydpi="5.9230065" />
    <path
       id="rect17811"
       style="fill:#0b280b;stroke-width:0.0561649"
       d="m 15.833226,141.01056 c 0.550005,-6.92358 1.030118,-7.21802 1.43102,0 0.02404,0.43247 0.126181,6.51056 0.126181,7.4419 0,0.93134 -0.102961,-3.59833 -0.126181,-4.07966 -0.534876,-11.08824 -0.986748,-6.69019 -1.43102,0 -0.02482,0.37403 -0.160801,5.19388 -0.160801,4.26254 0,-0.93134 0.135332,-7.30423 0.160801,-7.62478 z"
       sodipodi:nodetypes="sssssss"
       inkscape:export-filename="C:\Users\basti\OneDrive\Bureau\Gus veut boire un coup\Gus\gus_fight\gus_lr1.png"
       inkscape:export-xdpi="5.9230065"
       inkscape:export-ydpi="5.9230065" />
    <path
       id="rect17813"
       style="fill:#002b00;stroke-width:0.117925"
       d="m 14.914928,158.56062 c 1.189613,-0.15768 2.379233,-1.6567 3.568853,0 0.03283,0.0456 0.05945,0.40243 0.05945,0.90232 0,0.49989 -0.02669,0.95255 -0.05945,0.90231 -1.18962,-1.823 -2.37924,-0.13787 -3.568853,0 -0.03296,0.004 -0.05945,-0.40242 -0.05945,-0.90231 0,-0.49989 0.02656,-0.89796 0.05945,-0.90232 z"
       sodipodi:nodetypes="sssssss"
       inkscape:export-filename="C:\Users\basti\OneDrive\Bureau\Gus veut boire un coup\Gus\gus_fight\gus_lr1.png"
       inkscape:export-xdpi="5.9230065"
       inkscape:export-ydpi="5.9230065" />
    <path
       id="rect19198"
       style="fill:#217821;stroke-width:0.190509"
       d="m 24.142131,132.02285 -0.33839,33.33461 c -3.81e-4,0.0371 -0.06584,0.0324 -0.08425,0.0665 -0.33574,0.62118 1.22422,11.047 -1.369258,-0.009 -0.0085,-0.0364 -0.07226,-0.0314 -0.08289,-0.0676 -2.979135,-10.1427 -2.19856,-21.46348 0.338403,-33.33461 0.0078,-0.0366 0.07246,-0.0306 0.08424,-0.0665 2.391421,-7.2919 2.045263,-4.26325 1.369252,0.009 -0.0058,0.0368 0.08326,0.0305 0.08289,0.0676 z"
       sodipodi:nodetypes="sssssssss"
       inkscape:export-filename="C:\Users\basti\OneDrive\Bureau\Gus veut boire un coup\Gus\gus_fight\gus_lr1.png"
       inkscape:export-xdpi="5.9230065"
       inkscape:export-ydpi="5.9230065" />
    <path
       id="rect19198-2"
       style="fill:#217821;stroke-width:0.176999"
       d="m 31.519802,133.28456 0.292099,33.33461 c 3.23e-4,0.0371 0.05681,0.0324 0.07272,0.0665 0.289811,0.62118 -1.223891,2.12413 1.181935,-0.009 0.02139,-0.019 1.315955,0.0979 1.325113,0.0617 2.571589,-10.1427 2.064941,-23.9205 -0.124953,-35.79163 0,0 -1.301169,-0.58884 -1.326289,-0.58377 -2.314988,0.46711 -1.932614,-1.41828 -1.349082,2.85397 0.0045,0.0368 -0.07188,0.0305 -0.07155,0.0676 z"
       sodipodi:nodetypes="sssssssss"
       inkscape:export-filename="C:\Users\basti\OneDrive\Bureau\Gus veut boire un coup\Gus\gus_fight\gus_lr1.png"
       inkscape:export-xdpi="5.9230065"
       inkscape:export-ydpi="5.9230065" />
    <path
       id="rect1430"
       style="fill:#28170b;stroke-width:0.147509"
       d="m 130.46729,48.297627 7.88372,0.11505 5.51986,3.82678 c -6.59912,-1.15383 -13.0752,-2.61617 -21.29472,0.29307 0.49167,-1.82929 7.29982,-2.92983 7.89114,-4.2349 z"
       sodipodi:nodetypes="ccccc"
       inkscape:transform-center-x="3.821671"
       inkscape:transform-center-y="0.25660239"
       inkscape:export-filename="C:\Users\basti\OneDrive\Bureau\Gus veut boire un coup\Gus\gus_fight\gus_lr1.png"
       inkscape:export-xdpi="5.9230065"
       inkscape:export-ydpi="5.9230065" />
    <path
       id="path2169-5-4-0"
       style="fill:#ffccaa;stroke-width:0.456428"
       d="m 126.21454,61.096802 c -1.15076,3.04785 3.0326,6.13464 7.17863,6.65562 4.14603,0.52099 8.17596,-2.84818 8.26666,-5.10155 0.11162,-2.77312 -2.4856,-6.356 -6.74746,-6.98825 -4.13399,-0.6132 -7.33603,1.8273 -8.69783,5.43418 z"
       sodipodi:nodetypes="sssss"
       inkscape:export-filename="C:\Users\basti\OneDrive\Bureau\Gus veut boire un coup\Gus\gus_fight\gus_lr1.png"
       inkscape:export-xdpi="5.9230065"
       inkscape:export-ydpi="5.9230065" />
    <path
       id="path3219-1"
       style="fill:#241c1c;stroke-width:0.479567"
       d="m 154.57433,93.602132 c -0.0446,0.58263 -0.54589,0.47373 -9.87373,0.36784 -9.32821,-0.1059 -11.48944,1.08858 -11.44492,0.50518 0.0446,-0.58263 3.32548,-1.84516 12.65374,-1.73926 9.3283,0.1059 8.70948,0.28364 8.66491,0.86624 z"
       sodipodi:nodetypes="sssss"
       inkscape:export-filename="C:\Users\basti\OneDrive\Bureau\Gus veut boire un coup\Gus\gus_fight\gus_lr1.png"
       inkscape:export-xdpi="5.9230065"
       inkscape:export-ydpi="5.9230065" />
    <ellipse
       style="fill:#28170b;stroke-width:0.285998"
       id="path2169"
       ry="3.7418122"
       rx="4.8368506"
       cy="44.681866"
       cx="142.2774"
       inkscape:export-filename="C:\Users\basti\OneDrive\Bureau\Gus veut boire un coup\Gus\gus_fight\gus_lr1.png"
       inkscape:export-xdpi="5.9230065"
       inkscape:export-ydpi="5.9230065"
       transform="rotate(7.1622165)" />
    <path
       id="rect1430-0"
       style="fill:#28170b;stroke-width:0.147509"
       d="m 154.35502,49.091553 -3.23761,0.630176 -1.6798,4.14117 c 2.54435,-1.571955 4.98954,-3.440548 8.83973,-1.105797 -0.48969,-1.774476 -3.47362,-2.415345 -3.92232,-3.665549 z"
       sodipodi:nodetypes="ccccc"
       inkscape:transform-center-x="-4.1723051"
       inkscape:transform-center-y="-2.6895047"
       inkscape:export-filename="C:\Users\basti\OneDrive\Bureau\Gus veut boire un coup\Gus\gus_fight\gus_lr1.png"
       inkscape:export-xdpi="5.9230065"
       inkscape:export-ydpi="5.9230065" />
    <path
       id="path2169-5-4-0-3"
       style="fill:#ffccaa;stroke-width:0.456428"
       d="m 160.17617,59.492398 c 0.89929,3.04785 -2.3699,6.13464 -5.60993,6.65562 -3.24003,0.52099 -6.38933,-2.84818 -6.46021,-5.10155 -0.0872,-2.77312 1.94244,-6.356 5.27299,-6.98825 3.23062,-0.6132 5.73294,1.8273 6.79715,5.43418 z"
       sodipodi:nodetypes="sssss"
       inkscape:export-filename="C:\Users\basti\OneDrive\Bureau\Gus veut boire un coup\Gus\gus_fight\gus_lr1.png"
       inkscape:export-xdpi="5.9230065"
       inkscape:export-ydpi="5.9230065" />
    <ellipse
       style="fill:#28170b;stroke-width:0.286255"
       id="path2169-5"
       ry="3.7307074"
       rx="3.8228154"
       cy="84.151924"
       cx="-149.92155"
       inkscape:export-filename="C:\Users\basti\OneDrive\Bureau\Gus veut boire un coup\Gus\gus_fight\gus_lr1.png"
       inkscape:export-xdpi="5.9230065"
       inkscape:export-ydpi="5.9230065"
       transform="matrix(-0.9874789,0.15775115,0.09836361,0.99515054,0,0)" />
    <ellipse
       style="fill:#000000;fill-opacity:0.998403;stroke-width:0.433747"
       id="path31470"
       cx="150.62711"
       cy="60.95837"
       rx="0.24574739"
       ry="1.0972906"
       inkscape:export-filename="C:\Users\basti\OneDrive\Bureau\Gus veut boire un coup\Gus\gus_fight\gus_lr1.png"
       inkscape:export-xdpi="5.9230065"
       inkscape:export-ydpi="5.9230065"
       transform="rotate(7.1622165)" />
    <ellipse
       style="fill:#000000;fill-opacity:0.998403;stroke-width:0.433747"
       id="path31470-0"
       cx="159.2748"
       cy="59.557926"
       rx="0.24574739"
       ry="1.0972906"
       inkscape:export-filename="C:\Users\basti\OneDrive\Bureau\Gus veut boire un coup\Gus\gus_fight\gus_lr1.png"
       inkscape:export-xdpi="5.9230065"
       inkscape:export-ydpi="5.9230065"
       transform="rotate(7.1622165)" />
  </g>
</svg>
