<?xml version="1.0" encoding="UTF-8" standalone="no"?>
<!-- Created with Inkscape (http://www.inkscape.org/) -->

<svg
   width="210mm"
   height="215mm"
   viewBox="0 0 210 215"
   version="1.1"
   id="svg5"
   inkscape:version="1.1 (c68e22c387, 2021-05-23)"
   sodipodi:docname="Gus_2.svg"
   inkscape:export-filename="C:\Users\basti\OneDrive\Bureau\Gus veut boire un coup\Gus\Gus_2.png"
   inkscape:export-xdpi="5.0625887"
   inkscape:export-ydpi="5.0625887"
   xmlns:inkscape="http://www.inkscape.org/namespaces/inkscape"
   xmlns:sodipodi="http://sodipodi.sourceforge.net/DTD/sodipodi-0.dtd"
   xmlns:xlink="http://www.w3.org/1999/xlink"
   xmlns="http://www.w3.org/2000/svg"
   xmlns:svg="http://www.w3.org/2000/svg">
  <sodipodi:namedview
     id="namedview7"
     pagecolor="#ffffff"
     bordercolor="#666666"
     borderopacity="1.0"
     inkscape:pageshadow="2"
     inkscape:pageopacity="0.0"
     inkscape:pagecheckerboard="0"
     inkscape:document-units="mm"
     showgrid="false"
     inkscape:zoom="0.72337261"
     inkscape:cx="670.47051"
     inkscape:cy="335.23525"
     inkscape:window-width="1920"
     inkscape:window-height="1001"
     inkscape:window-x="-9"
     inkscape:window-y="-9"
     inkscape:window-maximized="1"
     inkscape:current-layer="layer1"
     height="296mm" />
  <defs
     id="defs2">
    <linearGradient
       inkscape:collect="always"
       id="linearGradient5194">
      <stop
         style="stop-color:#800000;stop-opacity:1;"
         offset="0"
         id="stop5190" />
      <stop
         style="stop-color:#800000;stop-opacity:0;"
         offset="1"
         id="stop5192" />
    </linearGradient>
    <linearGradient
       inkscape:collect="always"
       xlink:href="#linearGradient5194"
       id="linearGradient5196"
       x1="51.572659"
       y1="126.18843"
       x2="51.572659"
       y2="126.18843"
       gradientUnits="userSpaceOnUse"
       gradientTransform="matrix(1.5316515,0,0,1.4838567,-41.636349,-82.765444)" />
    <linearGradient
       inkscape:collect="always"
       xlink:href="#linearGradient5194"
       id="linearGradient7905"
       gradientUnits="userSpaceOnUse"
       gradientTransform="matrix(0.73841256,0.12231277,-0.21338082,1.2090567,161.02934,15.618601)"
       x1="51.572659"
       y1="126.18843"
       x2="51.572659"
       y2="126.18843" />
    <linearGradient
       inkscape:collect="always"
       xlink:href="#linearGradient5194"
       id="linearGradient9654"
       gradientUnits="userSpaceOnUse"
       gradientTransform="matrix(-0.54960655,0.12231277,0.1588211,1.2090567,52.073839,19.796688)"
       x1="51.572659"
       y1="126.18843"
       x2="51.572659"
       y2="126.18843" />
    <linearGradient
       inkscape:collect="always"
       xlink:href="#linearGradient5194"
       id="linearGradient9794"
       gradientUnits="userSpaceOnUse"
       x1="51.572659"
       y1="126.18843"
       x2="51.572659"
       y2="126.18843"
       gradientTransform="matrix(0.78859816,0.08264264,-0.01961536,0.41036371,-14.322189,73.832746)" />
  </defs>
  <g
     inkscape:label="Calque 1"
     inkscape:groupmode="layer"
     id="layer1">
    <path
       id="rect8523"
       style="fill:#d40000;stroke-width:0.376887"
       d="M 186.90744,118.83207 H 17.836113 l 18.615856,71.82499 132.403711,0.48455 z"
       sodipodi:nodetypes="ccccc" />
    <ellipse
       style="fill:#c87137;stroke-width:0.398876"
       id="path9819"
       cx="-191.00839"
       cy="181.59056"
       rx="14.102927"
       ry="14.925369"
       transform="scale(-1,1)" />
    <path
       id="path10057"
       style="fill:#a05a2c;stroke-width:0.398876"
       d="m 199.99524,178.52284 c 0.86474,6.29469 -1.82509,9.70149 -0.42309,9.70149 1.40199,0 1.9744,-2.99976 1.9744,-9.29445 0,-6.2947 -0.50189,-8.54815 -1.90389,-8.54815 -1.40198,0 -0.50471,1.90069 0.35258,8.14111 z"
       sodipodi:nodetypes="sssss" />
    <ellipse
       style="fill:#c87137;stroke-width:0.398876"
       id="path9819-5"
       cx="-17.098972"
       cy="158.24811"
       rx="14.102927"
       ry="14.925369"
       transform="scale(-1,1)" />
    <path
       id="path10057-0"
       style="fill:#a05a2c;stroke-width:0.419362"
       d="m 7.231527,155.78039 c -0.9558535,6.2947 2.0173869,9.70151 0.4676815,9.70151 -1.5497055,0 -2.1824435,-2.99976 -2.1824435,-9.29446 1.04e-5,-6.29469 0.5547981,-8.54815 2.1045036,-8.54815 1.5496949,0 0.557899,1.90069 -0.3897416,8.1411 z"
       sodipodi:nodetypes="sssss" />
    <ellipse
       style="fill:#c87137;stroke-width:0.148273"
       id="path9819-9"
       cx="-178.17122"
       cy="178.06865"
       rx="5.64117"
       ry="5.1560364"
       transform="scale(-1,1)" />
    <ellipse
       style="fill:#c87137;stroke-width:0.148273"
       id="path9819-9-5"
       cx="-28.293941"
       cy="162.88196"
       rx="5.64117"
       ry="5.1560364"
       transform="scale(-1,1)" />
    <path
       id="path6217"
       style="fill:#d40000;stroke-width:0.398876"
       d="m 163.95411,136.4994 c -7.73444,51.24481 20.42055,32.29845 27.06596,32.46864 11.51831,0.295 20.10074,14.17735 18.62752,-20.71608 -0.89879,-21.28791 -10.74227,-39.60099 -25.38527,-39.60102 -14.64301,0 -17.12791,6.77723 -20.30821,27.84846 z"
       sodipodi:nodetypes="sssss" />
    <path
       id="path4257-8"
       style="fill:url(#linearGradient9794);fill-opacity:1;stroke-width:0.150889"
       d="m 175.62509,116.0524 c 8.41945,7.84653 2.20375,15.40466 11.48339,14.1914 0,0 10.8658,-6.18109 2.52303,-14.29146 -6.09241,-5.92269 -17.32768,-8.45432 -27.00853,-9.25695 -8.82359,-0.7316 7.74578,4.45834 13.00211,9.35701 z"
       sodipodi:nodetypes="sssss" />
    <path
       id="path6217-4"
       style="fill:#d40000;stroke-width:0.378879"
       d="m 41.569877,128.97032 c 0,40.79069 4.03271,33.88308 -23.921794,34.4751 -19.8485855,0.42033 -17.30513563,2.31204 -17.30513563,-24.24379 0,-18.5487 9.69220663,-34.47508 22.90386163,-34.47509 13.211644,0 18.323068,5.69506 18.323068,24.24378 z"
       sodipodi:nodetypes="sssss" />
    <path
       id="path4257-0-5"
       style="fill:url(#linearGradient7905);fill-opacity:1;stroke-width:0.253626"
       d="m 32.377041,154.8706 c 0.05175,7.63199 -0.706404,10.96943 0.783527,9.23806 0,0 0.892276,-14.07269 0.833203,-26.93914 -0.03677,-7.99126 -1.926227,-27.95311 -1.79551,-8.67185 z"
       sodipodi:nodetypes="sssss" />
    <path
       id="path4257-0-5-6"
       style="fill:url(#linearGradient9654);fill-opacity:1;stroke-width:0.218811"
       d="m 170.4272,161.95333 c -0.22155,8.27423 3.02474,11.89253 -3.35491,10.01546 0,0 -3.82067,-15.25692 -3.56767,-29.2061 0.15716,-8.66372 8.24781,-30.30538 7.68813,-9.4016 z"
       sodipodi:nodetypes="sssss" />
    <path
       id="path31-9"
       style="fill:#d38d5f;fill-rule:evenodd;stroke-width:0.398876"
       d="m 190.43576,85.187662 c 0,0 -25.53403,-30.751548 -81.87767,-28.345139 -46.722513,1.995502 -90.721977,24.936849 -90.721977,24.936849 -1.490612,41.621548 40.557714,81.099568 88.998687,80.392118 48.44097,-0.70744 80.77131,-37.60616 83.60096,-76.983828 z"
       sodipodi:nodetypes="sssss" />
    <path
       id="path5708"
       style="fill:#241c1c;stroke-width:0.398876"
       d="m 62.683414,98.197304 c 0,2.472896 23.396664,6.919926 42.167746,6.919926 18.7711,0 37.09071,-1.46195 37.09071,-3.93486 0,-2.472916 -20.29402,-10.176387 -39.06511,-10.176387 -18.771097,0 -40.193346,4.718395 -40.193346,7.191321 z"
       sodipodi:nodetypes="sssss" />
    <path
       id="path31"
       style="fill:#d40000;fill-rule:evenodd;stroke-width:0.398876"
       d="m 17.836113,81.779372 c 1.128211,59.223238 26.124875,10.475645 82.643147,11.126184 61.09397,0.70321 86.592,57.866394 92.79729,-11.126184 4.04233,-44.94402 -39.27368,-81.68247123 -87.72023,-81.68247123 -48.446532,0 -88.579484,36.57805823 -87.720207,81.68247123 z"
       sodipodi:nodetypes="sssss" />
    <path
       id="rect1430"
       style="fill:#28170b;stroke-width:0.210088"
       d="m 140.82318,116.9271 -15.42758,-0.25887 -12.85436,3.69455 c 13.49317,-0.87741 26.9156,-2.0799 41.34052,1.32397 0.0441,-1.91613 -12.62124,-3.38109 -13.05858,-4.75965 z"
       sodipodi:nodetypes="ccccc"
       inkscape:transform-center-x="-6.2275775"
       inkscape:transform-center-y="0.64048544" />
    <path
       id="rect1430-8"
       style="fill:#28170b;stroke-width:0.209404"
       d="m 67.818052,116.75339 13.710785,-0.52208 11.487936,3.93379 c -12.009735,-0.77662 -23.961854,-1.91756 -36.729848,2.10322 -0.07061,-2.14019 11.164883,-3.96812 11.531127,-5.51493 z"
       sodipodi:nodetypes="ccccc"
       inkscape:transform-center-x="5.3911492"
       inkscape:transform-center-y="1.0321219" />
    <path
       id="path2169-5-4"
       style="fill:#ffccaa;stroke-width:0.566042"
       d="m 120.74085,129.78026 c -1.17972,3.16754 5.84442,5.70865 12.31577,5.70865 6.47135,0 12.01316,-3.84531 11.71742,-6.09242 -0.36394,-2.7654 -5.04661,-5.9965 -11.71742,-6.09245 -6.47065,-0.093 -10.91965,2.72769 -12.31577,6.47622 z"
       sodipodi:nodetypes="sssss" />
    <path
       id="path2169-5-4-0"
       style="fill:#ffccaa;stroke-width:0.551594"
       d="m 86.553396,129.54151 c 1.120281,3.16755 -5.549878,5.70867 -11.695127,5.70867 -6.145238,0 -11.407796,-3.84533 -11.12695,-6.09243 0.345586,-2.76539 4.792278,-5.9965 11.12695,-6.09245 6.144568,-0.093 10.369394,2.72769 11.695127,6.47621 z"
       sodipodi:nodetypes="sssss" />
    <ellipse
       style="fill:#28170b;stroke-width:0.344829"
       id="path2169"
       ry="3.7418122"
       rx="7.080317"
       cy="129.73228"
       cx="-131.90979"
       transform="scale(-1,1)" />
    <ellipse
       style="fill:#28170b;stroke-width:0.314342"
       id="path2169-5"
       cx="-76.164757"
       cy="129.34851"
       rx="5.8836432"
       ry="3.7418122"
       transform="scale(-1,1)" />
    <path
       id="path3219"
       style="fill:#241c1c;stroke-width:0.398876"
       d="m 105.1274,146.34706 c 1e-5,0.58286 0.13672,0.4797 2.64265,0.4797 2.50593,0 1.84486,0.008 1.84487,-0.57565 3e-5,-0.58288 0.3619,-0.67161 -2.14403,-0.67161 -2.50595,0 -2.34351,0.18469 -2.34349,0.76756 z"
       sodipodi:nodetypes="sssss" />
    <path
       id="path3219-1"
       style="fill:#241c1c;stroke-width:0.398876"
       d="m 95.183231,146.24898 c 0,0.58288 0.136813,0.47972 2.642645,0.47972 2.505924,0 1.844871,0.008 1.844882,-0.57565 10e-6,-0.58289 0.361912,-0.67161 -2.144039,-0.67161 -2.505958,0 -2.343509,0.18468 -2.343488,0.76754 z"
       sodipodi:nodetypes="sssss" />
    <path
       id="path4257"
       style="fill:url(#linearGradient5196);fill-opacity:1;stroke-width:0.398876"
       d="m 50.723544,49.98386 c -13.971159,30.326542 -6.746489,55.88256 -19.862938,53.89357 0,0 -14.256802,-19.424118 -0.33529,-50.678576 C 40.691669,30.374921 57.498137,18.41642 71.660351,13.063481 84.568472,8.1845692 59.445861,31.050739 50.723544,49.98386 Z"
       sodipodi:nodetypes="sssss" />
    <path
       id="path11385"
       style="fill:#373748;stroke-width:0.463482"
       d="m 105.06899,206.41056 c 1e-5,6.41635 7.75109,9.42576 30.4662,9.42576 22.71511,0 31.22783,-3.00941 31.22785,-9.42576 1e-5,-6.41633 -8.89356,-9.20656 -31.60868,-9.20656 -22.71512,0 -30.08538,2.79023 -30.08537,9.20656 z"
       sodipodi:nodetypes="sssss" />
    <path
       id="rect10620"
       style="fill:#0044aa;stroke-width:0.462377"
       d="m 168.69186,190.68809 h -66.11995 c -0.1985,-1.21555 2.82058,6.74848 3.66675,11.93035 l 59.63261,0.36152 z"
       sodipodi:nodetypes="ccccc" />
    <rect
       style="fill:#0000aa;stroke-width:0.398896"
       id="rect11065-3"
       width="2.4974148"
       height="8.9155731"
       x="-137.33595"
       y="169.30504"
       transform="matrix(-0.9839429,-0.17848352,-0.19230877,0.98133447,0,0)" />
    <path
       id="rect10620-1"
       style="fill:#0044aa;stroke-width:0.398876"
       d="M 101.74228,190.65707 H 36.451969 l 2.506669,8.30341 h 59.441416 z"
       sodipodi:nodetypes="ccccc" />
    <path
       id="path11385-4"
       style="fill:#373748;stroke-width:0.548397"
       d="m 38.990485,202.69867 c 2.1e-5,8.83496 7.751083,12.97873 30.466191,12.97873 22.715109,0 31.227844,-4.14377 31.227854,-12.97873 1e-5,-8.83493 -8.893551,-12.67692 -31.608701,-12.67692 -22.715109,0 -30.085365,3.84199 -30.085344,12.67692 z"
       sodipodi:nodetypes="sssss" />
    <rect
       style="fill:#0000aa;stroke-width:0.399621"
       id="rect11065"
       width="2.5262849"
       height="11.634592"
       x="-194.66806"
       y="147.71065"
       transform="matrix(-0.9726985,-0.23207245,-0.14736598,0.98908203,0,0)" />
    <path
       id="path11724"
       style="fill:#535d6c;stroke-width:0.398876"
       d="m 112.60195,210.67148 c -3e-5,2.17317 3.09673,3.93487 23.26984,3.93487 20.1731,0 24.3981,-1.7617 24.39806,-3.93487 -4e-5,-2.17316 -4.22502,1.22117 -24.39806,1.22117 -20.17305,0 -23.26979,-3.39433 -23.26984,-1.22117 z"
       sodipodi:nodetypes="sssss" />
    <path
       id="path11724-0"
       style="fill:#535d6c;stroke-width:0.398876"
       d="m 100.1268,204.93169 c -0.0105,-4.14347 -3.989842,-7.4816 -29.863236,-7.34564 -25.873404,0.13595 -31.284163,3.52346 -31.274116,7.66695 0.01047,4.1435 5.413231,-2.35684 31.286582,-2.49282 25.873331,-0.13595 29.86074,6.31502 29.85077,2.17151 z"
       sodipodi:nodetypes="sssss" />
    <path
       id="rect12747"
       style="fill:#1c1f24;stroke-width:0.398876"
       d="M 115.70836,152.30757 H 89.899134 l 1.795007,0.52968 22.468519,0.048 z"
       sodipodi:nodetypes="ccccc" />
  </g>
</svg>
