<?xml version="1.0" encoding="UTF-8" standalone="no"?>
<!-- Created with Inkscape (http://www.inkscape.org/) -->

<svg
   width="210mm"
   height="215mm"
   viewBox="0 0 210 215"
   version="1.1"
   id="svg5"
   inkscape:version="1.1 (c68e22c387, 2021-05-23)"
   sodipodi:docname="Gus_gauche_2.svg"
   inkscape:export-filename="C:\Users\basti\OneDrive\Bureau\Gus veut boire un coup\Gus\Gus_gauche_2.png"
   inkscape:export-xdpi="5.0310154"
   inkscape:export-ydpi="5.0310154"
   xmlns:inkscape="http://www.inkscape.org/namespaces/inkscape"
   xmlns:sodipodi="http://sodipodi.sourceforge.net/DTD/sodipodi-0.dtd"
   xmlns:xlink="http://www.w3.org/1999/xlink"
   xmlns="http://www.w3.org/2000/svg"
   xmlns:svg="http://www.w3.org/2000/svg">
  <sodipodi:namedview
     id="namedview7"
     pagecolor="#ffffff"
     bordercolor="#666666"
     borderopacity="1.0"
     inkscape:pageshadow="2"
     inkscape:pageopacity="0.0"
     inkscape:pagecheckerboard="0"
     inkscape:document-units="mm"
     showgrid="false"
     inkscape:zoom="0.72337262"
     inkscape:cx="109.21066"
     inkscape:cy="495.5952"
     inkscape:window-width="1920"
     inkscape:window-height="1001"
     inkscape:window-x="-9"
     inkscape:window-y="-9"
     inkscape:window-maximized="1"
     inkscape:current-layer="layer1"
     height="296mm" />
  <defs
     id="defs2">
    <linearGradient
       inkscape:collect="always"
       id="linearGradient30040">
      <stop
         style="stop-color:#1c1f24;stop-opacity:1;"
         offset="0"
         id="stop30036" />
      <stop
         style="stop-color:#1c1f24;stop-opacity:0;"
         offset="1"
         id="stop30038" />
    </linearGradient>
    <linearGradient
       inkscape:collect="always"
       id="linearGradient29840">
      <stop
         style="stop-color:#535d6c;stop-opacity:1;"
         offset="0"
         id="stop29836" />
      <stop
         style="stop-color:#535d6c;stop-opacity:0;"
         offset="1"
         id="stop29838" />
    </linearGradient>
    <linearGradient
       inkscape:collect="always"
       id="linearGradient5194">
      <stop
         style="stop-color:#800000;stop-opacity:1;"
         offset="0"
         id="stop5190" />
      <stop
         style="stop-color:#800000;stop-opacity:0;"
         offset="1"
         id="stop5192" />
    </linearGradient>
    <linearGradient
       inkscape:collect="always"
       xlink:href="#linearGradient5194"
       id="linearGradient7905"
       gradientUnits="userSpaceOnUse"
       gradientTransform="matrix(0.73841264,0.14169097,-0.21338081,1.4006093,81.067082,-9.291882)"
       x1="51.572659"
       y1="126.18843"
       x2="51.572659"
       y2="126.18843" />
    <linearGradient
       inkscape:collect="always"
       xlink:href="#linearGradient5194"
       id="linearGradient14432"
       gradientUnits="userSpaceOnUse"
       gradientTransform="matrix(1.0212645,-0.69985868,1.10586,0.60661395,-123.73834,81.543194)"
       x1="51.572659"
       y1="126.18843"
       x2="51.572659"
       y2="126.18843" />
    <linearGradient
       inkscape:collect="always"
       xlink:href="#linearGradient29840"
       id="linearGradient29842"
       x1="-227.65132"
       y1="-227.23926"
       x2="-227.67598"
       y2="-223.42758"
       gradientUnits="userSpaceOnUse"
       gradientTransform="matrix(-0.99983113,0.01837916,0.35337913,-0.9354802,4.0074184e-7,-1.7e-7)" />
    <linearGradient
       inkscape:collect="always"
       xlink:href="#linearGradient30040"
       id="linearGradient30042"
       x1="213.05557"
       y1="-59.214508"
       x2="213.22256"
       y2="-61.33345"
       gradientUnits="userSpaceOnUse"
       gradientTransform="matrix(0.99997234,2.2832292e-4,0.2430493,-0.9998654,-2.037315e-7,-3.430193e-6)" />
  </defs>
  <g
     inkscape:label="Calque 1"
     inkscape:groupmode="layer"
     id="layer1">
    <path
       id="path11385-1"
       style="fill:#373701;fill-opacity:1;stroke-width:0.602877"
       d="m 3.4841904,203.9278 c -7.525855,9.90741 -0.123196,12.33709 55.2653996,11.29079 39.084702,-0.73831 51.27745,-2.85677 51.71886,-14.21607 0.29983,-7.71579 -11.819328,-0.0169 -48.24817,-2.17472 -36.428881,-2.15777 -54.0701686,-1.04243 -58.7360896,5.1 z"
       sodipodi:nodetypes="sssss"
       inkscape:export-filename="C:\Users\basti\OneDrive\Bureau\Gus veut boire un coup\Gus\Gus_gauche_2.png"
       inkscape:export-xdpi="5.9319429"
       inkscape:export-ydpi="5.9319429" />
    <path
       id="path11385"
       style="fill:#373748;stroke-width:0.602877"
       d="m 21.564947,207.71881 c 0,10.57599 31.893919,9.52013 56.554515,9.17199 42.025098,-0.59329 51.922328,-5.26544 51.900658,-17.02187 -0.0148,-7.98555 -11.99588,0.5158 -49.056038,-0.0699 -37.060085,-0.58564 -54.917749,1.36277 -59.399135,7.91973 z"
       sodipodi:nodetypes="ssssss"
       inkscape:export-filename="C:\Users\basti\OneDrive\Bureau\Gus veut boire un coup\Gus\Gus_gauche_2.png"
       inkscape:export-xdpi="5.9319429"
       inkscape:export-ydpi="5.9319429" />
    <path
       id="rect10620"
       style="fill:#0044aa;stroke-width:0.561253"
       d="M 126.72214,189.64575 H 29.271306 c -0.292555,-0.91242 4.157129,5.06558 5.404259,8.95523 l 64.146017,2.8577 z"
       sodipodi:nodetypes="ccccc"
       inkscape:export-filename="C:\Users\basti\OneDrive\Bureau\Gus veut boire un coup\Gus\Gus_gauche_2.png"
       inkscape:export-xdpi="5.9319429"
       inkscape:export-ydpi="5.9319429" />
    <path
       id="rect10620-4"
       style="fill:#0044aa;stroke-width:0.561253"
       d="m 88.980732,189.64575 h 44.643958 c 0.13401,-0.91242 -1.90447,5.06558 -2.4758,8.95523 l -32.327308,2.8577 z"
       sodipodi:nodetypes="ccccc"
       inkscape:export-filename="C:\Users\basti\OneDrive\Bureau\Gus veut boire un coup\Gus\Gus_gauche_2.png"
       inkscape:export-xdpi="5.9319429"
       inkscape:export-ydpi="5.9319429" />
    <path
       id="rect10620-1-2"
       style="fill:#00446c;fill-opacity:0.998403;stroke-width:0.19858"
       d="m 74.194247,200.17878 -3.92629,-11.65321 -2.644156,2.81118 3.574551,10.60929 z"
       sodipodi:nodetypes="ccccc"
       inkscape:export-filename="C:\Users\basti\OneDrive\Bureau\Gus veut boire un coup\Gus\Gus_gauche_2.png"
       inkscape:export-xdpi="5.9319429"
       inkscape:export-ydpi="5.9319429" />
    <path
       id="rect8523"
       style="fill:#d40000;stroke-width:0.391005"
       d="m 135.51906,121.90825 c -42.852108,-8.9733 -76.276606,-1.56701 -113.904089,-1.46305 -11.8831926,24.42934 -4.483649,48.85869 -0.577162,73.28804 l 113.725041,-3.14139 c 7.74513,-24.95663 1.21958,-43.72697 0.75621,-68.6836 z"
       sodipodi:nodetypes="ccccc"
       inkscape:export-filename="C:\Users\basti\OneDrive\Bureau\Gus veut boire un coup\Gus\Gus_gauche_2.png"
       inkscape:export-xdpi="5.9319429"
       inkscape:export-ydpi="5.9319429" />
    <path
       id="rect10620-1"
       style="fill:#00446c;fill-opacity:0.998403;stroke-width:0.198579"
       d="m 123.71167,190.50491 -91.64878,2.56257 3.553928,1.45389 83.438622,-2.33301 z"
       sodipodi:nodetypes="ccccc"
       inkscape:export-filename="C:\Users\basti\OneDrive\Bureau\Gus veut boire un coup\Gus\Gus_gauche_2.png"
       inkscape:export-xdpi="5.9319429"
       inkscape:export-ydpi="5.9319429" />
    <ellipse
       style="fill:#c87137;stroke-width:0.381028"
       id="path9819-5"
       cx="-75.76432"
       cy="175.96846"
       rx="13.455881"
       ry="14.278785"
       transform="scale(-1,1)"
       inkscape:export-filename="C:\Users\basti\OneDrive\Bureau\Gus veut boire un coup\Gus\Gus_gauche_2.png"
       inkscape:export-xdpi="5.9319429"
       inkscape:export-ydpi="5.9319429" />
    <ellipse
       style="fill:#c87137;stroke-width:0.148273"
       id="path9819-9-5"
       cx="-78.392952"
       cy="161.56355"
       rx="5.6428618"
       ry="5.1560364"
       transform="scale(-1,1)"
       inkscape:export-filename="C:\Users\basti\OneDrive\Bureau\Gus veut boire un coup\Gus\Gus_gauche_2.png"
       inkscape:export-xdpi="5.9319429"
       inkscape:export-ydpi="5.9319429" />
    <rect
       style="fill:#217821;stroke-width:0.320771"
       id="rect20539-9"
       width="59.407875"
       height="5.7210493"
       x="266.18445"
       y="155.99973"
       ry="0.072818749"
       transform="matrix(0.91291415,0.40815163,-0.99998828,-0.00484153,0,0)"
       inkscape:transform-center-x="10.031744"
       inkscape:transform-center-y="-2.554623"
       rx="0.072807707"
       inkscape:export-filename="C:\Users\basti\OneDrive\Bureau\Gus veut boire un coup\Gus\Gus_gauche_2.png"
       inkscape:export-xdpi="5.9319429"
       inkscape:export-ydpi="5.9319429" />
    <rect
       style="fill:#217821;stroke-width:0.276214"
       id="rect20539-9-6"
       width="12.655076"
       height="1.63823"
       x="10.120563"
       y="-184.2655"
       ry="0.054073483"
       transform="matrix(0.93240394,0.36141788,-0.57351074,-0.81919804,0,0)"
       inkscape:transform-center-x="1.9497454"
       inkscape:transform-center-y="-1.5018472"
       rx="0.057559181"
       inkscape:export-filename="C:\Users\basti\OneDrive\Bureau\Gus veut boire un coup\Gus\Gus_gauche_2.png"
       inkscape:export-xdpi="5.9319429"
       inkscape:export-ydpi="5.9319429" />
    <path
       id="rect20539-9-5"
       style="fill:url(#linearGradient29842);fill-opacity:1;stroke-width:0.184944"
       inkscape:transform-center-x="4.4490482"
       inkscape:transform-center-y="-0.66426642"
       d="m 35.178255,213.01511 c 4.881357,0.11578 17.838437,-1.38378 30.162285,-2.75667 0.02836,-0.003 -9.8e-5,-0.0468 0.02819,-0.0504 16.518432,-2.13342 80.98227,-6.99904 -1.771758,-3.47541 -0.02819,0.002 -0.04616,-0.0436 -0.07469,-0.041 -10.055395,0.91156 -20.485092,-0.10653 -30.162278,2.75668 -0.02745,0.008 -0.007,0.0311 -0.02819,0.0505 -1.086233,0.99633 -3.572367,1.8573 1.771777,3.47542 0.02734,0.008 0.04621,0.0404 0.07473,0.041 z"
       sodipodi:nodetypes="sssssssss"
       inkscape:export-filename="C:\Users\basti\OneDrive\Bureau\Gus veut boire un coup\Gus\Gus_gauche_2.png"
       inkscape:export-xdpi="5.9319429"
       inkscape:export-ydpi="5.9319429" />
    <path
       id="path31-6"
       style="fill:#d38d5f;fill-rule:evenodd;stroke-width:0.357437"
       d="M 71.473937,72.779559 C 70.567686,132.00279 112.7845,97.376125 70.343032,113.38999 30.085339,128.5799 0.5644834,104.96671 0.0819464,88.81486 -1.6706856,30.149653 24.855393,7.1323887 63.770243,7.1323887 c 38.914877,0 8.393905,20.5427573 7.703694,65.6471703 z"
       sodipodi:nodetypes="sssss"
       inkscape:export-filename="C:\Users\basti\OneDrive\Bureau\Gus veut boire un coup\Gus\Gus_gauche_2.png"
       inkscape:export-xdpi="5.9319429"
       inkscape:export-ydpi="5.9319429" />
    <path
       id="path6217-4"
       style="fill:#d40000;stroke-width:0.378879"
       d="m 108.27173,137.01775 c 6.40719,45.74906 8.16262,37.31116 -11.434008,42.76241 -13.91419,3.87051 -11.82559,5.5566 -15.99686,-24.22726 -2.91355,-20.80339 1.41146,-40.32554 10.71703,-42.58806 9.305528,-2.26251 13.800288,3.24948 16.713838,24.05291 z"
       sodipodi:nodetypes="sssss"
       inkscape:transform-center-x="-6.0419524"
       inkscape:transform-center-y="32.664083"
       inkscape:export-filename="C:\Users\basti\OneDrive\Bureau\Gus veut boire un coup\Gus\Gus_gauche_2.png"
       inkscape:export-xdpi="5.9319429"
       inkscape:export-ydpi="5.9319429" />
    <path
       id="path32024"
       style="fill-opacity:0.998403;stroke-width:0.264583"
       d="m 34.420991,16.7536 c 4.479696,5.752001 33.122991,6.649206 30.634972,18.679318 C 45.111287,131.86988 89.661112,29.521891 89.796312,20.045472 89.923292,11.144103 76.245462,3.9265005 59.529712,3.9264993 42.813958,3.9264987 28.936144,9.7109732 34.420991,16.7536 Z"
       sodipodi:nodetypes="sssss"
       inkscape:export-filename="C:\Users\basti\OneDrive\Bureau\Gus veut boire un coup\Gus\Gus_gauche_2.png"
       inkscape:export-xdpi="5.9319429"
       inkscape:export-ydpi="5.9319429" />
    <path
       id="path31"
       style="fill:#d40000;fill-rule:evenodd;stroke-width:0.398876"
       d="m 65.579271,65.64717 c 1.128558,59.22324 -108.411394,58.52029 12.851221,54.0594 59.769188,-2.19873 68.760498,24.45867 84.488828,-38.024099 C 173.93889,37.905852 123.63387,0 75.172758,0 26.711699,0 64.719761,20.542757 65.579271,65.64717 Z"
       sodipodi:nodetypes="sssss"
       inkscape:export-filename="C:\Users\basti\OneDrive\Bureau\Gus veut boire un coup\Gus\Gus_gauche_2.png"
       inkscape:export-xdpi="5.9319429"
       inkscape:export-ydpi="5.9319429" />
    <path
       id="path4257-0-5"
       style="fill:url(#linearGradient7905);fill-opacity:1;stroke-width:0.272979"
       d="m 108.03214,142.45926 c 7.05842,8.85005 -30.234338,41.91276 -17.095988,39.12122 C 101.6065,179.31332 128.37636,143.90451 117.17541,127.78041 94.786032,95.550236 76.479552,102.89778 85.830312,114.62201 Z"
       sodipodi:nodetypes="sssss"
       inkscape:transform-center-x="-20.403013"
       inkscape:transform-center-y="26.007489"
       inkscape:export-filename="C:\Users\basti\OneDrive\Bureau\Gus veut boire un coup\Gus\Gus_gauche_2.png"
       inkscape:export-xdpi="5.9319429"
       inkscape:export-ydpi="5.9319429" />
    <path
       id="path4257-0"
       style="fill:url(#linearGradient14432);fill-opacity:1;stroke-width:0.312327"
       d="m 139.45611,90.163305 c -13.19331,19.882295 -40.340278,24.277925 -27.6353,32.102855 0,0 28.02905,2.36147 42.0286,-17.81879 10.22333,-14.736867 5.89406,-29.926331 -1.64545,-41.044618 -6.87187,-10.133729 -4.51115,14.347868 -12.74785,26.760553 z"
       sodipodi:nodetypes="sssss"
       inkscape:export-filename="C:\Users\basti\OneDrive\Bureau\Gus veut boire un coup\Gus\Gus_gauche_2.png"
       inkscape:export-xdpi="5.9319429"
       inkscape:export-ydpi="5.9319429" />
    <rect
       style="fill:url(#linearGradient30042);fill-opacity:1;stroke-width:0.454426"
       id="rect11065-9"
       width="8.7783976"
       height="3.292762"
       x="188.61684"
       y="102.75023"
       transform="matrix(-1.1373239e-4,0.99999999,0.9926403,0.12110007,0,0)"
       inkscape:export-filename="C:\Users\basti\OneDrive\Bureau\Gus veut boire un coup\Gus\Gus_gauche_2.png"
       inkscape:export-xdpi="5.9319429"
       inkscape:export-ydpi="5.9319429" />
    <rect
       style="fill:#0000aa;stroke-width:0.253422"
       id="rect11065-3"
       width="1.0241572"
       height="8.7774477"
       x="-59.429245"
       y="87.883644"
       transform="matrix(-0.79153104,-0.61112897,-0.27964841,0.96010248,0,0)"
       inkscape:export-filename="C:\Users\basti\OneDrive\Bureau\Gus veut boire un coup\Gus\Gus_gauche_2.png"
       inkscape:export-xdpi="5.9319429"
       inkscape:export-ydpi="5.9319429" />
    <path
       id="rect17082"
       style="fill:#00aa00;stroke-width:0.147492"
       d="m 153.87473,132.35288 c -7.65955,-6.84068 -14.89943,-15.16584 -28.415,-1.29317 -3.16014,16.05268 -2.66847,29.9841 1.29528,41.8987 8.53896,3.5037 16.73522,4.42442 24.77205,0.51726 6.13165,-12.83122 4.47733,-26.93806 2.34767,-41.12279 z"
       sodipodi:nodetypes="ccccc"
       inkscape:export-filename="C:\Users\basti\OneDrive\Bureau\Gus veut boire un coup\Gus\Gus_gauche_2.png"
       inkscape:export-xdpi="5.9319429"
       inkscape:export-ydpi="5.9319429" />
    <rect
       style="fill:#00aa00;stroke-width:0.368834"
       id="rect17663"
       width="2.21434"
       height="10.199855"
       x="-137.73328"
       y="121.90825"
       ry="3.3260343"
       transform="scale(-1,1)"
       rx="3.3260345"
       inkscape:export-filename="C:\Users\basti\OneDrive\Bureau\Gus veut boire un coup\Gus\Gus_gauche_2.png"
       inkscape:export-xdpi="5.9319429"
       inkscape:export-ydpi="5.9319429" />
    <path
       id="rect17811"
       style="fill:#0b280b;stroke-width:0.0561649"
       d="m 154.19036,141.12351 c -0.85725,-6.92358 -1.60556,-7.21802 -2.2304,0 -0.0375,0.43247 -0.19667,6.51056 -0.19667,7.4419 0,0.93134 0.16047,-3.59833 0.19667,-4.07966 0.83366,-11.08824 1.53795,-6.69019 2.2304,0 0.0387,0.37403 0.25063,5.19388 0.25063,4.26254 0,-0.93134 -0.21094,-7.30423 -0.25063,-7.62478 z"
       sodipodi:nodetypes="sssssss"
       inkscape:export-filename="C:\Users\basti\OneDrive\Bureau\Gus veut boire un coup\Gus\Gus_gauche_2.png"
       inkscape:export-xdpi="5.9319429"
       inkscape:export-ydpi="5.9319429" />
    <path
       id="rect17813"
       style="fill:#002b00;stroke-width:0.117925"
       d="m 155.62163,158.67357 c -1.85415,-0.15768 -3.7083,-1.6567 -5.56245,0 -0.0512,0.0456 -0.0928,0.40243 -0.0928,0.90232 0,0.49989 0.0416,0.95255 0.0928,0.90231 1.85415,-1.823 3.7083,-0.13787 5.56245,0 0.0514,0.004 0.0927,-0.40242 0.0927,-0.90231 0,-0.49989 -0.0413,-0.89796 -0.0927,-0.90232 z"
       sodipodi:nodetypes="sssssss"
       inkscape:export-filename="C:\Users\basti\OneDrive\Bureau\Gus veut boire un coup\Gus\Gus_gauche_2.png"
       inkscape:export-xdpi="5.9319429"
       inkscape:export-ydpi="5.9319429" />
    <path
       id="rect19198"
       style="fill:#217821;stroke-width:0.190509"
       d="m 141.24002,132.1358 0.52743,33.33461 c 5.8e-4,0.0371 0.10261,0.0324 0.1313,0.0665 0.52329,0.62118 -1.90807,11.047 2.13414,-0.009 0.0132,-0.0364 0.11264,-0.0314 0.12918,-0.0676 4.64332,-10.1427 3.4267,-21.46348 -0.52741,-33.33461 -0.0121,-0.0366 -0.11295,-0.0306 -0.13132,-0.0665 -3.72729,-7.2919 -3.18776,-4.26325 -2.13412,0.009 0.008,0.0368 -0.12978,0.0305 -0.1292,0.0676 z"
       sodipodi:nodetypes="sssssssss"
       inkscape:export-filename="C:\Users\basti\OneDrive\Bureau\Gus veut boire un coup\Gus\Gus_gauche_2.png"
       inkscape:export-xdpi="5.9319429"
       inkscape:export-ydpi="5.9319429" />
    <path
       id="rect19198-2"
       style="fill:#217821;stroke-width:0.176999"
       d="m 129.7411,133.39751 -0.45526,33.33461 c -5.1e-4,0.0371 -0.0886,0.0324 -0.11335,0.0665 -0.45169,0.62118 1.90757,2.12413 -1.84218,-0.009 -0.0333,-0.019 -2.05106,0.0979 -2.06533,0.0617 -4.00812,-10.1427 -3.21844,-23.9205 0.19475,-35.79163 0,0 2.02802,-0.58884 2.06717,-0.58377 3.60816,0.46711 3.0122,-1.41828 2.10269,2.85397 -0.007,0.0368 0.11203,0.0305 0.11151,0.0676 z"
       sodipodi:nodetypes="sssssssss"
       inkscape:export-filename="C:\Users\basti\OneDrive\Bureau\Gus veut boire un coup\Gus\Gus_gauche_2.png"
       inkscape:export-xdpi="5.9319429"
       inkscape:export-ydpi="5.9319429" />
    <path
       id="rect1430"
       style="fill:#28170b;stroke-width:0.147509"
       d="m 21.157981,43.479716 -7.498897,-2.596154 -6.5447416,1.70122 c 6.6423686,1.179764 13.2749206,2.027531 20.0466346,7.579677 0.166825,-1.886953 -5.894438,-5.256019 -6.002996,-6.684743 z"
       sodipodi:nodetypes="ccccc"
       inkscape:transform-center-x="-2.8479385"
       inkscape:transform-center-y="2.5526529"
       inkscape:export-filename="C:\Users\basti\OneDrive\Bureau\Gus veut boire un coup\Gus\Gus_gauche_2.png"
       inkscape:export-xdpi="5.9319429"
       inkscape:export-ydpi="5.9319429" />
    <path
       id="path2169-5-4-0"
       style="fill:#ffccaa;stroke-width:0.456428"
       d="m 19.3484,53.872346 c 0.767298,3.16755 -3.801179,5.70867 -8.01012,5.70867 -4.2089506,0 -7.8133336,-3.84533 -7.6209906,-6.09243 0.236709,-2.76539 3.282296,-5.9965 7.6209906,-6.09245 4.208492,-0.093 7.102106,2.72769 8.01012,6.47621 z"
       sodipodi:nodetypes="sssss"
       inkscape:export-filename="C:\Users\basti\OneDrive\Bureau\Gus veut boire un coup\Gus\Gus_gauche_2.png"
       inkscape:export-xdpi="5.9319429"
       inkscape:export-ydpi="5.9319429" />
    <path
       id="path3219-1"
       style="fill:#241c1c;stroke-width:0.479567"
       d="m 0.0169664,84.221631 c -0.05598,0.58022 0.150818,0.496271 3.757591,0.839502 3.606915,0.343246 2.654648,0.260662 2.710761,-0.320323 0.05598,-0.580229 0.585467,-0.618974 -3.021469,-0.962222 -3.606956,-0.343248 -3.390882,-0.137161 -3.446883,0.443043 z"
       sodipodi:nodetypes="sssss"
       inkscape:export-filename="C:\Users\basti\OneDrive\Bureau\Gus veut boire un coup\Gus\Gus_gauche_2.png"
       inkscape:export-xdpi="5.9319429"
       inkscape:export-ydpi="5.9319429" />
    <ellipse
       style="fill:#28170b;stroke-width:0.285998"
       id="path2169"
       ry="3.7418122"
       rx="4.8719387"
       cy="53.670341"
       cx="-9.849802"
       transform="scale(-1,1)"
       inkscape:export-filename="C:\Users\basti\OneDrive\Bureau\Gus veut boire un coup\Gus\Gus_gauche_2.png"
       inkscape:export-xdpi="5.9319429"
       inkscape:export-ydpi="5.9319429" />
    <ellipse
       style="fill:#000000;fill-opacity:0.998403;stroke-width:0.433747"
       id="path31470"
       cx="-1.4395335"
       cy="69.946823"
       rx="0.2475301"
       ry="1.0972906"
       transform="scale(-1,1)"
       inkscape:export-filename="C:\Users\basti\OneDrive\Bureau\Gus veut boire un coup\Gus\Gus_gauche_2.png"
       inkscape:export-xdpi="5.9319429"
       inkscape:export-ydpi="5.9319429" />
  </g>
</svg>
