<?xml version="1.0" encoding="UTF-8" standalone="no"?>
<!-- Created with Inkscape (http://www.inkscape.org/) -->

<svg
   width="210mm"
   height="215mm"
   viewBox="0 0 210 215"
   version="1.1"
   id="svg5"
   inkscape:version="1.1 (c68e22c387, 2021-05-23)"
   sodipodi:docname="Gus_dos_2.svg"
   inkscape:export-filename="C:\Users\basti\OneDrive\Bureau\Gus veut boire un coup\Gus\Gus_dos_2.png"
   inkscape:export-xdpi="4.8437209"
   inkscape:export-ydpi="4.8437209"
   xmlns:inkscape="http://www.inkscape.org/namespaces/inkscape"
   xmlns:sodipodi="http://sodipodi.sourceforge.net/DTD/sodipodi-0.dtd"
   xmlns:xlink="http://www.w3.org/1999/xlink"
   xmlns="http://www.w3.org/2000/svg"
   xmlns:svg="http://www.w3.org/2000/svg">
  <sodipodi:namedview
     id="namedview7"
     pagecolor="#ffffff"
     bordercolor="#666666"
     borderopacity="1.0"
     inkscape:pageshadow="2"
     inkscape:pageopacity="0.0"
     inkscape:pagecheckerboard="0"
     inkscape:document-units="mm"
     showgrid="false"
     inkscape:zoom="0.72337261"
     inkscape:cx="324.86715"
     inkscape:cy="321.41112"
     inkscape:window-width="1920"
     inkscape:window-height="1001"
     inkscape:window-x="-9"
     inkscape:window-y="-9"
     inkscape:window-maximized="1"
     inkscape:current-layer="layer1"
     height="296mm" />
  <defs
     id="defs2">
    <linearGradient
       inkscape:collect="always"
       id="linearGradient5194">
      <stop
         style="stop-color:#800000;stop-opacity:1;"
         offset="0"
         id="stop5190" />
      <stop
         style="stop-color:#800000;stop-opacity:0;"
         offset="1"
         id="stop5192" />
    </linearGradient>
    <linearGradient
       inkscape:collect="always"
       xlink:href="#linearGradient5194"
       id="linearGradient7905"
       gradientUnits="userSpaceOnUse"
       gradientTransform="matrix(0.73841259,0.12231277,-0.21338083,1.2090567,161.02934,15.618602)"
       x1="51.572659"
       y1="126.18843"
       x2="51.572659"
       y2="126.18843" />
    <linearGradient
       inkscape:collect="always"
       xlink:href="#linearGradient5194"
       id="linearGradient9654"
       gradientUnits="userSpaceOnUse"
       gradientTransform="matrix(-0.54960654,0.12231277,0.15882109,1.2090567,52.073847,19.796689)"
       x1="51.572659"
       y1="126.18843"
       x2="51.572659"
       y2="126.18843" />
    <linearGradient
       inkscape:collect="always"
       xlink:href="#linearGradient5194"
       id="linearGradient9794"
       gradientUnits="userSpaceOnUse"
       x1="51.572659"
       y1="126.18843"
       x2="51.572659"
       y2="126.18843"
       gradientTransform="matrix(0.78859814,0.08264264,-0.01961535,0.41036371,-14.322175,73.832746)" />
    <linearGradient
       inkscape:collect="always"
       xlink:href="#linearGradient5194"
       id="linearGradient14432"
       gradientUnits="userSpaceOnUse"
       gradientTransform="matrix(-0.95707333,-1.1958123,1.1584972,-0.9272081,81.373472,260.1395)"
       x1="51.572659"
       y1="126.18843"
       x2="51.572659"
       y2="126.18843" />
  </defs>
  <g
     inkscape:label="Calque 1"
     inkscape:groupmode="layer"
     id="layer1">
    <path
       id="path11385-4"
       style="fill:#373748;stroke-width:0.548396"
       d="m 38.423161,194.3825 c 0.261246,15.38812 -0.321661,15.67833 30.55949,16.33648 32.706159,0.69705 30.539791,-1.07768 31.323489,-16.33648 0.57041,-11.10627 -8.920796,-15.95657 -31.705497,-15.95657 -22.784685,0 -30.366256,4.83752 -30.177482,15.95657 z"
       sodipodi:nodetypes="sssss" />
    <path
       id="rect8523"
       style="fill:#d40000;stroke-width:0.376887"
       d="M 186.79312,119.5636 H 17.204001 l 18.672864,71.82499 132.809215,0.48455 z"
       sodipodi:nodetypes="ccccc" />
    <ellipse
       style="fill:#c87137;stroke-width:0.398876"
       id="path9819"
       cx="-190.09126"
       cy="166.31055"
       rx="14.146116"
       ry="14.925369"
       transform="scale(-1,1)" />
    <ellipse
       style="fill:#c87137;stroke-width:0.381028"
       id="path9819-5"
       cx="-18.685053"
       cy="172.81654"
       rx="13.493046"
       ry="14.278785"
       transform="scale(-1,1)" />
    <path
       id="path10057-0"
       style="fill:#a05a2c;stroke-width:0.508378"
       d="m 25.57099,162.01981 c -2.287846,3.87674 4.828563,5.97491 1.119373,5.97491 -3.709213,0 -5.223661,-1.84747 -5.223661,-5.72422 1.7e-5,-3.87674 1.327915,-5.26459 5.037127,-5.26459 3.709157,0 1.335301,1.17059 -0.932839,5.0139 z"
       sodipodi:nodetypes="sssss" />
    <path
       id="path10057-0-2"
       style="fill:#a05a2c;stroke-width:0.493973"
       d="m 183.20731,169.50471 c 2.16003,3.87674 -4.5588,5.97491 -1.05683,5.97491 3.50198,0 4.93183,-1.84747 4.93183,-5.72422 -3e-5,-3.87674 -1.25372,-5.26459 -4.75572,-5.26459 -3.50194,0 -1.2607,1.17059 0.88072,5.0139 z"
       sodipodi:nodetypes="sssss" />
    <ellipse
       style="fill:#c87137;stroke-width:0.148273"
       id="path9819-9"
       cx="-178.99313"
       cy="169.99901"
       rx="5.6584463"
       ry="5.1560364"
       transform="scale(-1,1)" />
    <ellipse
       style="fill:#c87137;stroke-width:0.148273"
       id="path9819-9-5"
       cx="-29.216393"
       cy="162.46106"
       rx="5.6584463"
       ry="5.1560364"
       transform="scale(-1,1)" />
    <rect
       style="fill:#217821;stroke-width:0.172253"
       id="rect20539-9"
       width="22.418659"
       height="4.3838034"
       x="200.25615"
       y="124.83701"
       ry="0.051240306"
       transform="matrix(0.97204362,0.23480034,-0.36998022,0.92903963,0,0)"
       inkscape:transform-center-x="3.5144566"
       inkscape:transform-center-y="2.5574558"
       rx="0.051065739" />
    <rect
       style="fill:#217821;stroke-width:0.159821"
       id="rect20539-9-5"
       width="22.241077"
       height="3.8039677"
       x="-41.591652"
       y="-176.00974"
       ry="0.043369584"
       transform="matrix(0.97980485,-0.19995615,-0.42637597,-0.90454604,0,0)"
       inkscape:transform-center-x="3.5144618"
       inkscape:transform-center-y="-2.1606912"
       rx="0.045252487" />
    <path
       id="path6217"
       style="fill:#d40000;stroke-width:0.398876"
       d="m 164.32364,134.89121 c 0,43.84214 -4.48828,37.37597 26.59469,37.0541 17.88454,-0.1852 14.37537,1.74421 19.23874,-26.0574 3.43631,-19.64384 -10.77518,-37.05406 -25.46303,-37.05409 -14.68784,0 -20.3704,6.12111 -20.3704,26.05739 z"
       sodipodi:nodetypes="sssss" />
    <path
       id="path4257-8"
       style="fill:url(#linearGradient9794);fill-opacity:1;stroke-width:0.150889"
       d="m 175.47621,116.78393 c 8.44523,7.84653 2.2105,15.40466 11.51856,14.1914 0,0 10.89907,-6.18109 2.53075,-14.29146 -6.11105,-5.92269 -17.38073,-8.45432 -27.09123,-9.25695 -8.85061,-0.7316 7.7695,4.45834 13.04192,9.35701 z"
       sodipodi:nodetypes="sssss" />
    <path
       id="path6217-4"
       style="fill:#d40000;stroke-width:0.378879"
       d="m 41.010441,130.76897 c 0,42.58615 -15.427714,31.50387 -22.16643,32.11305 -8.265118,0.74717 -19.18673924,6.29332 -19.18673924,-21.4314 0,-19.36514 9.72187924,-35.99254 22.97399624,-35.99255 13.252097,0 18.379173,5.94574 18.379173,25.3109 z"
       sodipodi:nodetypes="sssss" />
    <rect
       style="fill:#217821;stroke-width:0.229938"
       id="rect20539-5"
       width="25.280439"
       height="6.9274144"
       x="141.56267"
       y="38.453938"
       ry="0.082382403"
       transform="matrix(0.60557709,0.79578664,-0.98228006,0.18741902,0,0)"
       inkscape:transform-center-x="6.791486"
       inkscape:transform-center-y="-1.111392"
       rx="0.07254383" />
    <rect
       style="fill:#217821;stroke-width:0.282241"
       id="rect20539"
       width="28.703854"
       height="9.1924305"
       x="122.58886"
       y="249.46577"
       ry="0.11214519"
       transform="matrix(-0.71328339,0.70087574,0.98997553,0.14123896,0,0)"
       inkscape:transform-center-x="-9.0826678"
       inkscape:transform-center-y="-1.1113975"
       rx="0.092960864" />
    <path
       id="rect20762"
       style="fill:#aa0000;stroke-width:0.236523"
       d="m 175.80183,122.21524 c -37.26269,4.94765 -75.73656,5.39373 -115.781619,0 -0.02172,-0.003 -0.02054,0.0624 -0.03923,0.0487 -8.332606,-6.08907 -13.144168,-8.5988 0,7.14439 0,-7.14439 0.01802,0.0431 0.03923,0.0487 37.795186,9.89528 104.387499,2.64813 115.781619,0 0.0214,-0.005 0.0208,-0.0343 0.0393,-0.0487 16.87344,-13.19555 -10.01788,-4.51888 0,-7.14439 0.0212,-0.006 -0.0176,-0.0516 -0.0393,-0.0487 z"
       sodipodi:nodetypes="ssscsssss" />
    <path
       id="path31"
       style="fill:#d40000;fill-rule:evenodd;stroke-width:0.398876"
       d="m 17.204001,82.926508 c 1.131664,58.729392 28.294707,44.756242 84.986089,45.401352 61.28107,0.69735 84.76735,23.01592 90.99164,-45.401352 4.05471,-44.569246 -39.39396,-81.0013458 -87.98887,-81.0013458 -48.594905,0 -88.850759,36.2730448 -87.988859,81.0013458 z"
       sodipodi:nodetypes="sssss" />
    <path
       id="path4257-0-5"
       style="fill:url(#linearGradient7905);fill-opacity:1;stroke-width:0.253625"
       d="m 32.672699,155.98736 c 0.298559,7.71717 -4.076269,11.09187 4.52122,9.34117 0,0 5.148898,-14.22975 4.807941,-27.23981 -0.211775,-8.08044 -11.115109,-28.26508 -10.36084,-8.76862 z"
       sodipodi:nodetypes="sssss" />
    <path
       id="path4257-0-5-6"
       style="fill:url(#linearGradient9654);fill-opacity:1;stroke-width:0.218811"
       d="m 170.26239,161.38223 c -0.22222,7.9862 3.03401,11.47855 -3.36518,9.66682 0,0 -3.83236,-14.72583 -3.57859,-28.18945 0.1576,-8.36213 8.27306,-29.25046 7.71168,-9.07432 z"
       sodipodi:nodetypes="sssss" />
    <path
       id="path4257-0"
       style="fill:url(#linearGradient14432);fill-opacity:1;stroke-width:0.398876"
       d="M 87.852142,100.97158 C 53.36279,93.410684 41.723726,68.014 31.114977,82.562634 c 0,0 0.806602,28.081106 35.91363,36.351156 25.637302,6.0393 49.599133,-2.29264 66.414513,-12.67088 15.3263,-9.459226 -24.05899,-0.55099 -45.590978,-5.27133 z"
       sodipodi:nodetypes="sssss" />
    <path
       id="rect10620"
       style="fill:#0044aa;stroke-width:0.462378"
       d="M 168.52176,191.38859 H 102.1993 c -0.19911,-0.91242 2.82923,5.06558 3.67799,8.95523 l 59.81523,0.27136 z"
       sodipodi:nodetypes="ccccc" />
    <path
       id="path11385"
       style="fill:#373748;stroke-width:0.463483"
       d="m 104.70404,204.89893 c 0.9143,12.08146 -2.02089,11.87465 30.55949,11.66892 34.80106,-0.21975 31.45409,0.0246 31.32349,-11.66892 -0.0887,-7.94282 -8.9208,-11.39756 -31.70548,-11.39756 -22.78468,0 -30.77698,3.47645 -30.1775,11.39756 z"
       sodipodi:nodetypes="sssss" />
    <rect
       style="fill:#0000aa;stroke-width:0.39889"
       id="rect11065-9-5"
       width="2.4807231"
       height="9.0027447"
       x="189.69186"
       y="99.952576"
       transform="matrix(-0.00110844,0.99999939,0.99992166,0.01251679,0,0)" />
    <path
       id="rect10620-1"
       style="fill:#0044aa;stroke-width:0.398876"
       d="M 102.1993,191.38859 H 35.876865 l 2.546296,2.99391 H 98.80424 Z"
       sodipodi:nodetypes="ccccc" />
    <rect
       style="fill:#0000aa;stroke-width:0.39889"
       id="rect11065-9"
       width="2.4807231"
       height="9.0027447"
       x="189.69186"
       y="90.949814"
       transform="matrix(-0.00110844,0.99999939,0.99992166,0.01251679,0,0)" />
    <rect
       style="fill:#0000aa;stroke-width:0.398901"
       id="rect11065"
       width="2.5048201"
       height="8.916584"
       x="-201.29836"
       y="159.02988"
       transform="matrix(-0.98403847,-0.17795585,-0.19287586,0.98122317,0,0)" />
    <rect
       style="fill:#0000aa;stroke-width:0.398901"
       id="rect11065-3"
       width="2.5048201"
       height="8.916584"
       x="-137.21037"
       y="170.1664"
       transform="matrix(-0.98403847,-0.17795585,-0.19287586,0.98122317,0,0)" />
    <path
       id="rect17082"
       style="fill:#00aa00;stroke-width:0.264583"
       d="m 148.15073,142.57 c -24.71642,-6.84068 -48.07855,-15.16584 -91.691572,-1.29317 -10.197391,16.05268 -8.610824,29.9841 4.179673,41.8987 27.554134,3.5037 54.002439,4.42442 79.936239,0.51726 19.78603,-12.83122 14.44776,-26.93806 7.57566,-41.12279 z"
       sodipodi:nodetypes="ccccc" />
    <rect
       style="fill:#00aa00;stroke-width:0.264583"
       id="rect17661"
       width="16.196234"
       height="2.0690711"
       x="-112.81943"
       y="127.95721"
       transform="scale(-1,1)" />
    <rect
       style="fill:#00aa00;stroke-width:0.368834"
       id="rect17663"
       width="2.2204556"
       height="10.199855"
       x="-98.843651"
       y="127.95721"
       ry="3.3260343"
       transform="scale(-1,1)"
       rx="3.3260345" />
    <rect
       style="fill:#00aa00;stroke-width:0.335582"
       id="rect17663-6"
       width="1.959226"
       height="9.5694523"
       x="-112.81943"
       y="127.95721"
       ry="3.1204689"
       transform="scale(-1,1)"
       rx="3.1204689" />
    <path
       id="rect19194"
       style="fill:#217821;stroke-width:0.264583"
       d="m 119.172,142.28203 c -20.226925,-6.70105 -34.845887,-3.28651 -33.357302,-1.00585 0,0 -1.997824,1.502 -2.070161,1.50093 -4.87218,-0.0717 -11.173404,3.53896 2.031887,1.8445 0.07173,-0.009 0.06533,0.16024 0.130665,0.12932 17.874201,-8.46875 23.608081,-4.34792 33.264941,0 0.0659,0.0297 0.0598,-0.1438 0.13067,-0.12932 17.10922,3.49805 5.10922,-0.20889 0,-2.21026 -0.0674,-0.0264 -0.0619,-0.10659 -0.13067,-0.12932 z"
       sodipodi:nodetypes="sssssssss" />
    <path
       id="rect17811"
       style="fill:#0b280b;stroke-width:0.264583"
       d="m 127.64419,142.31139 c -19.07651,-6.92358 -35.728728,-7.21802 -49.633614,0 -0.833122,0.43247 -4.376393,6.51056 -4.376393,7.4419 0,0.93134 3.571071,-3.59833 4.376393,-4.07966 18.551804,-11.08824 34.224494,-6.69019 49.633614,0 0.86149,0.37403 5.57707,5.19388 5.57707,4.26254 0,-0.93134 -4.69386,-7.30423 -5.57707,-7.62478 z"
       sodipodi:nodetypes="sssssss" />
    <path
       id="rect17813"
       style="fill:#002b00;stroke-width:0.264583"
       d="m 121.37469,164.29527 c -13.06148,-0.11299 -26.122966,-1.18716 -39.184441,0 -0.360288,0.0327 -0.653072,0.28838 -0.653072,0.64659 0,0.35821 0.293104,0.68258 0.653072,0.64658 13.061475,-1.30633 26.122961,-0.0988 39.184441,0 0.36179,0.003 0.65307,-0.28837 0.65307,-0.64658 0,-0.35821 -0.29128,-0.64346 -0.65307,-0.64659 z"
       sodipodi:nodetypes="sssssss" />
    <path
       id="rect17815"
       style="fill:#002b00;stroke-width:0.264583"
       d="m 60.769446,152.91537 c -0.0724,0 -0.115679,0.0592 -0.130665,0.12932 -1.268442,5.94858 -2.019209,11.89716 0,17.84574 0.02307,0.0679 0.05826,0.12932 0.130665,0.12932 0.07223,0 0.146155,-0.0594 0.130664,-0.12932 -1.271355,-5.72645 -0.798655,-11.75762 0,-17.84574 0.0085,-0.071 -0.05826,-0.12932 -0.130664,-0.12932 z"
       sodipodi:nodetypes="sssssss" />
    <path
       id="rect17817"
       style="fill:#002b00;stroke-width:0.264583"
       d="m 139.66077,152.39812 c -0.0724,0 -0.14699,0.0596 -0.13066,0.12931 1.5186,6.46898 1.18163,13.3555 0,20.43208 -0.0118,0.0706 0.0583,0.12932 0.13066,0.12932 0.0724,0 0.11535,-0.0593 0.13066,-0.12932 1.50676,-6.90694 2.27686,-13.76682 0,-20.43208 -0.0233,-0.0678 -0.0583,-0.12931 -0.13066,-0.12931 z"
       sodipodi:nodetypes="sssssss" />
    <path
       id="rect19198"
       style="fill:#217821;stroke-width:0.264583"
       d="M 134.04172,179.04126 H 69.097774 c -0.0724,0 -0.06398,0.10136 -0.130665,0.12932 -1.214373,0.50974 -21.505247,-2.0678 0,2.11883 0.07089,0.0138 0.06028,0.11232 0.130665,0.12931 19.721219,4.76904 41.785326,3.73905 64.943946,0 0.0714,-0.0115 0.0606,-0.11165 0.13066,-0.12931 14.2359,-3.58579 8.33133,-3.09774 0,-2.11883 -0.0717,0.008 -0.0583,-0.12932 -0.13066,-0.12932 z"
       sodipodi:nodetypes="sssssssss" />
  </g>
</svg>
