<?xml version="1.0" encoding="UTF-8" standalone="no"?>
<!-- Created with Inkscape (http://www.inkscape.org/) -->

<svg
   width="210mm"
   height="215mm"
   viewBox="0 0 210 215"
   version="1.1"
   id="svg5"
   inkscape:version="1.1 (c68e22c387, 2021-05-23)"
   sodipodi:docname="Gus_droit_2.svg"
   inkscape:export-filename="C:\Users\basti\OneDrive\Images\gimp\Gus_droit.png"
   inkscape:export-xdpi="4.8437209"
   inkscape:export-ydpi="4.8437209"
   xmlns:inkscape="http://www.inkscape.org/namespaces/inkscape"
   xmlns:sodipodi="http://sodipodi.sourceforge.net/DTD/sodipodi-0.dtd"
   xmlns:xlink="http://www.w3.org/1999/xlink"
   xmlns="http://www.w3.org/2000/svg"
   xmlns:svg="http://www.w3.org/2000/svg">
  <sodipodi:namedview
     id="namedview7"
     pagecolor="#ffffff"
     bordercolor="#666666"
     borderopacity="1.0"
     inkscape:pageshadow="2"
     inkscape:pageopacity="0.0"
     inkscape:pagecheckerboard="0"
     inkscape:document-units="mm"
     showgrid="false"
     inkscape:zoom="0.72337262"
     inkscape:cx="217.0389"
     inkscape:cy="416.79764"
     inkscape:window-width="1920"
     inkscape:window-height="1001"
     inkscape:window-x="-9"
     inkscape:window-y="-9"
     inkscape:window-maximized="1"
     inkscape:current-layer="layer1"
     height="296mm" />
  <defs
     id="defs2">
    <linearGradient
       inkscape:collect="always"
       id="linearGradient30040">
      <stop
         style="stop-color:#1c1f24;stop-opacity:1;"
         offset="0"
         id="stop30036" />
      <stop
         style="stop-color:#1c1f24;stop-opacity:0;"
         offset="1"
         id="stop30038" />
    </linearGradient>
    <linearGradient
       inkscape:collect="always"
       id="linearGradient29840">
      <stop
         style="stop-color:#535d6c;stop-opacity:1;"
         offset="0"
         id="stop29836" />
      <stop
         style="stop-color:#535d6c;stop-opacity:0;"
         offset="1"
         id="stop29838" />
    </linearGradient>
    <linearGradient
       inkscape:collect="always"
       id="linearGradient5194">
      <stop
         style="stop-color:#800000;stop-opacity:1;"
         offset="0"
         id="stop5190" />
      <stop
         style="stop-color:#800000;stop-opacity:0;"
         offset="1"
         id="stop5192" />
    </linearGradient>
    <linearGradient
       inkscape:collect="always"
       xlink:href="#linearGradient5194"
       id="linearGradient7905"
       gradientUnits="userSpaceOnUse"
       gradientTransform="matrix(0.73841267,0.14169097,-0.21338082,1.4006093,81.06709,-9.291882)"
       x1="51.572659"
       y1="126.18843"
       x2="51.572659"
       y2="126.18843" />
    <linearGradient
       inkscape:collect="always"
       xlink:href="#linearGradient5194"
       id="linearGradient14432"
       gradientUnits="userSpaceOnUse"
       gradientTransform="matrix(1.0212645,-0.69985868,1.1058601,0.60661395,-123.73835,81.543194)"
       x1="51.572659"
       y1="126.18843"
       x2="51.572659"
       y2="126.18843" />
    <linearGradient
       inkscape:collect="always"
       xlink:href="#linearGradient29840"
       id="linearGradient29842"
       x1="-227.65132"
       y1="-227.23926"
       x2="-227.67598"
       y2="-223.42758"
       gradientUnits="userSpaceOnUse"
       gradientTransform="matrix(-0.99983119,0.01837916,0.35337914,-0.9354802,3.9012585e-6,-1.6333333e-7)" />
    <linearGradient
       inkscape:collect="always"
       xlink:href="#linearGradient30040"
       id="linearGradient30042"
       x1="213.05557"
       y1="-59.214508"
       x2="213.22256"
       y2="-61.33345"
       gradientUnits="userSpaceOnUse"
       gradientTransform="matrix(0.99999941,4.8444968e-6,0.00498451,0.99940492,-1.4028583e-6,2.0862569e-6)" />
  </defs>
  <g
     inkscape:label="Calque 1"
     inkscape:groupmode="layer"
     id="layer1">
    <path
       id="path11385-1"
       style="fill:#373701;fill-opacity:1;stroke-width:0.602877"
       d="m 183.45351,203.81045 c 7.79002,9.90741 0.12752,12.33709 -57.20529,11.29079 -40.456614,-0.73831 -53.077346,-2.85677 -53.53425,-14.21607 -0.310354,-7.71579 12.234206,-0.0169 49.94173,-2.17472 37.70759,-2.15777 55.96811,-1.04243 60.79781,5.1 z"
       sodipodi:nodetypes="sssss" />
    <path
       id="path11385"
       style="fill:#373748;stroke-width:0.602877"
       d="m 164.7381,207.60146 c 0,10.57599 -33.01345,9.52013 -58.53965,9.17199 -43.500235,-0.59329 -53.744872,-5.26544 -53.722442,-17.02187 0.01532,-7.98555 12.416953,0.5158 50.777982,-0.0699 38.36093,-0.58564 56.84541,1.36277 61.48411,7.91973 z"
       sodipodi:nodetypes="ssssss" />
    <path
       id="rect10620"
       style="fill:#0044aa;stroke-width:0.561253"
       d="M 55.889752,189.5284 H 156.76123 c 0.30283,-0.91242 -4.30305,5.06558 -5.59396,8.95523 l -66.397608,2.8577 z"
       sodipodi:nodetypes="ccccc" />
    <path
       id="rect10620-4"
       style="fill:#0044aa;stroke-width:0.561253"
       d="M 94.955939,189.5284 H 48.744917 c -0.138713,-0.91242 1.971312,5.06558 2.5627,8.95523 l 33.462045,2.8577 z"
       sodipodi:nodetypes="ccccc" />
    <path
       id="rect10620-1-2"
       style="fill:#00446c;fill-opacity:0.998403;stroke-width:0.19858"
       d="m 110.26144,200.06143 4.0641,-11.65321 2.73697,2.81118 -3.70002,10.60929 z"
       sodipodi:nodetypes="ccccc" />
    <path
       id="rect8523"
       style="fill:#d40000;stroke-width:0.391005"
       d="m 46.784045,121.7909 c 44.356283,-8.9733 78.954005,-1.56701 117.902265,-1.46305 12.30032,24.42934 4.64104,48.85869 0.59743,73.28804 L 47.566804,190.4745 c -8.016998,-24.95663 -1.262396,-43.72697 -0.782759,-68.6836 z"
       sodipodi:nodetypes="ccccc" />
    <path
       id="rect10620-1"
       style="fill:#00446c;fill-opacity:0.998403;stroke-width:0.198579"
       d="m 59.005894,190.38756 94.865766,2.56257 -3.67868,1.45389 -86.367416,-2.33301 z"
       sodipodi:nodetypes="ccccc" />
    <ellipse
       style="fill:#c87137;stroke-width:0.381028"
       id="path9819-5"
       cx="108.63628"
       cy="175.85109"
       rx="13.928202"
       ry="14.278785" />
    <ellipse
       style="fill:#c87137;stroke-width:0.148273"
       id="path9819-9-5"
       cx="105.91535"
       cy="161.44618"
       rx="5.8409343"
       ry="5.1560364" />
    <rect
       style="fill:#217821;stroke-width:0.325443"
       id="rect20539-9"
       width="61.150723"
       height="5.9218612"
       x="275.92508"
       y="350.31064"
       ry="0.072818704"
       transform="matrix(-0.91802654,0.39651895,0.99998906,-0.00467735,0,0)"
       inkscape:transform-center-x="-10.383845"
       inkscape:transform-center-y="-2.5546157"
       rx="0.072570667" />
    <rect
       style="fill:#217821;stroke-width:0.277216"
       id="rect20539-9-6"
       width="13.042122"
       height="1.6573641"
       x="-263.58316"
       y="-304.94577"
       ry="0.053789884"
       transform="matrix(-0.93649077,0.35069222,0.5867882,-0.80974046,0,0)"
       inkscape:transform-center-x="-2.0182068"
       inkscape:transform-center-y="-1.5018609"
       rx="0.057405915" />
    <path
       id="rect20539-9-5"
       style="fill:url(#linearGradient29842);fill-opacity:1;stroke-width:0.184944"
       inkscape:transform-center-x="-4.6051979"
       inkscape:transform-center-y="-0.66426642"
       d="m 150.64693,212.89776 c -5.05269,0.11578 -18.46459,-1.38378 -31.22101,-2.75667 -0.0294,-0.003 9e-5,-0.0468 -0.0292,-0.0504 -17.09823,-2.13342 -83.82484,-6.99904 1.83395,-3.47541 0.0292,0.002 0.0478,-0.0436 0.0773,-0.041 10.40835,0.91156 21.20415,-0.10653 31.22102,2.75668 0.0284,0.008 0.008,0.0311 0.0292,0.0505 1.12435,0.99633 3.69776,1.8573 -1.83397,3.47542 -0.0283,0.008 -0.0478,0.0404 -0.0773,0.041 z"
       sodipodi:nodetypes="sssssssss" />
    <path
       id="path31-6"
       style="fill:#d38d5f;fill-rule:evenodd;stroke-width:0.357437"
       d="m 113.07723,72.6622 c 0.93806,59.22324 -42.760607,24.596566 1.1706,40.61044 41.67079,15.18991 72.22787,-8.42328 72.72735,-24.575139 1.81415,-58.665207 -25.64303,-81.6824708 -65.92385,-81.6824708 -40.280824,0 -8.68854,20.5427568 -7.9741,65.6471698 z"
       sodipodi:nodetypes="sssss" />
    <path
       id="path6217-4"
       style="fill:#d40000;stroke-width:0.378879"
       d="m 74.987798,136.9004 c -6.632091,45.74906 -8.44914,37.31116 11.83536,42.76241 14.402602,3.87051 12.240685,5.5566 16.558372,-24.22726 3.0158,-20.80339 -1.461,-40.32554 -11.093212,-42.58806 -9.632168,-2.26251 -14.284701,3.24948 -17.30052,24.05291 z"
       sodipodi:nodetypes="sssss"
       inkscape:transform-center-x="6.2540308"
       inkscape:transform-center-y="32.664083" />
    <path
       id="path32024"
       style="fill-opacity:0.998403;stroke-width:0.264583"
       d="m 151.43079,16.636241 c -4.63694,5.752001 -34.28566,6.649206 -31.71031,18.679318 C 140.36524,131.75253 94.251677,29.404532 94.111732,19.928113 93.980295,11.026744 108.13822,3.809142 125.44072,3.8091408 c 17.3025,-6e-7 31.66743,5.7844739 25.99007,12.8271002 z"
       sodipodi:nodetypes="sssss" />
    <path
       id="path31"
       style="fill:#d40000;fill-rule:evenodd;stroke-width:0.398877"
       d="M 119.1788,65.529811 C 118.01064,124.75306 231.39559,124.05011 105.8765,119.58922 44.009334,117.39049 34.702414,144.04789 18.421997,81.565112 7.0156257,37.788493 59.086425,-0.11735856 109.24858,-0.11735856 c 50.16211,0 10.8199,20.54275656 9.93022,65.64716956 z"
       sodipodi:nodetypes="sssss" />
    <path
       id="path4257-0-5"
       style="fill:url(#linearGradient7905);fill-opacity:1;stroke-width:0.272979"
       d="m 75.235798,142.34191 c -7.30618,8.85005 31.295602,41.91276 17.696083,39.12122 -11.044894,-2.26716 -38.754414,-37.67597 -27.160295,-53.80007 23.175279,-32.230183 42.124324,-24.88263 32.445357,-13.1584 z"
       sodipodi:nodetypes="sssss"
       inkscape:transform-center-x="21.119185"
       inkscape:transform-center-y="26.007489" />
    <path
       id="path4257-0"
       style="fill:url(#linearGradient14432);fill-opacity:1;stroke-width:0.312327"
       d="m 42.708806,90.045946 c 13.65641,19.882304 41.756278,24.277934 28.605334,32.102864 0,0 -29.012906,2.36147 -43.503867,-17.81879 -10.582181,-14.736876 -6.100949,-29.92634 1.703209,-41.044627 7.113085,-10.133729 4.669505,14.347868 13.195324,26.760553 z"
       sodipodi:nodetypes="sssss" />
    <rect
       style="fill:url(#linearGradient30042);fill-opacity:1;stroke-width:0.454314"
       id="rect11065-9"
       width="8.7783976"
       height="3.4066758"
       x="210.54619"
       y="-82.047279"
       transform="matrix(1.1772455e-4,0.99999999,-0.99312594,0.11705067,0,0)" />
    <rect
       style="fill:#0000aa;stroke-width:0.25218"
       id="rect11065-3"
       width="1.0468246"
       height="8.8019314"
       x="129.81221"
       y="207.00487"
       transform="matrix(0.80157379,-0.59789586,0.28865929,0.95743188,0,0)" />
    <path
       id="rect17082"
       style="fill:#00aa00;stroke-width:0.147492"
       d="m 27.784072,132.23553 c 7.928405,-6.84068 15.422412,-15.16584 29.412403,-1.29317 3.271065,16.05268 2.762137,29.9841 -1.340746,41.8987 -8.838687,3.5037 -17.322654,4.42442 -25.641589,0.51726 -6.346876,-12.83122 -4.634487,-26.93806 -2.430068,-41.12279 z"
       sodipodi:nodetypes="ccccc" />
    <rect
       style="fill:#00aa00;stroke-width:0.368834"
       id="rect17663"
       width="2.2920666"
       height="10.199855"
       x="44.492115"
       y="121.79089"
       ry="3.3260343"
       rx="3.3260345" />
    <path
       id="rect17811"
       style="fill:#0b280b;stroke-width:0.0561649"
       d="m 27.457361,141.00616 c 0.887341,-6.92358 1.661918,-7.21802 2.308684,0 0.03882,0.43247 0.203583,6.51056 0.203583,7.4419 0,0.93134 -0.166109,-3.59833 -0.203583,-4.07966 -0.862918,-11.08824 -1.591926,-6.69019 -2.308684,0 -0.04003,0.37403 -0.259428,5.19388 -0.259428,4.26254 0,-0.93134 0.218345,-7.30423 0.259428,-7.62478 z"
       sodipodi:nodetypes="sssssss" />
    <path
       id="rect17813"
       style="fill:#002b00;stroke-width:0.117925"
       d="m 25.975852,158.55622 c 1.91923,-0.15768 3.838459,-1.6567 5.757699,0 0.05297,0.0456 0.09607,0.40243 0.09607,0.90232 0,0.49989 -0.0431,0.95255 -0.09607,0.90231 -1.91924,-1.823 -3.838469,-0.13787 -5.757699,0 -0.05319,0.004 -0.09596,-0.40242 -0.09596,-0.90231 0,-0.49989 0.04277,-0.89796 0.09596,-0.90232 z"
       sodipodi:nodetypes="sssssss" />
    <path
       id="rect19198"
       style="fill:#217821;stroke-width:0.190509"
       d="m 40.862278,132.01845 -0.545945,33.33461 c -6.03e-4,0.0371 -0.106272,0.0324 -0.135916,0.0665 -0.541656,0.62118 1.975052,11.047 -2.209047,-0.009 -0.01371,-0.0364 -0.116592,-0.0314 -0.133711,-0.0676 -4.80631,-10.1427 -3.546985,-21.46348 0.545922,-33.33461 0.0125,-0.0366 0.11691,-0.0306 0.135927,-0.0665 3.858123,-7.2919 3.299654,-4.26325 2.209036,0.009 -0.0088,0.0368 0.134326,0.0305 0.133734,0.0676 z"
       sodipodi:nodetypes="sssssssss" />
    <path
       id="rect19198-2"
       style="fill:#217821;stroke-width:0.176998"
       d="m 52.764823,133.28016 0.471239,33.33461 c 5.29e-4,0.0371 0.09171,0.0324 0.117329,0.0665 0.467545,0.62118 -1.974528,2.12413 1.906843,-0.009 0.03447,-0.019 2.123056,0.0979 2.137827,0.0617 4.14881,-10.1427 3.331412,-23.9205 -0.201586,-35.79163 0,0 -2.099207,-0.58884 -2.139731,-0.58377 -3.734811,0.46711 -3.117932,-1.41828 -2.176498,2.85397 0.0072,0.0368 -0.115962,0.0305 -0.115423,0.0676 z"
       sodipodi:nodetypes="sssssssss" />
    <path
       id="rect1430"
       style="fill:#28170b;stroke-width:0.147509"
       d="m 165.15935,43.362357 7.76212,-2.596154 6.77446,1.70122 c -6.87552,1.179764 -13.74088,2.027531 -20.7503,7.579677 -0.17267,-1.886953 6.10135,-5.256019 6.21372,-6.684743 z"
       sodipodi:nodetypes="ccccc"
       inkscape:transform-center-x="2.9479015"
       inkscape:transform-center-y="2.5526529" />
    <path
       id="path2169-5-4-0"
       style="fill:#ffccaa;stroke-width:0.456428"
       d="m 167.03245,53.754987 c -0.79423,3.16755 3.9346,5.70867 8.29129,5.70867 4.35668,0 8.08759,-3.84533 7.88849,-6.09243 -0.24502,-2.76539 -3.39751,-5.9965 -7.88849,-6.09245 -4.35622,-0.093 -7.35141,2.72769 -8.29129,6.47621 z"
       sodipodi:nodetypes="sssss" />
    <path
       id="path3219-1"
       style="fill:#241c1c;stroke-width:0.479567"
       d="m 187.04244,84.104272 c 0.0579,0.58022 -0.15612,0.496271 -3.88949,0.839502 -3.73352,0.343246 -2.74783,0.260662 -2.80591,-0.320323 -0.0579,-0.580229 -0.60602,-0.618974 3.12752,-0.962222 3.73357,-0.343248 3.50991,-0.137161 3.56788,0.443043 z"
       sodipodi:nodetypes="sssss" />
    <ellipse
       style="fill:#28170b;stroke-width:0.285997"
       id="path2169"
       ry="3.7418122"
       rx="5.0429506"
       cy="53.552982"
       cx="176.86452" />
    <ellipse
       style="fill:#000000;fill-opacity:0.998403;stroke-width:0.433747"
       id="path31470"
       cx="185.57001"
       cy="69.829468"
       rx="0.25621876"
       ry="1.0972906" />
    <ellipse
       style="fill:#004455;stroke-width:0.0822221"
       id="path9819-9"
       cx="157.64409"
       cy="134.60098"
       rx="1.7227132"
       ry="5.1560364" />
  </g>
</svg>
