<?xml version="1.0" encoding="UTF-8" standalone="no"?>
<!-- Created with Inkscape (http://www.inkscape.org/) -->

<svg
   width="194mm"
   height="215mm"
   viewBox="0 0 194 215"
   version="1.1"
   id="svg5"
   inkscape:version="1.1 (c68e22c387, 2021-05-23)"
   sodipodi:docname="gut jump_punch.svg"
   inkscape:export-filename="C:\Users\basti\OneDrive\Bureau\Gus veut boire un coup\Gus\gus_fight\gus_jp4.png"
   inkscape:export-xdpi="5.9319429"
   inkscape:export-ydpi="5.9319429"
   xmlns:inkscape="http://www.inkscape.org/namespaces/inkscape"
   xmlns:sodipodi="http://sodipodi.sourceforge.net/DTD/sodipodi-0.dtd"
   xmlns:xlink="http://www.w3.org/1999/xlink"
   xmlns="http://www.w3.org/2000/svg"
   xmlns:svg="http://www.w3.org/2000/svg">
  <sodipodi:namedview
     id="namedview7"
     pagecolor="#ffffff"
     bordercolor="#666666"
     borderopacity="1.0"
     inkscape:pageshadow="2"
     inkscape:pageopacity="0.0"
     inkscape:pagecheckerboard="0"
     inkscape:document-units="mm"
     showgrid="false"
     inkscape:zoom="0.25575084"
     inkscape:cx="508.30723"
     inkscape:cy="580.64325"
     inkscape:window-width="1920"
     inkscape:window-height="1001"
     inkscape:window-x="-9"
     inkscape:window-y="-9"
     inkscape:window-maximized="1"
     inkscape:current-layer="layer1"
     height="296mm"
     width="209mm" />
  <defs
     id="defs2">
    <linearGradient
       inkscape:collect="always"
       id="linearGradient30040">
      <stop
         style="stop-color:#1c1f24;stop-opacity:1;"
         offset="0"
         id="stop30036" />
      <stop
         style="stop-color:#1c1f24;stop-opacity:0;"
         offset="1"
         id="stop30038" />
    </linearGradient>
    <linearGradient
       inkscape:collect="always"
       id="linearGradient29840">
      <stop
         style="stop-color:#535d6c;stop-opacity:1;"
         offset="0"
         id="stop29836" />
      <stop
         style="stop-color:#535d6c;stop-opacity:0;"
         offset="1"
         id="stop29838" />
    </linearGradient>
    <linearGradient
       inkscape:collect="always"
       id="linearGradient5194">
      <stop
         style="stop-color:#800000;stop-opacity:1;"
         offset="0"
         id="stop5190" />
      <stop
         style="stop-color:#800000;stop-opacity:0;"
         offset="1"
         id="stop5192" />
    </linearGradient>
    <linearGradient
       inkscape:collect="always"
       xlink:href="#linearGradient5194"
       id="linearGradient7905"
       gradientUnits="userSpaceOnUse"
       gradientTransform="matrix(0.73841256,0.14169097,-0.21338081,1.4006094,81.06709,-9.2918857)"
       x1="51.572659"
       y1="126.18843"
       x2="51.572659"
       y2="126.18843" />
    <linearGradient
       inkscape:collect="always"
       xlink:href="#linearGradient5194"
       id="linearGradient14432"
       gradientUnits="userSpaceOnUse"
       gradientTransform="matrix(1.0212644,-0.69985867,1.1058599,0.60661392,-123.73834,81.543202)"
       x1="51.572659"
       y1="126.18843"
       x2="51.572659"
       y2="126.18843" />
    <linearGradient
       inkscape:collect="always"
       xlink:href="#linearGradient5194"
       id="linearGradient27326"
       gradientUnits="userSpaceOnUse"
       gradientTransform="matrix(0.16920844,0.10335875,-0.04889656,1.0216973,122.14732,39.109826)"
       x1="51.572659"
       y1="126.18843"
       x2="51.572659"
       y2="126.18843" />
    <linearGradient
       inkscape:collect="always"
       xlink:href="#linearGradient29840"
       id="linearGradient29842"
       x1="-227.65132"
       y1="-227.23926"
       x2="-227.67598"
       y2="-223.42758"
       gradientUnits="userSpaceOnUse"
       gradientTransform="matrix(-0.99983107,0.01837916,0.35337912,-0.9354802,4.4833333e-6,2.8587372e-7)" />
    <linearGradient
       inkscape:collect="always"
       xlink:href="#linearGradient30040"
       id="linearGradient30042"
       x1="213.05557"
       y1="-59.214508"
       x2="213.22256"
       y2="-61.33345"
       gradientUnits="userSpaceOnUse"
       gradientTransform="matrix(1.0008771,-0.00742098,0.00742098,0.9990686,-1.3263807e-7,4.7654829e-7)" />
    <linearGradient
       inkscape:collect="always"
       xlink:href="#linearGradient29840"
       id="linearGradient29842-7"
       x1="-227.65132"
       y1="-227.23926"
       x2="-227.67598"
       y2="-223.42758"
       gradientUnits="userSpaceOnUse"
       gradientTransform="matrix(-0.99983107,0.01837916,0.35337912,-0.9354802,4.4840342e-6,2.8587372e-7)" />
    <linearGradient
       inkscape:collect="always"
       xlink:href="#linearGradient30040"
       id="linearGradient30042-2"
       x1="213.05557"
       y1="-59.214508"
       x2="213.22256"
       y2="-61.33345"
       gradientUnits="userSpaceOnUse"
       gradientTransform="matrix(1.0008771,-0.00742098,0.00742098,0.9990686,-1.1326381e-6,-5.2345171e-7)" />
  </defs>
  <g
     inkscape:label="Calque 1"
     inkscape:groupmode="layer"
     id="layer1">
    <path
       id="path11385-7"
       style="fill:#45323f;fill-opacity:1;stroke-width:0.602877"
       d="m 158.72407,196.14764 c 7.18713,10.68654 1.9262,17.7375 -56.0113,16.83267 -58.290771,-0.91034 -52.689529,-0.36352 -52.384625,-12.05511 0.207115,-7.9415 13.311902,-6.64428 51.479025,-6.36313 38.16693,0.28114 52.46098,-5.03993 56.9169,1.58557 z"
       sodipodi:nodetypes="sssss"
       inkscape:export-filename="C:\Users\basti\OneDrive\Bureau\Gus veut boire un coup\Gus\gus_fight\gus_lr1.png"
       inkscape:export-xdpi="5.9230065"
       inkscape:export-ydpi="5.9230065" />
    <path
       id="rect10620-2"
       style="fill:#414477;fill-opacity:1;stroke-width:0.561253"
       d="m 58.305049,187.49206 87.248771,-0.15653 c 0.29717,-0.91027 6.60886,5.92278 5.3421,9.80321 l -83.229104,-0.89036 z"
       sodipodi:nodetypes="ccccc"
       inkscape:export-filename="C:\Users\basti\OneDrive\Bureau\Gus veut boire un coup\Gus\gus_fight\gus_lr1.png"
       inkscape:export-xdpi="5.9230065"
       inkscape:export-ydpi="5.9230065" />
    <path
       id="rect20539-9-5-5"
       style="fill:url(#linearGradient29842-7);fill-opacity:1;stroke-width:0.184944"
       inkscape:transform-center-x="-4.0977198"
       inkscape:transform-center-y="-4.3642841"
       d="m 158.06831,208.70258 c -4.81085,0.61252 -17.76046,0.44115 -30.07187,0.33122 -0.0284,-3.2e-4 -0.004,-0.0467 -0.0328,-0.0472 -16.53097,-0.43902 -80.69983,1.28953 1.40474,-3.63747 0.0282,-6.7e-4 0.0413,-0.0481 0.0698,-0.0484 10.02449,-0.11783 20.22691,-2.19322 30.07187,-0.33123 0.0279,0.005 -2.5438,-3.7752 -2.52105,-3.75814 1.17218,0.88035 6.26777,5.28891 1.14911,7.44295 -0.026,0.0115 -0.0417,0.0449 -0.0697,0.0484 z"
       sodipodi:nodetypes="ssssssssss"
       inkscape:export-filename="C:\Users\basti\OneDrive\Bureau\Gus veut boire un coup\Gus\gus_fight\gus_lr1.png"
       inkscape:export-xdpi="5.9230065"
       inkscape:export-ydpi="5.9230065" />
    <rect
       style="fill:url(#linearGradient30042-2);fill-opacity:1;stroke-width:0.45445"
       id="rect11065-9-7"
       width="8.7783976"
       height="3.2693968"
       x="208.1913"
       y="-72.710091"
       transform="matrix(-0.00725277,0.9999737,-0.99340577,0.11465154,0,0)"
       inkscape:export-filename="C:\Users\basti\OneDrive\Bureau\Gus veut boire un coup\Gus\gus_fight\gus_lr1.png"
       inkscape:export-xdpi="5.9230065"
       inkscape:export-ydpi="5.9230065" />
    <path
       id="path11385"
       style="fill:#373748;stroke-width:0.602877"
       d="m 155.1096,204.47647 c 7.18713,10.68653 -2.11711,10.06258 -60.05486,9.15774 -58.290595,-0.91034 -51.844889,-9.66837 -51.539985,-21.35995 0.207108,-7.94151 12.268682,-4.03519 50.634391,2.9417 37.552384,6.82897 56.504544,2.635 60.960454,9.26051 z"
       sodipodi:nodetypes="sssss"
       inkscape:export-filename="C:\Users\basti\OneDrive\Bureau\Gus veut boire un coup\Gus\gus_fight\gus_lr1.png"
       inkscape:export-xdpi="5.9230065"
       inkscape:export-ydpi="5.9230065" />
    <path
       id="rect10620"
       style="fill:#0044aa;stroke-width:0.561253"
       d="m 35.282642,175.86158 100.506678,12.20897 c 0.29717,-0.91025 -18.80122,5.8416 -20.06799,9.72208 l -69.71919,-8.6339 z"
       sodipodi:nodetypes="ccccc"
       inkscape:export-filename="C:\Users\basti\OneDrive\Bureau\Gus veut boire un coup\Gus\gus_fight\gus_lr1.png"
       inkscape:export-xdpi="5.9230065"
       inkscape:export-ydpi="5.9230065" />
    <path
       id="rect8523"
       style="fill:#d40000;stroke-width:0.391005"
       d="m 42.475784,102.58879 c 42.6085,-8.659698 64.069466,15.95996 101.424246,16.33908 20.53732,26.29956 10.27528,44.92022 1.65379,68.40766 -36.88919,3.83147 -73.547079,-7.39983 -110.271178,-11.47395 -7.505323,-25.01259 6.549301,-48.32022 7.193142,-73.27279 z"
       sodipodi:nodetypes="ccccc"
       inkscape:export-filename="C:\Users\basti\OneDrive\Bureau\Gus veut boire un coup\Gus\gus_fight\gus_lr1.png"
       inkscape:export-xdpi="5.9230065"
       inkscape:export-ydpi="5.9230065" />
    <path
       id="rect10620-1"
       style="fill:#00446c;fill-opacity:0.998403;stroke-width:0.198579"
       d="m 55.783437,188.23907 90.967713,3.23271 -3.53896,1.42786 -82.818578,-2.94312 z"
       sodipodi:nodetypes="ccccc"
       inkscape:export-filename="C:\Users\basti\OneDrive\Bureau\Gus veut boire un coup\Gus\gus_fight\gus_lr1.png"
       inkscape:export-xdpi="5.9230065"
       inkscape:export-ydpi="5.9230065" />
    <ellipse
       style="fill:#c87137;stroke-width:0.148273"
       id="path9819-9-5"
       cx="132.16312"
       cy="163.05093"
       rx="5.6022215"
       ry="5.1560364"
       inkscape:export-filename="C:\Users\basti\OneDrive\Bureau\Gus veut boire un coup\Gus\gus_fight\gus_lr1.png"
       inkscape:export-xdpi="5.9230065"
       inkscape:export-ydpi="5.9230065"
       transform="rotate(0.42202551)" />
    <rect
       style="fill:#217821;stroke-width:0.319807"
       id="rect20539-9"
       width="59.05151"
       height="5.6798477"
       x="199.56042"
       y="295.59607"
       ry="0.072818741"
       transform="matrix(-0.99445798,0.1051348,0.95143811,0.30784009,0,0)"
       inkscape:transform-center-x="-10.259061"
       inkscape:transform-center-y="0.68540234"
       rx="0.072818741"
       inkscape:export-filename="C:\Users\basti\OneDrive\Bureau\Gus veut boire un coup\Gus\gus_fight\gus_lr1.png"
       inkscape:export-xdpi="5.9230065"
       inkscape:export-ydpi="5.9230065" />
    <rect
       style="fill:#217821;stroke-width:0.275565"
       id="rect20539-9-6"
       width="30.301662"
       height="3.9757664"
       x="-281.90384"
       y="-266.65866"
       ry="0.064277701"
       transform="matrix(-0.99446107,0.10510555,0.76568674,-0.64321366,0,0)"
       inkscape:transform-center-x="-5.471208"
       inkscape:transform-center-y="-2.2839425"
       rx="0.069366395"
       inkscape:export-filename="C:\Users\basti\OneDrive\Bureau\Gus veut boire un coup\Gus\gus_fight\gus_lr1.png"
       inkscape:export-xdpi="5.9230065"
       inkscape:export-ydpi="5.9230065" />
    <path
       id="rect20539-9-5"
       style="fill:url(#linearGradient29842);fill-opacity:1;stroke-width:0.184944"
       inkscape:transform-center-x="-4.2458543"
       inkscape:transform-center-y="-2.7856112"
       d="m 150.41052,209.35647 c -4.81083,0.61253 -17.7604,0.44114 -30.0719,0.33123 -0.0284,-3.1e-4 -0.005,-0.0465 -0.0328,-0.0472 -16.53115,-0.439 -80.69987,1.28953 1.40477,-3.63747 0.0282,-6.6e-4 0.0414,-0.048 0.0698,-0.0484 10.02457,-0.11785 20.22694,-2.19322 30.07189,-0.33123 0.0279,0.005 0.0104,0.0302 0.0328,0.0473 1.17219,0.88036 3.7139,1.48345 -1.40476,3.63748 -0.026,0.0115 -0.0417,0.0449 -0.0697,0.0484 z"
       sodipodi:nodetypes="sssssssss"
       inkscape:export-filename="C:\Users\basti\OneDrive\Bureau\Gus veut boire un coup\Gus\gus_fight\gus_lr1.png"
       inkscape:export-xdpi="5.9230065"
       inkscape:export-ydpi="5.9230065" />
    <path
       id="path31-6"
       style="fill:#d38d5f;fill-rule:evenodd;stroke-width:0.357437"
       d="M 113.64586,71.901964 C 85.791256,124.17358 65.85247,73.595599 94.988149,107.99017 122.62484,140.61507 159.69759,134.12133 167.92839,120.21574 197.82348,69.709156 185.9049,36.826382 152.08903,18.141618 118.273,-0.5431981 134.85991,32.091856 113.64586,71.901964 Z"
       sodipodi:nodetypes="sssss"
       inkscape:export-filename="C:\Users\basti\OneDrive\Bureau\Gus veut boire un coup\Gus\gus_fight\gus_lr1.png"
       inkscape:export-xdpi="5.9230065"
       inkscape:export-ydpi="5.9230065" />
    <path
       id="path32024"
       style="fill-opacity:0.998403;stroke-width:0.264583"
       d="m 172.9396,40.654711 c -6.67455,2.883679 -31.99868,-10.083973 -35.65476,1.64028 -29.30832,93.985069 -18.52249,-16.98781 -14.05688,-25.347184 4.19462,-7.8521035 19.5709,-7.6021459 34.09646,0.423861 14.5255,8.025979 23.78735,19.752336 15.61518,23.283043 z"
       sodipodi:nodetypes="sssss"
       inkscape:export-filename="C:\Users\basti\OneDrive\Bureau\Gus veut boire un coup\Gus\gus_fight\gus_lr1.png"
       inkscape:export-xdpi="5.9230065"
       inkscape:export-ydpi="5.9230065" />
    <path
       id="path31"
       style="fill:#d40000;fill-rule:evenodd;stroke-width:0.398876"
       d="M 122.3685,70.114717 C 100.02431,124.97261 201.75225,163.42715 91.021743,115.96875 36.443837,92.57696 18.527631,114.24053 26.428174,50.322559 31.96345,5.5404044 92.196868,-11.868253 137.09025,5.4344588 181.98337,22.737147 139.3858,28.334954 122.3685,70.114717 Z"
       sodipodi:nodetypes="sssss"
       inkscape:export-filename="C:\Users\basti\OneDrive\Bureau\Gus veut boire un coup\Gus\gus_fight\gus_lr1.png"
       inkscape:export-xdpi="5.9230065"
       inkscape:export-ydpi="5.9230065" />
    <path
       id="path4257-0-5"
       style="fill:url(#linearGradient7905);fill-opacity:1;stroke-width:0.272979"
       d="m 77.054359,132.73024 c 1.817485,7.16424 32.488171,48.15321 31.578181,49.90443 -3.05122,5.8718 -32.993797,-33.22087 -32.249609,-51.68316 0.168513,-4.18061 -6.170702,-25.19194 0.353904,0.5271 z"
       sodipodi:nodetypes="sssss"
       inkscape:export-filename="C:\Users\basti\OneDrive\Bureau\Gus veut boire un coup\Gus\gus_fight\gus_lr1.png"
       inkscape:export-xdpi="5.9230065"
       inkscape:export-ydpi="5.9230065" />
    <ellipse
       style="fill:#c87137;stroke-width:0.381028"
       id="path9819-5"
       cx="125.58966"
       cy="179.55272"
       rx="13.358972"
       ry="14.278785"
       inkscape:export-filename="C:\Users\basti\OneDrive\Bureau\Gus veut boire un coup\Gus\gus_fight\gus_lr1.png"
       inkscape:export-xdpi="5.9230065"
       inkscape:export-ydpi="5.9230065"
       transform="rotate(0.42202551)" />
    <path
       id="path4257-0-5-7"
       style="fill:url(#linearGradient27326);fill-opacity:1;stroke-width:0.111607"
       d="m 122.10609,152.49608 c 1.22065,10.36276 5.0126,4.76684 5.22469,10.26044 0.17227,4.46166 -15.95202,-6.68688 -19.65857,-24.31055 -1.9546,-9.29357 10.14974,-22.32054 10.65675,-18.01616 z"
       sodipodi:nodetypes="sssss"
       inkscape:export-filename="C:\Users\basti\OneDrive\Bureau\Gus veut boire un coup\Gus\gus_fight\gus_lr1.png"
       inkscape:export-xdpi="5.9230065"
       inkscape:export-ydpi="5.9230065" />
    <path
       id="path4257-0"
       style="fill:url(#linearGradient14432);fill-opacity:1;stroke-width:0.312327"
       d="m 50.510235,74.411662 c 16.741007,16.929555 44.03125,15.957695 33.196008,26.102968 0,0 -26.824668,7.76955 -44.40897,-9.295294 C 26.45611,78.757528 27.693876,63.020259 32.854829,50.650574 37.558788,39.376257 40.058678,63.8424 50.510235,74.411662 Z"
       sodipodi:nodetypes="sssss"
       inkscape:export-filename="C:\Users\basti\OneDrive\Bureau\Gus veut boire un coup\Gus\gus_fight\gus_lr1.png"
       inkscape:export-xdpi="5.9230065"
       inkscape:export-ydpi="5.9230065" />
    <rect
       style="fill:url(#linearGradient30042);fill-opacity:1;stroke-width:0.45445"
       id="rect11065-9"
       width="8.7783976"
       height="3.2693968"
       x="200.93629"
       y="-53.223782"
       transform="matrix(-0.00725277,0.9999737,-0.99340577,0.11465154,0,0)"
       inkscape:export-filename="C:\Users\basti\OneDrive\Bureau\Gus veut boire un coup\Gus\gus_fight\gus_lr1.png"
       inkscape:export-xdpi="5.9230065"
       inkscape:export-ydpi="5.9230065" />
    <path
       id="rect17082"
       style="fill:#00aa00;stroke-width:0.147492"
       d="m 19.110704,117.17322 c 7.654585,-6.78448 14.903444,-15.05647 28.219133,-1.08533 3.019057,16.07536 2.428326,30.00281 -1.594518,41.8881 -8.503047,3.44116 -16.646844,4.30191 -24.596792,0.33609 -5.992816,-12.8757 -4.246538,-26.97005 -2.027823,-41.13886 z"
       sodipodi:nodetypes="ccccc"
       inkscape:export-filename="C:\Users\basti\OneDrive\Bureau\Gus veut boire un coup\Gus\gus_fight\gus_lr1.png"
       inkscape:export-xdpi="5.9230065"
       inkscape:export-ydpi="5.9230065" />
    <rect
       style="fill:#00aa00;stroke-width:0.368834"
       id="rect17663"
       width="2.1983922"
       height="10.199855"
       x="35.998928"
       y="106.58476"
       ry="3.3260343"
       rx="3.3260343"
       inkscape:export-filename="C:\Users\basti\OneDrive\Bureau\Gus veut boire un coup\Gus\gus_fight\gus_lr1.png"
       inkscape:export-xdpi="5.9230065"
       inkscape:export-ydpi="5.9230065"
       transform="rotate(0.42202551)" />
    <path
       id="rect17811"
       style="fill:#0b280b;stroke-width:0.0561649"
       d="m 18.732769,125.94134 c 0.902037,-6.91716 1.647106,-7.20612 2.214282,0.0163 0.03402,0.43273 0.147289,6.51182 0.140425,7.44313 -0.0069,0.93131 -0.132803,-3.59938 -0.165188,-4.08097 -0.745976,-11.09408 -1.47757,-6.70128 -2.214283,-0.0163 -0.04115,0.37375 -0.287075,5.19189 -0.280212,4.26059 0.0069,-0.93131 0.263205,-7.30249 0.304976,-7.62274 z"
       sodipodi:nodetypes="sssssss"
       inkscape:export-filename="C:\Users\basti\OneDrive\Bureau\Gus veut boire un coup\Gus\gus_fight\gus_lr1.png"
       inkscape:export-xdpi="5.9230065"
       inkscape:export-ydpi="5.9230065" />
    <path
       id="rect17813"
       style="fill:#002b00;stroke-width:0.117925"
       d="m 17.182574,143.48044 c 1.841902,-0.14411 3.693694,-1.62954 5.522242,0.0407 0.05048,0.046 0.08903,0.4031 0.08535,0.90297 -0.0037,0.49988 -0.04831,0.95222 -0.09864,0.90161 -1.827323,-1.83651 -3.680487,-0.16499 -5.522242,-0.0407 -0.05115,0.003 -0.08903,-0.40308 -0.08535,-0.90296 0.0037,-0.49987 0.04771,-0.89764 0.09865,-0.90162 z"
       sodipodi:nodetypes="sssssss"
       inkscape:export-filename="C:\Users\basti\OneDrive\Bureau\Gus veut boire un coup\Gus\gus_fight\gus_lr1.png"
       inkscape:export-xdpi="5.9230065"
       inkscape:export-ydpi="5.9230065" />
    <path
       id="rect19198"
       style="fill:#217821;stroke-width:0.190509"
       d="m 31.655688,117.04854 -0.769133,33.32987 c -8.9e-4,0.0371 -0.102042,0.032 -0.130867,0.0655 -0.524081,0.61734 1.812922,11.06065 -2.118635,-0.0246 -0.01296,-0.0365 -0.11162,-0.0323 -0.127752,-0.0685 -4.535042,-10.17639 -3.24383,-21.48794 0.769144,-33.32988 0.01236,-0.0365 0.112338,-0.0298 0.130846,-0.0655 3.754061,-7.26445 3.196127,-4.23982 2.118635,0.0246 -0.0093,0.0367 0.128617,0.0315 0.127752,0.0685 z"
       sodipodi:nodetypes="sssssssss"
       inkscape:export-filename="C:\Users\basti\OneDrive\Bureau\Gus veut boire un coup\Gus\gus_fight\gus_lr1.png"
       inkscape:export-xdpi="5.9230065"
       inkscape:export-ydpi="5.9230065" />
    <path
       id="rect19198-2"
       style="fill:#217821;stroke-width:0.176999"
       d="m 40.298342,122.63146 0.206438,33.33702 c 2.49e-4,0.0371 0.08767,0.0331 0.112052,0.0674 0.443863,0.62447 -1.909426,2.11012 1.828924,0.004 0.03321,-0.0189 2.035516,0.11289 2.049952,0.0768 4.05384,-10.11311 3.371366,-23.8963 0.07029,-35.79206 0,0 -2.009021,-0.60367 -2.047926,-0.59888 -3.585525,0.44071 -2.979975,-1.44028 -2.108514,2.83853 0.0068,0.0368 -0.111331,0.0301 -0.111201,0.0668 z"
       sodipodi:nodetypes="sssssssss"
       inkscape:export-filename="C:\Users\basti\OneDrive\Bureau\Gus veut boire un coup\Gus\gus_fight\gus_lr1.png"
       inkscape:export-xdpi="5.9230065"
       inkscape:export-ydpi="5.9230065" />
    <path
       id="rect1430"
       style="fill:#28170b;stroke-width:0.147509"
       d="m 176.27727,66.331532 5.89877,5.231716 1.68546,6.501712 c -4.24752,-5.180574 -8.20047,-10.514633 -16.3272,-13.673835 1.56627,-1.065292 7.44325,2.543452 8.74297,1.940407 z"
       sodipodi:nodetypes="ccccc"
       inkscape:transform-center-x="4.349422"
       inkscape:transform-center-y="-0.90495523"
       inkscape:export-filename="C:\Users\basti\OneDrive\Bureau\Gus veut boire un coup\Gus\gus_fight\gus_lr1.png"
       inkscape:export-xdpi="5.9230065"
       inkscape:export-ydpi="5.9230065" />
    <path
       id="path2169-5-4-0"
       style="fill:#ffccaa;stroke-width:0.456428"
       d="m 168.08558,80.380802 c -2.19869,2.404058 0.54223,6.821758 4.19968,8.84267 3.65745,2.020899 8.64926,0.385806 9.56887,-1.673374 1.13174,-2.534122 0.0483,-6.824556 -3.67592,-8.991741 -3.61207,-2.102081 -7.49071,-1.022559 -10.09263,1.822445 z"
       sodipodi:nodetypes="sssss"
       inkscape:export-filename="C:\Users\basti\OneDrive\Bureau\Gus veut boire un coup\Gus\gus_fight\gus_lr1.png"
       inkscape:export-xdpi="5.9230065"
       inkscape:export-ydpi="5.9230065" />
    <path
       id="path3219-1"
       style="fill:#241c1c;stroke-width:0.479567"
       d="m 170.20625,116.2266 c -0.23201,0.53473 1.13595,0.47177 -2.16421,-0.95958 -3.30031,-1.43142 -6.02388,-0.74071 -5.79166,-1.27617 0.23199,-0.53473 1.8746,-1.23844 5.1749,0.19297 3.30035,1.43141 3.01291,1.50805 2.78097,2.04278 z"
       sodipodi:nodetypes="sssss"
       inkscape:export-filename="C:\Users\basti\OneDrive\Bureau\Gus veut boire un coup\Gus\gus_fight\gus_lr1.png"
       inkscape:export-xdpi="5.9230065"
       inkscape:export-ydpi="5.9230065" />
    <ellipse
       style="fill:#28170b;stroke-width:0.285998"
       id="path2169"
       ry="3.7418122"
       rx="4.8368506"
       cy="-10.041719"
       cx="196.64314"
       inkscape:export-filename="C:\Users\basti\OneDrive\Bureau\Gus veut boire un coup\Gus\gus_fight\gus_lr1.png"
       inkscape:export-xdpi="5.9230065"
       inkscape:export-ydpi="5.9230065"
       transform="rotate(28.922607)" />
    <ellipse
       style="fill:#000000;fill-opacity:0.998403;stroke-width:0.433747"
       id="path31470"
       cx="203.77527"
       cy="5.1390495"
       rx="0.24574739"
       ry="1.0972906"
       inkscape:export-filename="C:\Users\basti\OneDrive\Bureau\Gus veut boire un coup\Gus\gus_fight\gus_lr1.png"
       inkscape:export-xdpi="5.9230065"
       inkscape:export-ydpi="5.9230065"
       transform="rotate(28.922607)" />
  </g>
</svg>
