<?xml version="1.0" encoding="UTF-8" standalone="no"?>
<!-- Created with Inkscape (http://www.inkscape.org/) -->

<svg
   width="135mm"
   height="228mm"
   viewBox="0 0 135 228"
   version="1.1"
   id="svg5"
   inkscape:version="1.1 (c68e22c387, 2021-05-23)"
   sodipodi:docname="hook_droite1.svg"
   inkscape:export-filename="C:\Users\basti\OneDrive\Bureau\Gus veut boire un coup\bank\pnj\hooker\hooker_r1.png"
   inkscape:export-xdpi="8.2899265"
   inkscape:export-ydpi="8.2899265"
   xmlns:inkscape="http://www.inkscape.org/namespaces/inkscape"
   xmlns:sodipodi="http://sodipodi.sourceforge.net/DTD/sodipodi-0.dtd"
   xmlns="http://www.w3.org/2000/svg"
   xmlns:svg="http://www.w3.org/2000/svg">
  <sodipodi:namedview
     id="namedview7"
     pagecolor="#ffffff"
     bordercolor="#666666"
     borderopacity="1.0"
     inkscape:pageshadow="2"
     inkscape:pageopacity="0.0"
     inkscape:pagecheckerboard="0"
     inkscape:document-units="mm"
     showgrid="false"
     inkscape:zoom="0.5115017"
     inkscape:cx="253.17609"
     inkscape:cy="196.48029"
     inkscape:window-width="1920"
     inkscape:window-height="1001"
     inkscape:window-x="-9"
     inkscape:window-y="-9"
     inkscape:window-maximized="1"
     inkscape:current-layer="layer1"
     height="296mm" />
  <defs
     id="defs2" />
  <g
     inkscape:label="Calque 1"
     inkscape:groupmode="layer"
     id="layer1">
    <path
       id="path3563"
       style="fill:#ffccaa;stroke-width:0.264583"
       d="m 42.934095,192.16094 c -1.410496,9.36341 0.96515,17.66576 7.095064,22.34668 4.713755,3.59952 8.118057,-2.4745 13.460838,-13.00933 5.342778,-10.53482 -4.162387,-28.76941 -10.982614,-32.3696 -10.80924,-5.70589 -7.082636,6.49839 -9.573288,23.03225 z"
       sodipodi:nodetypes="sssss"
       inkscape:export-filename="C:\Users\basti\OneDrive\Bureau\Gus veut boire un coup\bank\pnj\hooker\hooker_r1.png"
       inkscape:export-xdpi="8.2899275"
       inkscape:export-ydpi="8.2899275" />
    <path
       id="rect3235"
       style="fill:#ff5555;stroke-width:0.264583"
       d="m 77.538369,162.668 -55.932954,0.22842 c 2.771419,6.23011 10.89362,14.34114 5.469104,20.0578 l 54.228568,-3.38286 z"
       sodipodi:nodetypes="ccccc"
       inkscape:export-filename="C:\Users\basti\OneDrive\Bureau\Gus veut boire un coup\bank\pnj\hooker\hooker_r1.png"
       inkscape:export-xdpi="8.2899275"
       inkscape:export-ydpi="8.2899275" />
    <path
       id="rect5919"
       style="fill:#ff2a2a;stroke-width:0.264583"
       d="m 38.815562,165.52329 -16.672317,1.14212 c 6.77575,0.46444 2.038235,9.86579 5.588802,15.41377 1.700401,2.65698 15.553525,-0.36865 22.377668,-0.45201 l 7.260527,-0.79949 c -6.896126,-3.16483 -18.220717,-6.56534 -18.55468,-15.30439 z"
       sodipodi:nodetypes="ccsccc"
       inkscape:export-filename="C:\Users\basti\OneDrive\Bureau\Gus veut boire un coup\bank\pnj\hooker\hooker_r1.png"
       inkscape:export-xdpi="8.2899275"
       inkscape:export-ydpi="8.2899275" />
    <path
       id="path6843"
       style="fill:#d4aa00;stroke-width:0.264583"
       d="m 84.675606,152.12891 c -4.060401,23.63218 -15.96878,9.92986 -26.415772,10.64211 -19.519206,1.33078 -43.792639,17.63513 -41.935829,-14.86459 1.86755,-32.68756 23.144485,-63.504051 42.694242,-64.60321 18.609701,-1.046309 45.791513,18.24706 49.565993,34.89681 2.02283,8.92299 -22.203668,24.00567 -23.908634,33.92888 z"
       sodipodi:nodetypes="ssssss"
       inkscape:export-filename="C:\Users\basti\OneDrive\Bureau\Gus veut boire un coup\bank\pnj\hooker\hooker_r1.png"
       inkscape:export-xdpi="8.2899275"
       inkscape:export-ydpi="8.2899275" />
    <path
       id="path31-6"
       style="fill:#ffccaa;fill-opacity:1;fill-rule:evenodd;stroke-width:0.357437"
       d="m 24.32122,51.616299 c 0.961174,52.305721 -9.378885,25.228522 33.883387,43.861691 9.278574,3.996308 14.177671,-0.301151 19.216106,-0.08908 5.041442,0.212205 10.221021,4.93198 15.511096,2.412548 3.808354,-1.813751 8.271001,-4.664275 13.782821,-6.748072 11.76025,-4.446071 13.2884,-18.292756 15.09191,-27.330631 C 126.78107,38.794019 106.9735,0.05455864 65.25813,1.6319931 27.148423,3.0730824 23.589408,11.792476 24.32122,51.616299 Z"
       sodipodi:nodetypes="ssssssss"
       inkscape:export-filename="C:\Users\basti\OneDrive\Bureau\Gus veut boire un coup\bank\pnj\hooker\hooker_r1.png"
       inkscape:export-xdpi="8.2899275"
       inkscape:export-ydpi="8.2899275" />
    <path
       id="path8548"
       style="fill:#aa8800;stroke-width:0.264583"
       d="m 74.944852,124.16776 c 0,14.09435 10.776365,13.56763 9.100928,13.56767 -1.67543,1e-5 -13.082574,6.826 -13.082574,-7.2684 0,-14.09439 1.737414,-18.73631 3.412843,-18.73631 1.675439,4e-5 0.568803,-1.65732 0.568803,12.43704 z"
       sodipodi:nodetypes="ssscs"
       inkscape:export-filename="C:\Users\basti\OneDrive\Bureau\Gus veut boire un coup\bank\pnj\hooker\hooker_r1.png"
       inkscape:export-xdpi="8.2899275"
       inkscape:export-ydpi="8.2899275" />
    <ellipse
       style="fill:#ffccaa;fill-opacity:1;stroke-width:0.148273"
       id="path9819-9-5"
       cx="42.560684"
       cy="137.70149"
       rx="6.055584"
       ry="4.5537763"
       inkscape:export-filename="C:\Users\basti\OneDrive\Bureau\Gus veut boire un coup\bank\pnj\hooker\hooker_r1.png"
       inkscape:export-xdpi="8.2899275"
       inkscape:export-ydpi="8.2899275" />
    <path
       id="path2169-5-4-0-7"
       style="fill:#87deaa;stroke-width:0.456428"
       d="m 99.225924,44.993888 c -0.163851,2.775958 5.039346,4.760989 10.619316,4.760989 5.57995,0 10.35842,-3.206977 10.10341,-5.081042 -0.3138,-2.306315 -4.35171,-4.988615 -10.10341,-5.081059 -5.61836,-0.0903 -10.415508,1.948176 -10.619316,5.401112 z"
       sodipodi:nodetypes="sssss"
       inkscape:export-filename="C:\Users\basti\OneDrive\Bureau\Gus veut boire un coup\bank\pnj\hooker\hooker_r1.png"
       inkscape:export-xdpi="8.2899275"
       inkscape:export-ydpi="8.2899275" />
    <path
       id="rect1430"
       style="fill:#502d16;stroke-width:0.147508"
       d="m 105.36967,38.381015 7.1997,-1.428972 6.2836,0.936384 c -6.37734,0.649364 -12.74526,1.115991 -19.246791,4.171998 -0.160157,-1.038615 5.659271,-2.893014 5.763491,-3.67941 z"
       sodipodi:nodetypes="ccccc"
       inkscape:transform-center-x="2.7343129"
       inkscape:transform-center-y="1.4050288"
       inkscape:export-filename="C:\Users\basti\OneDrive\Bureau\Gus veut boire un coup\bank\pnj\hooker\hooker_r1.png"
       inkscape:export-xdpi="8.2899275"
       inkscape:export-ydpi="8.2899275" />
    <path
       id="path2169-5-4-0"
       style="fill:#ffe6d5;stroke-width:0.456428"
       d="m 102.97825,47.218733 c -0.82342,2.797559 4.07919,5.041859 8.59599,5.041859 4.51679,0 8.3848,-3.396169 8.17838,-5.380793 -0.25402,-2.442374 -3.52236,-5.296068 -8.17838,-5.38081 -4.51631,-0.08214 -7.62157,2.409077 -8.59599,5.719744 z"
       sodipodi:nodetypes="sssss"
       inkscape:export-filename="C:\Users\basti\OneDrive\Bureau\Gus veut boire un coup\bank\pnj\hooker\hooker_r1.png"
       inkscape:export-xdpi="8.2899275"
       inkscape:export-ydpi="8.2899275" />
    <path
       id="path3219-1"
       style="fill:#a02c2c;stroke-width:0.479567"
       d="m 120.68641,70.016495 c -0.94575,4.261522 -0.0699,3.887944 -3.94701,3.653354 -3.7199,-0.225077 -4.69427,-2.810186 -4.75448,-3.323308 -0.0601,-0.512454 2.92492,-0.432461 4.58353,-0.507192 3.88167,-0.174894 4.22974,-0.326545 4.11796,0.177146 z"
       sodipodi:nodetypes="sssss"
       inkscape:export-filename="C:\Users\basti\OneDrive\Bureau\Gus veut boire un coup\bank\pnj\hooker\hooker_r1.png"
       inkscape:export-xdpi="8.2899275"
       inkscape:export-ydpi="8.2899275" />
    <ellipse
       style="fill:#28170b;stroke-width:0.285997"
       id="path2169"
       ry="3.3047433"
       rx="5.2282753"
       cy="49.073383"
       cx="114.37379"
       inkscape:export-filename="C:\Users\basti\OneDrive\Bureau\Gus veut boire un coup\bank\pnj\hooker\hooker_r1.png"
       inkscape:export-xdpi="8.2899275"
       inkscape:export-ydpi="8.2899275" />
    <ellipse
       style="fill:#000000;fill-opacity:0.998403;stroke-width:0.433746"
       id="path31470"
       cx="120.20932"
       cy="59.913898"
       rx="1.0192808"
       ry="0.96911967"
       inkscape:export-filename="C:\Users\basti\OneDrive\Bureau\Gus veut boire un coup\bank\pnj\hooker\hooker_r1.png"
       inkscape:export-xdpi="8.2899275"
       inkscape:export-ydpi="8.2899275" />
    <ellipse
       style="fill:#ffaaaa;fill-opacity:0.830769;stroke-width:0.264583"
       id="path2420"
       cx="-105.84098"
       cy="61.019466"
       rx="4.7731242"
       ry="3.8832026"
       inkscape:export-filename="C:\Users\basti\OneDrive\Bureau\Gus veut boire un coup\bank\pnj\hooker\hooker_r1.png"
       inkscape:export-xdpi="8.2899275"
       inkscape:export-ydpi="8.2899275"
       transform="scale(-1,1)" />
    <ellipse
       style="fill:#ffccaa;fill-opacity:1;stroke-width:0.265488"
       id="path5733"
       cx="-166.37802"
       cy="174.43901"
       rx="14.739635"
       ry="6.4616685"
       transform="matrix(-0.91843418,-0.39557383,-0.49984025,0.86611762,0,0)"
       inkscape:export-filename="C:\Users\basti\OneDrive\Bureau\Gus veut boire un coup\bank\pnj\hooker\hooker_r1.png"
       inkscape:export-xdpi="8.2899275"
       inkscape:export-ydpi="8.2899275" />
    <path
       id="rect4517"
       style="fill:#ff0000;stroke-width:0.264583"
       d="m 79.605466,220.1701 c -0.846096,2.44049 -20.212937,-6.72654 -36.278492,-13.82455 l 6.296408,10.15399 c 6.191974,-3.4157 8.683545,14.51087 33.292664,10.57032 2.755542,-3.80763 -0.748841,-5.16956 -3.31058,-6.89976 z"
       sodipodi:nodetypes="ccccc"
       inkscape:export-filename="C:\Users\basti\OneDrive\Bureau\Gus veut boire un coup\bank\pnj\hooker\hooker_r1.png"
       inkscape:export-xdpi="8.2899275"
       inkscape:export-ydpi="8.2899275" />
    <path
       id="rect5476"
       style="fill:#ff0000;stroke-width:0.264583"
       d="m 49.623382,216.49954 -6.296408,-10.15399 0.308981,21.72687 3.67608,0.79407 z"
       sodipodi:nodetypes="ccccc"
       inkscape:export-filename="C:\Users\basti\OneDrive\Bureau\Gus veut boire un coup\bank\pnj\hooker\hooker_r1.png"
       inkscape:export-xdpi="8.2899275"
       inkscape:export-ydpi="8.2899275" />
    <rect
       style="fill:#0000ff;fill-opacity:1;stroke-width:0.264583"
       id="rect7328"
       width="44.62315"
       height="15.641202"
       x="5.9825592"
       y="166.48457"
       transform="rotate(-8.4345428)" />
    <rect
       style="fill:#c8ab37;fill-opacity:1;stroke-width:0.264583"
       id="rect7450"
       width="8.8635025"
       height="5.8393822"
       x="31.51223"
       y="168.86716"
       transform="rotate(-6.1747319)" />
    <path
       id="rect7572"
       style="fill:#0000ff;stroke-width:0.264583"
       d="m 38.517082,154.37141 24.791238,-3.67612 1.223594,8.25175 C 55.864675,153.67931 47.358212,151.8681 39.438345,162.668 Z"
       sodipodi:nodetypes="ccccc" />
    <ellipse
       style="fill:#ffccaa;fill-opacity:1;stroke-width:0.381028"
       id="path9819-5"
       cx="42.347961"
       cy="149.77773"
       rx="14.440051"
       ry="12.610926"
       inkscape:export-filename="C:\Users\basti\OneDrive\Bureau\Gus veut boire un coup\bank\pnj\hooker\hooker_r1.png"
       inkscape:export-xdpi="8.2899275"
       inkscape:export-ydpi="8.2899275" />
    <path
       id="path1496"
       style="fill:#241c1c;stroke-width:0.264583"
       d="m 92.022261,57.29197 c 4.231336,6.174926 25.063369,73.52054 11.330259,82.32974 -9.730482,6.24169 -48.863165,5.0126 -60.375332,7.54743 -18.303075,4.03008 -16.359474,-1.70248 -28.184203,1.7714 -4.23593,1.24443 -8.6014401,7.35561 -11.1447801,4.37941 -12.36339,-14.46752 10.6616301,-57.696489 10.6616301,-79.800542 0,-15.589184 -3.70773,-37.627865 2.583,-52.289095 4.46389,-10.403567 17.574524,-16.6395613 28.073818,-18.5811628 7.217315,-1.3346758 28.8164,-4.1565668 43.913438,-1.6404215 14.132099,2.355321 20.087639,7.091033 23.229349,11.8085803 6.68889,10.043939 -25.930567,35.947205 -20.087179,44.474661 z"
       sodipodi:nodetypes="sssssssssss"
       inkscape:export-filename="C:\Users\basti\OneDrive\Bureau\Gus veut boire un coup\bank\pnj\hooker\hooker_r1.png"
       inkscape:export-xdpi="8.2899275"
       inkscape:export-ydpi="8.2899275" />
  </g>
</svg>
