<?xml version="1.0" encoding="UTF-8" standalone="no"?>
<!-- Created with Inkscape (http://www.inkscape.org/) -->

<svg
   width="500"
   height="500"
   viewBox="0 0 132.29166 132.29167"
   version="1.1"
   id="svg9514"
   inkscape:version="1.2 (dc2aedaf03, 2022-05-15)"
   sodipodi:docname="level_fight.svg"
   inkscape:export-filename="C:\Users\basti\OneDrive\Bureau\Gus veut boire un coup\Level\fight_lvl3.jpg"
   inkscape:export-xdpi="95.999992"
   inkscape:export-ydpi="95.999992"
   xmlns:inkscape="http://www.inkscape.org/namespaces/inkscape"
   xmlns:sodipodi="http://sodipodi.sourceforge.net/DTD/sodipodi-0.dtd"
   xmlns:xlink="http://www.w3.org/1999/xlink"
   xmlns="http://www.w3.org/2000/svg"
   xmlns:svg="http://www.w3.org/2000/svg">
  <sodipodi:namedview
     id="namedview9516"
     pagecolor="#ffffff"
     bordercolor="#666666"
     borderopacity="1.0"
     inkscape:pageshadow="2"
     inkscape:pageopacity="0.0"
     inkscape:pagecheckerboard="0"
     inkscape:document-units="mm"
     showgrid="false"
     units="px"
     inkscape:zoom="1.0557596"
     inkscape:cx="246.74177"
     inkscape:cy="407.76327"
     inkscape:window-width="1920"
     inkscape:window-height="1001"
     inkscape:window-x="-9"
     inkscape:window-y="-9"
     inkscape:window-maximized="1"
     inkscape:current-layer="layer1"
     inkscape:showpageshadow="2"
     inkscape:deskcolor="#d1d1d1" />
  <defs
     id="defs9511">
    <linearGradient
       inkscape:collect="always"
       id="linearGradient2125">
      <stop
         style="stop-color:#552200;stop-opacity:1;"
         offset="0"
         id="stop2121" />
      <stop
         style="stop-color:#552200;stop-opacity:0;"
         offset="1"
         id="stop2123" />
    </linearGradient>
    <linearGradient
       inkscape:collect="always"
       id="linearGradient22664">
      <stop
         style="stop-color:#ffffcd;stop-opacity:1;"
         offset="0"
         id="stop22660" />
      <stop
         style="stop-color:#ffffcd;stop-opacity:0;"
         offset="1"
         id="stop22662" />
    </linearGradient>
    <linearGradient
       inkscape:collect="always"
       id="linearGradient22538">
      <stop
         style="stop-color:#ffffcd;stop-opacity:1;"
         offset="0"
         id="stop22534" />
      <stop
         style="stop-color:#ffffcd;stop-opacity:0;"
         offset="1"
         id="stop22536" />
    </linearGradient>
    <linearGradient
       inkscape:collect="always"
       xlink:href="#linearGradient22538"
       id="linearGradient22540"
       x1="52.878593"
       y1="34.960018"
       x2="59.519745"
       y2="34.834713"
       gradientUnits="userSpaceOnUse" />
    <linearGradient
       inkscape:collect="always"
       xlink:href="#linearGradient22664"
       id="linearGradient22666"
       x1="35.461235"
       y1="35.085323"
       x2="34.709408"
       y2="35.085323"
       gradientUnits="userSpaceOnUse" />
    <linearGradient
       inkscape:collect="always"
       xlink:href="#linearGradient2125"
       id="linearGradient2127"
       x1="69.669426"
       y1="132.29167"
       x2="69.418816"
       y2="104.25353"
       gradientUnits="userSpaceOnUse" />
  </defs>
  <g
     inkscape:label="Calque 1"
     inkscape:groupmode="layer"
     id="layer1">
    <rect
       style="fill:#000000;fill-opacity:1;stroke-width:0.264583"
       id="rect9644"
       width="132.01154"
       height="132.29167"
       x="-149.65425"
       y="-2.5431316e-06" />
    <rect
       style="fill:#333333;fill-opacity:1;stroke-width:0.264583"
       id="rect10176"
       width="130.7912"
       height="4.7615795"
       x="-148.15378"
       y="97.988274" />
    <rect
       style="fill:#b3b3b3;fill-opacity:1;stroke-width:0.264583"
       id="rect9766"
       width="132.01154"
       height="3.6722353"
       x="-149.65425"
       y="74.083328" />
    <rect
       style="fill:#666666;fill-opacity:1;stroke-width:0.264583"
       id="rect9766-5"
       width="132.01154"
       height="3.6722353"
       x="-149.65425"
       y="77.755562" />
    <rect
       style="fill:#666666;fill-opacity:1;stroke-width:0.264583"
       id="rect9766-5-1"
       width="132.01154"
       height="3.6722353"
       x="-149.65425"
       y="10.58333" />
    <rect
       style="fill:#4d4d4d;fill-opacity:1;stroke-width:0.264583"
       id="rect9766-6"
       width="132.01154"
       height="3.6722353"
       x="-149.65425"
       y="81.427795" />
    <rect
       style="fill:#333333;fill-opacity:1;stroke-width:0.264583"
       id="rect10380"
       width="2.7508667"
       height="18.795708"
       x="-135.89992"
       y="82.19989" />
    <rect
       style="fill:#333333;fill-opacity:1;stroke-width:0.264583"
       id="rect10380-1"
       width="2.7508667"
       height="18.795708"
       x="-57.750309"
       y="83.412399" />
    <rect
       style="fill:#333333;fill-opacity:1;stroke-width:0.268971"
       id="rect10380-8"
       width="3.5694084"
       height="20.425613"
       x="-152.62756"
       y="-98.291183"
       transform="matrix(0.35639342,-0.93433598,0.81416977,0.58062688,0,0)" />
    <rect
       style="fill:#333333;fill-opacity:1;stroke-width:0.268971"
       id="rect10380-8-1"
       width="3.5694084"
       height="20.425613"
       x="-106.96387"
       y="-22.356318"
       transform="matrix(0.35639342,-0.93433598,0.81416977,0.58062688,0,0)" />
    <ellipse
       style="fill:#4d4d4d;fill-opacity:1;stroke-width:0.264583"
       id="path9963"
       cx="-128.96486"
       cy="102.71729"
       rx="14.677088"
       ry="12.758949" />
    <ellipse
       style="fill:#808080;fill-opacity:1;stroke-width:0.264583"
       id="path9963-6"
       cx="-128.60492"
       cy="102.84516"
       rx="13.527678"
       ry="11.961515" />
    <ellipse
       style="fill:#4d4d4d;fill-opacity:1;stroke-width:0.264583"
       id="path9963-7"
       cx="-42.120388"
       cy="102.71729"
       rx="14.677088"
       ry="12.758949" />
    <ellipse
       style="fill:#808080;fill-opacity:1;stroke-width:0.264583"
       id="path9963-6-8"
       cx="-41.760448"
       cy="102.84516"
       rx="13.527678"
       ry="11.961515" />
    <rect
       style="fill:#cccccc;fill-opacity:1;stroke-width:0.264583"
       id="rect10575"
       width="132.01154"
       height="2.2554851"
       x="-149.65425"
       y="114.3" />
    <rect
       style="fill:#cccccc;fill-opacity:0.996805;stroke-width:0.264583"
       id="rect10715"
       width="132.01152"
       height="53.374607"
       x="-149.65425"
       y="20.708729" />
    <rect
       style="fill:#ffff8a;fill-opacity:1;stroke-width:0.264583"
       id="rect12262"
       width="22.811377"
       height="3.0125299"
       x="-116.74593"
       y="15.970183" />
    <rect
       style="fill:#ffff8a;fill-opacity:1;stroke-width:0.264583"
       id="rect12262-1"
       width="22.811377"
       height="3.0125299"
       x="-65.684776"
       y="16.765772" />
    <rect
       style="fill:#1a1a1a;fill-opacity:1;stroke-width:0.264583"
       id="rect10819"
       width="34.322998"
       height="21.053745"
       x="-148.33414"
       y="23.925417" />
    <rect
       style="fill:#1a1a1a;fill-opacity:1;stroke-width:0.264583"
       id="rect10819-1"
       width="34.322998"
       height="21.053745"
       x="-96.84964"
       y="23.925417" />
    <rect
       style="fill:#1a1a1a;fill-opacity:1;stroke-width:0.264583"
       id="rect10819-1-8"
       width="27.722422"
       height="21.053745"
       x="-45.365154"
       y="23.925417" />
    <rect
       style="fill:#f2f2f2;fill-opacity:1;stroke-width:0.264583"
       id="rect11920"
       width="84.735184"
       height="14.987385"
       x="-106.09904"
       y="52.938103" />
    <rect
       style="fill:#ffffff;fill-opacity:1;stroke-width:0.264583"
       id="rect12042"
       width="2.3762074"
       height="58.208336"
       x="-136.45309"
       y="15.874998" />
    <rect
       style="fill:#b3b3b3;fill-opacity:1;stroke-width:0.264583"
       id="rect12042-9"
       width="1.5841384"
       height="58.208336"
       x="-136.45309"
       y="15.874998" />
    <rect
       style="fill:#333333;fill-opacity:1;stroke-width:0.264583"
       id="rect12042-9-8"
       width="0.52804613"
       height="58.208336"
       x="-136.45309"
       y="15.874998" />
    <path
       style="fill:none;stroke:#000000;stroke-width:0.264583px;stroke-linecap:butt;stroke-linejoin:miter;stroke-opacity:1"
       d="m -102.01425,54.91013 c 0,1.029648 0.0774,-0.04693 -0.25008,0.986012 -0.161,0.507833 -0.12906,0.961586 -0.37512,1.479018 -0.16348,0.343772 -0.91194,0.974139 -1.00031,1.183214 -0.0264,0.06236 0.0373,0.138408 0,0.197203 -0.0906,0.142932 -0.80106,0.0986 -1.00032,0.0986 -0.2084,0 -0.4518,0.09116 -0.6252,0 -0.13872,-0.07293 0,-0.262936 0,-0.394405 0,-0.186536 -0.0791,-0.672795 0.12504,-0.88741 0.14342,-0.150791 1.20868,-0.16435 1.37544,-0.0986 0.18639,0.0735 0.2556,0.259776 0.37511,0.394405 0.29176,0.32867 0.68633,0.613513 0.87528,0.986011 0.031,0.06103 -0.0589,0.150721 0,0.197203 0.0589,0.04648 0.19113,-0.04648 0.25008,0 0.0589,0.04648 -0.031,0.13617 0,0.197201 0.27517,0.542472 1.21736,0.641307 1.87559,0.493008 0.11335,-0.02554 0.15011,-0.147933 0.25008,-0.197203 0.237097,-0.116854 0.513138,-0.178951 0.750236,-0.295805 0.174762,-0.08613 1.125863,-1.084209 0.875273,-1.281814 -0.06201,-0.0489 -0.537358,0 -0.625196,0 -1.208333,0 -1.125353,0.05852 -1.125353,0.986012 0,0.664636 -0.11136,0.474522 0.375115,0.986012 0.306309,0.322057 0.108266,0.788809 0.750238,0.788809 2.369686,0 3.125985,-2.126807 3.125985,-3.648245 0,-0.427271 0,-0.854542 0,-1.281815 0,-0.0986 0.125039,-0.295804 0,-0.295804 -0.08336,0 0,0.131469 0,0.197203 0,0.55874 0.02622,1.117863 0,1.67622 -0.0201,0.427579 -0.600835,2.188439 -0.25008,2.465031 0.04738,0.03736 3.090953,0.0986 2.25071,0.0986"
       id="path12925" />
    <path
       style="fill:none;stroke:#000000;stroke-width:0.264583px;stroke-linecap:butt;stroke-linejoin:miter;stroke-opacity:1"
       d="m -97.887952,57.572363 c 3.868262,-1.525182 2.308775,-0.962541 4.626457,-1.774822"
       id="path12927" />
    <path
       style="fill:none;stroke:#000000;stroke-width:0.264583px;stroke-linecap:butt;stroke-linejoin:miter;stroke-opacity:1"
       d="m -90.135512,55.008731 c -0.259265,0.550849 -0.492149,1.244739 -1.125353,1.577619 -0.386923,0.20341 1.046814,0.0986 0.750234,0.0986"
       id="path12937" />
    <path
       style="fill:none;stroke:#000000;stroke-width:0.264583px;stroke-linecap:butt;stroke-linejoin:miter;stroke-opacity:1"
       d="m -89.635355,59.938792 c 0.480731,-0.662948 0.856272,-1.328693 1.375433,-1.972024 0.130478,-0.161685 0.266432,-0.321594 0.375119,-0.493006 0.06719,-0.105956 -0.04823,-0.280326 0,-0.394406 0.04168,-0.0986 0.218239,-0.222311 0.125039,-0.295802 -0.07154,-0.05641 -0.52997,0 -0.625196,0 -0.16672,0 -0.382268,-0.09296 -0.500157,0 -0.249082,0.196414 0.413562,0.34888 0.500157,0.394405 0.147132,0.07735 0.207361,0.251707 0.375119,0.295803 0.118623,0.03118 0.267896,-0.05073 0.375116,0 0.567813,0.268653 0.507957,0.300416 1.000317,0.591606 0.252615,0.149403 0.748934,0.294778 1.000315,0.493006 0.062,0.04889 0,0.423742 0,0.493007 0,0.131467 0.149118,0.33561 0,0.394405 -0.07456,0.0294 -0.17552,-0.0294 -0.25008,0 -0.105443,0.04157 -0.144637,0.155628 -0.250077,0.197201 -0.29017,0.11441 -1.057764,0 -1.375434,0"
       id="path12939" />
    <path
       style="fill:none;stroke:#000000;stroke-width:0.264583px;stroke-linecap:butt;stroke-linejoin:miter;stroke-opacity:1"
       d="m -78.381811,59.051381 c -1.825563,0.06186 -2.635007,-0.0087 -2.000628,-1.676221 0.100589,-0.264408 0.569748,-0.356034 0.875275,-0.295804 0.307593,0.06064 0.322375,0.184118 0.500158,0.394406 0.464992,0.55001 0.549437,0.487216 0.625195,1.084612 0.02073,0.163521 -0.08015,0.341312 0,0.493007 0.195681,0.370333 0.714391,0.605406 0.875277,0.986011 0.09208,0.217838 0.06396,1.054846 0,1.281817 -0.0408,0.144788 -0.870687,1.161324 -1.125354,1.281815 -0.178199,0.08431 -1.356714,0.662578 -1.625513,0.493007 -0.720012,-0.45422 -0.625196,-1.332095 -0.625196,-1.972025 0,-0.197202 -0.128667,-0.422508 0,-0.591607 0.227952,-0.299593 0.561984,-0.541759 0.875276,-0.788809 0.557345,-0.439502 2.375748,-0.63629 2.375748,-1.380417"
       id="path12941" />
    <path
       style="fill:none;stroke:#000000;stroke-width:0.264583px;stroke-linecap:butt;stroke-linejoin:miter;stroke-opacity:1"
       d="m -74.880708,56.684951 c -0.250078,-0.03287 -0.498257,-0.120678 -0.750235,-0.0986 -0.669787,0.05869 -1.554523,1.129783 -1.625514,1.577619 -0.02068,0.130453 0.0458,0.267995 0,0.394405 -0.05849,0.16142 -0.470801,0.556739 -0.250077,0.788811 0.502072,0.527883 0.665702,0.339318 1.250395,0.493006 0.272802,0.07171 0.761233,0.340766 1.125353,0.197201 0.164883,-0.06501 0.198057,-0.665744 0.250078,-0.78881 0.04753,-0.112422 0.194268,-0.185774 0.250079,-0.295802 0.259999,-0.512565 -0.224763,0.157278 0.375119,-0.788811 0.130477,-0.205779 0,-0.460137 0,-0.690207 0,-0.06251 0.0653,-0.451811 0,-0.493007 -0.769474,-0.485421 -0.48092,-0.303389 -1.250395,0 -0.07456,0.0294 -0.250077,-0.06574 -0.250077,0 0,0.103239 0.860052,-0.295804 0.875274,-0.295804 0.314068,0 0.725356,0.295804 1.125356,0.295804"
       id="path12943" />
    <path
       style="fill:none;stroke:#000000;stroke-width:0.264583px;stroke-linecap:butt;stroke-linejoin:miter;stroke-opacity:1"
       d="m -61.751573,55.205932 c -1.290531,0.980003 -0.732055,-1.021194 -1.375433,-1.084611 -0.579012,-0.05707 -1.195368,-0.141641 -1.750551,0 -1.304595,0.332833 -3.270231,1.202071 -3.626142,2.465029 -0.100244,0.355724 0,1.026612 0,1.380418 0,1.092949 -0.251955,1.181736 0.750237,1.972024 0.08335,0.06574 0.144634,0.155628 0.250078,0.197202 0.494541,0.194989 2.918537,0.180395 3.376062,0 0.105444,-0.04157 0.158023,-0.13913 0.250081,-0.197202 0.213969,-0.134984 0.718826,-0.338796 0.875275,-0.493006 0.05207,-0.05133 -0.03095,-0.13617 0,-0.197204 0.189062,-0.372716 0.375116,-0.561184 0.375116,-0.98601 0,-0.200083 0.07887,-0.726615 -0.125038,-0.887412 -0.05894,-0.04648 -0.166718,0 -0.250078,0 -0.16672,0 -0.338417,-0.03189 -0.500157,0 -0.143969,0.02838 0.03178,1.490718 0.375117,1.084613 0.14804,-0.175105 0.362849,-0.312545 0.500156,-0.493005 0.04289,-0.05636 -0.05894,-0.150722 0,-0.197204 0.329089,-0.259504 1.160714,0.3119 1.250395,0.394405 0.454468,0.418106 1.095416,1.163768 1.250394,1.774823 0.04087,0.161143 -0.03426,0.330906 0,0.493007 0.0097,0.04584 0.08336,0.06573 0.12504,0.0986 0,0.0986 0,0.197202 0,0.295805 0,2.071777 -0.04087,-1.10727 0.125039,0.98601 0.05979,0.754472 0,1.511887 0,2.267828 0,0.408935 0.114184,0.975233 0,1.380417 -0.09553,0.33898 -0.34421,0.756683 -0.500158,1.084614 -0.05373,0.112979 -0.576196,0.960253 -0.625196,0.986013 -0.176832,0.09296 -0.426202,0.03975 -0.625196,0.0986 -0.140711,0.04161 -0.235587,0.15319 -0.375118,0.197201 -0.419507,0.132322 -1.136005,0.175803 -1.625514,0.0986 -0.3611,-0.05695 -0.603615,-0.332343 -0.875277,-0.493007 -0.307491,-0.181857 -0.244928,0.0061 -0.500156,-0.295802 -0.658617,-0.77904 -1.194166,-2.472314 -0.875274,-3.352441 0.04128,-0.113945 0.17043,-0.195313 0.250078,-0.295804 0.600636,-0.757824 1.198408,-1.120619 2.12567,-1.577621 0.500242,-0.246544 0.928484,-0.638459 1.500473,-0.788809 0.410397,-0.107875 1.054529,0 1.500471,0"
       id="path12945" />
    <path
       style="fill:none;stroke:#000000;stroke-width:0.264583px;stroke-linecap:butt;stroke-linejoin:miter;stroke-opacity:1"
       d="m -59.000707,57.276559 c 0.239421,1.199162 0.08686,2.533522 1.250395,3.451042 0.02759,0.02176 0.862767,0.01645 0.875277,0 0.646607,-1.27473 -0.100958,-0.117593 0.500156,-0.591607 0.224521,-0.177049 0.250078,-2.446576 0.250078,-2.958035 0,-0.197204 -0.03803,0.396696 0,0.591605 -0.333596,0.498308 0.391282,0.642594 0.500157,0.986013 0.116453,0.367316 -0.246227,1.087649 0.125042,1.380417 0.05895,0.04648 0.170994,-0.02078 0.250077,0 0.08841,0.02324 0.161664,0.07536 0.250079,0.0986 0.574058,0.150894 0.836886,-0.01145 1.125354,-0.295803 0.778089,-0.766964 0.697034,-0.818198 1.000315,-1.774823 0.08026,-0.253146 0.03802,-0.548634 0.125038,-0.788809 0.07242,-0.199871 0.513686,-0.591606 0.250081,-0.591606 -0.325531,0 0.408927,0.399747 0.625196,0.591606 0.281762,0.187074 0.39186,0.475541 0.625198,0.690208 0.1918,0.176457 0.461713,0.299633 0.625197,0.493006 0.232303,0.27478 0.356311,0.632973 0.625196,0.887412 0.150938,0.14283 0.363115,0.243111 0.500155,0.394405 0.18248,0.201461 0.22855,0.805792 0,0.986013 -0.166715,0.131466 -1.085885,0 -1.375432,0 -0.143047,0 -1.083923,0.06533 -1.125353,0 -0.134102,-0.211499 0.09831,-0.373329 0.25008,-0.493008"
       id="path12947" />
    <path
       style="fill:none;stroke:#000000;stroke-width:0.264583px;stroke-linecap:butt;stroke-linejoin:miter;stroke-opacity:1"
       d="m -45.496456,54.121321 c 0.01,2.293178 0.81114,4.479986 1.37543,6.704883"
       id="path12949" />
    <path
       style="fill:none;stroke:#000000;stroke-width:0.264583px;stroke-linecap:butt;stroke-linejoin:miter;stroke-opacity:1"
       d="m -41.495196,64.178645 c 0.20051,-2.404506 -1.11733,-0.190881 -1.50047,-0.493008 -0.26688,-0.210451 0.29383,-1.153612 0.12504,-0.88741 -0.0907,0.143072 -0.15306,0.986013 -0.62519,0.986013"
       id="path12951" />
    <path
       style="fill:none;stroke:#000000;stroke-width:0.264583px;stroke-linecap:butt;stroke-linejoin:miter;stroke-opacity:1"
       d="m -39.119446,54.318523 c 1.56388,1.456134 1.03652,3.474497 1.12536,5.225864 0.003,0.06523 0.4505,0.743865 0.50015,0.887412 0.0798,0.230844 0.19057,0.455578 0.25008,0.690207 0.0984,0.387777 -0.006,0.295804 0.50016,0.295804"
       id="path12953" />
    <path
       style="fill:none;stroke:#000000;stroke-width:0.264583px;stroke-linecap:butt;stroke-linejoin:miter;stroke-opacity:1"
       d="m -36.743696,63.882841 c -0.20406,-0.03335 -0.70856,0.295804 -0.50016,0.295804"
       id="path12959" />
    <path
       style="fill:#ff0000;fill-opacity:1;stroke-width:0.264583"
       id="path17561"
       d="m -104.89359,58.569893 c 1.20462,0.83326 2.17088,1.853289 2.98787,2.935562 0.23053,0.305391 0.4329,0.623466 0.64935,0.935202 0.4966,0.265236 0.36199,0.994355 0.8474,1.29195 0.13708,0.08404 0.36685,0.114569 0.51756,0.04657 1.1609,-0.523755 2.289621,-1.10453 3.319306,-1.777623 0.03003,-0.01963 0.703231,-1.270642 0.706805,-1.277238 0.109813,-0.199786 0.207399,-0.40403 0.329435,-0.599353 0.491123,-0.78606 2.182669,-2.359802 -2.278962,0.897045 -0.141176,0.103054 0.381112,0.07178 0.543481,0.153142 0.727162,0.364373 0.940988,0.665202 1.478241,1.190148 0.5583,0.702388 0.503727,0.593352 0.943281,1.288648 0.09533,0.150789 0.177917,0.306428 0.272157,0.457642 0.06157,0.09879 0.103616,0.209065 0.19514,0.292173 0.06714,0.06097 0.17703,0.167502 0.263596,0.124378 1.151523,-0.573665 2.200248,-1.266581 3.300372,-1.899872 0.227311,-1.477963 0.663851,-2.932555 1.216063,-4.354823 0.255322,-0.6576 0.526795,-1.257768 0.811323,-1.904263 0,0 -2.593253,0.980181 -2.593253,0.980181 v 0 c -0.117881,0.684287 -0.163127,1.019955 -0.345366,1.726102 -0.24706,0.957323 -0.427211,1.507826 -0.838638,2.448173 -0.17736,0.405366 -0.36517,0.808648 -0.584376,1.201084 -0.182951,0.327529 -0.413594,0.637172 -0.62039,0.955759 0.885478,-0.300461 1.758108,-0.625651 2.656431,-0.901384 0.09296,-0.02853 -0.125689,0.155539 -0.225447,0.155214 -0.141746,-4.16e-4 -0.262502,-0.08983 -0.375639,-0.157165 -0.68699,-0.408878 -1.118026,-1.025868 -1.645197,-1.545702 -0.203777,-0.243971 -0.407559,-0.487944 -0.611339,-0.731915 -0.16489,-0.23773 -0.310433,-0.484465 -0.494676,-0.713186 -0.137409,-0.170581 -0.224106,-0.544503 -0.467514,-0.481283 -1.205168,0.313009 -2.274517,0.900897 -3.322044,1.465516 -0.350302,0.188815 0.09079,0.827453 -0.381281,0.95771 -0.11819,0.21041 -0.214946,0.429151 -0.354569,0.631231 -0.150863,0.218345 -0.825553,0.665419 -0.51419,0.626134 0.851925,-0.107485 1.550699,-0.599017 2.348717,-0.857592 0.181178,-0.0587 -0.294417,0.255161 -0.490294,0.255424 -0.658925,8.66e-4 -1.092529,-0.659796 -1.38737,-0.958579 -0.252538,-0.294765 -0.521086,-0.581383 -0.757614,-0.884293 -0.828479,-1.060977 -1.539449,-2.230479 -1.670579,-3.488813 0,0 -3.42779,1.518094 -3.42779,1.518094 z" />
    <path
       style="fill:#ff0000;fill-opacity:1;stroke-width:0.264583"
       id="path17563"
       d="m -88.401261,64.750449 c -0.99402,0.558588 -2.319493,1.192939 2.631135,-1.196762 0.08035,-0.03878 -0.173415,0.06319 -0.266644,0.07387 -0.248021,0.02841 -0.361052,-0.03281 -0.588791,-0.100077 -0.330422,-0.159872 -0.518712,-0.234435 -0.814075,-0.470556 -0.641386,-0.51274 -1.094157,-1.161079 -1.413743,-1.830368 -0.116848,-0.244712 -0.197693,-0.499194 -0.29654,-0.748792 -0.1404,-0.656815 -0.191929,-0.730724 -0.199927,-1.372957 -0.0021,-0.175004 -0.0019,-0.351266 0.02958,-0.524518 0.02157,-0.118984 0.02922,-0.254715 0.128191,-0.346117 0.05884,-0.05434 0.347598,-0.05939 0.2704,-0.02198 -1.073301,0.520118 -2.186686,0.986957 -3.28003,1.480438 0.346731,0.307446 0.449663,0.719144 0.63062,1.09291 0.04492,0.09278 0.08355,0.188867 0.148391,0.274014 0.07738,0.101609 0.183256,0.187895 0.274885,0.281842 0.179234,0.0905 0.341727,0.206046 0.537702,0.271504 0.615231,0.205493 1.360573,0.264707 2.004447,0.348998 0.821689,0.107568 1.165886,0.147307 1.95578,0.276761 0.235027,0.03852 0.468321,0.08335 0.70248,0.125025 0.107205,0.05319 0.371105,0.06763 0.321612,0.159573 -0.05227,0.09709 -0.506747,0.05246 -0.400991,-0.01212 0.736707,-0.449858 1.6461,-0.709573 2.358469,-1.183178 0.285186,-0.189603 -0.693142,0.218504 -1.047097,0.311335 -0.801313,0.210166 -1.270849,0.283779 -2.0753,0.433435 -0.61706,0.110467 -1.239943,0.19024 -1.868397,0.244001 0,0 -2.732507,1.627817 -2.732507,1.627817 v 0 c 0.767953,-0.150683 1.529851,-0.317989 2.293696,-0.481165 1.066198,-0.218098 0.973856,-0.206386 2.040171,-0.396247 0.273104,-0.04863 0.570203,-0.04202 0.820848,-0.140405 1.237022,-0.485551 2.48884,-0.968582 3.614497,-1.600541 0.127383,-0.07151 -0.0021,-0.285082 -0.130826,-0.355237 -0.167205,-0.09122 -0.404676,-0.03154 -0.607013,-0.04731 -0.955394,-0.04853 -1.926325,-0.0849 -2.861244,-0.262944 -0.511777,-0.09746 -1.067211,-0.245826 -1.511944,-0.481831 -0.132917,-0.07054 -0.235065,-0.17171 -0.352595,-0.257564 -0.06611,-0.08615 -0.137291,-0.170009 -0.198326,-0.25846 -0.319125,-0.462464 -0.526126,-0.968935 -0.673536,-1.480434 -1.175863,0.402514 -2.377139,0.761689 -3.527586,1.207542 -0.05505,0.02134 0.08248,0.07375 0.106911,0.118126 0.0494,0.08973 0.08139,0.185048 0.112125,0.279816 0.05096,0.157119 0.08651,0.317111 0.132725,0.47514 0.173455,0.593049 0.215839,0.704708 0.418099,1.322974 0.09947,0.257966 0.185853,0.519296 0.298404,0.773898 0.156706,0.354493 0.559629,1.099987 0.757976,1.446962 0.137793,0.241044 0.464622,0.810926 0.690061,1.049511 0.08787,0.09299 0.212959,0.159986 0.319437,0.23998 0.230708,0.112369 0.400662,0.217432 0.672345,0.263098 0.109921,0.01848 0.237271,0.0518 0.33689,0.01076 1.167376,-0.480834 2.289149,-1.027833 3.421137,-1.558678 0.08952,-0.04198 0.164943,-0.100879 0.239704,-0.158067 0.05971,-0.04568 0.108234,-0.09966 0.162351,-0.149486 0,0 -3.583958,1.246458 -3.583958,1.246458 z" />
    <path
       style="fill:#ff0000;fill-opacity:1;stroke-width:0.264583"
       id="path17565"
       d="m -82.959973,59.846045 c 0.03049,0.08951 0.07677,0.176573 0.09145,0.268528 0.136796,0.856909 -0.01943,1.728771 -0.213538,2.5708 -0.164954,0.715597 -0.326946,1.186564 -0.545876,1.881572 -0.05666,0.232747 -0.138269,0.462567 -0.169972,0.698241 -0.04469,0.332126 -0.09284,0.617791 0.368531,0.777631 0.433404,0.150151 1.143534,-0.07039 1.553955,-0.185332 0.12992,-0.04516 0.259841,-0.09031 0.389761,-0.13547 0,0 2.75013,-1.73189 2.75013,-1.73189 v 0 c -0.137844,0.05833 -0.275685,0.11666 -0.413529,0.174989 -0.38086,0.137579 -0.857704,0.327175 -1.285998,0.343613 -0.111372,0.0042 -0.245163,0.02434 -0.332256,-0.03056 -0.311154,-0.196154 -0.26739,-0.663203 -0.29529,-0.898961 0.07853,-0.701618 0.09985,-1.052235 0.263641,-1.770255 0.08293,-0.363568 0.173976,-0.726628 0.294338,-1.083629 0.258378,-0.766371 0.620971,-1.51025 1.044301,-2.228467 0,0 -3.499642,1.349194 -3.499642,1.349194 z" />
    <path
       style="fill:#ff0000;fill-opacity:1;stroke-width:0.264583"
       id="path17567"
       d="m -79.912114,62.369609 c 0.04349,-0.05706 0.08087,-0.117293 0.130451,-0.171162 0.261204,-0.283755 0.437238,-0.42127 0.761408,-0.68002 0.440063,-0.351253 0.905953,-0.675507 1.378224,-0.999087 0,0 -3.191413,1.031713 -3.191413,1.031713 v 0 c -0.864425,0.687131 -1.727268,1.375757 -2.635578,2.027267 0,0 3.556908,-1.208711 3.556908,-1.208711 z" />
    <path
       style="fill:#ff0000;fill-opacity:1;stroke-width:0.264583"
       id="path17569"
       d="m -79.723601,57.817925 c 0.05385,0.383074 0.04404,0.776436 0.03064,1.160541 -0.0116,0.332189 -0.01227,0.665254 -0.05174,0.996109 -0.108927,0.913018 -0.315127,1.668541 -0.528168,2.571522 -0.12663,0.408641 -0.241905,0.819577 -0.379892,1.225926 -0.117574,0.346234 -0.238525,0.692295 -0.386577,1.031181 -0.111589,0.255424 -0.232704,0.509972 -0.391327,0.749427 -0.09764,0.147404 -0.558956,0.480824 -0.372328,0.403371 3.168644,-1.314999 2.34876,-2.276767 3.040786,-1.425483 -0.01558,-0.07134 -0.04346,-0.141675 -0.04672,-0.21402 -0.01463,-0.324602 0.137004,-0.848417 0.426392,-1.093435 0.05881,-0.0498 0.142356,-0.07696 0.213534,-0.115438 -1.019818,0.482979 -2.039636,0.96596 -3.059457,1.448938 0.05247,-8.66e-4 0.107914,-0.01609 0.157416,-0.0024 0.09128,0.02535 0.173838,0.06911 0.250536,0.115636 0.249672,0.151448 0.421617,0.364893 0.593997,0.567888 0.171451,0.212819 0.338475,0.477838 0.659239,0.573503 0.06919,0.02063 0.143426,0.02862 0.215136,0.04293 0.245886,0.02966 0.487818,0.07534 0.729716,0.120214 0,0 3.073291,-1.680471 3.073291,-1.680471 v 0 c -0.227894,-0.03827 -0.459535,-0.06844 -0.678661,-0.133016 -0.05058,-0.01154 -0.100624,-0.02461 -0.151734,-0.03458 -0.11675,-0.02277 -0.125022,-0.008 -0.234882,-0.05452 -0.17901,-0.07582 -0.313398,-0.202137 -0.450537,-0.316247 -0.178152,-0.16351 -0.240704,-0.219211 -0.418841,-0.390182 -0.09771,-0.09379 -0.340811,-0.338599 -0.453132,-0.427841 -0.07944,-0.06312 -0.151801,-0.212475 -0.254503,-0.175753 -1.188529,0.424977 -2.284868,0.994824 -3.427302,1.492237 -0.03261,0.05406 -0.0699,0.106512 -0.09782,0.16218 -0.247545,0.49358 -0.27706,1.03841 -0.334007,1.560524 0.69348,1.256028 0.19572,0.695714 3.426232,-1.188857 0.0952,-0.05554 -0.05298,-0.183262 -0.05629,-0.27661 -0.01721,-0.485138 0.07873,-1.092015 0.154056,-1.553058 0.06341,-0.388107 0.14208,-0.774566 0.213118,-1.161848 0.283263,-1.073173 0.393638,-1.627043 0.816004,-2.677157 0.16179,-0.402249 0.365629,-0.793239 0.553922,-1.188254 0.1517,-0.318246 0.387489,-0.854348 0.645663,-1.173167 0.05102,-0.06301 0.132207,-0.10719 0.198313,-0.160785 0,0 -3.624069,1.220961 -3.624069,1.220961 z" />
    <path
       style="fill:#ff0000;fill-opacity:1;stroke-width:0.264583"
       id="path17571"
       d="m -77.76426,63.768136 c 0.378076,0.0587 0.261583,0.04384 0.692009,0.09459 0.304802,0.03593 0.573947,0.0829 0.884982,0.04117 0.141849,-0.01903 0.285264,-0.05028 0.40964,-0.107337 1.129818,-0.518235 2.22946,-1.076338 3.344193,-1.614505 0.07416,-0.09676 0.159691,-0.188639 0.222486,-0.290277 0.148635,-0.240575 0.309609,-0.629333 0.168769,-0.895667 -0.05071,-0.0959 -0.117625,-0.202541 -0.234051,-0.251189 -0.178348,-0.07452 -0.395673,-0.06307 -0.593511,-0.0946 -0.264847,0.05101 -0.540423,0.07517 -0.794541,0.153049 -0.319478,0.09791 -0.620902,0.231256 -0.914514,0.370711 -1.129032,0.53625 -2.269872,1.060621 -3.350899,1.655208 -0.375031,0.206277 -1.052433,0.870797 -1.221176,1.218279 -0.0966,0.198929 -0.07165,0.422268 -0.10747,0.633402 0.161968,0.177712 0.262592,0.403195 0.485903,0.533136 0.457425,0.266169 1.538541,0.444304 2.06829,0.52685 0.760733,0.118537 1.537655,0.181751 2.308177,0.245882 0,0 2.674984,-1.533916 2.674984,-1.533916 v 0 c -0.240329,0.01741 -0.479954,0.04264 -0.720991,0.05219 -0.60578,0.024 -1.285061,0.0236 -1.883006,-0.05893 -0.604348,-0.08342 -1.185898,-0.208107 -1.663991,-0.529496 -0.153284,-0.103042 -0.237384,-0.256656 -0.356072,-0.384986 -0.0058,-0.536833 -0.106232,-0.513534 0.404335,-1.004888 0.212727,-0.204719 1.057024,-0.597837 0.727085,-0.549288 -0.636831,0.09371 -1.146385,0.476649 -1.730853,0.69699 -0.39712,0.149712 1.296251,-0.609705 1.208423,-0.419838 0.101372,-0.0054 0.205682,-0.03599 0.304113,-0.01613 0.06338,0.01278 0.115029,0.05951 0.142662,0.106264 0.113139,0.191425 -0.05805,0.509992 -0.190166,0.663651 -0.07234,0.08412 -0.168679,0.153713 -0.253018,0.230569 0.909805,-0.397116 1.812008,-0.805257 2.729414,-1.191346 0.12052,-0.05072 -0.211944,0.140301 -0.336615,0.184338 -0.3024,0.106812 -0.444729,0.07505 -0.746486,0.0064 -0.244731,-0.05567 -0.234402,-0.06194 -0.402213,-0.153927 0,0 -3.275892,1.683644 -3.275892,1.683644 z" />
    <path
       style="fill:#ff0000;fill-opacity:1;stroke-width:0.264583"
       id="path17573"
       d="m -66.019601,63.758023 c -0.09636,-0.05426 -0.201313,-0.100112 -0.289087,-0.162779 -0.188676,-0.134711 -0.379145,-0.270506 -0.537694,-0.427517 -0.924954,-0.91597 -1.441967,-1.945674 -1.829969,-3.066556 -0.136189,-0.39343 -0.224629,-0.796181 -0.336944,-1.194271 -0.08287,-0.482678 -0.320112,-1.32008 -0.106974,-1.842897 0.06629,-0.162607 0.59991,-0.480235 0.410711,-0.39708 -6.362713,2.796491 -3.115961,0.981982 -2.182914,1.442781 0.146354,0.07228 0.231979,0.201767 0.347967,0.30265 0.0193,0.147694 0.08332,0.295966 0.05788,0.443079 -0.06317,0.365189 -0.405045,0.823421 -0.644042,1.116676 -0.148455,0.182157 -0.344075,0.339432 -0.483101,0.526159 -0.115352,0.154931 -0.279585,0.313514 -0.275818,0.493147 0.0039,0.185703 0.197847,0.337105 0.296768,0.505655 0.317665,0.165805 0.630121,0.337988 0.952991,0.497412 0.40516,0.200055 0.828932,0.376305 1.230546,0.580756 1.239833,0.631164 2.384848,1.367711 3.503514,2.123646 0,0 2.624086,-1.329557 2.624086,-1.329557 v 0 c -0.26406,-0.100619 -0.531399,-0.196057 -0.79218,-0.301862 -0.65267,-0.264801 -1.452122,-0.616913 -2.054453,-0.93545 -0.822084,-0.434749 -1.373245,-0.758624 -2.015394,-1.351259 -0.195517,-0.180444 -0.336679,-0.393491 -0.505021,-0.590236 -0.05679,-0.111164 -0.157172,-0.214099 -0.170363,-0.333492 -0.0357,-0.323087 0.317121,-0.634008 0.48994,-0.872945 0.243027,-0.336011 0.684579,-0.939876 0.760212,-1.33041 0.03832,-0.197843 -0.05067,-0.398276 -0.07601,-0.597411 -0.118316,-0.146832 -0.208556,-0.310345 -0.354947,-0.440492 -1.165353,-1.036042 -2.341858,0.366319 -3.844007,1.201089 -0.122311,0.06797 0.01629,0.237456 0.056,0.351218 0.0787,0.225433 0.20258,0.439552 0.297421,0.66109 0.13724,0.320567 0.265843,0.643393 0.398765,0.965091 0.338692,0.924515 0.553937,1.477848 0.846875,2.422057 0.126481,0.407675 0.234881,0.818709 0.350901,1.228316 0.174659,0.61663 0.364029,1.233875 0.471819,1.860883 0,0 3.402513,-1.547491 3.402513,-1.547491 z" />
    <path
       style="fill:#ff0000;fill-opacity:1;stroke-width:0.264583"
       id="path17575"
       d="m -65.901181,63.041026 c 0.264398,0.172218 0.528951,0.336646 0.759858,0.54057 0.677668,0.598483 1.118708,1.324446 1.607953,2.019552 1.288047,0.848558 0.537266,0.479085 3.775907,-1.360818 0.187509,-0.106525 0.12336,-0.351302 0.191034,-0.525549 0.0806,-0.207515 0.170361,-0.412752 0.253715,-0.619588 0.105938,-0.262876 0.363415,-0.918563 0.472314,-1.195266 0.06352,-0.155292 0.103835,-0.31773 0.19057,-0.465876 0.05619,-0.09597 0.155589,-0.172169 0.233383,-0.258253 -1.032296,0.506754 -2.169686,0.899897 -3.096888,1.520264 -0.135618,0.09074 0.251931,0.201947 0.342375,0.32271 0.304658,0.40679 0.395157,0.754102 0.563382,1.203085 0.05795,0.160364 0.229358,0.759311 0.431564,0.92396 0.318983,0.259737 0.673505,0.127772 1.01085,-0.02896 3.234842,-1.502907 2.494793,-0.961859 3.833092,-2.049582 0.47494,-0.376681 0.953087,-0.752472 1.464134,-1.099122 0.461244,-0.31287 0.951906,-0.597632 1.422876,-0.901181 0.102859,-0.08536 0.220698,-0.160885 0.308577,-0.256086 0.284065,-0.307736 0.421304,-0.810912 0.20004,-1.165307 -0.0514,-0.08232 -0.138834,-0.147286 -0.208248,-0.22093 -1.699995,-0.289701 -0.713126,-0.204342 -3.871196,1.558906 -0.158413,0.08845 -0.192703,0.269641 -0.241818,0.417722 -0.103695,0.312626 -0.108392,0.851574 -0.04684,1.165086 0.03783,0.192681 0.126863,0.376903 0.190294,0.565356 0.11097,0.161558 0.195929,0.336045 0.332908,0.484674 0.477168,0.517751 1.256831,0.814915 2.006564,1.008612 0.123449,0.03189 0.250008,0.05574 0.375013,0.08361 0.34244,0.05478 0.184378,0.03627 0.472973,0.06168 0,0 3.012097,-1.777218 3.012097,-1.777218 v 0 c -0.343537,0.09473 -0.15362,0.05651 -0.574024,0.100526 -0.398299,-0.01312 -0.536993,-0.0024 -0.940644,-0.08516 -0.565372,-0.115931 -1.113787,-0.335169 -1.495871,-0.694194 -0.131589,-0.123647 -0.220063,-0.27223 -0.330095,-0.408346 -0.05981,-0.165757 -0.152465,-0.32625 -0.179448,-0.497269 -0.05821,-0.368917 0.01582,-0.744342 0.24407,-1.072794 0.102666,-0.147727 0.603502,-0.454618 0.405535,-0.391317 -2.189403,0.700071 -3.51647,1.734265 -2.529394,0.985274 0.05021,0.03664 0.114254,0.06423 0.150628,0.109922 0.04083,0.05129 0.06558,0.111884 0.07388,0.17209 0.04984,0.361349 -0.289547,0.653346 -0.585509,0.887525 -0.573368,0.410896 -1.174168,0.798062 -1.739092,1.21631 -0.160028,0.118477 -0.314167,0.241809 -0.469785,0.363884 -0.15647,0.122746 -0.310974,0.247043 -0.466463,0.370564 -0.170979,0.125121 -0.727185,0.448104 -0.512938,0.375365 0.82161,-0.27895 1.556669,-0.697539 2.362731,-1.003397 0.251351,-0.09537 -0.403197,0.360031 -0.685398,0.308228 -0.412544,-0.07573 -0.534618,-0.439963 -0.693998,-0.68067 -0.270577,-0.772414 -0.214007,-0.51185 -0.3542,-1.319168 -0.03227,-0.18581 0.146237,-0.603032 -0.08484,-0.558642 -7.593005,1.458652 -3.344369,0.241548 -3.386658,1.423894 -0.0049,0.13648 -0.03878,0.271353 -0.05816,0.40703 -0.04338,0.173067 -0.07535,0.34816 -0.130132,0.519203 -0.125592,0.392118 -0.323291,0.878761 -0.587591,1.226409 -0.144035,0.189456 -0.781925,0.590215 -0.514763,0.523804 5.342448,-1.328012 3.468859,-1.13907 2.377819,-1.049391 -0.145285,-0.0953 -0.309515,-0.17508 -0.435853,-0.285906 -0.169062,-0.148304 -0.304991,-0.318535 -0.443429,-0.485417 -0.430598,-0.519058 -0.789906,-1.067124 -0.939344,-1.681178 -0.01824,-0.07491 -0.0073,-0.152457 -0.01093,-0.228687 0,0 -3.452598,1.499446 -3.452598,1.499446 z" />
    <path
       id="rect2876-7"
       style="fill:#216778;stroke-width:0.264583"
       d="m -37.054146,66.965346 7.46819,0.0045 0.97196,0.919266 -10.15057,-0.0065 z"
       sodipodi:nodetypes="ccccc" />
    <path
       id="rect3236-6"
       style="fill:#216778;stroke-width:0.264583"
       d="m -29.585956,66.969792 4.8103,-6.68252 v 0 l -3.83834,7.601786 z"
       sodipodi:nodetypes="ccccc" />
    <path
       id="rect4027-6"
       style="fill:#004455;stroke-width:0.264582"
       d="m -38.764566,67.734045 10.15057,0.134813 3.83834,-9.660527 1.3107,0.105572 -1.64956,15.769428 h -11.92192 z"
       sodipodi:nodetypes="ccccccc" />
    <path
       id="rect2876-7-1"
       style="fill:#216778;stroke-width:0.264583"
       d="m -89.858763,66.965346 7.468192,0.0045 0.971968,0.919266 -10.15058,-0.0065 z"
       sodipodi:nodetypes="ccccc" />
    <path
       id="rect3236-6-9"
       style="fill:#216778;stroke-width:0.264583"
       d="m -82.390571,66.969792 4.810302,-6.68252 v 0 l -3.838334,7.601786 z"
       sodipodi:nodetypes="ccccc" />
    <path
       id="rect4027-6-7"
       style="fill:#004455;stroke-width:0.264582"
       d="m -91.569183,67.734045 10.15058,0.134813 3.838334,-9.660527 1.310699,0.105572 -1.64956,15.769428 h -11.92192 z"
       sodipodi:nodetypes="ccccccc" />
    <path
       id="rect2876-7-1-8"
       style="fill:#216778;stroke-width:0.264583"
       d="m -109.66276,66.694983 -7.46819,0.0057 -0.97197,1.168225 10.15058,-0.0082 z"
       sodipodi:nodetypes="ccccc" />
    <path
       id="rect3236-6-9-6"
       style="fill:#216778;stroke-width:0.264583"
       d="m -117.13095,66.700633 -4.8103,-8.492302 v 0 l 3.83833,9.660527 z"
       sodipodi:nodetypes="ccccc" />
    <path
       id="rect4027-6-7-0"
       style="fill:#004455;stroke-width:0.264582"
       d="m -107.95234,67.734045 -10.15058,0.134813 -3.83833,-9.660527 -1.3107,0.105572 1.64956,15.769428 h 11.92192 z"
       sodipodi:nodetypes="ccccccc" />
    <path
       id="rect2876-7-1-8-6"
       style="fill:#216778;stroke-width:0.264583"
       d="m -56.858145,66.965346 -7.468192,0.0045 -0.971968,0.919266 10.15058,-0.0065 z"
       sodipodi:nodetypes="ccccc" />
    <path
       id="rect3236-6-9-6-3"
       style="fill:#216778;stroke-width:0.264583"
       d="m -64.326337,66.969792 -4.810303,-6.68252 v 0 l 3.838335,7.601786 z"
       sodipodi:nodetypes="ccccc" />
    <path
       id="rect4027-6-7-0-5"
       style="fill:#004455;stroke-width:0.264582"
       d="m -55.147725,67.734045 -10.15058,0.134813 -3.838335,-9.660527 -1.310698,0.105572 1.649559,15.769428 h 11.921921 z"
       sodipodi:nodetypes="ccccccc" />
    <rect
       style="fill:url(#linearGradient22540);fill-opacity:1;stroke-width:0.264583"
       id="rect22422"
       width="7.5296087"
       height="21.058975"
       x="-96.849648"
       y="23.925417" />
    <rect
       style="fill:url(#linearGradient22666);fill-opacity:1;stroke-width:0.264583"
       id="rect22628"
       width="2.6253178"
       height="21.12163"
       x="-116.63647"
       y="23.925417" />
    <rect
       style="opacity:0.99;fill:#00ffff;stroke-width:0.1;fill-opacity:0.67806268"
       id="rect1419"
       width="132.29167"
       height="132.29166"
       x="0"
       y="0" />
    <rect
       style="opacity:0.99;fill:#a05a2c;stroke-width:0.1"
       id="rect1365"
       width="132.29167"
       height="34.395832"
       x="0"
       y="97.895828" />
    <rect
       style="opacity:0.99;fill:url(#linearGradient2127);fill-opacity:1;stroke-width:0.1"
       id="rect2028"
       width="132.29167"
       height="34.395828"
       x="0"
       y="97.895821" />
  </g>
</svg>
