<?xml version="1.0" encoding="UTF-8" standalone="no"?>
<!-- Created with Inkscape (http://www.inkscape.org/) -->

<svg
   width="210mm"
   height="297mm"
   viewBox="0 0 210 297"
   version="1.1"
   id="svg2411"
   sodipodi:docname="perso_2.svg"
   inkscape:version="1.1 (c68e22c387, 2021-05-23)"
   xmlns:inkscape="http://www.inkscape.org/namespaces/inkscape"
   xmlns:sodipodi="http://sodipodi.sourceforge.net/DTD/sodipodi-0.dtd"
   xmlns="http://www.w3.org/2000/svg"
   xmlns:svg="http://www.w3.org/2000/svg">
  <sodipodi:namedview
     id="namedview2413"
     pagecolor="#ffffff"
     bordercolor="#666666"
     borderopacity="1.0"
     inkscape:pageshadow="2"
     inkscape:pageopacity="0.0"
     inkscape:pagecheckerboard="0"
     inkscape:document-units="mm"
     showgrid="false"
     inkscape:zoom="8"
     inkscape:cx="448.125"
     inkscape:cy="404.5625"
     inkscape:window-width="1920"
     inkscape:window-height="1001"
     inkscape:window-x="-9"
     inkscape:window-y="-9"
     inkscape:window-maximized="1"
     inkscape:current-layer="layer1" />
  <defs
     id="defs2408" />
  <g
     inkscape:label="Calque 1"
     inkscape:groupmode="layer"
     id="layer1">
    <rect
       style="fill:#1c1f24;fill-opacity:1;stroke-width:0.264588"
       id="rect23132-3"
       width="1.427597"
       height="2.8063653"
       x="101.25603"
       y="124.2364"
       transform="matrix(0.98541455,-0.17017097,0.16090634,0.98696968,0,0)" />
    <ellipse
       style="fill:#deaa87;stroke-width:0.398875"
       id="path9819-4-0"
       cx="120.13867"
       cy="107.48852"
       rx="1.0276037"
       ry="1.1974843" />
    <path
       id="path10057-3"
       style="fill:#d38d5f;stroke-width:0.398875"
       d="m 119.59406,107.37384 c 0.26699,0.42627 0.58623,0.50069 0.50869,0.57005 -0.0776,0.0694 -0.25929,-0.0851 -0.57415,-0.46848 -0.31486,-0.38348 -0.39984,-0.54556 -0.32223,-0.61499 0.0776,-0.0694 0.12299,0.0908 0.38772,0.51338 z"
       sodipodi:nodetypes="sssss" />
    <path
       id="path11385-4-04-4"
       style="fill:#677821;stroke-width:0.548397"
       d="m 126.49341,113.98036 c 0,0.89222 -0.52542,1.3107 -2.06521,1.3107 -1.53979,0 -2.11684,-0.41848 -2.11684,-1.3107 0,-0.89223 0.60285,-1.28022 2.14265,-1.28022 1.53978,0 2.0394,0.38799 2.0394,1.28022 z"
       sodipodi:nodetypes="sssss" />
    <path
       id="path11385-4-1-1-3"
       style="fill:#677821;stroke-width:0.548397"
       d="m 121.76791,114.03721 c 0,0.89224 -0.52945,1.31072 -2.08108,1.31072 -1.55162,0 -2.13311,-0.41848 -2.13311,-1.31072 0,-0.8922 0.6075,-1.2802 2.15912,-1.2802 1.55163,0 2.05507,0.388 2.05507,1.2802 z"
       sodipodi:nodetypes="sssss" />
    <path
       id="rect21874-0-1"
       style="fill:#ffaaaa;fill-opacity:1;stroke-width:0.264583"
       d="m 117.94726,110.10058 8.4601,0.16349 c -0.0285,0.65669 0.45942,2.17638 0.13198,2.37746 -3.0433,0.58017 -6.58855,0.70243 -9.17758,-0.0632 0,-0.50617 0.13236,-1.89809 0.58551,-2.47775 z"
       sodipodi:nodetypes="cccccc" />
    <path
       id="rect8523-4-3"
       style="fill:#cdde87;stroke-width:0.376887"
       d="m 116.41837,104.60383 0.76415,-0.95262 8.19684,-0.0755 1.1669,0.91665 -0.11551,5.7985 -8.61852,0.0786 z"
       sodipodi:nodetypes="ccccccc" />
    <ellipse
       style="fill:#92664a;fill-opacity:1;stroke-width:0.148271"
       id="path9819-9-7-2"
       cx="118.26447"
       cy="110.31834"
       rx="0.41104144"
       ry="0.41367638" />
    <path
       id="path4257-0-5-6-5-9-6"
       style="fill:#bcd35f;fill-opacity:1;stroke-width:0.218811"
       d="m 124.9377,107.88447 c -0.0176,0.4956 0.24006,0.7123 -0.26626,0.59988 0,0 -0.30321,-0.91381 -0.28315,-1.74928 0.0131,-0.5189 0.65458,-1.81514 0.61017,-0.56311 z"
       sodipodi:nodetypes="sssss" />
    <ellipse
       style="fill:#92664a;fill-opacity:1;stroke-width:0.148271"
       id="path9819-9-7-2-9"
       cx="124.76942"
       cy="110.15421"
       rx="0.41104144"
       ry="0.41367638" />
    <path
       id="path4257-0-5-6-5-9"
       style="fill:#bcd35f;fill-opacity:1;stroke-width:0.218811"
       d="m 117.79651,107.63296 c 0.008,0.32741 -0.11184,0.47057 0.12404,0.3963 0,0 0.14127,-0.6037 0.13192,-1.15565 -0.006,-0.34281 -0.30496,-1.19917 -0.28427,-0.37202 z"
       sodipodi:nodetypes="sssss" />
    <ellipse
       style="fill:#92664a;fill-opacity:1;stroke-width:0.398875"
       id="path9819-8-6-0"
       cx="110.66854"
       cy="-125.87789"
       rx="1.0276037"
       ry="1.1974843"
       transform="rotate(90)" />
    <path
       id="path6217-8-0"
       style="fill:#cdde87;stroke-width:0.398875"
       d="m 124.59551,106.67106 c 0.005,3.28643 -0.27023,3.3914 1.63947,3.51835 1.25157,0.0832 0.90445,-0.45546 0.95153,-2.34208 0.0532,-2.13162 -0.60913,-3.96361 -1.43945,-3.96361 -0.83031,0 -1.15405,1.04694 -1.15155,2.78734 z"
       sodipodi:nodetypes="sssss" />
    <path
       id="rect10620-1-8-2"
       style="fill:#ffaaaa;stroke-width:0.398877"
       d="m 122.09463,113.0882 c -0.9251,-3.09472 4.8882,-3.96322 4.5744,0 l -0.17562,0.89216 h -4.16461 z"
       sodipodi:nodetypes="ccccc" />
    <path
       id="path11724-09-7"
       style="fill:#445016;stroke-width:0.398875"
       d="m 121.21347,114.58824 c 0,0.17436 -0.22564,0.31569 -1.69555,0.31569 -1.4699,0 -1.77775,-0.14133 -1.77775,-0.31569 0,-0.17435 0.30785,0.098 1.77775,0.098 1.46991,0 1.69555,-0.27232 1.69555,-0.098 z"
       sodipodi:nodetypes="sssss" />
    <path
       id="path11724-0-2-1"
       style="fill:#445016;stroke-width:0.398875"
       d="m 126.29446,114.58922 c 0,0.17435 -0.22564,0.3157 -1.69556,0.3157 -1.46989,0 -1.77774,-0.14135 -1.77774,-0.3157 0,-0.17436 0.30785,0.098 1.77774,0.098 1.46992,0 1.69555,-0.27234 1.69556,-0.098 z"
       sodipodi:nodetypes="sssss" />
    <path
       id="rect10620-3-7"
       style="fill:#ffaaaa;stroke-width:0.462379"
       d="m 117.31712,113.0882 c -0.27921,-4.0133 5.05147,-2.60594 4.78289,0 0.0144,-0.0951 -0.20402,0.52742 -0.26524,0.93239 l -4.31363,0.0283 z"
       sodipodi:nodetypes="ccccc" />
    <rect
       style="fill:#164450;stroke-width:0.264583"
       id="rect6755"
       width="3.2742486"
       height="1.7846678"
       x="115.80432"
       y="110.99568"
       transform="matrix(0.99999942,0.00108099,-0.00106322,0.99999943,0,0)" />
    <rect
       style="fill:#0b2228;stroke-width:0.264584"
       id="rect6755-4-9"
       width="3.2742372"
       height="0.55778188"
       x="116.79066"
       y="-110.35786"
       transform="matrix(0.99997933,0.00642962,0.00998482,-0.99995015,0,0)" />
    <ellipse
       style="fill:#92664a;fill-opacity:1;stroke-width:0.398875"
       id="path9819-8-6"
       cx="110.41402"
       cy="-116.87643"
       rx="1.0276037"
       ry="1.1974843"
       transform="rotate(90)" />
    <path
       id="rect1430-1"
       style="fill:#502d16;stroke-width:0.210089"
       d="m 118.51694,101.63816 1.07041,-0.02 0.89186,0.28652 c -0.93618,-0.0681 -1.86747,-0.16131 -2.86831,0.10263 -0.003,-0.1486 0.87569,-0.26221 0.90604,-0.36913 z"
       sodipodi:nodetypes="ccccc"
       inkscape:transform-center-x="0.43209938"
       inkscape:transform-center-y="0.049713829" />
    <path
       id="path31-9-9-3"
       style="fill:#92664a;fill-opacity:1;fill-rule:evenodd;stroke-width:0.398876"
       d="m 116.04975,99.942649 c 0.14833,-1.01136 0.9041,-4.44628 5.49301,-4.38799 3.98831,0.0507 5.34065,2.8952 5.51614,3.66866 0.52417,2.310141 -2.51875,7.142581 -5.8797,7.087711 -3.36097,-0.0549 -5.43038,-4.31644 -5.12945,-6.368381 z"
       sodipodi:nodetypes="sssss" />
    <path
       id="path6217-8"
       style="fill:#cdde87;stroke-width:0.398875"
       d="m 118.51254,107.32834 c 3.94567,2.36551 1.134,2.8978 -1.31749,3.03574 -1.6011,0.0901 -2.14424,-0.36058 -2.14424,-2.96026 0,-1.81569 0.78274,-3.37473 1.84969,-3.37473 1.06696,0 0.10359,2.3949 1.61204,3.29925 z"
       sodipodi:nodetypes="sssss" />
    <path
       id="rect1430-8-4"
       style="fill:#502d16;stroke-width:0.209405"
       d="m 123.88625,101.31191 -0.95129,-0.0405 -0.79706,0.30506 c 0.83326,-0.0601 1.66253,-0.1487 2.5484,0.16311 0.005,-0.16597 -0.77464,-0.30772 -0.80005,-0.42768 z"
       sodipodi:nodetypes="ccccc"
       inkscape:transform-center-x="-0.37404457"
       inkscape:transform-center-y="0.080026975" />
    <path
       id="rect1430-8-4-2"
       style="fill:#502d16;stroke-width:0.209405"
       d="m 118.81018,101.31926 0.93812,-0.0405 0.78603,0.30506 c -0.82173,-0.0601 -1.63952,-0.1487 -2.51313,0.16311 -0.005,-0.16597 0.76392,-0.30772 0.78898,-0.42768 z"
       sodipodi:nodetypes="ccccc"
       inkscape:transform-center-x="0.36887023"
       inkscape:transform-center-y="0.080026975" />
    <path
       id="path15398-0-4-2"
       style="fill:#217867;fill-opacity:1;stroke-width:0.264583"
       d="m 127.31026,99.744279 c -0.007,0.0289 -0.31686,1.193181 -0.93835,2.251391 -0.28521,0.48563 -0.60755,-1.50264 -1.02248,-2.362441 -0.49514,-1.026 -1.20282,0.903671 -1.52707,0.19391 -0.28383,-0.6213 -2.17461,-1.28571 -2.7184,-1.2964 -0.88652,-0.0174 -2.80081,0.14182 -3.4587,1.01529 -1.00623,1.335931 -0.14256,0.945901 -0.78103,2.195411 -0.65158,1.27526 -0.89404,-0.59144 -0.93711,-1.40244 -0.058,-1.092391 0.27976,-2.574931 0.33729,-2.719531 1.03334,-2.59699 3.21723,-2.96175 5.30736,-2.96175 2.09013,0 4.67936,0.96683 5.68587,3.67758 0.12372,0.46967 0.14942,0.99196 0.0526,1.40901 z"
       sodipodi:nodetypes="sssssssssscss" />
    <ellipse
       style="fill:#217867;fill-opacity:1;stroke-width:0.264583"
       id="path32880-2"
       cx="121.3548"
       cy="94.611794"
       rx="2.5466146"
       ry="2.0670574" />
    <ellipse
       style="fill:#217867;fill-opacity:1;stroke-width:0.264583"
       id="path32882-6"
       cx="121.2225"
       cy="92.180908"
       rx="1.0914062"
       ry="1.3559896" />
    <path
       id="path27312"
       style="fill:#215e3d;fill-opacity:1;stroke-width:0.264583"
       d="m 123.9161,94.964739 c 0,0.36165 -1.07288,-0.4911 -2.49124,-0.4911 -1.41836,0 -2.62142,0.85275 -2.62143,0.4911 0,-0.36164 1.16756,-0.90036 2.58592,-0.90036 1.41837,0 2.52675,0.53872 2.52675,0.90036 z"
       sodipodi:nodetypes="sssss" />
    <path
       id="path27312-2"
       style="fill:#215e3d;fill-opacity:1;stroke-width:0.264583"
       d="m 122.63374,93.019939 c 0,0.36165 -0.59182,-0.4911 -1.37422,-0.4911 -0.7824,0 -1.44604,0.85275 -1.44604,0.4911 0,-0.36164 0.64405,-0.90036 1.42645,-0.90036 0.7824,0 1.39381,0.53872 1.39381,0.90036 z"
       sodipodi:nodetypes="sssss" />
    <path
       id="path2169-5-4-04"
       style="fill:#ffccaa;stroke-width:0.566042"
       d="m 119.9103,102.63495 c 0.0818,0.24564 -0.40549,0.44271 -0.85449,0.44271 -0.44901,0 -0.83351,-0.29821 -0.81299,-0.47248 0.0252,-0.21446 0.35014,-0.46503 0.81299,-0.47248 0.44895,-0.007 0.75763,0.21154 0.85449,0.50225 z"
       sodipodi:nodetypes="sssss" />
    <path
       id="path2169-5-4-0-9"
       style="fill:#ffccaa;stroke-width:0.551594"
       d="m 122.28232,102.61643 c -0.0777,0.24564 0.38507,0.44271 0.81143,0.44271 0.42638,0 0.79151,-0.2982 0.77202,-0.47246 -0.024,-0.21448 -0.3325,-0.46505 -0.77202,-0.47248 -0.42632,-0.007 -0.71945,0.21153 -0.81143,0.50223 z"
       sodipodi:nodetypes="sssss" />
    <ellipse
       style="fill:#502d16;stroke-width:0.344828"
       id="path2169-03"
       ry="0.2901839"
       rx="0.49125054"
       cy="102.63782"
       cx="119.09477" />
    <rect
       style="fill:#333333;fill-opacity:1;stroke:none;stroke-width:0.264583;stroke-opacity:0.958848"
       id="rect63234"
       width="0.30401909"
       height="0.10523738"
       x="120.26508"
       y="104.58812" />
    <rect
       style="fill:#333333;fill-opacity:1;stroke:none;stroke-width:0.264583;stroke-opacity:0.958848"
       id="rect63234-6"
       width="0.30401909"
       height="0.10523738"
       x="121.715"
       y="104.60566" />
    <path
       id="rect63414"
       style="fill:#782121;stroke-width:0.264583;stroke-opacity:0.958848"
       d="m 120.0429,105.16108 c 0.66992,0.0304 1.47077,-0.0738 2.38538,0 v 0.0935 c -0.81811,-0.0338 -1.61157,0.0358 -2.38538,0 z"
       sodipodi:nodetypes="ccccc" />
    <ellipse
       style="fill:#28170b;stroke-width:0.344828"
       id="path2169-0-8"
       ry="0.20486726"
       rx="0.33020797"
       cy="102.66441"
       cx="119.08531" />
    <ellipse
       style="fill:#502d16;stroke-width:0.314342"
       id="path2169-5-48"
       cx="123.05688"
       cy="102.63654"
       rx="0.40822226"
       ry="0.2901839" />
    <ellipse
       style="fill:#28170b;stroke-width:0.344828"
       id="path2169-0-2-9"
       ry="0.20486726"
       rx="0.33020797"
       cy="102.66576"
       cx="123.06043" />
  </g>
</svg>
