<?xml version="1.0" encoding="UTF-8" standalone="no"?>
<!-- Created with Inkscape (http://www.inkscape.org/) -->

<svg
   width="210mm"
   height="297mm"
   viewBox="0 0 210 297"
   version="1.1"
   id="svg2411"
   sodipodi:docname="perso_2_right2.svg"
   inkscape:version="1.1 (c68e22c387, 2021-05-23)"
   inkscape:export-filename="C:\Users\basti\OneDrive\Bureau\Gus veut boire un coup\Gus\LassL\lassl_r2.png"
   inkscape:export-xdpi="68.822021"
   inkscape:export-ydpi="68.822021"
   xmlns:inkscape="http://www.inkscape.org/namespaces/inkscape"
   xmlns:sodipodi="http://sodipodi.sourceforge.net/DTD/sodipodi-0.dtd"
   xmlns="http://www.w3.org/2000/svg"
   xmlns:svg="http://www.w3.org/2000/svg">
  <sodipodi:namedview
     id="namedview2413"
     pagecolor="#ffffff"
     bordercolor="#666666"
     borderopacity="1.0"
     inkscape:pageshadow="2"
     inkscape:pageopacity="0.0"
     inkscape:pagecheckerboard="0"
     inkscape:document-units="mm"
     showgrid="false"
     inkscape:zoom="2.8284271"
     inkscape:cx="419.66788"
     inkscape:cy="353.73017"
     inkscape:window-width="1920"
     inkscape:window-height="1001"
     inkscape:window-x="-9"
     inkscape:window-y="-9"
     inkscape:window-maximized="1"
     inkscape:current-layer="layer1" />
  <defs
     id="defs2408" />
  <g
     inkscape:label="Calque 1"
     inkscape:groupmode="layer"
     id="layer1">
    <path
       id="path11385-4-1-1-3"
       style="fill:#56551c;fill-opacity:1;stroke-width:0.548397"
       d="m 122.54436,115.34049 c -0.0396,0.44738 -2.33932,-0.4079 -3.50547,-1.02825 -1.16613,-0.62033 -1.49628,-1.03687 -1.26839,-1.42932 0.22789,-0.39245 0.9253,-0.51794 1.94971,0.3001 0.91511,0.73077 2.85111,1.85339 2.82415,2.15747 z"
       sodipodi:nodetypes="sssss" />
    <path
       id="path11385-4-1-1-3-3"
       style="fill:#677821;fill-opacity:1;stroke-width:0.548397"
       d="m 127.28751,113.43139 c 0.27755,0.40113 -1.86333,1.43892 -3.07594,1.81038 -1.2126,0.37148 -1.71983,0.27682 -1.8324,-0.22177 -0.11256,-0.49861 0.27479,-1.13251 1.52586,-1.23233 1.11757,-0.0891 3.19384,-0.62894 3.38247,-0.35631 z"
       sodipodi:nodetypes="sssss" />
    <path
       id="path11724-09-7-2"
       style="fill:#56551c;fill-opacity:1;stroke-width:0.398875"
       d="m 127.28751,113.43139 c 0.0418,0.15738 -0.0232,0.66508 -1.17191,1.017 -1.14873,0.35189 -1.7569,0.67523 -1.79289,0.51583 -0.0359,-0.15931 0.58232,-0.3436 1.73095,-0.69571 1.14873,-0.3519 1.19197,-0.99449 1.23384,-0.83714 z"
       sodipodi:nodetypes="ssssss" />
    <path
       id="rect10620-3-7"
       style="fill:#ff8080;fill-opacity:1;stroke-width:0.462379"
       d="m 118.82196,112.14173 c 2.79387,-7.47673 7.81627,-0.90895 2.99438,2.49634 -0.13863,0.17373 -0.27647,-0.20056 -0.33684,-0.19267 l -3.2209,-1.83625 z"
       sodipodi:nodetypes="ccccc" />
    <path
       id="rect10620-3-7-4"
       style="fill:#ffaaaa;fill-opacity:1;stroke-width:0.462379"
       d="m 124.11501,111.49883 c -3.86757,-6.98206 -9.92121,-3.9019 -2.06716,2.93253 0.42606,0.15566 0.32176,0.20471 0.38572,0.11451 l 2.43954,-0.74978 z"
       sodipodi:nodetypes="ccccc" />
    <path
       id="rect21874-0-1"
       style="fill:#ffaaaa;fill-opacity:1;stroke-width:0.264583"
       d="m 118.56058,110.34267 5.76319,-0.11167 c -0.0285,0.65669 -0.35158,2.21768 -0.67902,2.41876 -3.0433,0.58017 -0.53469,1.10023 -3.12372,0.3346 0,-0.50617 -2.41359,-2.06203 -1.96044,-2.64169 z"
       sodipodi:nodetypes="cccccc" />
    <path
       id="rect8523-4-3"
       style="fill:#cdde87;stroke-width:0.376887"
       d="m 117.79815,105.98021 c 0.22628,-1.04361 0.60624,-1.94126 1.11495,-2.5195 1.4387,0.80487 2.54356,1.73871 4.27709,1.57683 0.37807,0.74672 1.25899,1.65023 1.41446,2.04079 0.11264,1.05089 -0.17785,2.10178 -0.28087,3.15267 l -5.76319,0.11167 c -0.56772,-1.24116 -0.69356,-2.68481 -0.76244,-4.36246 z"
       sodipodi:nodetypes="ccccccc" />
    <rect
       style="fill:#0b2228;stroke-width:0.264584"
       id="rect6755-4-9"
       width="3.2742372"
       height="0.55778188"
       x="29.41984"
       y="-161.23451"
       transform="matrix(0.79559556,-0.60582811,-0.60299569,-0.79774445,0,0)" />
    <ellipse
       style="fill:#92664a;fill-opacity:1;stroke-width:0.148356"
       id="path9819-9-7-2-9"
       cx="34.425125"
       cy="161.42899"
       rx="0.41002533"
       ry="0.34214294"
       transform="matrix(0.77823561,-0.6279724,0.58999448,0.80740728,0,0)" />
    <rect
       style="fill:#164450;stroke-width:0.264583"
       id="rect6755"
       width="3.2742486"
       height="1.7846678"
       x="27.980875"
       y="161.40298"
       transform="matrix(0.79234383,-0.6100748,0.61008888,0.79233298,0,0)" />
    <ellipse
       style="fill:#92664a;fill-opacity:1;stroke-width:0.398875"
       id="path9819-8-6-0"
       cx="161.10068"
       cy="-28.929476"
       rx="1.0276037"
       ry="1.1974843"
       transform="rotate(52.343153)" />
    <path
       id="path31-9-9-3"
       style="fill:#92664a;fill-opacity:1;fill-rule:evenodd;stroke-width:0.398876"
       d="m 116.8403,99.942649 c -0.1713,-1.006132 0.83569,-4.446325 5.07736,-4.38799 1.64862,0.02267 2.93879,0.07231 3.52036,1.053804 0.70146,1.183813 1.19382,3.022189 1.199,3.394907 0.0267,1.92078 -1.26577,4.01998 -3.15432,4.94142 -0.46299,0.2259 -1.18893,0.48748 -1.74825,0.30791 -1.93439,-0.62102 -4.54197,-3.24152 -4.89415,-5.310051 z"
       sodipodi:nodetypes="sssssss" />
    <path
       id="path6217-8-0"
       style="fill:#cdde87;stroke-width:0.398875"
       d="m 118.68163,108.02463 c 1.60757,2.1915 1.44513,2.43401 2.9896,1.32251 1.01221,-0.72844 0.26774,-1.73802 -0.40621,-2.77246 -0.79258,-1.21655 -1.39993,-2.18957 -2.04451,-1.66944 -0.6446,0.52011 -1.39008,1.95873 -0.53888,3.11939 z"
       sodipodi:nodetypes="sssss" />
    <path
       id="path4257-0-5-6-5-9-6"
       style="fill:#bcd35f;fill-opacity:1;stroke-width:0.218811"
       d="m 121.72386,107.93334 c 0.37749,0.3474 0.30277,0.65592 0.61863,0.31761 0,0 -1.32899,-0.99673 -0.92694,-2.01103 0.21037,-0.53072 0.70882,-0.85596 0.12496,-0.7045 -1.08156,0.8095 -0.67736,1.60574 0.18335,2.39792 z"
       sodipodi:nodetypes="ssscs" />
    <path
       id="rect1430-8-4-2"
       style="fill:#502d16;stroke-width:0.209405"
       d="m 124.42642,99.036024 0.91252,-0.221436 0.83023,0.147037 c -0.81781,0.100199 -1.63728,0.171673 -2.43395,0.646787 -0.037,-0.161858 0.68985,-0.449855 0.6912,-0.572398 z"
       sodipodi:nodetypes="ccccc"
       inkscape:transform-center-x="0.31751115"
       inkscape:transform-center-y="0.22607797" />
    <path
       id="path15398-0-4-2"
       style="fill:#217867;fill-opacity:1;stroke-width:0.264583"
       d="m 124.99965,96.17438 c -0.42305,0.104799 -1.04784,1.128173 -1.41156,1.118499 -2.39244,-0.06363 -2.8529,2.054525 -3.60023,3.985881 -0.84626,-0.0174 -0.9675,-1.393443 -1.59552,-0.51998 -0.34384,0.47823 0.64403,1.69884 0.30585,1.63528 -0.79326,-0.14911 0.28799,0.93763 0.12784,0.83251 -1.28805,-0.84553 -2.44474,-2.07657 -2.48585,-2.88757 -0.0554,-1.092391 0.26705,-2.574931 0.32197,-2.719531 0.98641,-2.59699 3.07111,-2.96175 5.06632,-2.96175 0,0 1.45779,0.130757 2.90264,1.145497 0.16326,0.114663 0.28086,0.164011 0.36849,0.371164 z"
       sodipodi:nodetypes="cscssssscscc" />
    <ellipse
       style="fill:#217867;fill-opacity:1;stroke-width:0.264583"
       id="path32880-2"
       cx="118.08058"
       cy="95.438614"
       rx="2.5466146"
       ry="2.0670574" />
    <ellipse
       style="fill:#217867;fill-opacity:1;stroke-width:0.265306"
       id="path32882-6"
       cx="18.1765"
       cy="146.0825"
       rx="1.1312833"
       ry="1.385286"
       transform="matrix(0.78729806,-0.61657259,0.69518503,0.71883084,0,0)" />
    <path
       id="path27312-2"
       style="fill:#215e3d;fill-opacity:1;stroke-width:0.264583"
       d="m 117.1803,93.425467 c 0.21788,0.175524 -0.39804,0.208229 -0.81422,0.63831 -0.41619,0.430081 -0.46809,1.087494 -0.68597,0.91197 -0.21787,-0.175519 0.0394,-0.621248 0.45557,-1.051328 0.41618,-0.430081 0.82675,-0.674471 1.04462,-0.498952 z"
       sodipodi:nodetypes="sssss" />
    <path
       id="path27312-2-5"
       style="fill:#215e3d;fill-opacity:1;stroke-width:0.264583"
       d="m 120.71668,94.692602 c 0.56381,0.292563 -1.03001,0.347076 -2.10696,1.063935 -1.07697,0.71686 -1.21128,1.812636 -1.77509,1.520072 -0.56378,-0.292555 0.10193,-1.035497 1.17888,-1.752354 1.07696,-0.716859 2.13939,-1.124209 2.70317,-0.831653 z"
       sodipodi:nodetypes="sssss" />
    <path
       id="path2169-5-4-04"
       style="fill:#ffccaa;stroke-width:0.566042"
       d="m 126.04688,99.906434 c 0.0677,0.245636 -0.33555,0.442706 -0.70711,0.442706 -0.37157,0 -0.68976,-0.29821 -0.67278,-0.472476 0.0209,-0.21446 0.28975,-0.46503 0.67278,-0.47248 0.37152,-0.007 0.62696,0.21154 0.70711,0.50225 z"
       sodipodi:nodetypes="sssss" />
    <ellipse
       style="fill:#502d16;stroke-width:0.344828"
       id="path2169-03"
       ry="0.2901839"
       rx="0.40652469"
       cy="99.909294"
       cx="125.37202" />
    <rect
       style="fill:#333333;fill-opacity:1;stroke:none;stroke-width:0.264583;stroke-opacity:0.958848"
       id="rect63234"
       width="0.30401909"
       height="0.10523738"
       x="125.82133"
       y="101.52888" />
    <path
       id="rect63414"
       style="fill:#782121;stroke-width:0.264583;stroke-opacity:0.958848"
       d="m 124.72272,102.53178 c 0.32625,0.0304 0.71627,-0.0738 1.16168,0 v 0.0935 c -0.39842,-0.0338 -0.78483,0.0358 -1.16168,0 z"
       sodipodi:nodetypes="ccccc" />
    <ellipse
       style="fill:#28170b;stroke-width:0.344828"
       id="path2169-0-8"
       ry="0.20486726"
       rx="0.27325708"
       cy="99.93589"
       cx="125.36419" />
  </g>
</svg>
