<?xml version="1.0" encoding="UTF-8" standalone="no"?>
<!-- Created with Inkscape (http://www.inkscape.org/) -->

<svg
   width="210mm"
   height="297mm"
   viewBox="0 0 210 297"
   version="1.1"
   id="svg2411"
   sodipodi:docname="perso_2_right1.svg"
   inkscape:version="1.1 (c68e22c387, 2021-05-23)"
   inkscape:export-filename="C:\Users\basti\OneDrive\Bureau\Gus veut boire un coup\Gus\LassL\lassl_r.png"
   inkscape:export-xdpi="69.096321"
   inkscape:export-ydpi="69.096321"
   xmlns:inkscape="http://www.inkscape.org/namespaces/inkscape"
   xmlns:sodipodi="http://sodipodi.sourceforge.net/DTD/sodipodi-0.dtd"
   xmlns="http://www.w3.org/2000/svg"
   xmlns:svg="http://www.w3.org/2000/svg">
  <sodipodi:namedview
     id="namedview2413"
     pagecolor="#ffffff"
     bordercolor="#666666"
     borderopacity="1.0"
     inkscape:pageshadow="2"
     inkscape:pageopacity="0.0"
     inkscape:pagecheckerboard="0"
     inkscape:document-units="mm"
     showgrid="false"
     inkscape:zoom="5.6568542"
     inkscape:cx="439.11332"
     inkscape:cy="395.18431"
     inkscape:window-width="1920"
     inkscape:window-height="1001"
     inkscape:window-x="-9"
     inkscape:window-y="-9"
     inkscape:window-maximized="1"
     inkscape:current-layer="layer1" />
  <defs
     id="defs2408" />
  <g
     inkscape:label="Calque 1"
     inkscape:groupmode="layer"
     id="layer1">
    <path
       id="path11385-4-1-1-3-3"
       style="fill:#56551c;fill-opacity:1;stroke-width:0.548397"
       d="m 126.53135,114.02511 c 0.24013,0.42459 -1.98584,1.26448 -3.22708,1.52474 -1.24123,0.26027 -1.73782,0.12012 -1.80483,-0.38661 -0.067,-0.50675 0.3761,-1.10301 1.63107,-1.08926 1.12106,0.0123 3.23764,-0.33747 3.40084,-0.0489 z"
       sodipodi:nodetypes="sssss" />
    <path
       id="path11724-09-7-2"
       style="fill:#56551c;fill-opacity:1;stroke-width:0.398875"
       d="m 126.53135,114.02511 c 0.0274,0.16052 -0.0833,0.66026 -1.25909,0.90683 -1.17585,0.24655 -1.81078,0.51355 -1.8322,0.35155 -0.0213,-0.1619 0.61101,-0.28952 1.78678,-0.53629 1.17585,-0.24655 1.27704,-0.8826 1.30451,-0.72211 z"
       sodipodi:nodetypes="ssssss" />
    <path
       id="rect10620-3-7-4"
       style="fill:#ff8080;stroke-width:0.462379"
       d="m 123.92939,111.87279 c -2.79387,-7.47673 -7.55902,-0.64001 -2.73713,2.76528 -0.07,-0.0658 0.32624,-0.28054 0.62408,0 l 2.55039,-0.56113 z"
       sodipodi:nodetypes="ccccc" />
    <path
       id="path11385-4-1-1-3"
       style="fill:#677821;stroke-width:0.548397"
       d="m 122.43992,115.66084 c -0.042,0.47273 -2.48096,-0.43102 -3.71771,-1.08652 -1.23674,-0.65549 -1.58687,-1.09565 -1.34518,-1.51034 0.24169,-0.4147 0.98132,-0.5473 2.06775,0.31711 0.97051,0.77218 3.02373,1.95844 2.99514,2.27975 z"
       sodipodi:nodetypes="sssss" />
    <path
       id="rect10620-3-7"
       style="fill:#ffaaaa;stroke-width:0.462379"
       d="m 118.21392,111.77925 c 2.79387,-7.47673 8.42431,-0.54647 3.60242,2.85882 0.07,-0.0658 -0.0142,-0.0846 -0.31204,0.19594 l -3.65496,-2.07285 z"
       sodipodi:nodetypes="ccccc" />
    <path
       id="rect21874-0-1"
       style="fill:#ffaaaa;fill-opacity:1;stroke-width:0.264583"
       d="m 118.56058,110.34267 5.76319,-0.11167 c -0.0285,0.65669 -0.35158,2.21768 -0.67902,2.41876 -3.0433,0.58017 -1.93472,0.9129 -4.52375,0.14727 0,-0.50617 -1.01356,-1.8747 -0.56041,-2.45436 z"
       sodipodi:nodetypes="cccccc" />
    <rect
       style="fill:#164450;stroke-width:0.264583"
       id="rect6755"
       width="3.2742486"
       height="1.7846678"
       x="129.95692"
       y="94.793076"
       transform="matrix(0.99214099,0.12512497,-0.12510734,0.99214321,0,0)" />
    <path
       id="rect8523-4-3"
       style="fill:#cdde87;stroke-width:0.376887"
       d="m 117.79815,105.98021 c 0.22628,-1.04361 0.60624,-1.94126 1.11495,-2.5195 1.4387,0.80487 2.54356,1.73871 4.27709,1.57683 0.37807,0.74672 1.25899,1.65023 1.41446,2.04079 0.11264,1.05089 -0.17785,2.10178 -0.28087,3.15267 l -5.76319,0.11167 c -0.56772,-1.24116 -0.69356,-2.68481 -0.76244,-4.36246 z"
       sodipodi:nodetypes="ccccccc" />
    <rect
       style="fill:#0b2228;stroke-width:0.264584"
       id="rect6755-4-9"
       width="3.2742372"
       height="0.55778188"
       x="130.79822"
       y="-94.079689"
       transform="matrix(0.99145755,0.13042979,0.13395391,-0.99098756,0,0)" />
    <ellipse
       style="fill:#92664a;fill-opacity:1;stroke-width:0.148356"
       id="path9819-9-7-2-9"
       cx="134.81104"
       cy="97.086403"
       rx="0.41002533"
       ry="0.34214294"
       transform="matrix(0.99473471,0.10248345,-0.14998863,0.98868772,0,0)" />
    <ellipse
       style="fill:#92664a;fill-opacity:1;stroke-width:0.398875"
       id="path9819-8-6-0"
       cx="94.601051"
       cy="-130.97629"
       rx="1.0276037"
       ry="1.1974843"
       transform="rotate(97.126037)" />
    <path
       id="path11724-09-7"
       style="fill:#445016;stroke-width:0.398875"
       d="m 122.41588,115.64195 c -0.0711,0.13561 -0.46366,0.42425 -1.63526,-0.19672 -1.17161,-0.62098 -1.88353,-0.85878 -1.80627,-0.99134 0.0772,-0.13253 0.7044,0.2051 1.87605,0.82585 1.17161,0.62097 1.63658,0.22661 1.56549,0.36219 z"
       sodipodi:nodetypes="ssssss" />
    <path
       id="path31-9-9-3"
       style="fill:#92664a;fill-opacity:1;fill-rule:evenodd;stroke-width:0.398876"
       d="m 116.8403,99.942649 c -0.1713,-1.006132 0.83569,-4.446325 5.07736,-4.38799 1.64862,0.02267 2.93879,0.07231 3.52036,1.053804 0.70146,1.183813 1.19382,3.022189 1.199,3.394907 0.0267,1.92078 -1.26577,4.01998 -3.15432,4.94142 -0.46299,0.2259 -1.18893,0.48748 -1.74825,0.30791 -1.93439,-0.62102 -4.54197,-3.24152 -4.89415,-5.310051 z"
       sodipodi:nodetypes="sssssss" />
    <path
       id="path6217-8-0"
       style="fill:#cdde87;stroke-width:0.398875"
       d="m 117.65105,106.949 c -0.40272,2.68789 -0.68885,2.7456 1.19035,3.04463 1.23158,0.19599 1.41434,-1.04501 1.66467,-2.25398 0.2944,-1.4218 0.54873,-2.54026 -0.27517,-2.62514 -0.8239,-0.0849 -2.36643,0.41107 -2.57985,1.83449 z"
       sodipodi:nodetypes="sssss" />
    <path
       id="path4257-0-5-6-5-9-6"
       style="fill:#bcd35f;fill-opacity:1;stroke-width:0.218811"
       d="m 119.95629,108.94498 c -0.0379,0.57407 -0.36255,0.79512 0.15948,0.71752 0,0 -0.0658,-1.82034 1.11253,-2.43688 0.61655,-0.32261 1.25667,-0.26 0.70891,-0.53692 -1.48032,-0.0438 -1.89442,0.94725 -1.98092,2.25628 z"
       sodipodi:nodetypes="ssscs" />
    <path
       id="rect1430-8-4-2"
       style="fill:#502d16;stroke-width:0.209405"
       d="m 124.42642,99.036024 0.91252,-0.221436 0.83023,0.147037 c -0.81781,0.100199 -1.63728,0.171673 -2.43395,0.646787 -0.037,-0.161858 0.68985,-0.449855 0.6912,-0.572398 z"
       sodipodi:nodetypes="ccccc"
       inkscape:transform-center-x="0.31751115"
       inkscape:transform-center-y="0.22607797" />
    <path
       id="path15398-0-4-2"
       style="fill:#217867;fill-opacity:1;stroke-width:0.264583"
       d="m 124.99965,96.17438 c -0.42305,0.104799 -1.04784,1.128173 -1.41156,1.118499 -2.39244,-0.06363 -2.8529,2.054525 -3.60023,3.985881 -0.84626,-0.0174 -0.9675,-1.393443 -1.59552,-0.51998 -0.34384,0.47823 0.64403,1.69884 0.30585,1.63528 -0.79326,-0.14911 0.28799,0.93763 0.12784,0.83251 -1.28805,-0.84553 -2.44474,-2.07657 -2.48585,-2.88757 -0.0554,-1.092391 0.26705,-2.574931 0.32197,-2.719531 0.98641,-2.59699 3.07111,-2.96175 5.06632,-2.96175 0,0 1.45779,0.130757 2.90264,1.145497 0.16326,0.114663 0.28086,0.164011 0.36849,0.371164 z"
       sodipodi:nodetypes="cscssssscscc" />
    <ellipse
       style="fill:#217867;fill-opacity:1;stroke-width:0.264583"
       id="path32880-2"
       cx="118.08058"
       cy="95.438614"
       rx="2.5466146"
       ry="2.0670574" />
    <ellipse
       style="fill:#217867;fill-opacity:1;stroke-width:0.265306"
       id="path32882-6"
       cx="18.1765"
       cy="146.0825"
       rx="1.1312833"
       ry="1.385286"
       transform="matrix(0.78729806,-0.61657259,0.69518503,0.71883084,0,0)" />
    <path
       id="path27312-2"
       style="fill:#215e3d;fill-opacity:1;stroke-width:0.264583"
       d="m 117.1803,93.425467 c 0.21788,0.175524 -0.39804,0.208229 -0.81422,0.63831 -0.41619,0.430081 -0.46809,1.087494 -0.68597,0.91197 -0.21787,-0.175519 0.0394,-0.621248 0.45557,-1.051328 0.41618,-0.430081 0.82675,-0.674471 1.04462,-0.498952 z"
       sodipodi:nodetypes="sssss" />
    <path
       id="path27312-2-5"
       style="fill:#215e3d;fill-opacity:1;stroke-width:0.264583"
       d="m 120.71668,94.692602 c 0.56381,0.292563 -1.03001,0.347076 -2.10696,1.063935 -1.07697,0.71686 -1.21128,1.812636 -1.77509,1.520072 -0.56378,-0.292555 0.10193,-1.035497 1.17888,-1.752354 1.07696,-0.716859 2.13939,-1.124209 2.70317,-0.831653 z"
       sodipodi:nodetypes="sssss" />
    <path
       id="path2169-5-4-04"
       style="fill:#ffccaa;stroke-width:0.566042"
       d="m 126.04688,99.906434 c 0.0677,0.245636 -0.33555,0.442706 -0.70711,0.442706 -0.37157,0 -0.68976,-0.29821 -0.67278,-0.472476 0.0209,-0.21446 0.28975,-0.46503 0.67278,-0.47248 0.37152,-0.007 0.62696,0.21154 0.70711,0.50225 z"
       sodipodi:nodetypes="sssss" />
    <ellipse
       style="fill:#502d16;stroke-width:0.344828"
       id="path2169-03"
       ry="0.2901839"
       rx="0.40652469"
       cy="99.909294"
       cx="125.37202" />
    <rect
       style="fill:#333333;fill-opacity:1;stroke:none;stroke-width:0.264583;stroke-opacity:0.958848"
       id="rect63234"
       width="0.30401909"
       height="0.10523738"
       x="125.82133"
       y="101.52888" />
    <path
       id="rect63414"
       style="fill:#782121;stroke-width:0.264583;stroke-opacity:0.958848"
       d="m 124.72272,102.53178 c 0.32625,0.0304 0.71627,-0.0738 1.16168,0 v 0.0935 c -0.39842,-0.0338 -0.78483,0.0358 -1.16168,0 z"
       sodipodi:nodetypes="ccccc" />
    <ellipse
       style="fill:#28170b;stroke-width:0.344828"
       id="path2169-0-8"
       ry="0.20486726"
       rx="0.27325708"
       cy="99.93589"
       cx="125.36419" />
  </g>
</svg>
