<?xml version="1.0" encoding="UTF-8" standalone="no"?>
<!-- Created with Inkscape (http://www.inkscape.org/) -->

<svg
   width="210mm"
   height="297mm"
   viewBox="0 0 210 297"
   version="1.1"
   id="svg2411"
   sodipodi:docname="perso_2_left.svg"
   inkscape:version="1.1 (c68e22c387, 2021-05-23)"
   inkscape:export-filename="C:\Users\basti\OneDrive\Bureau\Gus veut boire un coup\Gus\LassL\lassl_l.png"
   inkscape:export-xdpi="69.096321"
   inkscape:export-ydpi="69.096321"
   xmlns:inkscape="http://www.inkscape.org/namespaces/inkscape"
   xmlns:sodipodi="http://sodipodi.sourceforge.net/DTD/sodipodi-0.dtd"
   xmlns="http://www.w3.org/2000/svg"
   xmlns:svg="http://www.w3.org/2000/svg">
  <sodipodi:namedview
     id="namedview2413"
     pagecolor="#ffffff"
     bordercolor="#666666"
     borderopacity="1.0"
     inkscape:pageshadow="2"
     inkscape:pageopacity="0.0"
     inkscape:pagecheckerboard="0"
     inkscape:document-units="mm"
     showgrid="false"
     inkscape:zoom="16"
     inkscape:cx="445.375"
     inkscape:cy="410.21875"
     inkscape:window-width="1920"
     inkscape:window-height="1001"
     inkscape:window-x="-9"
     inkscape:window-y="-9"
     inkscape:window-maximized="1"
     inkscape:current-layer="layer1" />
  <defs
     id="defs2408" />
  <g
     inkscape:label="Calque 1"
     inkscape:groupmode="layer"
     id="layer1">
    <path
       id="path11385-4-1-1-3"
       style="fill:#677821;stroke-width:0.548397"
       d="m 115.89323,114.89018 c -0.22378,0.49757 2.23663,0.48687 3.78826,0.48687 1.55162,0 2.13311,-0.25589 2.13311,-0.80147 0,-0.54557 -0.63485,-1.07288 -2.15912,-0.78282 -1.36161,0.25911 -3.61016,0.75925 -3.76225,1.09742 z"
       sodipodi:nodetypes="sssss" />
    <path
       id="rect10620-3-7"
       style="fill:#ffaaaa;stroke-width:0.462379"
       d="m 122.08462,113.36883 c 2.45926,-7.59337 -6.25918,-5.66483 -4.59894,0 -0.0139,-0.0951 0.0675,0.44557 0.12642,0.85054 l 4.14772,0.14523 z"
       sodipodi:nodetypes="ccccc" />
    <path
       id="rect21874-0-1"
       style="fill:#ffaaaa;fill-opacity:1;stroke-width:0.264583"
       d="M 122.62979,110.34267 116.8666,110.231 c 0.0285,0.65669 0.35158,2.21768 0.67902,2.41876 3.0433,0.58017 1.93472,0.9129 4.52375,0.14727 0,-0.50617 1.01356,-1.8747 0.56041,-2.45436 z"
       sodipodi:nodetypes="cccccc" />
    <ellipse
       style="fill:#92664a;fill-opacity:1;stroke-width:0.398875"
       id="path9819-8-6-0"
       cx="110.6674"
       cy="119.97776"
       rx="1.0276037"
       ry="1.1974843"
       transform="matrix(0,1,1,0,0,0)" />
    <path
       id="path11724-09-7"
       style="fill:#445016;stroke-width:0.398875"
       d="m 115.89323,114.89018 c 0,0.17436 0.22564,0.31569 1.69555,0.31569 1.4699,0 1.91831,0.0902 1.91831,-0.0842 0,-0.17435 -0.44841,-0.13351 -1.91831,-0.13351 -1.46991,0 -1.69555,-0.27232 -1.69555,-0.098 z"
       sodipodi:nodetypes="sssss" />
    <path
       id="path31-9-9-3"
       style="fill:#92664a;fill-opacity:1;fill-rule:evenodd;stroke-width:0.398876"
       d="m 124.35007,99.942649 c 0.1713,-1.006132 -0.83569,-4.446325 -5.07736,-4.38799 -1.64862,0.02267 -2.93879,0.07231 -3.52036,1.053804 -0.70146,1.183813 -1.19382,3.022189 -1.199,3.394907 -0.0267,1.92078 1.26577,4.01998 3.15432,4.94142 0.46299,0.2259 1.18893,0.48748 1.74825,0.30791 1.93439,-0.62102 4.54197,-3.24152 4.89415,-5.310051 z"
       sodipodi:nodetypes="sssssss" />
    <path
       id="rect8523-4-3"
       style="fill:#cdde87;stroke-width:0.376887"
       d="m 123.39223,105.98021 c -0.22628,-1.04361 -0.60624,-1.94126 -1.11495,-2.5195 -1.4387,0.80487 -2.54356,1.73871 -4.27709,1.57683 -0.37807,0.74672 -1.25899,1.65023 -1.41446,2.04079 -0.11264,1.05089 0.17785,2.10178 0.28087,3.15267 l 5.76319,0.11167 c 0.56772,-1.24116 0.69356,-2.68481 0.76244,-4.36246 z"
       sodipodi:nodetypes="ccccccc" />
    <ellipse
       style="fill:#92664a;fill-opacity:1;stroke-width:0.148271"
       id="path9819-9-7-2-9"
       cx="-118.87446"
       cy="110.41853"
       rx="0.41104144"
       ry="0.41367638"
       transform="scale(-1,1)" />
    <path
       id="path4257-0-5-6-5-9-6"
       style="fill:#bcd35f;fill-opacity:1;stroke-width:0.218811"
       d="m 119.18319,108.94904 c -0.0176,0.69742 0.24006,1.00237 -0.26626,0.84417 0,0 -0.30321,-1.28594 -0.28315,-2.46163 0.0131,-0.73021 0.65458,-2.55432 0.61017,-0.79243 z"
       sodipodi:nodetypes="sssss" />
    <path
       id="path6217-8-0"
       style="fill:#cdde87;stroke-width:0.398875"
       d="m 121.6708,107.23646 c -0.005,3.05542 0.22717,3.6912 -1.63947,3.27105 -2.12062,-0.47731 -0.95445,-0.45537 -0.95153,-2.17746 0.003,-1.9825 0.60913,-3.68501 1.43945,-3.68501 0.83031,0 1.15405,0.97335 1.15155,2.59142 z"
       sodipodi:nodetypes="sssss" />
    <path
       id="rect1430-8-4-2"
       style="fill:#502d16;stroke-width:0.209405"
       d="m 116.76395,99.036024 -0.91252,-0.221436 -0.83023,0.147037 c 0.81781,0.100199 1.63728,0.171673 2.43395,0.646787 0.037,-0.161858 -0.68985,-0.449855 -0.6912,-0.572398 z"
       sodipodi:nodetypes="ccccc"
       inkscape:transform-center-x="-0.31751496"
       inkscape:transform-center-y="0.22607797" />
    <path
       id="path15398-0-4-2"
       style="fill:#217867;fill-opacity:1;stroke-width:0.264583"
       d="m 116.19072,96.17438 c 0.42305,0.104799 1.04784,1.128173 1.41156,1.118499 2.39244,-0.06363 2.8529,2.054525 3.60023,3.985881 0.84626,-0.0174 0.9675,-1.393443 1.59552,-0.51998 0.34384,0.47823 -0.64403,1.69884 -0.30585,1.63528 0.79326,-0.14911 -0.28799,0.93763 -0.12784,0.83251 1.28805,-0.84553 2.44474,-2.07657 2.48585,-2.88757 0.0554,-1.092391 -0.26705,-2.574931 -0.32197,-2.719531 -0.98641,-2.59699 -3.07111,-2.96175 -5.06632,-2.96175 0,0 -1.45779,0.130757 -2.90264,1.145497 -0.16326,0.114663 -0.28086,0.164011 -0.36849,0.371164 z"
       sodipodi:nodetypes="cscssssscscc" />
    <ellipse
       style="fill:#217867;fill-opacity:1;stroke-width:0.264583"
       id="path32880-2"
       cx="-123.10979"
       cy="95.438614"
       rx="2.5466146"
       ry="2.0670574"
       transform="scale(-1,1)" />
    <ellipse
       style="fill:#217867;fill-opacity:1;stroke-width:0.265306"
       id="path32882-6"
       cx="-156.14581"
       cy="-3.4413531"
       rx="1.1312833"
       ry="1.385286"
       transform="matrix(-0.78729806,-0.61657259,-0.69518503,0.71883084,0,0)" />
    <path
       id="path27312-2"
       style="fill:#215e3d;fill-opacity:1;stroke-width:0.264583"
       d="m 124.01007,93.425467 c -0.21788,0.175524 0.39804,0.208229 0.81422,0.63831 0.41619,0.430081 0.46809,1.087494 0.68597,0.91197 0.21787,-0.175519 -0.0394,-0.621248 -0.45557,-1.051328 -0.41618,-0.430081 -0.82675,-0.674471 -1.04462,-0.498952 z"
       sodipodi:nodetypes="sssss" />
    <path
       id="path27312-2-5"
       style="fill:#215e3d;fill-opacity:1;stroke-width:0.264583"
       d="m 120.47369,94.692602 c -0.56381,0.292563 1.03001,0.347076 2.10696,1.063935 1.07697,0.71686 1.21128,1.812636 1.77509,1.520072 0.56378,-0.292555 -0.10193,-1.035497 -1.17888,-1.752354 -1.07696,-0.716859 -2.13939,-1.124209 -2.70317,-0.831653 z"
       sodipodi:nodetypes="sssss" />
    <path
       id="path2169-5-4-04"
       style="fill:#ffccaa;stroke-width:0.566042"
       d="m 115.14349,99.906434 c -0.0677,0.245636 0.33555,0.442706 0.70711,0.442706 0.37157,0 0.68976,-0.29821 0.67278,-0.472476 -0.0209,-0.21446 -0.28975,-0.46503 -0.67278,-0.47248 -0.37152,-0.007 -0.62696,0.21154 -0.70711,0.50225 z"
       sodipodi:nodetypes="sssss" />
    <ellipse
       style="fill:#502d16;stroke-width:0.344828"
       id="path2169-03"
       ry="0.2901839"
       rx="0.40652469"
       cy="99.909294"
       cx="-115.81835"
       transform="scale(-1,1)" />
    <rect
       style="fill:#333333;fill-opacity:1;stroke:none;stroke-width:0.264583;stroke-opacity:0.958848"
       id="rect63234"
       width="0.30401909"
       height="0.10523738"
       x="-115.36904"
       y="101.52888"
       transform="scale(-1,1)" />
    <path
       id="rect63414"
       style="fill:#782121;stroke-width:0.264583;stroke-opacity:0.958848"
       d="m 116.46765,102.53178 c -0.32625,0.0304 -0.71627,-0.0738 -1.16168,0 v 0.0935 c 0.39842,-0.0338 0.78483,0.0358 1.16168,0 z"
       sodipodi:nodetypes="ccccc" />
    <ellipse
       style="fill:#28170b;stroke-width:0.344828"
       id="path2169-0-8"
       ry="0.20486726"
       rx="0.27325708"
       cy="99.93589"
       cx="-115.82618"
       transform="scale(-1,1)" />
    <path
       id="path9844"
       style="fill:#ffaaaa;stroke-width:0.264583"
       d="m 121.09877,111.4429 c 0.008,0.36695 -1.23499,0.4956 -1.94055,0.4956 -0.70555,0 -1.27752,-0.29765 -1.27752,-0.66482 0,-0.36717 0.65689,-1.16653 1.27752,-0.66483 0.67251,0.54361 1.93433,0.56929 1.94055,0.83405 z"
       sodipodi:nodetypes="sssss" />
    <path
       id="path9844-6"
       style="fill:#ff8080;stroke-width:0.264583"
       d="m 118.16939,111.62565 c -0.0298,0.15055 0.79515,0.48605 1.26829,0.64617 0.47314,0.16011 0.29487,0.13326 0.31932,-0.0192 0.0245,-0.15247 0.34412,0.0102 -0.23032,-0.0718 -0.57114,-0.0818 -1.33553,-0.66344 -1.35733,-0.55493 z"
       sodipodi:nodetypes="sssss" />
  </g>
</svg>
