<?xml version="1.0" encoding="UTF-8" standalone="no"?>
<!-- Created with Inkscape (http://www.inkscape.org/) -->

<svg
   width="210mm"
   height="297mm"
   viewBox="0 0 210 297"
   version="1.1"
   id="svg2411"
   sodipodi:docname="perso_2_dos1.svg"
   inkscape:version="1.1 (c68e22c387, 2021-05-23)"
   xmlns:inkscape="http://www.inkscape.org/namespaces/inkscape"
   xmlns:sodipodi="http://sodipodi.sourceforge.net/DTD/sodipodi-0.dtd"
   xmlns="http://www.w3.org/2000/svg"
   xmlns:svg="http://www.w3.org/2000/svg">
  <sodipodi:namedview
     id="namedview2413"
     pagecolor="#ffffff"
     bordercolor="#666666"
     borderopacity="1.0"
     inkscape:pageshadow="2"
     inkscape:pageopacity="0.0"
     inkscape:pagecheckerboard="0"
     inkscape:document-units="mm"
     showgrid="false"
     inkscape:zoom="11.313709"
     inkscape:cx="450.33863"
     inkscape:cy="410.87323"
     inkscape:window-width="1920"
     inkscape:window-height="1001"
     inkscape:window-x="-9"
     inkscape:window-y="-9"
     inkscape:window-maximized="1"
     inkscape:current-layer="layer1" />
  <defs
     id="defs2408" />
  <g
     inkscape:label="Calque 1"
     inkscape:groupmode="layer"
     id="layer1">
    <rect
       style="fill:#1c1f24;fill-opacity:1;stroke-width:0.264588"
       id="rect23132-3"
       width="1.427597"
       height="2.8063653"
       x="101.25603"
       y="124.2364"
       transform="matrix(0.98541455,-0.17017097,0.16090634,0.98696968,0,0)"
       inkscape:export-filename="C:\Users\basti\OneDrive\Bureau\Gus veut boire un coup\Gus\LassL\lassl_dos.png"
       inkscape:export-xdpi="68.732162"
       inkscape:export-ydpi="68.732162" />
    <ellipse
       style="fill:#deaa87;stroke-width:0.398875"
       id="path9819-4-0"
       cx="120.13867"
       cy="107.48852"
       rx="1.0276037"
       ry="1.1974843"
       inkscape:export-filename="C:\Users\basti\OneDrive\Bureau\Gus veut boire un coup\Gus\LassL\lassl_dos.png"
       inkscape:export-xdpi="68.732162"
       inkscape:export-ydpi="68.732162" />
    <path
       id="path10057-3"
       style="fill:#d38d5f;stroke-width:0.398875"
       d="m 119.59406,107.37384 c 0.26699,0.42627 0.58623,0.50069 0.50869,0.57005 -0.0776,0.0694 -0.25929,-0.0851 -0.57415,-0.46848 -0.31486,-0.38348 -0.39984,-0.54556 -0.32223,-0.61499 0.0776,-0.0694 0.12299,0.0908 0.38772,0.51338 z"
       sodipodi:nodetypes="sssss"
       inkscape:export-filename="C:\Users\basti\OneDrive\Bureau\Gus veut boire un coup\Gus\LassL\lassl_dos.png"
       inkscape:export-xdpi="68.732162"
       inkscape:export-ydpi="68.732162" />
    <path
       id="path11385-4-04-4"
       style="fill:#677821;stroke-width:0.548397"
       d="m 126.48756,113.80647 c 0,0.81236 -0.56635,0.98046 -2.10614,0.98046 -1.53979,0 -2.07591,-0.1681 -2.07591,-0.98046 0,-0.81238 0.60285,-1.16564 2.14265,-1.16564 1.53978,0 2.0394,0.35326 2.0394,1.16564 z"
       sodipodi:nodetypes="sssss"
       inkscape:export-filename="C:\Users\basti\OneDrive\Bureau\Gus veut boire un coup\Gus\LassL\lassl_dos.png"
       inkscape:export-xdpi="68.732162"
       inkscape:export-ydpi="68.732162" />
    <path
       id="path11385-4-1-1-3"
       style="fill:#677821;stroke-width:0.548397"
       d="m 121.76206,114.2243 c 0,0.89224 -0.56453,1.10025 -2.11616,1.10025 -1.55162,0 -2.09803,-0.20801 -2.09803,-1.10025 0,-0.8922 0.6075,-1.2802 2.15912,-1.2802 1.55163,0 2.05507,0.388 2.05507,1.2802 z"
       sodipodi:nodetypes="sssss"
       inkscape:export-filename="C:\Users\basti\OneDrive\Bureau\Gus veut boire un coup\Gus\LassL\lassl_dos.png"
       inkscape:export-xdpi="68.732162"
       inkscape:export-ydpi="68.732162" />
    <ellipse
       style="fill:#92664a;fill-opacity:1;stroke-width:0.148271"
       id="path9819-9-7-2-9"
       cx="124.76942"
       cy="110.15421"
       rx="0.41104144"
       ry="0.41367638"
       inkscape:export-filename="C:\Users\basti\OneDrive\Bureau\Gus veut boire un coup\Gus\LassL\lassl_dos.png"
       inkscape:export-xdpi="68.732162"
       inkscape:export-ydpi="68.732162" />
    <ellipse
       style="fill:#92664a;fill-opacity:1;stroke-width:0.398875"
       id="path9819-8-6-0"
       cx="109.65981"
       cy="-126.34091"
       rx="1.0276037"
       ry="1.1974843"
       transform="rotate(90)"
       inkscape:export-filename="C:\Users\basti\OneDrive\Bureau\Gus veut boire un coup\Gus\LassL\lassl_dos.png"
       inkscape:export-xdpi="68.732162"
       inkscape:export-ydpi="68.732162" />
    <ellipse
       style="fill:#92664a;fill-opacity:1;stroke-width:0.148271"
       id="path9819-9-7-2"
       cx="118.26447"
       cy="110.31834"
       rx="0.41104144"
       ry="0.41367638"
       inkscape:export-filename="C:\Users\basti\OneDrive\Bureau\Gus veut boire un coup\Gus\LassL\lassl_dos.png"
       inkscape:export-xdpi="68.732162"
       inkscape:export-ydpi="68.732162" />
    <path
       id="path4257-0-5-6-5-9-6"
       style="fill:#bcd35f;fill-opacity:1;stroke-width:0.218811"
       d="m 124.9377,107.88447 c -0.0176,0.4956 0.24006,0.7123 -0.26626,0.59988 0,0 -0.30321,-0.91381 -0.28315,-1.74928 0.0131,-0.5189 0.65458,-1.81514 0.61017,-0.56311 z"
       sodipodi:nodetypes="sssss"
       inkscape:export-filename="C:\Users\basti\OneDrive\Bureau\Gus veut boire un coup\Gus\LassL\lassl_dos.png"
       inkscape:export-xdpi="68.732162"
       inkscape:export-ydpi="68.732162" />
    <rect
       style="fill:#164450;stroke-width:0.264583"
       id="rect6755"
       width="3.2742486"
       height="1.7846678"
       x="124.84"
       y="109.44701"
       transform="matrix(0.99999942,0.00108099,-0.00106322,0.99999943,0,0)"
       inkscape:export-filename="C:\Users\basti\OneDrive\Bureau\Gus veut boire un coup\Gus\LassL\lassl_dos.png"
       inkscape:export-xdpi="68.732162"
       inkscape:export-ydpi="68.732162" />
    <path
       id="path4257-0-5-6-5-9"
       style="fill:#bcd35f;fill-opacity:1;stroke-width:0.218811"
       d="m 117.79651,107.63296 c 0.008,0.32741 -0.11184,0.47057 0.12404,0.3963 0,0 0.14127,-0.6037 0.13192,-1.15565 -0.006,-0.34281 -0.30496,-1.19917 -0.28427,-0.37202 z"
       sodipodi:nodetypes="sssss"
       inkscape:export-filename="C:\Users\basti\OneDrive\Bureau\Gus veut boire un coup\Gus\LassL\lassl_dos.png"
       inkscape:export-xdpi="68.732162"
       inkscape:export-ydpi="68.732162" />
    <rect
       style="fill:#0b2228;stroke-width:0.264584"
       id="rect6755-4-9"
       width="3.2742372"
       height="0.55778188"
       x="125.81229"
       y="-108.7784"
       transform="matrix(0.99997933,0.00642962,0.00998482,-0.99995015,0,0)"
       inkscape:export-filename="C:\Users\basti\OneDrive\Bureau\Gus veut boire un coup\Gus\LassL\lassl_dos.png"
       inkscape:export-xdpi="68.732162"
       inkscape:export-ydpi="68.732162" />
    <path
       id="path6217-8-0"
       style="fill:#cdde87;stroke-width:0.398875"
       d="m 125.22693,106.19862 c 0.005,2.6191 -0.27023,2.70276 1.63947,2.80393 1.25157,0.0663 0.90445,-0.36298 0.95153,-1.86651 0.0532,-1.69878 -0.60913,-3.15878 -1.43945,-3.15878 -0.83031,0 -1.15405,0.83435 -1.15155,2.22136 z"
       sodipodi:nodetypes="sssss"
       inkscape:export-filename="C:\Users\basti\OneDrive\Bureau\Gus veut boire un coup\Gus\LassL\lassl_dos.png"
       inkscape:export-xdpi="68.732162"
       inkscape:export-ydpi="68.732162" />
    <path
       id="rect10620-1-8-2"
       style="fill:#ffaaaa;stroke-width:0.398877"
       d="m 122.09463,113.13009 c -0.9251,-3.14351 4.8882,-4.0257 4.5744,0 l -0.17562,0.90623 h -4.16461 z"
       sodipodi:nodetypes="ccccc"
       inkscape:export-filename="C:\Users\basti\OneDrive\Bureau\Gus veut boire un coup\Gus\LassL\lassl_dos.png"
       inkscape:export-xdpi="68.732162"
       inkscape:export-ydpi="68.732162" />
    <path
       id="rect21874-0-1"
       style="fill:#ffaaaa;fill-opacity:1;stroke-width:0.264583"
       d="m 117.94726,110.10058 8.4601,0.16349 c -0.0285,0.65669 0.45942,2.17638 0.13198,2.37746 -3.0433,0.58017 -6.58855,0.70243 -9.17758,-0.0632 0,-0.50617 0.13236,-1.89809 0.58551,-2.47775 z"
       sodipodi:nodetypes="cccccc"
       inkscape:export-filename="C:\Users\basti\OneDrive\Bureau\Gus veut boire un coup\Gus\LassL\lassl_dos.png"
       inkscape:export-xdpi="68.732162"
       inkscape:export-ydpi="68.732162" />
    <ellipse
       style="fill:#92664a;fill-opacity:1;stroke-width:0.398875"
       id="path9819-8-6"
       cx="110.41402"
       cy="-117.48447"
       rx="1.0276037"
       ry="1.1974843"
       transform="rotate(90)"
       inkscape:export-filename="C:\Users\basti\OneDrive\Bureau\Gus veut boire un coup\Gus\LassL\lassl_dos.png"
       inkscape:export-xdpi="68.732162"
       inkscape:export-ydpi="68.732162" />
    <path
       id="rect10620-3-7"
       style="fill:#ffaaaa;stroke-width:0.462379"
       d="m 117.31712,112.89088 c -0.27921,-3.69776 5.05147,-2.40105 4.78289,0 0.0144,-0.0876 -0.20402,0.48595 -0.26524,0.85908 -1.33415,-0.4214 -2.71737,-0.63931 -4.31363,0.0261 z"
       sodipodi:nodetypes="ccccc"
       inkscape:export-filename="C:\Users\basti\OneDrive\Bureau\Gus veut boire un coup\Gus\LassL\lassl_dos.png"
       inkscape:export-xdpi="68.732162"
       inkscape:export-ydpi="68.732162" />
    <path
       id="path31-9-9-3"
       style="fill:#92664a;fill-opacity:1;fill-rule:evenodd;stroke-width:0.398876"
       d="m 116.04975,99.942649 c 0.14833,-1.01136 0.9041,-4.44628 5.49301,-4.38799 3.98831,0.0507 5.34065,2.8952 5.51614,3.66866 0.52417,2.310141 -2.51875,7.142581 -5.8797,7.087711 -3.36097,-0.0549 -5.43038,-4.31644 -5.12945,-6.368381 z"
       sodipodi:nodetypes="sssss"
       inkscape:export-filename="C:\Users\basti\OneDrive\Bureau\Gus veut boire un coup\Gus\LassL\lassl_dos.png"
       inkscape:export-xdpi="68.732162"
       inkscape:export-ydpi="68.732162" />
    <path
       id="rect8523-4-3"
       style="fill:#cdde87;stroke-width:0.376887"
       d="m 116.41837,104.60383 0.92785,-0.74215 c 2.61615,0.43998 5.27886,0.0737 8.07407,0.006 l 1.04412,0.10983 -0.0337,6.31299 c -0.57793,0.12379 -0.94773,0.77227 -1.47005,0.84034 -1.97338,0.2572 -3.92864,-0.41698 -7.14847,-0.76174 z"
       sodipodi:nodetypes="cccccscc"
       inkscape:export-filename="C:\Users\basti\OneDrive\Bureau\Gus veut boire un coup\Gus\LassL\lassl_dos.png"
       inkscape:export-xdpi="68.732162"
       inkscape:export-ydpi="68.732162" />
    <path
       id="path6217-8"
       style="fill:#cdde87;stroke-width:0.398875"
       d="m 119.00365,107.25818 c 3.94567,2.36551 1.134,2.8978 -1.31749,3.03574 -1.6011,0.0901 -2.14424,-0.36058 -2.14424,-2.96026 0,-1.81569 0.78274,-3.37473 1.84969,-3.37473 1.06696,0 0.10359,2.3949 1.61204,3.29925 z"
       sodipodi:nodetypes="sssss"
       inkscape:export-filename="C:\Users\basti\OneDrive\Bureau\Gus veut boire un coup\Gus\LassL\lassl_dos.png"
       inkscape:export-xdpi="68.732162"
       inkscape:export-ydpi="68.732162" />
    <path
       id="path15398-0-4-2"
       style="fill:#217867;fill-opacity:1;stroke-width:0.264583"
       d="m 127.31026,99.744279 c -0.007,0.0289 -0.31686,1.193181 -0.93835,2.251391 -0.28521,0.48563 -0.33606,-0.34195 -1.09264,-0.9242 -0.58868,-0.45304 -0.84755,0.33459 -1.53876,0.69671 -1.09065,0.57139 -1.99922,1.48554 -2.54301,1.47485 -0.88652,-0.0174 -1.73674,-0.6533 -2.73373,-0.91406 -1.61806,-0.42319 -0.96107,-1.83704 -1.59954,-0.58753 -0.65158,1.27526 -0.89404,-0.59144 -0.93711,-1.40244 -0.058,-1.092391 0.27976,-2.574931 0.33729,-2.719531 1.03334,-2.59699 3.21723,-2.96175 5.30736,-2.96175 2.09013,0 4.67936,0.96683 5.68587,3.67758 0.12372,0.46967 0.14942,0.99196 0.0526,1.40901 z"
       sodipodi:nodetypes="sssssssssscss"
       inkscape:export-filename="C:\Users\basti\OneDrive\Bureau\Gus veut boire un coup\Gus\LassL\lassl_dos.png"
       inkscape:export-xdpi="68.732162"
       inkscape:export-ydpi="68.732162" />
    <ellipse
       style="fill:#217867;fill-opacity:1;stroke-width:0.264583"
       id="path32880-2"
       cx="121.3548"
       cy="96.199295"
       rx="2.5466146"
       ry="2.0670574"
       inkscape:export-filename="C:\Users\basti\OneDrive\Bureau\Gus veut boire un coup\Gus\LassL\lassl_dos.png"
       inkscape:export-xdpi="68.732162"
       inkscape:export-ydpi="68.732162" />
    <ellipse
       style="fill:#217867;fill-opacity:1;stroke-width:0.264583"
       id="path32882-6"
       cx="121.2225"
       cy="93.76841"
       rx="1.0914062"
       ry="1.3559896"
       inkscape:export-filename="C:\Users\basti\OneDrive\Bureau\Gus veut boire un coup\Gus\LassL\lassl_dos.png"
       inkscape:export-xdpi="68.732162"
       inkscape:export-ydpi="68.732162" />
    <path
       id="path27312"
       style="fill:#215e3d;fill-opacity:1;stroke-width:0.264583"
       d="m 123.88303,96.766512 c 0,-0.36165 -1.07288,0.4911 -2.49124,0.4911 -1.41836,0 -2.62142,-0.85275 -2.62143,-0.4911 0,0.36164 1.16756,0.90036 2.58592,0.90036 1.41837,0 2.52675,-0.53872 2.52675,-0.90036 z"
       sodipodi:nodetypes="sssss"
       inkscape:export-filename="C:\Users\basti\OneDrive\Bureau\Gus veut boire un coup\Gus\LassL\lassl_dos.png"
       inkscape:export-xdpi="68.732162"
       inkscape:export-ydpi="68.732162" />
    <path
       id="path27312-2"
       style="fill:#215e3d;fill-opacity:1;stroke-width:0.264583"
       d="m 122.21403,94.424837 c 0,-0.36165 -0.42393,0.4911 -0.98438,0.4911 -0.56045,0 -1.03583,-0.85275 -1.03583,-0.4911 0,0.36164 0.46135,0.90036 1.02179,0.90036 0.56045,0 0.99842,-0.53872 0.99842,-0.90036 z"
       sodipodi:nodetypes="sssss"
       inkscape:export-filename="C:\Users\basti\OneDrive\Bureau\Gus veut boire un coup\Gus\LassL\lassl_dos.png"
       inkscape:export-xdpi="68.732162"
       inkscape:export-ydpi="68.732162" />
    <path
       id="path2155"
       style="fill:#ff8080;stroke-width:0.264583"
       d="m 122.3688,112.05143 c 0.0278,0.006 0.3144,1.51821 -0.0273,1.97804 -0.0459,0.0618 -0.37822,-1.31004 -0.24847,-1.21626 0.64456,0.46587 -0.21217,0.88875 -0.24303,0.88115 -0.0311,-0.007 -0.10074,-0.15627 0.11697,-0.92119 0.21771,-0.76491 0.37103,-0.72934 0.40189,-0.72173 z"
       sodipodi:nodetypes="csscscc"
       inkscape:export-filename="C:\Users\basti\OneDrive\Bureau\Gus veut boire un coup\Gus\LassL\lassl_dos.png"
       inkscape:export-xdpi="68.732162"
       inkscape:export-ydpi="68.732162" />
    <path
       id="path2526"
       style="fill:#bcd35f;stroke-width:0.264583"
       d="m 126.51965,107.59379 c 0,0.77256 -0.0481,1.39883 -0.10749,1.39881 -0.0594,2e-5 -0.10749,-0.62625 -0.10749,-1.39881 0,-0.77255 -0.13896,-1.39882 -0.0796,-1.3988 0.0594,-2e-5 0.29458,0.62625 0.29458,1.3988 z"
       sodipodi:nodetypes="scscs"
       inkscape:export-filename="C:\Users\basti\OneDrive\Bureau\Gus veut boire un coup\Gus\LassL\lassl_dos.png"
       inkscape:export-xdpi="68.732162"
       inkscape:export-ydpi="68.732162" />
    <path
       id="path2526-6"
       style="fill:#bcd35f;stroke-width:0.264583"
       d="m 117.57089,108.1957 c 0,1.17359 0.0481,2.12497 0.10749,2.12494 0.0594,3e-5 0.10749,-0.95135 0.10749,-2.12494 0,-1.17359 0.13896,-2.12496 0.0796,-2.12493 -0.0594,-3e-5 -0.29458,0.95134 -0.29458,2.12493 z"
       sodipodi:nodetypes="scscs"
       inkscape:export-filename="C:\Users\basti\OneDrive\Bureau\Gus veut boire un coup\Gus\LassL\lassl_dos.png"
       inkscape:export-xdpi="68.732162"
       inkscape:export-ydpi="68.732162" />
    <ellipse
       style="fill:#6b6c33;fill-opacity:1;stroke-width:0.264583"
       id="path3552"
       cx="119.6199"
       cy="114.86436"
       rx="1.9016926"
       ry="0.45888671" />
  </g>
</svg>
