<?xml version="1.0" encoding="UTF-8" standalone="no"?>
<!-- Created with Inkscape (http://www.inkscape.org/) -->

<svg
   width="210mm"
   height="297mm"
   viewBox="0 0 210 297"
   version="1.1"
   id="svg20333"
   inkscape:version="1.1 (c68e22c387, 2021-05-23)"
   sodipodi:docname="pnj_fond_bus.svg"
   inkscape:export-filename="C:\Users\basti\OneDrive\Bureau\Gus veut boire un coup\bank\pnj\fond_bus.png"
   inkscape:export-xdpi="68.796555"
   inkscape:export-ydpi="68.796555"
   xmlns:inkscape="http://www.inkscape.org/namespaces/inkscape"
   xmlns:sodipodi="http://sodipodi.sourceforge.net/DTD/sodipodi-0.dtd"
   xmlns="http://www.w3.org/2000/svg"
   xmlns:svg="http://www.w3.org/2000/svg">
  <sodipodi:namedview
     id="namedview20335"
     pagecolor="#ffffff"
     bordercolor="#666666"
     borderopacity="1.0"
     inkscape:pageshadow="2"
     inkscape:pageopacity="0.0"
     inkscape:pagecheckerboard="0"
     inkscape:document-units="mm"
     showgrid="false"
     inkscape:zoom="3.0892141"
     inkscape:cx="96.140957"
     inkscape:cy="113.45928"
     inkscape:window-width="1920"
     inkscape:window-height="1001"
     inkscape:window-x="-9"
     inkscape:window-y="-9"
     inkscape:window-maximized="1"
     inkscape:current-layer="layer1" />
  <defs
     id="defs20330" />
  <g
     inkscape:label="Calque 1"
     inkscape:groupmode="layer"
     id="layer1">
    <ellipse
       style="fill:#000000;fill-opacity:1;stroke-width:0.264583"
       id="path27593-7"
       cx="6.2917767"
       cy="10.075768"
       rx="4.9609375"
       ry="0.63232005" />
    <path
       id="rect8523-7-3"
       style="fill:#1a1a1a;stroke-width:0.376887"
       d="m 1.67142,10.027788 8.82883,-0.33842 0.71931,-0.0336 -0.20607,6.69686 -8.93427,0.0462 z"
       sodipodi:nodetypes="cccccc" />
    <path
       id="path31-9-2-9"
       style="fill:#deaa87;fill-rule:evenodd;stroke-width:0.398877"
       d="m 1.18683,4.997658 c 0.14833,-1.08937 0.9041,-4.7892 5.49301,-4.72642 3.98831,0.0546 5.34065,3.1185 5.51614,3.95161 0.52417,2.48831 -2.51875,7.69345 -5.8797,7.63435 -3.36097,-0.0591 -5.43038,-4.64935 -5.12945,-6.85954 z"
       sodipodi:nodetypes="sssss" />
    <path
       id="rect18543-7-3"
       style="fill:#502d16;stroke-width:0.264583"
       d="m 5.8712,10.183998 0.80181,0.0556 0.78848,-0.0439 0.14761,0.21442 -0.95955,-0.0248 -1.03334,0.021 z"
       sodipodi:nodetypes="ccccccc" />
    <path
       id="rect1430-2-3"
       style="fill:#a05a2c;stroke-width:0.210089"
       d="m 3.95807,8.077798 1.07041,-0.0215 0.89186,0.30862 c -0.93618,-0.0734 -1.86747,-0.17375 -2.86831,0.11055 -0.003,-0.16006 0.87569,-0.28244 0.90604,-0.3976 z"
       sodipodi:nodetypes="ccccc"
       inkscape:transform-center-x="0.43209938"
       inkscape:transform-center-y="0.053550192" />
    <path
       id="rect1430-8-45-7"
       style="fill:#784421;stroke-width:0.209405"
       d="m 9.02336,8.063298 -0.95129,-0.0436 -0.79706,0.32858 c 0.83326,-0.0647 1.66253,-0.16017 2.5484,0.17569 0.005,-0.17877 -0.77464,-0.33145 -0.80005,-0.46066 z"
       sodipodi:nodetypes="ccccc"
       inkscape:transform-center-x="-0.37404457"
       inkscape:transform-center-y="0.086202696" />
    <path
       id="path2169-5-4-4-0"
       style="fill:#ffccaa;stroke-width:0.566042"
       d="m 5.35143,9.151468 c 0.0818,0.26459 -0.40549,0.47685 -0.85449,0.47685 -0.44901,0 -0.83351,-0.3212 -0.81299,-0.50892 0.0252,-0.231 0.35014,-0.50089 0.81299,-0.50892 0.44895,-0.007 0.75763,0.22786 0.85449,0.54099 z"
       sodipodi:nodetypes="sssss" />
    <path
       id="path2169-5-4-0-6-8"
       style="fill:#ffccaa;stroke-width:0.551594"
       d="m 7.72345,9.131518 c -0.0777,0.26459 0.38507,0.47686 0.81143,0.47686 0.42638,0 0.79151,-0.3212 0.77202,-0.5089 -0.024,-0.23102 -0.3325,-0.50092 -0.77202,-0.50892 -0.42632,-0.008 -0.71945,0.22784 -0.81143,0.54096 z"
       sodipodi:nodetypes="sssss" />
    <ellipse
       style="fill:#225500;stroke-width:0.344828"
       id="path2169-50-2"
       ry="0.31256434"
       rx="0.49125054"
       cy="9.2891169"
       cx="4.6503429" />
    <ellipse
       style="fill:#28170b;stroke-width:0.344828"
       id="path2169-0-1-5"
       ry="0.22066765"
       rx="0.33020797"
       cy="9.3684015"
       cx="4.6700573" />
    <ellipse
       style="fill:#225500;stroke-width:0.314342"
       id="path2169-5-7-4"
       cx="8.4207592"
       cy="9.3030329"
       rx="0.40822226"
       ry="0.31256434" />
    <ellipse
       style="fill:#28170b;stroke-width:0.344828"
       id="path2169-0-2-3-2"
       ry="0.22066765"
       rx="0.33020797"
       cy="9.3615046"
       cx="8.4170971" />
    <path
       id="path3219-7-2"
       style="fill:#241c1c;stroke-width:0.398877"
       d="m 6.43473,10.535338 c 0,0.0487 -0.009,0.0401 -0.18334,0.0401 -0.17388,0 -0.12801,5.7e-4 -0.12801,-0.048 0,-0.0487 -0.0251,-0.056 0.14876,-0.056 0.17386,0 0.16259,0.0154 0.16259,0.064 z"
       sodipodi:nodetypes="sssss" />
    <path
       id="path3219-1-8-7"
       style="fill:#241c1c;stroke-width:0.398877"
       d="m 7.12469,10.527148 c 0,0.0487 -0.009,0.0401 -0.18336,0.0401 -0.17386,0 -0.128,5.7e-4 -0.128,-0.048 0,-0.0487 -0.0251,-0.056 0.14876,-0.056 0.17387,0 0.1626,0.0154 0.1626,0.064 z"
       sodipodi:nodetypes="sssss" />
    <path
       id="rect12747-0-5"
       style="fill:#1c1f24;stroke-width:0.398877"
       d="m 5.7006,10.463248 h 1.79071 l -0.12453,0.0443 -1.55894,0.004 z"
       sodipodi:nodetypes="ccccc" />
    <path
       id="path11385-4-04-45"
       style="fill:#ccff00;stroke-width:0.548397"
       d="m 10.62002,22.421223 c 0,0.92893 -0.53779,1.36463 -2.11382,1.36463 -1.57604,0 -2.16667,-0.4357 -2.16667,-1.36463 0,-0.92895 0.61705,-1.3329 2.19309,-1.3329 1.57603,0 2.0874,0.40395 2.0874,1.3329 z"
       sodipodi:nodetypes="sssss" />
    <path
       id="path11385-4-1-1-5"
       style="fill:#ccff00;stroke-width:0.548397"
       d="m 6.43389,22.633644 c 0,0.92894 -0.53778,1.36465 -2.11382,1.36465 -1.57603,0 -2.16667,-0.43571 -2.16667,-1.36465 0,-0.92893 0.61706,-1.33289 2.19309,-1.33289 1.57604,0 2.0874,0.40396 2.0874,1.33289 z"
       sodipodi:nodetypes="sssss" />
    <rect
       style="fill:#000000;fill-opacity:1;stroke-width:0.264583"
       id="rect12969"
       width="4.4001384"
       height="2.2589517"
       x="4.4344616"
       y="17.785215" />
    <path
       id="rect10620-3-0"
       style="fill:#002b11;stroke-width:0.462379"
       d="m 2.12099,20.417817 c 0.0806,-5.45196 4.58111,-4.756 4.58756,0 0.0138,-0.16822 -0.19569,0.9334 -0.25441,1.65011 l -4.13746,0.0501 z"
       sodipodi:nodetypes="ccccc" />
    <path
       id="rect10620-1-8-9"
       style="fill:#002b11;stroke-width:0.398877"
       d="m 6.21929,20.489017 c 0.63078,-5.55506 4.53305,-4.76464 4.58757,0 l -0.17613,1.57891 H 6.45414 Z"
       sodipodi:nodetypes="ccccc" />
    <path
       id="rect21874-0-5"
       style="fill:#00002b;stroke-width:0.264583"
       d="m 2.60099,14.804278 8.35347,0.0378 c -0.0271,0.79577 0.20596,2.94011 -0.10584,3.18377 -2.89786,0.70305 -6.07716,0.73739 -8.54246,-0.19037 0,-0.61337 -0.56661,-2.41782 0.29484,-3.03119 z"
       sodipodi:nodetypes="cccccc" />
    <ellipse
       style="fill:#1a1a1a;fill-opacity:1;stroke-width:0.264583"
       id="path27593"
       cx="6.2917767"
       cy="9.6661005"
       rx="4.9609375"
       ry="0.63232005" />
    <path
       id="path4257-0-5-7-9"
       style="fill:#000000;fill-opacity:1;stroke-width:0.253626"
       d="m 11.05891,12.633508 c -0.0207,0.61025 0.28196,0.87711 -0.31273,0.73867 0,0 -0.35615,-1.12524 -0.33257,-2.15402 0.0147,-0.63896 0.76884,-2.23508 0.71667,-0.69338 z"
       sodipodi:nodetypes="sssss" />
    <path
       id="path31-9-9-4"
       style="fill:#deaa87;fill-opacity:1;fill-rule:evenodd;stroke-width:0.398877"
       d="M 1.43612,6.707463 C 1.58445,5.618103 1.8103,0.813018 6.39921,0.875798 c 3.98831,0.0546 4.64419,4.223745 4.81968,5.056865 0.52417,2.48831 -1.73145,6.406509 -5.0924,6.347409 -3.36097,-0.0591 -4.9913,-3.362409 -4.69037,-5.572609 z"
       sodipodi:nodetypes="sssss" />
    <ellipse
       style="fill:#deaa87;stroke-width:0.398877"
       id="path9819-5-0-5"
       cx="5.4599743"
       cy="14.758355"
       rx="0.97849721"
       ry="1.2467589" />
    <ellipse
       style="fill:#deaa87;stroke-width:0.148272"
       id="path9819-9-5-7-0"
       cx="11.466932"
       cy="13.838983"
       rx="0.39139882"
       ry="0.43069854" />
    <path
       id="path4257-0-5-6-5-0"
       style="fill:#000000;fill-opacity:1;stroke-width:0.218811"
       d="m 2.02101,12.809908 c 0.0154,0.51599 -0.20987,0.7416 0.23277,0.62455 0,0 0.26508,-0.9514 0.24754,-1.82125 -0.0115,-0.54026 -0.57226,-1.88983 -0.53343,-0.58628 z"
       sodipodi:nodetypes="sssss" />
    <ellipse
       style="fill:#deaa87;stroke-width:0.398877"
       id="path9819-8-8"
       cx="17.148493"
       cy="-10.200209"
       rx="0.97849721"
       ry="1.2467589"
       transform="rotate(90)" />
    <ellipse
       style="fill:#deaa87;stroke-width:0.148272"
       id="path9819-9-7-8-8"
       cx="4.9400463"
       cy="13.516503"
       rx="0.39139882"
       ry="0.43069854" />
    <path
       id="path6217-9-9"
       style="fill:#1a1a1a;stroke-width:0.398877"
       d="m 3.17033,12.488708 c 3.75712,2.46285 3.1898,3.70571 0.85546,3.84933 C 2.5012,16.431838 0,16.238038 0,13.531438 c 0,-1.8904 0.74533,-3.51359 1.7613,-3.51359 1.01597,0 -0.0273,1.5293 1.40903,2.47086 z"
       sodipodi:nodetypes="sssss" />
    <path
       id="rect1430-1-8"
       style="fill:#28170b;stroke-width:0.210089"
       d="M 3.36613,6.832668 4.43055,6.626008 5.34431,6.997074 C 4.40578,7.024464 3.46989,7.005474 2.49641,7.638698 2.48021,7.372916 3.34539,7.029123 3.36613,6.832701 Z"
       sodipodi:nodetypes="ccccc"
       inkscape:transform-center-x="0.41338548"
       inkscape:transform-center-y="0.22919442" />
    <path
       id="rect1430-1-8-6"
       style="fill:#28170b;stroke-width:0.210089"
       d="M 8.81194,6.92997 7.84404,6.701974 7.0021,7.023475 C 7.85864,7.078515 8.71369,7.090185 9.58997,7.71718 9.61007,7.467025 8.82693,7.115891 8.81193,6.930018 Z"
       sodipodi:nodetypes="ccccc"
       inkscape:transform-center-x="-0.36925995"
       inkscape:transform-center-y="0.24322236" />
    <path
       id="path2169-5-4-04-7"
       style="fill:#ffccaa;stroke-width:0.566042"
       d="m 4.96557,8.370588 c 0.0818,0.26459 -0.40549,0.47686 -0.85449,0.47686 -0.44901,0 -0.83351,-0.32121 -0.81299,-0.50892 0.0252,-0.231 0.35014,-0.5009 0.81299,-0.50892 0.44895,-0.007 0.75763,0.22785 0.85449,0.54098 z"
       sodipodi:nodetypes="sssss" />
    <path
       id="path2169-5-4-0-9-4"
       style="fill:#ffccaa;stroke-width:0.551594"
       d="m 7.27501,8.348268 c -0.0777,0.26458 0.38507,0.47685 0.81143,0.47685 0.42638,0 0.79151,-0.3212 0.77202,-0.5089 -0.024,-0.23102 -0.3325,-0.50091 -0.77202,-0.50892 -0.42632,-0.007 -0.71945,0.22785 -0.81143,0.54097 z"
       sodipodi:nodetypes="sssss" />
    <ellipse
       style="fill:#005522;stroke-width:0.344828"
       id="path2169-03-4"
       ry="0.31256434"
       rx="0.49125054"
       cy="8.3305292"
       cx="4.1267529" />
    <ellipse
       style="fill:#28170b;stroke-width:0.344828"
       id="path2169-0-8-7"
       ry="0.22066765"
       rx="0.33020797"
       cy="8.3376703"
       cx="4.1133862" />
    <ellipse
       style="fill:#005522;stroke-width:0.314342"
       id="path2169-5-48-7"
       cx="8.0556774"
       cy="8.2725153"
       rx="0.40822226"
       ry="0.31256434" />
    <ellipse
       style="fill:#28170b;stroke-width:0.344828"
       id="path2169-0-2-9-0"
       ry="0.22066765"
       rx="0.33020797"
       cy="8.2593317"
       cx="8.0554485" />
    <path
       id="path3219-9-6"
       style="fill:#241c1c;stroke-width:0.398877"
       d="m 5.81176,10.40768 c 0,0.0487 -0.009,0.0401 -0.18334,0.0401 -0.17388,0 -0.12801,5.7e-4 -0.12801,-0.048 0,-0.0487 -0.0251,-0.056 0.14876,-0.056 0.17386,0 0.16259,0.0154 0.16259,0.064 z"
       sodipodi:nodetypes="sssss" />
    <path
       id="path3219-1-2-6"
       style="fill:#241c1c;stroke-width:0.398877"
       d="m 6.83298,10.395596 c 0,0.0487 -0.009,0.0401 -0.18336,0.0401 -0.17386,0 -0.128,5.7e-4 -0.128,-0.048 0,-0.0487 -0.0251,-0.056 0.14876,-0.056 0.17387,0 0.1626,0.0154 0.1626,0.064 z"
       sodipodi:nodetypes="sssss" />
    <path
       id="path11724-09-8"
       style="fill:#88aa00;stroke-width:0.398877"
       d="m 5.88794,23.327555 c 0,0.18153 -0.21486,0.32868 -1.61452,0.32868 -1.39966,0 -1.6928,-0.14715 -1.6928,-0.32868 0,-0.18152 0.29314,0.10211 1.6928,0.10211 1.39966,0 1.61452,-0.28352 1.61452,-0.10211 z"
       sodipodi:nodetypes="sssss" />
    <path
       id="path11724-0-2-14"
       style="fill:#88aa00;stroke-width:0.398877"
       d="m 10.1433,23.145903 c 0,0.18152 -0.21486,0.32868 -1.61453,0.32868 -1.39965,0 -1.69279,-0.14716 -1.69279,-0.32868 0,-0.18154 0.29314,0.10211 1.69279,0.10211 1.39967,0 1.61452,-0.28355 1.61453,-0.10211 z"
       sodipodi:nodetypes="sssss" />
    <path
       id="rect12747-2-4"
       style="fill:#1c1f24;stroke-width:0.398877"
       d="m 5.29885,11.365259 h 1.79071 l -0.12453,0.0443 c -0.50723,0.150328 -1.03179,0.09276 -1.55894,0.004 z"
       sodipodi:nodetypes="ccccc" />
    <path
       id="path15398-0-9"
       style="fill:#28170b;stroke-width:0.264583"
       d="m 12.24088,5.619568 c -0.007,0.0311 -0.28379,1.2852 -0.90528,2.42502 C 11.05039,8.567678 10.7904,4.666599 9.83986,4.505922 9.28247,4.411702 7.50101,3.595032 7.50101,3.595032 6.14012,3.910589 5.0903,3.684652 4.78681,3.029418 4.31878,2.018927 2.74846,4.264935 2.38254,4.971563 2.249,5.229448 2.35244,7.463969 1.56008,7.959207 0.9828,8.320031 0.47085,6.243108 0.42778,5.369558 c -0.058,-1.17664 0.4782,-2.595402 0.53573,-2.75115 0.64194,-1.73776 2.2741,-2.326936 3.91953,-2.52395 0.38537,-0.04614 0.6139,0.05536 0.97161,0.166209 0,0 1.34391,-0.260667 1.83149,-0.260667 2.09012,0 3.66097,0.718988 4.66748,3.638808 0.12372,0.50589 -0.016,1.53157 -0.11274,1.98079 z"
       sodipodi:nodetypes="sssssssssssscss" />
    <ellipse
       style="fill:#deaa87;stroke-width:0.148272"
       id="path9819-9-7-8"
       cx="8.891737"
       cy="16.876562"
       rx="0.39139882"
       ry="0.43069854" />
    <path
       id="path6217-9-9-3"
       style="fill:#1a1a1a;stroke-width:0.398877"
       d="m 9.57845,12.076238 c -4.71364,2.46285 -1.41105,5.268776 1.51759,5.412406 1.91273,0.0938 2.45987,-1.663066 2.45987,-4.369666 0,-1.89041 -0.93509,-3.5136 -2.20971,-3.5136 -1.27462,0 0.0343,1.52931 -1.76775,2.47086 z"
       sodipodi:nodetypes="sssss" />
  </g>
</svg>
