<?xml version="1.0" encoding="UTF-8" standalone="no"?>
<!-- Created with Inkscape (http://www.inkscape.org/) -->

<svg
   width="210mm"
   height="297mm"
   viewBox="0 0 210 297"
   version="1.1"
   id="svg20333"
   inkscape:version="1.1 (c68e22c387, 2021-05-23)"
   sodipodi:docname="poussette.svg"
   inkscape:export-filename="C:\Users\basti\OneDrive\Bureau\Gus veut boire un coup\bank\pnj\poussette.png"
   inkscape:export-xdpi="90.408211"
   inkscape:export-ydpi="90.408211"
   xmlns:inkscape="http://www.inkscape.org/namespaces/inkscape"
   xmlns:sodipodi="http://sodipodi.sourceforge.net/DTD/sodipodi-0.dtd"
   xmlns:xlink="http://www.w3.org/1999/xlink"
   xmlns="http://www.w3.org/2000/svg"
   xmlns:svg="http://www.w3.org/2000/svg">
  <sodipodi:namedview
     id="namedview20335"
     pagecolor="#ffffff"
     bordercolor="#666666"
     borderopacity="1.0"
     inkscape:pageshadow="2"
     inkscape:pageopacity="0.0"
     inkscape:pagecheckerboard="0"
     inkscape:document-units="mm"
     showgrid="false"
     inkscape:zoom="8.446077"
     inkscape:cx="6.511899"
     inkscape:cy="39.840982"
     inkscape:window-width="1920"
     inkscape:window-height="1001"
     inkscape:window-x="-9"
     inkscape:window-y="-9"
     inkscape:window-maximized="1"
     inkscape:current-layer="layer1" />
  <defs
     id="defs20330">
    <linearGradient
       inkscape:collect="always"
       id="linearGradient5194">
      <stop
         style="stop-color:#800000;stop-opacity:1;"
         offset="0"
         id="stop5190" />
      <stop
         style="stop-color:#800000;stop-opacity:0;"
         offset="1"
         id="stop5192" />
    </linearGradient>
    <linearGradient
       inkscape:collect="always"
       xlink:href="#linearGradient5194"
       id="linearGradient27326"
       gradientUnits="userSpaceOnUse"
       gradientTransform="matrix(0.16920842,0.10335879,-0.04889656,1.0216974,122.14731,39.109841)"
       x1="51.572659"
       y1="126.18843"
       x2="51.572659"
       y2="126.18843" />
  </defs>
  <g
     inkscape:label="Calque 1"
     inkscape:groupmode="layer"
     id="layer1">
    <path
       id="path11385"
       style="fill:#1c1f24;stroke-width:0.60287"
       d="m 7.3935618,16.04144 c 0.3832038,0.836455 -0.1077604,0.792774 -3.163837,0.755178 -3.0747048,-0.03771 -2.779077,0.0027 -2.7675368,-0.917934 0.00754,-0.624846 0.6995126,-0.53039 2.7126155,-0.53039 2.0130998,0 2.9811653,0.174532 3.2187583,0.693146 z"
       sodipodi:nodetypes="sssss" />
    <path
       id="rect10620"
       style="fill:#002255;stroke-width:0.561251"
       d="M 0.88463739,14.10141 7.2871583,14.10011 C 7.0471115,14.424304 6.8675824,15.400345 6.7518627,15.574197 L 1.5051503,15.539367 Z"
       sodipodi:nodetypes="ccccc" />
    <path
       id="rect8523-8"
       style="fill:#55d400;stroke-width:0.391005"
       d="m 0.77908371,6.4164592 c 2.98079899,-0.84182 2.64824119,1.09322 5.26563119,1.10295 2.5512337,4.4996718 0.7816361,0.9487359 1.2805535,6.6318088 L 0.88463739,14.101408 C 0.96859429,12.503364 -0.48590569,10.788721 0.77906091,6.4164592 Z"
       sodipodi:nodetypes="cccccc" />
    <path
       id="path3731"
       style="fill:#44aa00;stroke-width:0.264583"
       d="m 6.9147723,10.513177 c 0,0.373126 -1.4090138,0.12183 -2.0268122,0.12183 -0.6177985,0 -1.7388498,-0.7676479 -1.7388499,-1.1407739 -9e-7,-0.373126 0.8994925,0.06893 1.4287365,0.387641 0.662101,0.3987169 2.3369265,0.2581769 2.3369256,0.6313029 z"
       sodipodi:nodetypes="sssss" />
    <path
       id="path11385-7"
       style="fill:#373748;stroke-width:0.602879"
       d="m 13.233434,13.271583 c 0.113833,1.69e-4 0.338489,0.13378 0.08223,0.576494 -0.257822,0.445409 -0.498981,0.340015 -0.588407,0.276733 -0.06072,-0.04298 -0.05322,-0.143586 0.113153,-0.436871 0.166366,-0.293283 0.322442,-0.416461 0.393015,-0.416356 z"
       sodipodi:nodetypes="sssss" />
    <path
       id="rect10620-3"
       style="fill:#0044aa;stroke-width:0.561253"
       d="m 10.864512,14.675702 c 0.639727,-0.272445 0.49315,-1.356154 2.057334,-1.087233 -0.0027,-0.02157 -0.173264,0.410989 -0.161917,0.503017 l -1.728365,0.742851 z"
       sodipodi:nodetypes="ccccc" />
    <path
       id="rect8523"
       style="fill:#d40000;stroke-width:0.391005"
       d="m 9.7647179,13.212004 c 0.8220381,-0.57354 1.1305531,-0.37198 1.9260631,-0.70818 0.476448,0.40543 0.591096,0.972598 0.734127,1.520027 L 10.765422,14.67598 C 10.390345,14.229427 9.9352352,13.629682 9.7647179,13.212004 Z"
       sodipodi:nodetypes="ccccc" />
    <path
       id="rect10620-1"
       style="fill:#00446c;fill-opacity:0.998403;stroke-width:0.198579"
       d="m 10.765422,14.67598 1.66814,-0.646616 -0.05035,0.05765 -1.518703,0.58869 z"
       sodipodi:nodetypes="ccccc" />
    <ellipse
       style="fill:#c87137;stroke-width:0.381041"
       id="path9819-5-5"
       cx="5.1375365"
       cy="17.440689"
       rx="0.30883119"
       ry="0.32716328"
       transform="matrix(0.92003945,-0.39182575,0.40290475,0.91524192,0,0)" />
    <path
       id="path10057-0"
       style="fill:#a05a2c;stroke-width:0.416432"
       d="m 11.554822,14.026291 c 0.0035,0.09506 0.123385,0.09624 0.07097,0.118562 -0.05242,0.02233 -0.09086,-0.0073 -0.126652,-0.08861 -0.03579,-0.0813 -0.02984,-0.118392 0.02257,-0.140713 0.05241,-0.02233 0.02967,0.01652 0.03311,0.110759 z"
       sodipodi:nodetypes="sssss" />
    <ellipse
       style="fill:#c87137;stroke-width:0.148279"
       id="path9819-9-5"
       cx="5.0132494"
       cy="17.470818"
       rx="0.12951152"
       ry="0.11813793"
       transform="matrix(0.92003945,-0.39182575,0.40290475,0.91524192,0,0)" />
    <path
       id="path31-6-4"
       style="fill:#da965a;fill-rule:evenodd;stroke-width:0.357437;fill-opacity:1"
       d="m 9.2183161,12.573065 c 0.5658597,1.233793 0.5913187,0.266873 1.6353509,0.221017 0.990318,-0.0435 1.395698,-0.804154 1.25678,-1.147207 -0.504565,-1.246001 -1.277177,-1.490137 -2.098911,-1.140178 -0.8217331,0.349959 -1.2241792,1.126714 -0.7932199,2.066368 z"
       sodipodi:nodetypes="sssss" />
    <path
       id="path6217-4"
       style="fill:#d40000;stroke-width:0.378879"
       d="m 10.69397,13.688147 c 0.459437,1.043659 0.296452,0.903199 0.893589,0.666877 0.42399,-0.167786 0.39157,-0.09651 0.09246,-0.775966 -0.208918,-0.474582 -0.593026,-0.794881 -0.872088,-0.676034 -0.279063,0.118849 -0.322885,0.310539 -0.113965,0.785123 z"
       sodipodi:nodetypes="sssss" />
    <path
       id="path32024"
       style="fill:#806600;fill-opacity:0.998403;stroke-width:0.264583"
       d="m 10.7201,10.444522 c -0.0415,0.160906 -0.637059,0.436637 -0.474454,0.667214 1.307647,1.85429 -2.0134915,2.626803 -1.3532796,0.177517 0.053216,-0.197416 0.8261449,-0.737598 1.1791186,-0.887922 0.352973,-0.150326 0.699419,-0.153822 0.648615,0.04319 z"
       sodipodi:nodetypes="sssss" />
    <path
       id="path4257-0-5-7"
       style="fill:url(#linearGradient27326);fill-opacity:1;stroke-width:0.111607"
       d="m 11.66191,13.707937 c 0.0727,0.169105 0.07561,0.127331 0.06796,0.21323 -0.0062,0.06976 -0.146686,-0.295315 -0.284999,-0.584822 -0.276474,-0.578692 -0.295366,-0.819764 -0.0342,-0.212741 z"
       sodipodi:nodetypes="sssss" />
    <ellipse
       style="fill:#000000;stroke-width:0.264583"
       id="path5351"
       cx="8.3730602"
       cy="10.765364"
       rx="0.57592481"
       ry="0.7088306" />
    <path
       id="rect1430-9"
       style="fill:#806600;stroke-width:0.147509"
       d="m 11.037173,10.967068 0.02376,-0.179855 0.102467,-0.117153 c -0.0441,0.148085 -0.09497,0.292619 -0.05034,0.487225 -0.0406,-0.01549 -0.04755,-0.173641 -0.07587,-0.190202 z"
       sodipodi:nodetypes="ccccc"
       inkscape:transform-center-x="-0.0028630827"
       inkscape:transform-center-y="0.092543108" />
    <path
       id="path5732"
       style="fill:#000080;stroke-width:0.264583"
       d="m 13.138575,14.35113 c -0.01779,0.747572 -0.852908,1.353897 -1.905024,1.353897 -1.052117,0 -1.6798287,-0.633106 -1.9050247,-1.353897 -0.328934,-1.052824 -2.62959,-5.5134253 1.9050247,-1.353897 1.671681,1.533407 1.921919,0.643795 1.905024,1.353897 z"
       sodipodi:nodetypes="sssss" />
    <path
       id="path2169-5-4-0"
       style="fill:#ffccaa;stroke-width:0.456428"
       d="m 11.381039,11.087373 c 0.01306,0.07332 0.132967,0.08553 0.221844,0.04768 0.08888,-0.03784 0.129489,-0.150905 0.104683,-0.196295 -0.03053,-0.05586 -0.124666,-0.09623 -0.217169,-0.05923 -0.08976,0.03582 -0.124789,0.12107 -0.109358,0.207843 z"
       sodipodi:nodetypes="sssss" />
    <rect
       style="fill:#000000;stroke-width:0.264612"
       id="rect5397"
       width="7.8040085"
       height="0.61291701"
       x="13.31534"
       y="1.9512177"
       transform="matrix(0.74085927,0.67166028,-0.65589318,0.75485372,0,0)" />
    <path
       id="path3219-1"
       style="fill:#241c1c;stroke-width:0.479567"
       d="m 12.069417,11.549967 c 0.0066,0.01168 0.0014,0.01176 -0.07159,0.0514 -0.07299,0.03962 -0.05365,0.02934 -0.06019,0.01769 -0.0066,-0.01167 -0.01808,-0.0077 0.05492,-0.04734 0.07299,-0.03966 0.07032,-0.03341 0.07687,-0.02171 z"
       sodipodi:nodetypes="sssss" />
    <rect
       style="fill:#000000;stroke-width:0.269578"
       id="rect5397-7"
       width="2.9586699"
       height="0.26909873"
       x="12.979564"
       y="-14.517813"
       transform="matrix(-0.29577726,0.95525694,-0.99959572,-0.02843229,0,0)" />
    <ellipse
       style="fill:#e9bfa8;fill-opacity:1;stroke-width:0.381027"
       id="path9819-5"
       cx="11.211879"
       cy="-7.6965346"
       rx="0.88760936"
       ry="0.97512066"
       transform="rotate(90)" />
    <ellipse
       style="fill:#e9bfa8;fill-opacity:1;stroke-width:0.148273"
       id="path9819-9-5-4"
       cx="10.502751"
       cy="-7.3449559"
       rx="0.41010293"
       ry="0.35211384"
       transform="rotate(90)" />
    <path
       id="path31-6"
       style="fill:#e9bfa8;fill-opacity:1;fill-rule:evenodd;stroke-width:0.357437"
       d="M 2.1569874,6.3811146 C 3.9003136,7.3583364 5.9868998,8.1364751 7.2457032,7.2992838 8.0820806,6.7430352 8.2963986,5.8300147 8.3839496,4.9132686 8.7479746,1.101542 6.9405914,0.31004167 4.2891979,0.35713097 2.3099417,0.39228297 2.7139313,0.62882187 2.0870946,1.2873045 1.4625588,1.9433695 0.61960911,3.3568979 0.87168469,4.8736588 1.2860947,8.0407588 0.40995941,5.4198646 2.1569874,6.3811146 Z"
       sodipodi:nodetypes="csssscc" />
    <path
       id="rect1430"
       style="fill:#28170b;stroke-width:0.147509"
       d="M 6.5343786,3.4167348 7.2892704,3.2235051 7.8530216,3.5830048 C 7.2409357,3.2215719 6.4900535,3.4769132 6.0990667,3.9623073 6.0863323,3.8580839 6.5234756,3.4952419 6.5343843,3.4167746 Z"
       sodipodi:nodetypes="ccccc"
       inkscape:transform-center-x="0.2538164"
       inkscape:transform-center-y="0.12892998" />
    <path
       id="path2169-5-4-0-0"
       style="fill:#ffccaa;stroke-width:0.456428"
       d="m 6.4442837,4.2645276 c -0.074809,0.21632 0.3701947,0.38985 0.7801167,0.38985 0.40993,0 0.7609642,-0.2626 0.7422242,-0.41606 -0.02306,-0.18885 -0.3196632,-0.4095 -0.7422242,-0.41606 -0.409864,-0.007 -0.6916846,0.18628 -0.7801167,0.44227 z"
       sodipodi:nodetypes="sssss" />
    <ellipse
       style="fill:#6c5353;stroke-width:0.285997"
       id="path2169"
       ry="0.25553426"
       rx="0.36911285"
       cy="4.2507358"
       cx="7.3093238" />
    <ellipse
       style="fill:#000000;fill-opacity:0.998403;stroke-width:0.433747"
       id="path31470"
       cx="7.9774632"
       cy="5.2299519"
       rx="0.029163862"
       ry="0.074935712" />
    <path
       id="path16461"
       style="fill:#28170b;stroke-width:0.264582"
       d="M 7.5201927,1.3092192 C 6.0569946,1.8218256 6.5097682,4.7296058 6.3061003,6.8525533 6.0933965,9.0696871 5.2470848,10.479022 4.7223515,9.7326241 3.7952096,8.4138261 0.94541139,10.591721 0.77354451,10.047922 -0.26023499,6.7769665 -0.27655099,3.2339374 0.83760971,1.295553 1.4228688,0.27733617 2.8860154,-0.00862993 3.6080919,1.9677315e-4 7.9504716,0.05327777 8.2696736,1.0466513 7.5201927,1.3092192 Z"
       sodipodi:nodetypes="sssssss" />
    <ellipse
       style="fill:#28170b;stroke-width:0.264583"
       id="path1732"
       cx="7.3910174"
       cy="4.2309256"
       rx="0.19935858"
       ry="0.17720765" />
    <rect
       style="fill:#800000;stroke-width:0.264583"
       id="rect2192"
       width="1.229378"
       height="0.066452868"
       x="7.6376786"
       y="5.0829329"
       transform="rotate(7.787438)" />
    <ellipse
       style="fill:#0000ff;stroke-width:0.286008"
       id="path2169-7"
       ry="0.085734442"
       rx="0.11181775"
       cy="14.656646"
       cx="6.1676874"
       transform="matrix(0.92003945,-0.39182575,0.40290475,0.91524192,0,0)" />
    <ellipse
       style="fill:#000000;stroke-width:0.286012"
       id="path2169-7-0"
       ry="0.057746232"
       rx="0.075470313"
       cy="14.662385"
       cx="6.1707249"
       transform="matrix(0.92046494,-0.39082514,0.40392457,0.91479229,0,0)" />
    <ellipse
       style="fill:#000000;stroke-width:0.264583"
       id="path5521"
       cx="14.198763"
       cy="15.727178"
       rx="1.1740006"
       ry="1.1075476" />
    <ellipse
       style="fill:#999999;stroke-width:0.264583"
       id="path5521-5"
       cx="14.231989"
       cy="15.710566"
       rx="0.88603824"
       ry="0.84727395" />
    <ellipse
       style="fill:#000000;fill-opacity:0.998403;stroke-width:0.433763"
       id="path31470-4"
       cx="6.3607149"
       cy="15.02958"
       rx="0.0056811599"
       ry="0.025141723"
       transform="matrix(0.92003945,-0.39182575,0.40290475,0.91524192,0,0)" />
    <ellipse
       style="fill:#000000;stroke-width:0.264583"
       id="path5521-8"
       cx="9.28125"
       cy="15.749329"
       rx="1.1740006"
       ry="1.1075476" />
    <ellipse
       style="fill:#999999;stroke-width:0.264583"
       id="path5521-5-5"
       cx="9.314476"
       cy="15.732718"
       rx="0.88603824"
       ry="0.84727395" />
  </g>
</svg>
