<?xml version="1.0" encoding="UTF-8" standalone="no"?>
<!-- Created with Inkscape (http://www.inkscape.org/) -->

<svg
   width="290mm"
   height="96mm"
   viewBox="0 0 290 96"
   version="1.1"
   id="svg1287"
   inkscape:version="1.1 (c68e22c387, 2021-05-23)"
   sodipodi:docname="rat_g.svg"
   xmlns:inkscape="http://www.inkscape.org/namespaces/inkscape"
   xmlns:sodipodi="http://sodipodi.sourceforge.net/DTD/sodipodi-0.dtd"
   xmlns="http://www.w3.org/2000/svg"
   xmlns:svg="http://www.w3.org/2000/svg">
  <sodipodi:namedview
     id="namedview1289"
     pagecolor="#ffffff"
     bordercolor="#666666"
     borderopacity="1.0"
     inkscape:pageshadow="2"
     inkscape:pageopacity="0.0"
     inkscape:pagecheckerboard="0"
     inkscape:document-units="mm"
     showgrid="false"
     inkscape:zoom="0.52787981"
     inkscape:cx="645.98038"
     inkscape:cy="279.41967"
     inkscape:window-width="1920"
     inkscape:window-height="1001"
     inkscape:window-x="-9"
     inkscape:window-y="-9"
     inkscape:window-maximized="1"
     inkscape:current-layer="layer1"
     units="mm"
     width="296mm" />
  <defs
     id="defs1284" />
  <g
     inkscape:label="Calque 1"
     inkscape:groupmode="layer"
     id="layer1">
    <path
       id="path21450"
       style="fill:#916f6f;stroke-width:0.264583"
       d="m 221.16166,41.742829 c 0,21.783827 -61.65776,37.441237 -100.63893,32.047467 C 62.707616,65.790906 61.816587,75.283826 40.151528,42.501409 28.452827,24.80033 60.601641,2.2999417 117.72726,2.2999417 c 57.12531,0 103.4344,17.6590643 103.4344,39.4428873 z"
       sodipodi:nodetypes="sssss" />
    <ellipse
       style="fill:#6c5353;fill-opacity:1;stroke-width:0.264583"
       id="path23653"
       cx="120.37167"
       cy="20.395761"
       rx="64.194397"
       ry="14.162579" />
    <path
       id="rect21474"
       style="fill:#916f6f;stroke-width:0.264583"
       d="m 212.7762,6.3716124 c -10.54571,16.3624966 -5.93763,-2.8111464 3.84264,-0.2681562 160.88262,21.5655048 4.54282,17.3718808 4.54282,35.6393728 h -2.79331 C 220.51821,23.292432 373.66307,26.513254 212.77711,6.3720775 Z"
       sodipodi:nodetypes="ccccc" />
    <path
       id="path23102-5"
       style="fill:#916f6f;stroke-width:0.264583"
       d="m 201.33004,71.203706 c 0,7.95968 -22.57775,17.44603 -25.85869,17.44603 -3.28095,0 13.9776,-9.48635 13.9776,-17.44603 0,-7.95935 2.65917,-14.41138 5.9407,-14.41171 3.28063,3.3e-4 5.94039,6.45236 5.94039,14.41171 z"
       sodipodi:nodetypes="sssss" />
    <path
       id="path23102-5-4"
       style="fill:#916f6f;stroke-width:0.264583"
       d="m 178.08087,61.638246 c 0,7.95967 -22.57775,17.44603 -25.8587,17.44603 -3.2809,0 13.97761,-9.48636 13.97761,-17.44603 0,-7.95935 2.65913,-14.41138 5.9407,-14.41171 3.28063,3.3e-4 5.94039,6.45236 5.94039,14.41171 z"
       sodipodi:nodetypes="sssss" />
    <path
       id="path23102-5-2"
       style="fill:#916f6f;stroke-width:0.264583"
       d="m 120.76372,79.633436 c 0,7.95967 -22.577751,17.44603 -25.858658,17.44603 -3.280942,0 13.977568,-9.48636 13.977568,-17.44603 0,-7.95935 2.65917,-14.41138 5.9407,-14.41171 3.28063,3.3e-4 5.94039,6.45236 5.94039,14.41171 z"
       sodipodi:nodetypes="sssss" />
    <path
       id="path23102-5-7"
       style="fill:#916f6f;stroke-width:0.264583"
       d="m 84.940518,63.694716 c 0,7.95967 -22.577753,17.44603 -25.858694,17.44603 -3.280942,0 13.977607,-9.48636 13.977607,-17.44603 0,-7.95935 2.65913,-14.41138 5.940666,-14.41171 3.280662,3.3e-4 5.940421,6.45236 5.940421,14.41171 z"
       sodipodi:nodetypes="sssss" />
    <path
       id="path22507"
       style="fill:#916f6f;stroke-width:0.264583"
       d="M 91.195682,41.605622 C 98.050296,50.401346 82.886768,49.113626 48.56395,54.121046 35.300567,56.057706 -16.608311,43.684416 8.0284594,33.261896 17.918521,29.078052 38.756847,16.195319 60.794526,27.952163 80.885381,38.67076 82.80932,30.844024 91.195682,41.605622 Z"
       sodipodi:nodetypes="sssss" />
    <ellipse
       style="fill:#000000;fill-opacity:1;stroke-width:0.264583"
       id="path23483"
       cx="41.050617"
       cy="34.482063"
       rx="3.1449709"
       ry="4.3614841" />
  </g>
</svg>
