<?xml version="1.0" encoding="UTF-8" standalone="no"?>
<!-- Created with Inkscape (http://www.inkscape.org/) -->

<svg
   width="290mm"
   height="96mm"
   viewBox="0 0 290 96"
   version="1.1"
   id="svg1287"
   inkscape:version="1.1 (c68e22c387, 2021-05-23)"
   sodipodi:docname="rat_d.svg"
   xmlns:inkscape="http://www.inkscape.org/namespaces/inkscape"
   xmlns:sodipodi="http://sodipodi.sourceforge.net/DTD/sodipodi-0.dtd"
   xmlns="http://www.w3.org/2000/svg"
   xmlns:svg="http://www.w3.org/2000/svg">
  <sodipodi:namedview
     id="namedview1289"
     pagecolor="#ffffff"
     bordercolor="#666666"
     borderopacity="1.0"
     inkscape:pageshadow="2"
     inkscape:pageopacity="0.0"
     inkscape:pagecheckerboard="0"
     inkscape:document-units="mm"
     showgrid="false"
     inkscape:zoom="0.52787981"
     inkscape:cx="645.98037"
     inkscape:cy="279.41966"
     inkscape:window-width="1920"
     inkscape:window-height="1001"
     inkscape:window-x="-9"
     inkscape:window-y="-9"
     inkscape:window-maximized="1"
     inkscape:current-layer="layer1"
     units="mm"
     width="296mm" />
  <defs
     id="defs1284" />
  <g
     inkscape:label="Calque 1"
     inkscape:groupmode="layer"
     id="layer1">
    <path
       id="path21450"
       style="fill:#916f6f;stroke-width:0.264583"
       d="m 69.269764,41.24161 c 0,21.783827 61.864796,37.441237 100.976896,32.047467 58.00923,-7.99939 58.90328,1.49353 80.64106,-31.288887 C 262.62573,24.299111 230.36894,1.7987228 173.0515,1.7987228 115.73437,1.7987228 69.269764,19.457787 69.269764,41.24161 Z"
       sodipodi:nodetypes="sssss" />
    <ellipse
       style="fill:#6c5353;fill-opacity:1;stroke-width:0.264582"
       id="path23653"
       cx="-170.39819"
       cy="19.894543"
       rx="64.409966"
       ry="14.162579"
       transform="scale(-1,1)" />
    <path
       id="rect21474"
       style="fill:#916f6f;stroke-width:0.264583"
       d="M 77.683382,5.8703935 C 88.264502,22.23289 83.640966,3.0592471 73.827828,5.6022373 -87.595059,27.167742 69.269764,22.974118 69.269764,41.24161 h 2.8027 C 69.915366,22.791213 -83.743795,26.012035 77.682463,5.8708586 Z"
       sodipodi:nodetypes="ccccc" />
    <path
       id="path23102-5"
       style="fill:#916f6f;stroke-width:0.264583"
       d="m 89.167987,70.702487 c 0,7.95968 22.653543,17.44603 25.945513,17.44603 3.29195,0 -14.02454,-9.48635 -14.02454,-17.44603 0,-7.95935 -2.668087,-14.41138 -5.960647,-14.41171 -3.291641,3.3e-4 -5.960326,6.45236 -5.960326,14.41171 z"
       sodipodi:nodetypes="sssss" />
    <path
       id="path23102-5-4"
       style="fill:#916f6f;stroke-width:0.264583"
       d="m 112.49522,61.137027 c 0,7.95967 22.65356,17.44603 25.94552,17.44603 3.29195,0 -14.02453,-9.48636 -14.02453,-17.44603 0,-7.95935 -2.66808,-14.41138 -5.96064,-14.41171 -3.29165,3.3e-4 -5.96035,6.45236 -5.96035,14.41171 z"
       sodipodi:nodetypes="sssss" />
    <path
       id="path23102-5-2"
       style="fill:#916f6f;stroke-width:0.264583"
       d="m 170.00484,79.132217 c 0,7.95967 22.65356,17.44603 25.94551,17.44603 3.29196,0 -14.02454,-9.48636 -14.02454,-17.44603 0,-7.95935 -2.66807,-14.41138 -5.96063,-14.41171 -3.29165,3.3e-4 -5.96034,6.45236 -5.96034,14.41171 z"
       sodipodi:nodetypes="sssss" />
    <path
       id="path23102-5-7"
       style="fill:#916f6f;stroke-width:0.264583"
       d="m 205.94835,63.193497 c 0,7.95967 22.65357,17.44603 25.94551,17.44603 3.29196,0 -14.02453,-9.48636 -14.02453,-17.44603 0,-7.95935 -2.66807,-14.41138 -5.96063,-14.41171 -3.29166,3.3e-4 -5.96035,6.45236 -5.96035,14.41171 z"
       sodipodi:nodetypes="sssss" />
    <path
       id="path22507"
       style="fill:#916f6f;stroke-width:0.264583"
       d="m 199.67217,41.104403 c -6.87764,8.795724 8.33682,7.508004 42.77488,12.515424 13.30795,1.93666 65.39112,-10.43663 40.67164,-20.85915 -9.92328,-4.183844 -30.83158,-17.066577 -52.94326,-5.309733 -20.15835,10.718597 -22.08873,2.891861 -30.50326,13.653459 z"
       sodipodi:nodetypes="sssss" />
    <ellipse
       style="fill:#000000;fill-opacity:1;stroke-width:0.264583"
       id="path23483"
       cx="-249.98558"
       cy="33.980843"
       rx="3.1555319"
       ry="4.3614841"
       transform="scale(-1,1)" />
  </g>
</svg>
