<?xml version="1.0" encoding="UTF-8" standalone="no"?>
<!-- Created with Inkscape (http://www.inkscape.org/) -->

<svg
   width="106mm"
   height="56mm"
   viewBox="0 0 106 56"
   version="1.1"
   id="svg3944"
   sodipodi:docname="sac.svg"
   inkscape:export-filename="C:\Users\basti\OneDrive\Bureau\Gus veut boire un coup\bank\image\sac_tab.png"
   inkscape:export-xdpi="20.820286"
   inkscape:export-ydpi="20.820286"
   inkscape:version="1.1 (c68e22c387, 2021-05-23)"
   xmlns:inkscape="http://www.inkscape.org/namespaces/inkscape"
   xmlns:sodipodi="http://sodipodi.sourceforge.net/DTD/sodipodi-0.dtd"
   xmlns="http://www.w3.org/2000/svg"
   xmlns:svg="http://www.w3.org/2000/svg">
  <sodipodi:namedview
     id="namedview3946"
     pagecolor="#ffffff"
     bordercolor="#666666"
     borderopacity="1.0"
     inkscape:pageshadow="2"
     inkscape:pageopacity="0.0"
     inkscape:pagecheckerboard="0"
     inkscape:document-units="mm"
     showgrid="false"
     inkscape:zoom="2.1115193"
     inkscape:cx="224.00932"
     inkscape:cy="156.04878"
     inkscape:window-width="1920"
     inkscape:window-height="1001"
     inkscape:window-x="-9"
     inkscape:window-y="-9"
     inkscape:window-maximized="1"
     inkscape:current-layer="layer1" />
  <defs
     id="defs3941" />
  <g
     inkscape:label="Calque 1"
     inkscape:groupmode="layer"
     id="layer1">
    <path
       id="rect17082"
       style="fill:#00aa00;stroke-width:0.264583"
       d="M 7.3585743,9.9573895 C 31.829392,3.1167095 54.959392,-5.2084505 98.139052,8.6642195 108.23511,24.7169 106.66431,38.64832 94.000912,50.56292 66.720562,54.06662 40.535072,54.98734 14.858956,51.08018 -4.7304677,38.24896 0.55476431,24.14212 7.3585743,9.9573895 Z"
       sodipodi:nodetypes="ccccc"
       inkscape:export-filename="C:\Users\basti\OneDrive\Bureau\Gus veut boire un coup\bank\image\sac.png"
       inkscape:export-xdpi="109.14594"
       inkscape:export-ydpi="109.14594" />
    <path
       id="rect17082-2"
       style="fill:#006900;fill-opacity:1;stroke-width:0.264583"
       d="M 8.7302513,12.17486 C 33.201062,5.3341795 56.331062,-2.9909805 99.510722,10.88169 c 10.096058,16.05268 8.525258,29.9841 -4.13814,41.8987 -27.28035,3.5037 -53.46584,4.42442 -79.141947,0.51726 C -3.3587907,40.46643 1.9264413,26.35959 8.7302513,12.17486 Z"
       sodipodi:nodetypes="ccccc"
       inkscape:export-filename="C:\Users\basti\OneDrive\Bureau\Gus veut boire un coup\bank\image\sac.png"
       inkscape:export-xdpi="109.14594"
       inkscape:export-ydpi="109.14594" />
    <path
       id="rect17811"
       style="fill:#0b280b;stroke-width:0.264583"
       d="m 16.935172,10.33131 c 28.956,-6.7905805 54.23219,-7.0793705 75.33826,0 1.26457,0.42417 6.64287,6.38552 6.64287,7.29898 0,0.91345 -5.42049,-3.52923 -6.64287,-4.0013 -28.15957,-10.8752705 -51.94896,-6.5616905 -75.33826,0 -1.307658,0.36684 -8.4653407,5.09412 -8.4653407,4.18066 0,-0.91345 7.1247217,-7.16394 8.4653407,-7.47834 z"
       sodipodi:nodetypes="sssssss"
       inkscape:export-filename="C:\Users\basti\OneDrive\Bureau\Gus veut boire un coup\bank\image\sac.png"
       inkscape:export-xdpi="109.14594"
       inkscape:export-ydpi="109.14594" />
    <g
       aria-label="SAC"
       id="text5900"
       style="font-size:10.5833px;line-height:1.25;fill:#ffffff;stroke-width:0.264583"
       transform="translate(-74.160425,-128.90707)"
       inkscape:export-filename="C:\Users\basti\OneDrive\Bureau\Gus veut boire un coup\bank\image\sac.png"
       inkscape:export-xdpi="109.14594"
       inkscape:export-ydpi="109.14594">
      <path
         d="m 125.83515,140.32486 q 0.0397,0.44783 -0.13264,0.90406 -0.16715,0.45577 -0.51603,0.79274 -0.38262,0.36591 -0.917,0.59999 -0.52921,0.23363 -1.30134,0.302 -0.82875,0.0734 -1.50644,-0.0222 -0.67256,-0.0961 -1.38407,-0.33916 l -0.11304,-1.27658 0.0721,-0.006 q 0.62451,0.43235 1.40959,0.62741 0.78507,0.19506 1.45424,0.1358 0.94714,-0.0839 1.44073,-0.48553 0.49873,-0.40213 0.44631,-0.9941 -0.0451,-0.50959 -0.31877,-0.72919 -0.2685,-0.22005 -0.78995,-0.30876 -0.39518,-0.0688 -0.85408,-0.0956 -0.45377,-0.0273 -0.96734,-0.0855 -1.03834,-0.12594 -1.57854,-0.60208 -0.5355,-0.48174 -0.6098,-1.32078 -0.0852,-0.96258 0.67382,-1.64715 0.75861,-0.68972 2.00945,-0.80048 0.80815,-0.0716 1.49615,0.0232 0.68799,0.0947 1.22795,0.27516 l 0.10666,1.20452 -0.0721,0.006 q -0.47036,-0.33187 -1.20728,-0.51045 -0.73223,-0.18418 -1.47862,-0.11808 -0.81845,0.0725 -1.28767,0.45643 -0.46407,0.38349 -0.41667,0.91882 0.0424,0.47872 0.31364,0.72966 0.27123,0.25093 0.90683,0.33991 0.33583,0.0429 0.95235,0.0921 0.61652,0.0492 1.04819,0.11989 0.87453,0.15082 1.34749,0.57066 0.47295,0.41984 0.54588,1.24343 z"
         id="path9033" />
      <path
         d="m 133.39643,142.34616 h -1.09037 l -0.75447,-2.14456 h -3.32795 l -0.75448,2.14456 h -1.03869 l 2.80085,-7.6946 h 1.36426 z m -2.16007,-3.02306 -1.34875,-3.77754 -1.35392,3.77754 z"
         id="path9035" />
      <path
         d="m 140.46983,142.35843 q -0.29526,0.0948 -0.53755,0.17933 -0.23714,0.0851 -0.61929,0.16587 -0.32351,0.066 -0.70046,0.0953 -0.37232,0.0351 -0.81447,-0.01 -0.83291,-0.0843 -1.49329,-0.38485 -0.65473,-0.30518 -1.10812,-0.85488 -0.44415,-0.53837 -0.64582,-1.31711 -0.20115,-0.78388 -0.10022,-1.7813 0.0957,-0.94601 0.43852,-1.66446 0.34279,-0.71844 0.89868,-1.18159 0.53889,-0.44928 1.25437,-0.64178 0.72062,-0.19197 1.5638,-0.10665 0.61697,0.0624 1.21371,0.27345 0.60187,0.21153 1.31453,0.66282 l -0.12226,1.20822 -0.0771,-0.008 q -0.5788,-0.59356 -1.17645,-0.89815 -0.59765,-0.3046 -1.30717,-0.37639 -0.58097,-0.0588 -1.06808,0.0841 -0.48145,0.13826 -0.88655,0.49721 -0.39378,0.3497 -0.65412,0.92067 -0.25468,0.56634 -0.33272,1.33754 -0.0817,0.8072 0.0755,1.41003 0.16229,0.60335 0.46982,1.00325 0.32139,0.41687 0.78081,0.65035 0.46508,0.22885 0.99978,0.28296 0.73521,0.0744 1.40337,-0.11249 0.66818,-0.18689 1.27957,-0.63404 l 0.072,0.007 z"
         id="path9037" />
    </g>
    <path
       id="rect17813"
       style="fill:#002b00;stroke-width:0.264584"
       d="m 24.470327,51.25441 c 21.404185,-0.11299 42.808385,-1.18716 64.212565,0 0.59041,0.0327 1.0702,0.28838 1.0702,0.64659 0,0.35821 -0.4803,0.68258 -1.0702,0.64658 -21.40418,-1.30633 -42.80838,-0.0988 -64.212565,0 -0.592885,0.003 -1.07022,-0.28837 -1.07022,-0.64658 0,-0.35821 0.477335,-0.64346 1.07022,-0.64659 z"
       sodipodi:nodetypes="sssssss"
       inkscape:export-filename="C:\Users\basti\OneDrive\Bureau\Gus veut boire un coup\bank\image\sac.png"
       inkscape:export-xdpi="109.14594"
       inkscape:export-ydpi="109.14594" />
  </g>
</svg>
