<?xml version="1.0" encoding="UTF-8" standalone="no"?>
<!-- Created with Inkscape (http://www.inkscape.org/) -->

<svg
   width="210mm"
   height="249mm"
   viewBox="0 0 210 249"
   version="1.1"
   id="svg5"
   inkscape:version="1.2 (dc2aedaf03, 2022-05-15)"
   sodipodi:docname="travaux_public_1.svg"
   inkscape:export-filename="C:\Users\basti\OneDrive\Images\gimp\Gus.png"
   inkscape:export-xdpi="4.8437209"
   inkscape:export-ydpi="4.8437209"
   xmlns:inkscape="http://www.inkscape.org/namespaces/inkscape"
   xmlns:sodipodi="http://sodipodi.sourceforge.net/DTD/sodipodi-0.dtd"
   xmlns="http://www.w3.org/2000/svg"
   xmlns:svg="http://www.w3.org/2000/svg">
  <sodipodi:namedview
     id="namedview7"
     pagecolor="#ffffff"
     bordercolor="#666666"
     borderopacity="1.0"
     inkscape:pageshadow="2"
     inkscape:pageopacity="0.0"
     inkscape:pagecheckerboard="0"
     inkscape:document-units="mm"
     showgrid="false"
     inkscape:zoom="0.36168631"
     inkscape:cx="800.41736"
     inkscape:cy="512.87537"
     inkscape:window-width="1920"
     inkscape:window-height="1001"
     inkscape:window-x="-9"
     inkscape:window-y="-9"
     inkscape:window-maximized="1"
     inkscape:current-layer="layer1"
     height="296mm"
     inkscape:showpageshadow="2"
     inkscape:deskcolor="#d1d1d1" />
  <defs
     id="defs2" />
  <g
     inkscape:label="Calque 1"
     inkscape:groupmode="layer"
     id="layer1">
    <path
       id="path11385-4"
       style="fill:#1a1a1a;stroke-width:0.548397"
       d="m 157.18902,229.45825 c -2e-5,11.12066 -7.17766,16.33648 -28.21231,16.33648 -21.03466,0 -28.91763,-5.21582 -28.91764,-16.33648 -1e-5,-11.12062 8.23561,-15.95657 29.2703,-15.95657 21.03466,0 27.85967,4.83595 27.85965,15.95657 z"
       sodipodi:nodetypes="sssss"
       inkscape:export-filename="..\Gus veut boire un coup\bank\pnj\tp_1.png"
       inkscape:export-xdpi="7.9113979"
       inkscape:export-ydpi="7.9113979" />
    <path
       id="path11385-4-1"
       style="fill:#1a1a1a;stroke-width:0.548397"
       d="m 97.548825,232.80347 c -2e-5,11.12066 -7.242651,16.33648 -28.467753,16.33648 -21.225112,0 -29.179452,-5.21582 -29.179462,-16.33648 -9e-6,-11.12062 8.31018,-15.95657 29.53532,-15.95657 21.225111,0 28.111915,4.83595 28.111895,15.95657 z"
       sodipodi:nodetypes="sssss" />
    <path
       id="path6217"
       style="fill:#ffd42a;stroke-width:0.398876"
       d="m 63.509439,127.44029 c 0,49.76796 4.438778,41.34011 -26.330447,42.06243 -21.847122,0.51283 -19.047556,2.82087 -19.047556,-29.57939 0,-22.63092 10.668097,-42.062386 25.210001,-42.062416 14.541905,0 20.168002,6.948446 20.168002,29.579376 z"
       sodipodi:nodetypes="sssss" />
    <path
       id="rect8523"
       style="fill:#ffd42a;stroke-width:0.376887"
       d="m 24.072347,112.4033 134.070873,3.08553 6.47565,73.48167 -125.899826,1.80535 z"
       sodipodi:nodetypes="ccccc" />
    <path
       id="rect6053"
       style="fill:#005500;stroke:none;stroke-width:0.264583"
       d="m 35.544042,189.18834 72.608758,-2.84497 -11.638509,41.02879 c -23.201129,3.9637 -40.523255,5.6004 -54.763036,-0.77591 z"
       sodipodi:nodetypes="ccccc" />
    <path
       id="rect782-1"
       style="opacity:0.99;fill:#ffffff;stroke-width:0.1"
       d="m 136.21768,100.42352 h -21.46957 v 87.19298 l 21.28982,0.83419 z M 37.24815,136.156 Z"
       sodipodi:nodetypes="ccccc" />
    <path
       id="rect6053-1"
       style="fill:#005500;stroke:none;stroke-width:0.264583"
       d="m 161.44385,187.38299 -57.16187,-1.03962 c -19.588977,14.24248 -3.22042,26.68911 -4.14327,39.99934 25.49269,3.9637 41.11205,2.75543 56.75828,-3.62088 z"
       sodipodi:nodetypes="ccccc" />
    <ellipse
       style="fill:#ffb380;stroke-width:0.148273"
       id="path9819-9-5"
       cx="106.34477"
       cy="172.69113"
       rx="5.6022215"
       ry="5.1560364" />
    <path
       id="rect782"
       style="opacity:0.99;fill:#ffffff;stroke-width:0.1"
       d="m 53.553871,102.16038 h 21.469561 v 87.19298 l -21.289823,0.83419 z m 98.969529,35.73248 z"
       sodipodi:nodetypes="ccccc" />
    <rect
       style="fill:#803300;stroke:none;stroke-width:0.266991;stroke-opacity:1"
       id="rect7412"
       width="5.362155"
       height="148.68987"
       x="-40.413345"
       y="160.62862"
       transform="matrix(0.90372433,-0.42811486,0.59094342,0.80671301,0,0)" />
    <ellipse
       style="fill:#ffb380;stroke-width:0.398876"
       id="path9819-5"
       cx="100.74255"
       cy="187.6165"
       rx="14.005556"
       ry="14.925369" />
    <ellipse
       style="fill:#ffb380;stroke-width:0.148273"
       id="path9819-9"
       cx="50.421745"
       cy="137.34445"
       rx="5.6022215"
       ry="5.1560364" />
    <ellipse
       style="fill:#ffb380;stroke-width:0.398876"
       id="path9819"
       cx="55.046974"
       cy="152.02216"
       rx="14.005556"
       ry="14.925369" />
    <path
       id="path6217-4"
       style="fill:#ffd42a;stroke-width:0.378879"
       d="m 129.47548,142.32444 c -11.52156,32.39418 -26.24119,7.92658 -23.13071,35.52273 3.50619,31.10678 59.16621,5.49638 59.16621,-26.90389 0,-22.63091 -5.78477,-43.52544 -18.9052,-43.52545 -13.12043,0 -9.54661,13.58416 -17.1303,34.90661 z"
       sodipodi:nodetypes="sssss" />
    <path
       id="path31-9"
       style="fill:#ffb380;fill-rule:evenodd;stroke-width:0.398876"
       d="m 106.65533,26.181897 c 92.71905,11.831703 58.34992,105.201873 6.05987,115.941203 -3.01474,0.61917 -6.31689,0.0523 -9.42824,0.0971 C -2.9408036,116.05142 52.443895,25.897583 106.65533,26.181897 Z"
       sodipodi:nodetypes="cscc" />
    <path
       id="rect1430"
       style="fill:#28170b;stroke-width:0.210088"
       d="m 65.618225,88.743995 15.089169,-2.668124 13.188121,1.638361 C 80.524507,88.95776 67.171699,89.869199 53.561059,95.4863 53.216038,93.600978 65.406403,90.173745 65.618225,88.743995 Z"
       sodipodi:nodetypes="ccccc"
       inkscape:transform-center-x="5.7192354"
       inkscape:transform-center-y="2.6113719" />
    <path
       id="rect1430-8"
       style="fill:#28170b;stroke-width:0.209404"
       d="m 141.90715,87.576463 -13.50039,-1.846833 -11.73774,2.802995 c 11.94572,0.389651 23.87001,0.41114 36.09754,5.648748 0.27838,-2.123166 -10.64821,-5.030014 -10.85941,-6.60491 z"
       sodipodi:nodetypes="ccccc"
       inkscape:transform-center-x="-5.0385532"
       inkscape:transform-center-y="2.1050994" />
    <path
       id="path2169-5-4"
       style="fill:#ffccaa;stroke-width:0.566042"
       d="m 85.643954,99.930237 c 1.171575,3.167543 -5.804061,5.708653 -12.230732,5.708653 -6.426671,0 -11.930218,-3.84531 -11.636524,-6.092423 0.361433,-2.7654 5.011772,-5.9965 11.636524,-6.09245 6.42597,-0.093 10.844254,2.72769 12.230732,6.47622 z"
       sodipodi:nodetypes="sssss" />
    <path
       id="path2169-5-4-0"
       style="fill:#ffccaa;stroke-width:0.551595"
       d="m 123.21624,99.691487 c -1.11255,3.167553 5.51156,5.708673 11.61438,5.708673 6.10281,0 11.32903,-3.84533 11.05013,-6.092433 -0.34321,-2.76539 -4.7592,-5.9965 -11.05013,-6.09245 -6.10215,-0.093 -10.2978,2.72769 -11.61438,6.47621 z"
       sodipodi:nodetypes="sssss" />
    <ellipse
       style="fill:#784421;stroke-width:0.314342"
       id="path2169-5-1-3"
       cx="74.824081"
       cy="100.05581"
       rx="8.0376024"
       ry="4.9305439" />
    <ellipse
       style="fill:#28170b;stroke-width:0.344829"
       id="path2169"
       ry="3.7418122"
       rx="7.0314322"
       cy="99.882256"
       cx="74.997993" />
    <ellipse
       style="fill:#784421;stroke-width:0.314342"
       id="path2169-5-1"
       cx="133.84398"
       cy="99.944885"
       rx="6.8488708"
       ry="4.9305439" />
    <ellipse
       style="fill:#28170b;stroke-width:0.314342"
       id="path2169-5"
       cx="134.13367"
       cy="100.01575"
       rx="5.8430209"
       ry="3.7418122" />
    <path
       id="path3219-1"
       style="fill:#241c1c;stroke-width:0.398876"
       d="m 114.7969,116.25637 c 0,0.58288 -0.17421,0.47972 -3.36492,0.47972 -3.19083,0 -2.3491,0.008 -2.34911,-0.57565 -1e-5,-0.58289 -0.46082,-0.67161 2.73003,-0.67161 3.19086,0 2.98402,0.18468 2.984,0.76754 z"
       sodipodi:nodetypes="sssss" />
    <path
       id="path3219-1-0"
       style="fill:#241c1c;stroke-width:0.398876"
       d="m 104.771,116.81896 c 0,0.58288 -0.17421,0.47972 -3.36492,0.47972 -3.190834,0 -2.349101,0.008 -2.349111,-0.57565 -10e-6,-0.58289 -0.460822,-0.67161 2.730031,-0.67161 3.19086,0 2.98402,0.18468 2.984,0.76754 z"
       sodipodi:nodetypes="sssss" />
    <path
       id="rect12747"
       style="fill:#1c1f24;stroke-width:0.398876"
       d="m 94.966898,130.26224 c 7.511942,-2.05872 12.881302,0.7356 25.954322,-2.26305 l 0.60976,1.49956 c -2.68124,-0.0163 -10.42191,3.9527 -25.029046,1.34117 z"
       sodipodi:nodetypes="ccccc" />
    <path
       id="rect409"
       style="opacity:0.99;fill:#e6e6e6;stroke-width:0.0999996"
       d="m 110.11116,257.94966 c 20.22281,-11.90562 34.05962,-10.74931 49.24554,-12.35251 9.77392,13.34848 21.82263,25.89018 22.92323,42.31485 -3.89321,10.98379 -15.8768,9.47244 -28.98163,6.2294 -17.69013,-11.85205 -28.86162,-24.12331 -43.18714,-36.19174 z"
       sodipodi:nodetypes="ccccc" />
    <path
       id="rect560"
       style="opacity:0.99;fill:#cccccc;stroke-width:0.0999996"
       d="m 125.17571,251.86285 4.01774,-2.25362 39.2231,39.85686 -3.28564,-3.33872 z"
       sodipodi:nodetypes="ccccc" />
    <path
       id="path615"
       style="opacity:0.99;fill:#ffcc00;stroke-width:0.0999997"
       d="M 168.01903,35.759721 C 179.03397,68.81715 132.91185,81.930328 95.241984,79.309983 56.016853,76.581451 20.169539,60.310192 37.196056,35.759721 46.571312,22.241563 66.481771,8.6197036 102.60754,8.6197026 c 36.12576,-10e-7 60.54429,12.5328394 65.41149,27.1400184 z"
       sodipodi:nodetypes="sssss" />
    <path
       id="path615-0"
       style="opacity:0.99;fill:#ffcc00;stroke-width:0.0999997"
       d="M 106.64314,92.543464 C 60.682025,97.686704 50.175214,69.348097 59.448156,46.801194 69.103942,23.323409 96.381554,2.4858836 126.65855,13.832219 c 16.67133,6.2476 31.86973,18.838483 26.34262,40.573991 -5.5271,21.735509 -26.04905,35.864594 -46.35803,38.137254 z"
       sodipodi:nodetypes="sssss" />
    <path
       id="path692"
       style="opacity:0.99;fill:#d4aa00;stroke-width:0.0999997"
       d="m 142.1468,73.797105 c 0,1.919198 -17.12015,4.917401 -40.6109,4.917402 -23.490744,0 -43.461235,-6.911416 -43.461225,-8.830614 0,-1.919198 17.732065,4.558381 41.222811,4.558381 23.490734,0 42.849314,-2.564367 42.849314,-0.645169 z"
       sodipodi:nodetypes="sssss" />
    <path
       id="path692-6"
       style="opacity:0.99;fill:#d4aa00;stroke-width:0.0999997"
       d="m 89.061611,69.528425 c -2.77869,0 -7.11961,-11.824608 -7.11961,-28.049286 0,-16.224678 10.006632,-30.017973 12.785322,-30.017967 2.778691,0 -6.599813,12.247251 -6.599813,28.471929 0,16.224671 3.712802,29.595324 0.934101,29.595324 z"
       sodipodi:nodetypes="sssss" />
    <path
       id="path692-0"
       style="opacity:0.99;fill:#d4aa00;stroke-width:0.0999997"
       d="m 114.65067,67.394169 c -2.77871,0 -1.70757,-10.674687 -1.70757,-26.89937 0,-16.224676 3.64116,-27.418974 6.41986,-27.418967 2.77869,0 0,11.194291 0,27.418967 0,16.224677 -1.93358,26.89937 -4.71229,26.89937 z"
       sodipodi:nodetypes="sssss" />
    <path
       id="path926"
       style="opacity:0.99;fill:#666666;stroke-width:0.1"
       d="m 238.47784,288.22168 c 35.2007,16.99932 11.52899,26.80465 -36.92948,25.23769 -57.5549,-1.86111 -48.389,-7.93831 -36.92949,-25.23769 4.66027,-7.03519 24.36562,-23.57898 45.38113,-23.94452 20.39251,-0.3547 15.92642,17.88312 28.47784,23.94452 z"
       sodipodi:nodetypes="sssss" />
    <path
       id="path981"
       style="opacity:0.99;fill:#4d4d4d;stroke-width:0.1"
       d="m 221.16061,301.16335 c 0,5.34425 -10.866,2.69351 -20.86477,2.69352 -9.99877,-1e-5 -31.35879,0.35344 -31.35879,-4.99081 0,-5.34426 13.2578,1.20893 23.25657,1.20893 9.99877,0 28.96699,-4.25589 28.96699,1.08836 z m -23.54592,-10.50151 c 0,4.0006 22.87797,4.60939 15.62185,4.11536 -2.43705,-0.16593 -5.00575,-0.33348 -7.51963,-0.33348 -9.99877,1e-5 -22.04797,-8.44011 -22.04797,-13.78436 0,-5.34426 3.94698,10.00248 13.94575,10.00248 9.99877,0 0,-5.34425 0,0 z"
       sodipodi:nodetypes="sssssssssss" />
    <path
       id="rect1061"
       style="opacity:0.99;fill:#4d4d4d;stroke-width:0.1"
       d="m 224.71692,270.16537 c -11.92152,14.94251 3.23981,17.84796 11.67446,23.7431 -7.67326,-7.80019 -19.34612,-13.29966 -38.27782,-14.37915 l 15.94017,-3.48524 z"
       sodipodi:nodetypes="ccccc" />
  </g>
</svg>
