<?xml version="1.0" encoding="UTF-8" standalone="no"?>
<!-- Created with Inkscape (http://www.inkscape.org/) -->

<svg
   width="210mm"
   height="297mm"
   viewBox="0 0 210 297"
   version="1.1"
   id="svg20333"
   inkscape:version="1.1 (c68e22c387, 2021-05-23)"
   sodipodi:docname="valise.svg"
   inkscape:export-filename="C:\Users\basti\OneDrive\Bureau\Gus veut boire un coup\bank\pnj\valise.png"
   inkscape:export-xdpi="68.796555"
   inkscape:export-ydpi="68.796555"
   xmlns:inkscape="http://www.inkscape.org/namespaces/inkscape"
   xmlns:sodipodi="http://sodipodi.sourceforge.net/DTD/sodipodi-0.dtd"
   xmlns="http://www.w3.org/2000/svg"
   xmlns:svg="http://www.w3.org/2000/svg">
  <sodipodi:namedview
     id="namedview20335"
     pagecolor="#ffffff"
     bordercolor="#666666"
     borderopacity="1.0"
     inkscape:pageshadow="2"
     inkscape:pageopacity="0.0"
     inkscape:pagecheckerboard="0"
     inkscape:document-units="mm"
     showgrid="false"
     inkscape:zoom="12.356856"
     inkscape:cx="17.237394"
     inkscape:cy="32.330229"
     inkscape:window-width="1920"
     inkscape:window-height="1001"
     inkscape:window-x="-9"
     inkscape:window-y="-9"
     inkscape:window-maximized="1"
     inkscape:current-layer="layer1" />
  <defs
     id="defs20330" />
  <g
     inkscape:label="Calque 1"
     inkscape:groupmode="layer"
     id="layer1">
    <rect
       style="fill:#000000;fill-opacity:1;stroke-width:0.264583"
       id="rect16066-5"
       width="0.27835423"
       height="2.1840103"
       x="7.0766211"
       y="0" />
    <rect
       style="fill:#000000;fill-opacity:1;stroke-width:0.264583"
       id="rect16066"
       width="0.27835423"
       height="2.1840103"
       x="3.0618968"
       y="0.00047969818" />
    <path
       id="rect15437"
       style="stroke-width:0.264583"
       d="M 0.59656531,1.2163593 C 3.7070739,1.107729 6.8455591,1.1389813 9.9962978,1.2314993 10.30916,1.8706161 10.316101,2.4485484 10.44899,3.0516703 L 0,3.2122593 C 0.12794863,2.538096 0.16466299,1.8525284 0.59656531,1.2163593 Z"
       sodipodi:nodetypes="ccccc" />
    <path
       id="rect13451"
       style="fill:#333333;stroke-width:0.264583"
       d="M 0.11776525,2.7197864 C 0.28094814,2.6514948 0.48301071,2.602643 0.76012121,2.5913152 H 9.9779288 l 0.3211782,0.064236 0.149883,0.3961195 v 9.9458103 l -0.05353,0.278355 -0.256942,0.02141 H 0.22482459 L 0.02676483,13.235687 0,12.997481 V 3.2122593 Z"
       sodipodi:nodetypes="ccccccccccccc" />
    <path
       id="rect13451-3"
       style="fill:#1a1a1a;stroke-width:0.264583"
       d="m 0.62612131,3.7013465 c 0.1467825,-0.061873 0.3285372,-0.106132 0.57779709,-0.116395 h 8.2913884 l 0.288899,0.058198 0.134819,0.3588842 v 9.0109043 l -0.04816,0.25219 -0.231119,0.0194 H 0.72242101 l -0.1781542,-0.05577 -0.0240755,-0.215816 V 4.1475269 Z"
       sodipodi:nodetypes="ccccccccccccc" />
    <path
       id="rect14694"
       style="fill:#b3b3b3;stroke-width:0.264583"
       d="M 1.8229439,4.1536111 H 8.6361572 L 9.6397458,13.284528 8.3939097,4.381929 2.0823196,4.3563378 0.72242101,13.284528 Z"
       sodipodi:nodetypes="ccccccc" />
    <rect
       style="fill:#b3b3b3;fill-opacity:1;stroke-width:0.264583"
       id="rect15277"
       width="3.9970851"
       height="0.075702786"
       x="3.0493224"
       y="6.5306654" />
    <rect
       style="fill:#f9f9f9;fill-opacity:1;stroke-width:0.264583"
       id="rect15282"
       width="0.25738788"
       height="0.34823099"
       x="7.0464077"
       y="6.6063681" />
    <rect
       style="fill:#b3b3b3;fill-opacity:1;stroke-width:0.264583"
       id="rect15277-9"
       width="4.658411"
       height="0.075702786"
       x="2.8047535"
       y="9.9039898" />
    <rect
       style="fill:#f9f9f9;fill-opacity:1;stroke-width:0.264583"
       id="rect15282-7"
       width="0.29997322"
       height="0.34823099"
       x="7.4631681"
       y="9.9796925" />
    <rect
       style="fill:#666666;fill-opacity:1;stroke-width:0.264583"
       id="rect15918"
       width="9.7504654"
       height="0.075702377"
       x="0.39973909"
       y="1.7311354" />
    <rect
       style="fill:#666666;fill-opacity:1;stroke-width:0.264583"
       id="rect15918-0"
       width="9.7504654"
       height="0.075702377"
       x="0.41487974"
       y="2.4646983" />
    <rect
       style="fill:#000000;fill-opacity:1;stroke-width:0.264583"
       id="rect16214"
       width="4.2930784"
       height="0.36448139"
       x="3.0618968"
       y="3.7312508e-05" />
    <rect
       style="fill:#aa0000;fill-opacity:1;stroke-width:0.264583"
       id="rect16335"
       width="0.88317692"
       height="1.8609779"
       x="7.131063"
       y="8.2244768"
       transform="rotate(-32.792298)" />
    <rect
       style="fill:#f9f9f9;fill-opacity:1;stroke-width:0.264583"
       id="rect16335-7"
       width="0.88317692"
       height="1.8609779"
       x="10.718711"
       y="1.8982421"
       transform="rotate(6.2379259)" />
  </g>
</svg>
